<svg width="36" height="37" viewBox="0 0 36 37" fill="none" xmlns="http://www.w3.org/2000/svg">
<g opacity="0.8">
<rect x="0.388672" y="0.996826" width="35.2" height="35.2" rx="17.6" fill="black"/>
<path d="M26.9427 14.1671C26.8973 14.0575 26.8205 13.9638 26.7218 13.8978C26.6231 13.8319 26.5071 13.7967 26.3885 13.7966H24.1062C23.7871 13.2538 23.333 12.8027 22.788 12.4873C22.243 12.1719 21.6256 12.0029 20.996 11.9966C20.5269 11.9905 20.0613 12.0782 19.6266 12.2547C19.1918 12.4311 18.7968 12.6928 18.4647 13.0241C18.1229 13.3596 17.8516 13.7599 17.6668 14.2017C17.482 14.6435 17.3874 15.1178 17.3885 15.5966V16.0534C14.369 15.2569 11.8992 12.8006 11.873 12.7744C11.7925 12.6932 11.6905 12.6367 11.5789 12.6115C11.4674 12.5863 11.351 12.5936 11.2434 12.6323C11.1358 12.6711 11.0416 12.7398 10.9717 12.8303C10.9019 12.9209 10.8594 13.0295 10.8492 13.1434C10.526 16.7276 11.567 19.1261 12.4992 20.5069C12.9538 21.1895 13.5068 21.8011 14.1402 22.3219C12.998 23.6366 11.1995 24.3274 11.18 24.3349C11.0953 24.3666 11.0189 24.417 10.9565 24.4824C10.894 24.5478 10.8472 24.6265 10.8194 24.7125C10.7917 24.7985 10.7837 24.8897 10.7961 24.9793C10.8086 25.0688 10.8411 25.1544 10.8912 25.2296C10.9475 25.3136 11.1725 25.6084 11.7222 25.8836C12.4017 26.2241 13.2995 26.3966 14.3885 26.3966C19.6887 26.3966 24.1175 22.3151 24.5697 17.0636L26.813 14.8211C26.8969 14.7372 26.954 14.6302 26.9771 14.5138C27.0002 14.3974 26.9882 14.2768 26.9427 14.1671ZM23.5677 16.3729C23.4649 16.476 23.403 16.613 23.3937 16.7584C23.0885 21.4901 19.1345 25.1966 14.3885 25.1966C13.5965 25.1966 13.0385 25.0916 12.647 24.9656C13.5102 24.4969 14.714 23.6906 15.488 22.5296C15.5334 22.4614 15.5644 22.3845 15.5789 22.3038C15.5935 22.2231 15.5914 22.1403 15.5727 22.0605C15.554 21.9806 15.5191 21.9054 15.4702 21.8396C15.4213 21.7738 15.3595 21.7186 15.2885 21.6776C15.2532 21.6574 11.9952 19.7021 11.9885 14.4776C13.1885 15.4526 15.3822 16.9654 17.8887 17.3869C17.9746 17.4014 18.0627 17.397 18.1467 17.374C18.2307 17.351 18.3087 17.31 18.3753 17.2539C18.4419 17.1977 18.4955 17.1277 18.5323 17.0487C18.5691 16.9698 18.5883 16.8838 18.5885 16.7966V15.5966C18.5878 15.2766 18.6512 14.9596 18.7748 14.6644C18.8985 14.3692 19.0799 14.1017 19.3085 13.8776C19.5276 13.6581 19.7885 13.4847 20.0758 13.3678C20.363 13.2508 20.6708 13.1926 20.981 13.1966C21.9305 13.2086 22.8177 13.7876 23.189 14.6374C23.2358 14.7442 23.3127 14.8351 23.4103 14.8989C23.508 14.9627 23.6221 14.9967 23.7387 14.9966H24.9387L23.5677 16.3729Z" fill="white"/>
</g>
</svg>
