<svg width="90" height="38" viewBox="0 0 90 38" fill="none" xmlns="http://www.w3.org/2000/svg">
<path fill-rule="evenodd" clip-rule="evenodd" d="M7.46513 11.5348L0 19L7.46523 26.4652L14.9305 33.9303L22.3956 26.4651L29.8607 18.9998L22.3955 11.5347L14.9303 4.06958L7.46513 11.5348ZM14.9514 8.57109V10.0627L19.408 14.5185L23.8647 18.9744L25.3577 18.9778C26.1789 18.9796 26.8507 18.9934 26.8507 19.0083C26.8507 19.0511 14.9706 30.9203 14.9278 30.9203C14.8783 30.9203 3.11789 19.1713 3.05267 19.0566C3.0101 18.9819 3.81634 18.1565 8.94297 13.0269C12.2097 9.75812 14.8981 7.08279 14.917 7.08164C14.9359 7.0805 14.9514 7.75076 14.9514 8.57109ZM10.4245 14.5476L5.97214 19.0001L10.4513 23.4791L14.9305 27.9581L19.3913 23.4972C21.8446 21.0437 23.8333 19.0261 23.8105 19.0135C23.7878 19.0009 23.6616 18.9964 23.5302 19.0034C23.3989 19.0104 22.7525 19.0179 22.0939 19.02L20.8965 19.0238L17.9151 22.0051L14.9337 24.9864L11.9392 21.9931L8.94464 18.9999L11.9256 16.0164L14.9065 13.033L14.9108 11.8359C14.9132 11.1776 14.92 10.5249 14.926 10.3856C14.9319 10.2462 14.9233 10.1238 14.9068 10.1136C14.8903 10.1034 12.8733 12.0987 10.4245 14.5476ZM13.437 17.5072L11.9443 19.0005L13.4376 20.4933L14.9309 21.986L16.4237 20.4927L17.9164 18.9994L16.4231 17.5066L14.9298 16.0139L13.437 17.5072Z" fill="black"/>
<path d="M45.5077 17L40.6543 5.42519L40.9657 4.72924H41.3503L46.515 17H45.5077ZM35.7826 17L40.1415 6.65227L40.6177 7.80609L38.3284 13.2638H42.9253L43.2733 14.1246H37.9621L36.7716 17H35.7826ZM49.9776 4.91238V15.1869H49.0252V4.91238H49.9776ZM55.9298 16.1392V17H49.0252V16.1392H55.9298ZM67.3833 7.6962C66.3577 6.30429 65.0024 5.60834 63.2808 5.60834C62.4017 5.60834 61.5959 5.8098 60.8633 6.17609C60.1307 6.54238 59.508 7.03687 59.0318 7.62294V6.41418C60.1673 5.29699 61.5776 4.72924 63.2625 4.72924C64.2515 4.72924 65.1672 4.94901 66.0097 5.37025C66.8522 5.79148 67.5481 6.37755 68.0975 7.12845L67.3833 7.6962ZM63.2808 17.1831C61.5409 17.1831 60.0758 16.5971 58.867 15.3883C57.6582 14.1979 57.0722 12.7144 57.0722 10.9562C57.0722 9.7108 57.4018 8.61193 58.0795 7.65957V10.9379C58.0795 12.4763 58.574 13.74 59.563 14.7656C60.5519 15.7912 61.7973 16.304 63.2991 16.304C64.2332 16.304 65.094 16.1026 65.8632 15.6814C66.6324 15.2784 67.2551 14.7107 67.7129 13.9964V12.8792H68.6653V14.1612C68.1159 15.1136 67.365 15.8645 66.4126 16.3956C65.4602 16.9267 64.4163 17.1831 63.2808 17.1831ZM63.2625 11.9269V11.0661H68.6653V11.9269H63.2625ZM76.909 4.72924C78.6306 4.72924 80.0957 5.33362 81.3045 6.52407C82.5133 7.73283 83.1176 9.21631 83.1176 10.9745C83.1176 12.2016 82.788 13.3005 82.1286 14.2528V10.9745C82.1286 9.4544 81.6158 8.17238 80.6269 7.14676C79.6379 6.12114 78.3925 5.60834 76.9273 5.60834C76.0482 5.60834 75.2424 5.8098 74.5098 6.17609C73.7772 6.54238 73.1545 7.03687 72.6783 7.62294V6.43249C73.8138 5.29699 75.2241 4.72924 76.909 4.72924ZM71.726 7.65957V10.9379C71.726 12.458 72.2205 13.7217 73.2095 14.7473C74.1984 15.7729 75.4255 16.2857 76.909 16.2857C77.7698 16.2857 78.5756 16.1026 79.3265 15.7363C80.0591 15.37 80.6818 14.8938 81.158 14.2894V15.4982C80.0225 16.6337 78.6122 17.1831 76.9273 17.1831C75.2057 17.1831 73.7406 16.5971 72.5318 15.3883C71.3231 14.1979 70.7187 12.7144 70.7187 10.9379C70.7187 9.7108 71.0483 8.61193 71.726 7.65957Z" fill="white"/>
<path d="M36.2389 34V26.1168H41.0524V26.6782H36.86V34H36.2389ZM37.4811 30.2973V29.7239H40.3477V30.2973H37.4811ZM47.2772 34L44.112 26.4512L44.315 25.9973H44.5658L47.9341 34H47.2772ZM40.9348 34L43.7775 27.2515L44.0881 28.004L42.595 31.5634H45.593L45.82 32.1247H42.3561L41.5798 34H40.9348ZM55.412 34.1194L49.5712 26.6543V25.9973H49.8101L55.6628 33.4506V34.1194H55.412ZM55.6628 32.4353L55.0417 31.6709V26.1168H55.6628V32.4353ZM49.5712 34V27.6695L50.1923 28.4459V34H49.5712ZM63.6423 34L60.477 26.4512L60.6801 25.9973H60.9309L64.2992 34H63.6423ZM57.2998 34L60.1426 27.2515L60.4531 28.004L58.9601 31.5634H61.9581L62.1851 32.1247H58.7212L57.9448 34H57.2998ZM64.1543 26.6782V26.1168H70.5445V26.6782H64.1543ZM67.0328 34V27.2993H67.654V34H67.0328ZM72.0018 34V26.1168H72.6229V34H72.0018ZM81.1758 27.9681C80.5069 27.0365 79.6111 26.5707 78.4645 26.5707C77.8911 26.5707 77.3656 26.702 76.8878 26.9409C76.41 27.1798 76.0039 27.5023 75.6934 27.8845V27.0962C76.4339 26.3676 77.3536 25.9973 78.4525 25.9973C79.1095 25.9973 79.7186 26.1407 80.28 26.4273C80.8294 26.714 81.2833 27.1081 81.6416 27.5979L81.1758 27.9681ZM78.4645 34.1194C77.3417 34.1194 76.3862 33.7372 75.5978 32.9489C74.8095 32.1725 74.4153 31.205 74.4153 30.0464C74.4153 29.2462 74.6303 28.5295 75.0723 27.9084V30.0464C75.0723 31.0378 75.3948 31.862 76.0398 32.5309C76.6848 33.1997 77.497 33.5342 78.4645 33.5342C79.6111 33.5342 80.5189 33.0803 81.1758 32.1486L81.6416 32.5189C81.2833 33.0206 80.8294 33.4028 80.28 33.6894C79.7306 33.9761 79.1214 34.1194 78.4645 34.1194ZM87.5769 27.5979C87.0992 26.917 86.4661 26.5707 85.6778 26.5707C85.2956 26.5707 84.9492 26.6423 84.6386 26.7857V26.1884C84.9372 26.069 85.2836 25.9973 85.6778 25.9973C86.1794 25.9973 86.6333 26.1168 87.0394 26.3437C87.4455 26.5707 87.768 26.8693 88.0308 27.2515L87.5769 27.5979ZM87.4694 33.4625V32.1606C87.4694 31.7067 87.3619 31.3723 87.1469 31.1453C86.9319 30.9303 86.5497 30.6795 86.0122 30.4167L85.1164 29.9867C84.8536 29.8673 84.6386 29.7478 84.4714 29.6523C84.3042 29.5567 84.125 29.4253 83.9339 29.2581C83.7428 29.0909 83.5995 28.8998 83.5039 28.6848C83.4084 28.4698 83.3725 28.2309 83.3725 27.9562C83.3725 27.4068 83.5875 26.9409 84.0175 26.5707V27.789C84.0175 28.0279 84.0414 28.2429 84.1011 28.4101C84.1609 28.5773 84.2684 28.7326 84.4236 28.852C84.5789 28.9834 84.7222 29.079 84.8417 29.1506C84.9611 29.2223 85.1522 29.3178 85.415 29.4373L86.2989 29.8673C86.92 30.1659 87.3739 30.4764 87.6725 30.7989C87.9591 31.1214 88.1144 31.5275 88.1144 32.0172C88.1144 32.6145 87.8994 33.1042 87.4694 33.4625ZM85.6658 34.1194C85.0686 34.1194 84.5192 33.9761 84.0295 33.6775C83.5398 33.3789 83.1456 32.9728 82.835 32.4472L83.3009 32.1009C83.8981 33.0564 84.6864 33.5342 85.6658 33.5342C86.06 33.5342 86.4542 33.4506 86.8483 33.2833V33.8806C86.49 34.0478 86.0958 34.1194 85.6658 34.1194Z" fill="white"/>
</svg>
