<svg width="37" height="38" viewBox="0 0 37 38" fill="none" xmlns="http://www.w3.org/2000/svg">
<rect x="0.588867" y="0.996826" width="36.4111" height="36.0063" rx="18.0032" fill="black"/>
<path d="M13.5 16.0031H9.49996C9.36735 16.0031 9.24018 16.0558 9.14641 16.1496C9.05264 16.2434 8.99996 16.3705 8.99996 16.5031V28.5031C8.99996 28.6358 9.05264 28.7629 9.14641 28.8567C9.24018 28.9505 9.36735 29.0031 9.49996 29.0031H13.5C13.6326 29.0031 13.7597 28.9505 13.8535 28.8567C13.9473 28.7629 14 28.6358 14 28.5031V16.5031C14 16.3705 13.9473 16.2434 13.8535 16.1496C13.7597 16.0558 13.6326 16.0031 13.5 16.0031ZM13 28.0031H9.99996V17.0031H13V28.0031ZM24 16.0031C22.915 16.0031 21.86 16.3611 21 17.0221V16.5031C21 16.3705 20.9473 16.2434 20.8535 16.1496C20.7597 16.0558 20.6326 16.0031 20.5 16.0031H16.5C16.3674 16.0031 16.2402 16.0558 16.1464 16.1496C16.0526 16.2434 16 16.3705 16 16.5031V28.5031C16 28.6358 16.0526 28.7629 16.1464 28.8567C16.2402 28.9505 16.3674 29.0031 16.5 29.0031H20.5C20.6326 29.0031 20.7597 28.9505 20.8535 28.8567C20.9473 28.7629 21 28.6358 21 28.5031V23.0031C21 22.6053 21.158 22.2238 21.4393 21.9425C21.7206 21.6612 22.1021 21.5031 22.5 21.5031C22.8978 21.5031 23.2793 21.6612 23.5606 21.9425C23.8419 22.2238 24 22.6053 24 23.0031V28.5031C24 28.6358 24.0526 28.7629 24.1464 28.8567C24.2402 28.9505 24.3674 29.0031 24.5 29.0031H28.5C28.6326 29.0031 28.7597 28.9505 28.8535 28.8567C28.9473 28.7629 29 28.6358 29 28.5031V21.0031C28.9984 19.6776 28.4711 18.4067 27.5337 17.4694C26.5964 16.532 25.3256 16.0047 24 16.0031ZM28 28.0031H25V23.0031C25 22.3401 24.7366 21.7042 24.2677 21.2354C23.7989 20.7665 23.163 20.5031 22.5 20.5031C21.8369 20.5031 21.201 20.7665 20.7322 21.2354C20.2634 21.7042 20 22.3401 20 23.0031V28.0031H17V17.0031H20V18.2061C19.9999 18.3097 20.0321 18.4107 20.0919 18.4952C20.1518 18.5797 20.2364 18.6436 20.3341 18.6779C20.4318 18.7123 20.5377 18.7155 20.6373 18.687C20.7369 18.6586 20.8252 18.5999 20.89 18.5191C21.4035 17.8682 22.1073 17.3938 22.9034 17.162C23.6994 16.9302 24.548 16.9525 25.3307 17.226C26.1134 17.4994 26.7912 18.0103 27.2697 18.6874C27.7482 19.3645 28.0035 20.1741 28 21.0031V28.0031ZM11.868 9.00515C11.7505 8.99687 11.6325 8.9962 11.515 9.00315C11.1407 8.97768 10.7653 9.02933 10.4118 9.15489C10.0583 9.28044 9.73442 9.47724 9.46011 9.73307C9.18581 9.98891 8.96695 10.2983 8.8171 10.6422C8.66725 10.9861 8.5896 11.3571 8.58896 11.7321C8.58586 12.1033 8.65904 12.4712 8.80396 12.8129C8.94889 13.1546 9.16248 13.463 9.43147 13.7187C9.70047 13.9745 10.0191 14.1723 10.3677 14.2998C10.7163 14.4274 11.0874 14.4819 11.458 14.4601H11.486C11.8441 14.4852 12.2038 14.4395 12.5443 14.3256C12.8848 14.2117 13.1995 14.0319 13.4705 13.7963C13.7415 13.5608 13.9635 13.2742 14.1238 12.9529C14.284 12.6316 14.3794 12.2818 14.4045 11.9236C14.4295 11.5655 14.3838 11.2059 14.2699 10.8653C14.156 10.5248 13.9762 10.2101 13.7407 9.93907C13.5051 9.66806 13.2185 9.4461 12.8972 9.28586C12.5759 9.12562 12.2261 9.03023 11.868 9.00515ZM11.833 13.4631C11.7175 13.4736 11.6012 13.4726 11.486 13.4601H11.458C11.2173 13.4782 10.9755 13.4459 10.748 13.3653C10.5205 13.2847 10.3123 13.1576 10.1367 12.992C9.96116 12.8264 9.82204 12.626 9.72825 12.4036C9.63447 12.1812 9.58809 11.9417 9.59206 11.7004C9.59604 11.4591 9.6503 11.2213 9.75136 11.0021C9.85243 10.7829 9.99808 10.5872 10.179 10.4275C10.36 10.2678 10.5722 10.1476 10.8023 10.0745C11.0323 10.0014 11.275 9.97713 11.515 10.0031C11.9738 9.96098 12.4306 10.1028 12.7848 10.3974C13.1391 10.692 13.3618 11.1153 13.404 11.5741C13.4461 12.033 13.3043 12.4898 13.0097 12.844C12.7151 13.1983 12.2918 13.421 11.833 13.4631Z" fill="white"/>
</svg>
