<svg width="310" height="132" viewBox="0 0 310 132" fill="none" xmlns="http://www.w3.org/2000/svg">
<rect x="0.103027" y="41.0608" width="299.428" height="91.0111" transform="rotate(-7.88184 0.103027 41.0608)" fill="#47D7AC"/>
<path d="M49.9567 95.8439L44.4186 96.6106L52.0753 60.3085L58.1031 59.4741L75.334 92.3307L69.7959 93.0974L56.1023 66.1524L55.8321 66.1898L49.9567 95.8439ZM49.0107 82.174L66.9758 79.6869L67.5835 84.0769L49.6185 86.564L49.0107 82.174ZM80.1837 56.4173L84.9708 90.9966L79.9224 91.6955L75.1352 57.1162L80.1837 56.4173ZM104.057 98.8167C101.997 99.1019 100.187 99.0772 98.6265 98.7426C97.0771 98.4064 95.7738 97.8584 94.7164 97.0985C93.659 96.3386 92.8263 95.4615 92.2183 94.4673L96.3099 92.0768C96.6823 92.53 97.16 92.9974 97.7429 93.4788C98.3386 93.9699 99.1027 94.3517 100.035 94.6241C100.979 94.895 102.149 94.9338 103.545 94.7406C105.458 94.4757 106.975 93.7896 108.095 92.6824C109.217 91.5864 109.637 90.0253 109.357 87.9992L108.651 82.9001L108.33 82.9445C108.103 83.5381 107.749 84.2124 107.268 84.9672C106.799 85.7205 106.103 86.4134 105.181 87.0458C104.259 87.6782 103.004 88.1042 101.417 88.324C99.3687 88.6076 97.4564 88.3847 95.6806 87.6555C93.9144 86.9134 92.4228 85.6687 91.2058 83.9213C89.9985 82.1612 89.2039 79.9022 88.8221 77.1444C88.4403 74.3866 88.5802 71.9581 89.2418 69.8589C89.9146 67.7582 91.0003 66.0706 92.4988 64.7963C93.9957 63.5107 95.7854 62.7237 97.8678 62.4355C99.4774 62.2126 100.815 62.3028 101.88 62.706C102.944 63.0979 103.801 63.6102 104.451 64.243C105.112 64.8742 105.631 65.439 106.01 65.9372L106.382 65.8858L105.8 61.6816L110.747 60.9967L114.417 87.5052C114.725 89.734 114.46 91.6348 113.623 93.2077C112.785 94.7806 111.53 96.0327 109.858 96.964C108.197 97.8937 106.264 98.5113 104.057 98.8167ZM101.952 83.9823C103.404 83.7813 104.584 83.2738 105.493 82.4597C106.411 81.6328 107.04 80.5476 107.382 79.2039C107.734 77.8475 107.785 76.2744 107.538 74.4846C107.296 72.7399 106.824 71.2393 106.123 69.9827C105.421 68.7261 104.518 67.7957 103.413 67.1915C102.307 66.576 101.017 66.3704 99.5421 66.5745C98.0225 66.7849 96.8107 67.3542 95.9067 68.2823C95.0012 69.1993 94.3822 70.3633 94.0499 71.7745C93.7288 73.1841 93.6828 74.7163 93.9119 76.3709C94.1472 78.0706 94.6125 79.5263 95.308 80.7378C96.0034 81.9493 96.9075 82.8452 98.0203 83.4253C99.1444 84.0039 100.455 84.1896 101.952 83.9823ZM132.104 85.0049C129.673 85.3415 127.474 85.0781 125.508 84.2146C123.541 83.3511 121.918 81.9869 120.639 80.122C119.36 78.257 118.535 75.9851 118.164 73.3061C117.791 70.6158 117.967 68.1939 118.69 66.0404C119.412 63.8868 120.603 62.1274 122.261 60.7621C123.919 59.3969 125.963 58.5459 128.395 58.2093C130.826 57.8727 133.025 58.1362 134.992 58.9997C136.958 59.8632 138.582 61.233 139.863 63.1092C141.143 64.9854 141.97 67.2686 142.342 69.9588C142.713 72.6378 142.536 75.0485 141.812 77.1908C141.088 79.3331 139.896 81.0869 138.238 82.4521C136.58 83.8174 134.536 84.6683 132.104 85.0049ZM131.535 80.7646C133.11 80.5464 134.359 79.9492 135.279 78.9729C136.199 77.9965 136.811 76.7818 137.115 75.3287C137.429 73.8741 137.472 72.3138 137.241 70.6479C137.012 68.9932 136.548 67.5087 135.85 66.1943C135.162 64.867 134.241 63.853 133.089 63.1522C131.936 62.4513 130.572 62.2099 128.996 62.4281C127.409 62.6478 126.15 63.2523 125.22 64.2414C124.302 65.229 123.686 66.4557 123.372 67.9216C123.069 69.3747 123.032 70.9286 123.261 72.5833C123.491 74.2492 123.95 75.7402 124.637 77.0561C125.335 78.3705 126.26 79.3725 127.411 80.0621C128.573 80.7502 129.947 80.9843 131.535 80.7646ZM149.756 82.0278L146.166 56.0933L151.046 55.4178L151.616 59.5376L151.886 59.5002C152.166 58.0389 152.847 56.8261 153.929 55.8618C155.021 54.8846 156.327 54.2908 157.847 54.0804C158.162 54.0368 158.535 53.9966 158.966 53.9599C159.408 53.9216 159.755 53.9023 160.008 53.9017L160.676 58.7307C160.466 58.7025 160.097 58.6904 159.57 58.6946C159.041 58.6874 158.518 58.7197 158 58.7914C156.807 58.9566 155.778 59.3571 154.914 59.993C154.06 60.6161 153.424 61.4096 153.007 62.3736C152.588 63.3264 152.456 64.3656 152.612 65.4913L154.805 81.3289L149.756 82.0278ZM168.004 79.5016L164.414 53.5671L169.462 52.8682L173.053 78.8027L168.004 79.5016ZM166.409 49.2125C165.531 49.3341 164.737 49.1458 164.025 48.6477C163.324 48.1369 162.916 47.4706 162.802 46.6489C162.687 45.8159 162.898 45.0639 163.436 44.3929C163.984 43.709 164.697 43.3063 165.575 43.1848C166.453 43.0632 167.243 43.2579 167.944 43.7688C168.656 44.2668 169.069 44.9323 169.185 45.7653C169.298 46.587 169.081 47.3398 168.534 48.0236C167.995 48.6947 167.287 49.091 166.409 49.2125ZM188.36 50.252L188.921 54.3043L174.755 56.2654L174.194 52.2131L188.36 50.252ZM177.133 45.4737L182.181 44.7748L185.578 69.3079C185.713 70.2872 185.962 71.0042 186.323 71.459C186.683 71.9025 187.106 72.1823 187.592 72.2985C188.088 72.4019 188.612 72.4155 189.164 72.3391C189.569 72.283 189.92 72.2058 190.216 72.1074C190.512 72.0091 190.742 71.9313 190.906 71.8742L192.395 75.9184C192.118 76.0715 191.717 76.2417 191.193 76.4291C190.669 76.6277 190.003 76.7887 189.194 76.9122C187.869 77.1186 186.598 77.0536 185.382 76.7173C184.165 76.3809 183.13 75.7441 182.278 74.8067C181.425 73.8693 180.891 72.6182 180.674 71.0536L177.133 45.4737ZM201.009 59.2387L203.141 74.6373L198.092 75.3362L193.305 40.7569L198.286 40.0674L200.067 52.9333L200.388 52.8889C200.803 51.409 201.578 50.1717 202.713 49.177C203.849 48.1823 205.424 47.5455 207.439 47.2665C209.218 47.0203 210.822 47.1711 212.251 47.7189C213.692 48.2651 214.879 49.2136 215.812 50.5644C216.754 51.9023 217.375 53.6519 217.674 55.8131L219.958 72.3092L214.909 73.0081L212.71 57.1199C212.446 55.2176 211.752 53.8108 210.628 52.8995C209.502 51.977 208.067 51.6365 206.322 51.878C205.129 52.0432 204.095 52.4445 203.22 53.082C202.355 53.7178 201.721 54.5628 201.316 55.6169C200.921 56.6582 200.819 57.8655 201.009 59.2387ZM226.694 71.3766L223.104 45.4421L228.153 44.7432L231.743 70.6777L226.694 71.3766ZM225.1 41.0875C224.222 41.2091 223.427 41.0208 222.716 40.5228C222.014 40.0119 221.606 39.3456 221.492 38.5239C221.377 37.6909 221.589 36.9389 222.127 36.2679C222.674 35.584 223.387 35.1813 224.265 35.0598C225.143 34.9382 225.933 35.1329 226.635 35.6438C227.346 36.1418 227.759 36.8074 227.875 37.6403C227.989 38.462 227.772 39.2148 227.224 39.8987C226.686 40.5697 225.978 40.966 225.1 41.0875ZM238.535 69.7374L234.944 43.803L239.79 43.1321L240.375 47.3532L240.695 47.3088C241.038 45.8045 241.767 44.5678 242.883 43.5987C243.998 42.6184 245.411 42.0098 247.122 41.7729C248.855 41.533 250.364 41.7372 251.646 42.3856C252.94 43.0324 253.967 44.026 254.726 45.3664L254.996 45.329C255.424 43.8587 256.256 42.6193 257.493 41.6106C258.728 40.5906 260.28 39.9513 262.149 39.6926C264.502 39.3669 266.523 39.8385 268.213 41.1074C269.914 42.3747 270.97 44.4942 271.382 47.4659L273.789 64.8568L268.741 65.5557L266.399 48.6375C266.156 46.8816 265.501 45.6758 264.435 45.0203C263.369 44.3649 262.172 44.129 260.844 44.3129C259.201 44.5404 257.993 45.2238 257.222 46.3631C256.449 47.4912 256.171 48.8431 256.389 50.419L258.678 66.9488L253.646 67.6454L251.26 50.4064C251.065 48.9994 250.469 47.9289 249.473 47.195C248.476 46.461 247.275 46.1915 245.868 46.3862C244.911 46.5187 244.062 46.8943 243.322 47.513C242.591 48.1189 242.04 48.9008 241.668 49.8586C241.307 50.8149 241.207 51.8783 241.37 53.049L243.583 69.0385L238.535 69.7374Z" fill="white"/>
</svg>
