<svg width="180" height="66" viewBox="0 0 180 66" fill="none" xmlns="http://www.w3.org/2000/svg">
<rect x="0.387207" y="15.2515" width="173.832" height="50.7109" transform="rotate(-5 0.387207 15.2515)" fill="#47D7AC"/>
<path d="M35.4081 47.6399L31.1344 48.0138L29.0697 43.3459L21.5086 44.0075L20.2858 48.9629L16.0719 49.3316L21.5487 28.9768L26.4799 28.5453L35.4081 47.6399ZM22.1684 40.8781L27.8766 40.3786L24.2545 32.0225L22.1684 40.8781ZM40.0701 25.5796L41.5474 42.4651C41.6084 43.1624 41.7706 43.6401 42.0341 43.8981C42.2976 44.1561 42.7083 44.2608 43.2662 44.2119C43.6049 44.1823 43.8821 44.138 44.0977 44.079C44.3117 44 44.5836 43.8959 44.9136 43.7667L44.7903 46.4878C44.469 46.7166 44.0538 46.9035 43.5445 47.0485C43.0568 47.2116 42.5639 47.315 42.0658 47.3585C40.6114 47.4858 39.515 47.2304 38.7765 46.5923C38.0563 45.9326 37.6282 44.8257 37.4922 43.2716L35.9757 25.9378L40.0701 25.5796ZM59.618 26.8808L60.3524 29.7678C60.2727 29.7748 60.183 29.7826 60.0834 29.7913C60.002 29.7784 59.9114 29.7763 59.8118 29.785C58.8953 29.8652 58.2263 30.1345 57.8046 30.593C57.3812 31.0316 57.2009 31.6095 57.2637 32.3268L55.5299 31.7858C55.4602 30.9888 55.5551 30.2377 55.8146 29.5324C56.0724 28.8072 56.4918 28.2084 57.0728 27.7359C57.6738 27.2617 58.4126 26.9863 59.2892 26.9096C59.3291 26.9061 59.3789 26.9018 59.4387 26.8965C59.4984 26.8913 59.5582 26.8861 59.618 26.8808ZM56.0894 42.9997C57.7032 42.8585 58.979 43.0982 59.9166 43.7189C60.8543 44.3395 61.378 45.2774 61.4879 46.5327C61.5872 47.6683 61.3421 48.6534 60.7526 49.488C60.1649 50.3425 59.2907 51.0212 58.1301 51.5243C56.9895 52.0256 55.6421 52.3443 54.0881 52.4802C51.5179 52.7051 49.6037 52.5112 48.3455 51.8985C47.1072 51.2841 46.4376 50.3991 46.3365 49.2435C46.265 48.4266 46.5137 47.7122 47.0825 47.1003C47.6713 46.4867 48.6903 46.0863 50.1395 45.8993L50.0319 46.3906C48.9801 46.3019 48.1536 46.0329 47.5521 45.5836C46.9688 45.1127 46.638 44.4289 46.5595 43.5323C46.4794 42.6158 46.7627 41.8382 47.4095 41.1994C48.0744 40.5389 49.0102 40.1057 50.2169 39.8997L52.0832 40.5797L51.6648 40.6163C50.8133 40.751 50.2213 40.9835 49.8889 41.3137C49.5746 41.6223 49.4331 41.9559 49.4645 42.3145C49.5011 42.7329 49.6884 43.0377 50.0263 43.229C50.3824 43.3986 50.8693 43.4564 51.487 43.4024L56.0894 42.9997ZM53.8722 49.6683C54.9082 49.5777 55.7471 49.414 56.3889 49.1771C57.0507 48.9385 57.5287 48.6658 57.8231 48.359C58.1374 48.0504 58.2797 47.7268 58.2501 47.3881C58.217 47.0095 58.0405 46.7138 57.7207 46.5009C57.4027 46.3078 56.8552 46.2453 56.0782 46.3133L51.0274 46.7552C50.5493 46.797 50.1612 46.9514 49.8634 47.2184C49.5854 47.4836 49.4648 47.8255 49.5014 48.2439C49.5502 48.8017 49.9571 49.2078 50.7222 49.4621C51.5072 49.7146 52.5572 49.7834 53.8722 49.6683ZM52.2522 30.8078C53.6469 30.6857 54.8706 30.7895 55.9233 31.119C56.9942 31.4268 57.8317 31.9358 58.4359 32.6458C59.06 33.3541 59.4183 34.2362 59.5107 35.2922C59.6013 36.3282 59.4008 37.2492 58.9092 38.0551C58.4375 38.8593 57.7019 39.5159 56.7025 40.025C55.7212 40.5123 54.5332 40.817 53.1386 40.9391C50.927 41.1325 49.1943 40.8324 47.9403 40.0387C46.7045 39.2233 46.0187 38.0386 45.8827 36.4845C45.7903 35.4285 45.98 34.4985 46.4517 33.6943C46.9433 32.8884 47.6798 32.2417 48.661 31.7543C49.6405 31.247 50.8376 30.9315 52.2522 30.8078ZM52.4771 33.3779C51.6801 33.4477 51.0418 33.7243 50.5621 34.208C50.0824 34.6916 49.8766 35.322 49.9446 36.099C50.0126 36.876 50.3256 37.471 50.8837 37.884C51.4401 38.277 52.1167 38.4386 52.9137 38.3689C53.7107 38.2991 54.339 38.0233 54.7988 37.5414C55.2767 37.0379 55.4817 36.3976 55.4137 35.6205C55.3457 34.8435 55.0335 34.2585 54.4772 33.8655C53.9407 33.4707 53.274 33.3082 52.4771 33.3779ZM69.3418 29.3126C70.856 29.1801 72.2079 29.373 73.3976 29.8913C74.6073 30.4079 75.5814 31.216 76.3201 32.3158C77.0787 33.4139 77.5294 34.7798 77.6723 36.4136C77.8135 38.0274 77.6068 39.4508 77.0522 40.6839C76.5157 41.8952 75.6967 42.8603 74.5952 43.579C73.5135 44.296 72.2156 44.7208 70.7014 44.8532C69.2071 44.984 67.8551 44.7911 66.6455 44.2745C65.4359 43.758 64.4518 42.9507 63.6932 41.8526C62.9528 40.7329 62.512 39.3661 62.3708 37.7523C62.2279 36.1185 62.4246 34.696 62.9611 33.4846C63.5175 32.2715 64.3464 31.3056 65.448 30.5868C66.5495 29.8681 67.8475 29.4433 69.3418 29.3126ZM69.6085 32.361C68.8513 32.4272 68.2195 32.6632 67.7129 33.0689C67.2246 33.4529 66.8714 34.0058 66.6535 34.7275C66.4355 35.4493 66.3728 36.3381 66.4652 37.3941C66.5575 38.45 66.7737 39.3145 67.1137 39.9874C67.4536 40.6604 67.8983 41.1535 68.4477 41.4668C69.0152 41.7584 69.6776 41.8711 70.4347 41.8049C71.1719 41.7404 71.7847 41.5161 72.273 41.1321C72.7796 40.7264 73.1419 40.1627 73.3598 39.441C73.5777 38.7192 73.6405 37.8304 73.5481 36.7744C73.4557 35.7184 73.2396 34.854 72.8996 34.181C72.5597 33.5081 72.1059 33.0258 71.5383 32.7342C70.9889 32.4209 70.3456 32.2965 69.6085 32.361ZM81.7519 43.5853L80.4446 28.6424L84.001 28.3312L84.5262 31.2365C84.834 30.1656 85.3421 29.3181 86.0504 28.694C86.7786 28.0681 87.7205 27.7047 88.8761 27.6036C89.2148 27.5739 89.5263 27.5768 89.8104 27.6122C90.0946 27.6475 90.3307 27.7072 90.5187 27.7911L90.3412 31.2698C90.135 31.2076 89.8807 31.1696 89.5784 31.1559C89.296 31.1404 88.9256 31.1528 88.4674 31.1929C87.8697 31.2451 87.305 31.4451 86.7732 31.7928C86.2398 32.1205 85.8199 32.599 85.5135 33.228C85.2055 33.8372 85.0906 34.5901 85.1691 35.4867L85.8463 43.2271L81.7519 43.5853ZM94.9265 25.2071C94.0698 25.2821 93.4166 25.1585 92.9668 24.8365C92.5153 24.4946 92.2581 23.965 92.1954 23.2477C92.1309 22.5105 92.2921 21.9443 92.6792 21.5491C93.0644 21.1339 93.6854 20.8889 94.5422 20.8139C95.3989 20.739 96.053 20.8725 96.5046 21.2144C96.9543 21.5364 97.2115 22.066 97.276 22.8032C97.3387 23.5205 97.1774 24.0867 96.7922 24.5018C96.4051 24.8971 95.7833 25.1322 94.9265 25.2071ZM97.147 27.1811L98.4544 42.124L94.36 42.4822L93.0527 27.5393L97.147 27.1811ZM106.377 21.7661L107.658 36.4101C107.721 37.1274 107.946 37.6397 108.335 37.947C108.741 38.2327 109.263 38.3476 109.901 38.2918C110.399 38.2483 110.831 38.1402 111.197 37.9676C111.562 37.7751 111.882 37.5362 112.159 37.2511L113.054 39.9132C112.609 40.3336 112.037 40.6847 111.339 40.9666C110.641 41.2485 109.894 41.4244 109.097 41.4941C108.101 41.5812 107.201 41.5094 106.398 41.2785C105.614 41.0459 104.975 40.62 104.479 40.0009C104.003 39.38 103.717 38.5216 103.621 37.4258L102.382 23.2599L106.377 21.7661ZM111.559 25.9202L111.825 28.9686L100.2 29.9857L99.9332 26.9374L111.559 25.9202ZM115.87 40.6004L113.99 19.1125L118.084 18.7543L118.879 27.8396C119.273 26.8414 119.869 26.0766 120.666 25.5451C121.461 24.9937 122.386 24.6718 123.442 24.5794C124.478 24.4888 125.412 24.6079 126.244 24.9366C127.096 25.2636 127.786 25.8155 128.316 26.5923C128.864 27.3474 129.191 28.3327 129.297 29.548L130.155 39.3506L126.061 39.7088L125.308 31.1017C125.194 29.8066 124.868 28.9418 124.328 28.5072C123.786 28.0527 123.127 27.8594 122.35 27.9274C121.772 27.9779 121.226 28.1662 120.713 28.4922C120.217 28.7965 119.827 29.2723 119.543 29.9196C119.276 30.5452 119.187 31.3561 119.274 32.3523L119.964 40.2422L115.87 40.6004ZM134.94 21.7064C134.083 21.7814 133.43 21.6578 132.98 21.3358C132.528 20.9939 132.271 20.4643 132.209 19.747C132.144 19.0098 132.305 18.4436 132.692 18.0484C133.078 17.6332 133.699 17.3882 134.555 17.3132C135.412 17.2383 136.066 17.3718 136.518 17.7137C136.968 18.0357 137.225 18.5653 137.289 19.3025C137.352 20.0198 137.191 20.586 136.805 21.0011C136.418 21.3964 135.796 21.6315 134.94 21.7064ZM137.16 23.6804L138.468 38.6233L134.373 38.9815L133.066 24.0386L137.16 23.6804ZM142.808 38.2436L141.5 23.3007L145.176 22.9791L145.561 25.6557C145.972 24.616 146.584 23.8096 147.397 23.2365C148.23 22.6617 149.175 22.3281 150.231 22.2357C151.307 22.1416 152.295 22.3061 153.195 22.7293C154.115 23.1507 154.837 23.8303 155.361 24.7682C155.622 24.0829 156.003 23.4975 156.502 23.0121C157.002 22.5267 157.571 22.1457 158.209 21.869C158.848 21.5923 159.505 21.4243 160.183 21.365C161.159 21.2796 162.063 21.4013 162.895 21.7301C163.747 22.0571 164.447 22.5981 164.994 23.3533C165.542 24.1084 165.87 25.1036 165.978 26.3389L166.836 36.1414L162.742 36.4996L161.955 27.504C161.859 26.4082 161.552 25.6521 161.033 25.2356C160.515 24.8192 159.877 24.6441 159.12 24.7104C158.523 24.7627 157.978 24.9609 157.486 25.3051C157.014 25.6475 156.655 26.1307 156.408 26.7545C156.18 27.3567 156.104 28.0962 156.181 28.9728L156.884 37.0121L152.79 37.3703L152.003 28.3747C151.907 27.2789 151.59 26.5236 151.052 26.1089C150.533 25.6925 149.896 25.5174 149.138 25.5837C148.62 25.629 148.115 25.8138 147.621 26.138C147.147 26.4606 146.767 26.9355 146.481 27.5628C146.214 28.1884 146.124 28.9894 146.209 29.9657L146.902 37.8854L142.808 38.2436Z" fill="white"/>
</svg>
