<svg width="819" height="505" viewBox="0 0 819 505" fill="none" xmlns="http://www.w3.org/2000/svg">
<path d="M679.429 94.5114C680.321 73.8835 665.7 56.5937 646.772 55.8936C627.844 55.1935 611.776 71.3482 610.884 91.9762C609.993 112.604 624.614 129.894 643.542 130.594C662.47 131.294 678.537 115.139 679.429 94.5114Z" fill="#EBEBEB"/>
<path d="M669.004 94.2836C668.032 113.07 654.48 128.018 637.762 129.846C639.552 130.249 641.381 130.492 643.222 130.573C662.146 131.472 678.351 115.483 679.421 94.8593C680.492 74.2351 666.023 56.8025 647.098 55.9036C645.448 55.8272 643.793 55.8779 642.152 56.0551C658.302 59.681 669.965 75.6895 669.004 94.2836Z" fill="#E0E0E0"/>
<path d="M401.21 459.947C423.419 457.937 440.567 448.229 439.513 438.264C438.458 428.299 419.6 421.85 397.392 423.861C375.183 425.871 358.035 435.579 359.089 445.544C360.144 455.509 379.002 461.958 401.21 459.947Z" fill="#EBEBEB"/>
<path d="M399.674 454.5C379.406 455.985 362.546 450.46 359.553 441.845C359.234 442.796 359.079 443.788 359.095 444.784C359.28 454.823 377.44 461.651 399.674 460.025C421.907 458.399 439.794 448.965 439.608 438.926C439.59 438.047 439.432 437.176 439.138 436.34C436.201 445.238 419.701 453.066 399.674 454.5Z" fill="#E0E0E0"/>
<path d="M115.185 404.887C126.489 396.13 126.611 379.047 115.458 366.731C104.305 354.416 86.1001 351.532 74.796 360.289C63.4919 369.047 63.3694 386.13 74.5225 398.445C85.6755 410.76 103.881 413.645 115.185 404.887Z" fill="#EBEBEB"/>
<path d="M80.8103 393.698C91.0751 404.808 107.106 408.101 118.342 401.869C117.445 402.901 116.447 403.854 115.361 404.717C104.168 413.585 85.9646 410.868 74.7061 398.657C63.4476 386.446 63.3929 369.317 74.5859 360.449C75.5656 359.675 76.614 358.979 77.72 358.368C69.6501 367.64 70.6875 382.669 80.8103 393.698Z" fill="#E0E0E0"/>
<path d="M76.6175 256.894C76.7836 246.419 70.6413 237.843 62.8984 237.738C55.1555 237.633 48.744 246.039 48.578 256.514C48.4119 266.988 54.5542 275.565 62.2971 275.67C70.04 275.775 76.4515 267.368 76.6175 256.894Z" fill="#EBEBEB"/>
<path d="M52.8445 256.399C52.6152 265.943 57.6493 273.993 64.3979 275.498C63.6798 275.636 62.947 275.697 62.2139 275.68C54.4716 275.467 48.3892 266.802 48.6403 256.328C48.8915 245.854 55.3561 237.532 63.0984 237.744C63.776 237.761 64.4496 237.846 65.1077 237.996C58.3482 239.259 53.0629 246.955 52.8445 256.399Z" fill="#E0E0E0"/>
<path d="M720.294 341.774C714.43 352.015 717.302 364.044 726.726 368.62C736.15 373.195 748.566 368.62 754.408 358.368C760.251 348.117 757.4 336.098 747.987 331.512C738.574 326.927 726.18 331.522 720.294 341.774Z" fill="#EBEBEB"/>
<path d="M749.211 355.894C754.562 346.551 752.64 335.694 745.127 330.421C746.114 330.704 747.072 331.069 747.988 331.512C757.401 336.098 760.284 348.117 754.409 358.368C748.534 368.62 736.14 373.205 726.727 368.65C725.903 368.252 725.117 367.789 724.379 367.266C733.311 369.771 743.915 365.135 749.211 355.894Z" fill="#E0E0E0"/>
<path d="M228.111 92.8594C233.861 77.7002 227.241 61.7515 213.327 57.2371C199.413 52.7227 183.472 61.352 177.723 76.5112C171.973 91.6705 178.592 107.619 192.507 112.134C206.421 116.648 222.362 108.019 228.111 92.8594Z" fill="#EBEBEB"/>
<path d="M183.347 78.1739C178.225 92.021 183.347 106.454 194.922 112.181C193.508 111.995 192.115 111.691 190.761 111.272C176.795 106.898 170.013 91.0716 175.648 75.8307C181.283 60.5898 197.138 51.8533 211.105 56.2165C212.323 56.6041 213.506 57.0803 214.643 57.6406C201.812 55.9741 188.413 64.4581 183.347 78.1739Z" fill="#E0E0E0"/>
<path d="M567.305 83.3554L571.902 85.8804C572.038 85.9579 572.148 86.0676 572.221 86.198C572.294 86.3284 572.328 86.4747 572.319 86.6215C572.31 86.7682 572.259 86.91 572.17 87.032C572.081 87.154 571.959 87.2516 571.815 87.3146L566.945 89.5669C566.792 89.6377 566.664 89.746 566.574 89.88L563.723 94.1826C563.647 94.3111 563.535 94.4182 563.399 94.4929C563.262 94.5675 563.107 94.6069 562.948 94.6069C562.79 94.6069 562.634 94.5675 562.498 94.4929C562.361 94.4182 562.249 94.3111 562.173 94.1826L559.847 89.7386C559.773 89.5982 559.655 89.482 559.508 89.4053L554.922 86.8601C554.787 86.7826 554.677 86.6728 554.604 86.5424C554.53 86.412 554.496 86.2657 554.505 86.119C554.514 85.9722 554.566 85.8304 554.654 85.7085C554.743 85.5865 554.866 85.4889 555.009 85.4259L559.88 83.1736C560.032 83.1028 560.161 82.9944 560.251 82.8605L563.09 78.568C563.168 78.4398 563.281 78.333 563.418 78.2587C563.556 78.1844 563.712 78.1453 563.871 78.1453C564.03 78.1453 564.186 78.1844 564.323 78.2587C564.46 78.333 564.574 78.4398 564.652 78.568L566.978 83.012C567.05 83.1524 567.164 83.2713 567.305 83.3554Z" fill="#E0E0E0"/>
<path d="M122.981 448.854L127.578 451.379C127.713 451.457 127.823 451.566 127.897 451.697C127.97 451.827 128.004 451.974 127.995 452.12C127.986 452.267 127.934 452.409 127.846 452.531C127.757 452.653 127.635 452.75 127.491 452.813L122.621 455.066C122.468 455.136 122.34 455.245 122.249 455.379L119.399 459.681C119.318 459.808 119.202 459.911 119.063 459.981C118.923 460.052 118.766 460.086 118.608 460.081C118.449 460.076 118.295 460.031 118.161 459.952C118.028 459.873 117.92 459.762 117.849 459.631L115.523 455.187C115.446 455.049 115.329 454.933 115.184 454.854L110.598 452.329C110.463 452.251 110.353 452.141 110.279 452.011C110.206 451.881 110.172 451.734 110.181 451.587C110.19 451.441 110.242 451.299 110.33 451.177C110.419 451.055 110.541 450.957 110.685 450.894L115.555 448.632C115.71 448.565 115.84 448.455 115.927 448.319L118.766 444.026C118.842 443.898 118.954 443.791 119.091 443.716C119.227 443.641 119.383 443.602 119.541 443.602C119.7 443.602 119.855 443.641 119.992 443.716C120.128 443.791 120.24 443.898 120.317 444.026L122.653 448.48C122.718 448.633 122.833 448.764 122.981 448.854Z" fill="#E0E0E0"/>
<path d="M528.266 445.854L532.863 448.379C532.998 448.457 533.108 448.567 533.182 448.697C533.255 448.827 533.289 448.974 533.28 449.12C533.271 449.267 533.22 449.409 533.131 449.531C533.042 449.653 532.92 449.751 532.776 449.814L527.906 452.076C527.751 452.143 527.621 452.253 527.534 452.389L524.684 456.682C524.608 456.81 524.496 456.917 524.36 456.992C524.223 457.067 524.068 457.106 523.909 457.106C523.751 457.106 523.595 457.067 523.459 456.992C523.322 456.917 523.21 456.81 523.134 456.682L520.808 452.228C520.731 452.089 520.614 451.974 520.469 451.894L515.883 449.369C515.748 449.292 515.638 449.182 515.565 449.052C515.491 448.921 515.457 448.775 515.466 448.628C515.475 448.481 515.527 448.34 515.615 448.218C515.704 448.096 515.827 447.998 515.97 447.935L520.841 445.683C520.993 445.612 521.122 445.504 521.212 445.37L524.051 441.067C524.129 440.939 524.242 440.832 524.379 440.758C524.517 440.683 524.673 440.644 524.832 440.644C524.991 440.644 525.147 440.683 525.284 440.758C525.421 440.832 525.535 440.939 525.613 441.067L527.939 445.511C528.01 445.652 528.123 445.772 528.266 445.854Z" fill="#E0E0E0"/>
<path d="M728.279 442.208L732.865 444.743C733.001 444.819 733.112 444.927 733.187 445.056C733.261 445.185 733.297 445.33 733.289 445.477C733.281 445.623 733.23 445.764 733.142 445.886C733.054 446.008 732.932 446.105 732.789 446.167L727.907 448.44C727.755 448.51 727.626 448.619 727.536 448.753L724.697 453.046C724.621 453.174 724.508 453.281 724.372 453.356C724.236 453.43 724.08 453.47 723.922 453.47C723.763 453.47 723.608 453.43 723.471 453.356C723.335 453.281 723.223 453.174 723.146 453.046L720.809 448.602C720.741 448.459 720.626 448.339 720.482 448.258L715.895 445.733C715.76 445.656 715.649 445.547 715.575 445.418C715.501 445.288 715.466 445.142 715.474 444.995C715.482 444.848 715.532 444.706 715.62 444.584C715.707 444.461 715.829 444.363 715.972 444.299L720.842 442.047C720.995 441.976 721.123 441.867 721.214 441.733L724.064 437.431C724.145 437.305 724.261 437.201 724.4 437.131C724.539 437.06 724.697 437.026 724.855 437.031C725.014 437.036 725.168 437.081 725.301 437.16C725.435 437.239 725.543 437.35 725.614 437.481L727.951 441.925C728.029 442.046 728.143 442.144 728.279 442.208Z" fill="#E0E0E0"/>
<path d="M238.287 132.31L242.873 134.835C243.008 134.912 243.119 135.021 243.193 135.15C243.267 135.28 243.302 135.426 243.295 135.573C243.287 135.72 243.236 135.862 243.149 135.984C243.061 136.107 242.939 136.205 242.796 136.269L237.915 138.531C237.762 138.602 237.634 138.71 237.544 138.845L234.705 143.137C234.628 143.266 234.516 143.373 234.38 143.447C234.244 143.522 234.088 143.561 233.929 143.561C233.771 143.561 233.615 143.522 233.479 143.447C233.343 143.373 233.23 143.266 233.154 143.137L230.817 138.683C230.745 138.545 230.631 138.429 230.49 138.35L225.903 135.825C225.768 135.748 225.657 135.639 225.583 135.509C225.509 135.379 225.474 135.233 225.482 135.087C225.489 134.94 225.54 134.798 225.627 134.675C225.715 134.553 225.837 134.454 225.98 134.39L230.861 132.138C231.008 132.064 231.132 131.956 231.221 131.825L234.071 127.522C234.148 127.394 234.26 127.287 234.396 127.212C234.533 127.138 234.688 127.098 234.847 127.098C235.005 127.098 235.161 127.138 235.297 127.212C235.434 127.287 235.546 127.394 235.622 127.522L237.959 131.966C238.027 132.11 238.141 132.23 238.287 132.31Z" fill="#E0E0E0"/>
<path d="M267.605 46.9953L272.192 49.5203C272.327 49.5978 272.437 49.7075 272.51 49.8379C272.583 49.9683 272.617 50.1146 272.608 50.2614C272.599 50.4081 272.548 50.5499 272.459 50.6719C272.37 50.7938 272.248 50.8915 272.104 50.9545L267.234 53.2169C267.079 53.2843 266.95 53.3934 266.863 53.53L264.023 57.8225C263.946 57.9507 263.832 58.0574 263.695 58.1317C263.558 58.206 263.402 58.2452 263.243 58.2452C263.084 58.2452 262.928 58.206 262.79 58.1317C262.653 58.0574 262.54 57.9507 262.462 57.8225L260.136 53.3684C260.06 53.2326 259.947 53.1176 259.808 53.0351L255.211 50.5C255.076 50.4224 254.966 50.3127 254.893 50.1823C254.819 50.0519 254.785 49.9056 254.794 49.7589C254.803 49.6121 254.855 49.4703 254.944 49.3484C255.032 49.2264 255.155 49.1288 255.298 49.0658L260.169 46.8135C260.321 46.7427 260.45 46.6343 260.54 46.5004L263.39 42.1978C263.466 42.0693 263.579 41.9621 263.715 41.8875C263.851 41.8128 264.007 41.7734 264.165 41.7734C264.324 41.7734 264.479 41.8128 264.616 41.8875C264.752 41.9621 264.864 42.0693 264.941 42.1978L267.267 46.6418C267.337 46.7896 267.455 46.9133 267.605 46.9953Z" fill="#E0E0E0"/>
<path d="M118.897 84.1531L121.212 85.4358C121.283 85.4714 121.342 85.524 121.383 85.588C121.424 85.652 121.445 85.725 121.445 85.7994C121.445 85.8738 121.424 85.9469 121.383 86.0108C121.342 86.0748 121.283 86.1274 121.212 86.163L118.744 87.3144C118.668 87.3478 118.604 87.4003 118.558 87.4659L117.117 89.6475C117.077 89.7126 117.019 89.7667 116.949 89.8044C116.879 89.842 116.799 89.8618 116.718 89.8618C116.637 89.8618 116.558 89.842 116.488 89.8044C116.418 89.7667 116.36 89.7126 116.32 89.6475L115.14 87.3952C115.104 87.3249 115.048 87.2654 114.977 87.2235L112.64 85.9408C112.569 85.9052 112.51 85.8526 112.469 85.7886C112.428 85.7247 112.406 85.6516 112.406 85.5772C112.406 85.5028 112.428 85.4297 112.469 85.3658C112.51 85.3018 112.569 85.2492 112.64 85.2136L115.119 84.0622C115.195 84.0289 115.259 83.9763 115.304 83.9107L116.746 81.7291C116.784 81.6638 116.841 81.6092 116.91 81.5712C116.979 81.5332 117.058 81.5132 117.139 81.5132C117.219 81.5132 117.298 81.5332 117.367 81.5712C117.437 81.6092 117.493 81.6638 117.532 81.7291L118.722 83.9814C118.757 84.0554 118.819 84.1161 118.897 84.1531Z" fill="#E0E0E0"/>
<path d="M378.588 71.71L380.914 72.9927C380.985 73.0283 381.044 73.0809 381.085 73.1449C381.126 73.2088 381.148 73.2819 381.148 73.3563C381.148 73.4307 381.126 73.5037 381.085 73.5677C381.044 73.6317 380.985 73.6843 380.914 73.7199L378.446 74.8612C378.367 74.8951 378.302 74.9518 378.261 75.0228L376.743 77.2044C376.704 77.2697 376.647 77.3243 376.578 77.3623C376.509 77.4003 376.43 77.4203 376.35 77.4203C376.269 77.4203 376.19 77.4003 376.121 77.3623C376.052 77.3243 375.995 77.2697 375.956 77.2044L374.777 74.9521C374.741 74.8818 374.684 74.8222 374.613 74.7804L372.276 73.4977C372.206 73.4621 372.147 73.4095 372.106 73.3455C372.065 73.2815 372.043 73.2085 372.043 73.1341C372.043 73.0597 372.065 72.9866 372.106 72.9227C372.147 72.8587 372.206 72.8061 372.276 72.7705L374.755 71.6292C374.832 71.5918 374.896 71.5359 374.941 71.4676L376.382 69.286C376.421 69.2206 376.478 69.1661 376.547 69.1281C376.616 69.0901 376.695 69.0701 376.775 69.0701C376.856 69.0701 376.935 69.0901 377.004 69.1281C377.073 69.1661 377.13 69.2206 377.169 69.286L378.348 71.5484C378.408 71.6244 378.492 71.6809 378.588 71.71Z" fill="#E0E0E0"/>
<path d="M594.605 57.5699L596.942 58.8526C597.013 58.8883 597.072 58.9408 597.113 59.0048C597.154 59.0688 597.176 59.1418 597.176 59.2162C597.176 59.2907 597.154 59.3637 597.113 59.4277C597.072 59.4917 597.013 59.5442 596.942 59.5798L594.464 60.7211C594.387 60.7586 594.323 60.8144 594.278 60.8827L592.836 63.0643C592.798 63.1297 592.741 63.1842 592.672 63.2222C592.603 63.2602 592.524 63.2803 592.443 63.2803C592.363 63.2803 592.284 63.2602 592.215 63.2222C592.146 63.1842 592.089 63.1297 592.05 63.0643L590.871 60.8019C590.83 60.7312 590.77 60.6719 590.696 60.6302L588.37 59.3475C588.299 59.3119 588.241 59.2594 588.199 59.1954C588.158 59.1314 588.137 59.0584 588.137 58.9839C588.137 58.9095 588.158 58.8365 588.199 58.7725C588.241 58.7085 588.299 58.656 588.37 58.6203L590.838 57.479C590.917 57.4451 590.982 57.3884 591.024 57.3174L592.476 55.1358C592.515 55.0705 592.571 55.016 592.641 54.978C592.71 54.94 592.789 54.9199 592.869 54.9199C592.95 54.9199 593.029 54.94 593.098 54.978C593.167 55.016 593.224 55.0705 593.262 55.1358L594.442 57.3881C594.476 57.4622 594.533 57.5254 594.605 57.5699Z" fill="#E0E0E0"/>
<path d="M743.796 64.5389L746.122 65.8216C746.193 65.8572 746.252 65.9098 746.293 65.9737C746.334 66.0377 746.356 66.1108 746.356 66.1852C746.356 66.2596 746.334 66.3326 746.293 66.3966C746.252 66.4606 746.193 66.5132 746.122 66.5488L743.654 67.6699C743.578 67.7073 743.514 67.7631 743.469 67.8315L742.027 70.0131C741.987 70.0782 741.929 70.1323 741.859 70.1699C741.789 70.2076 741.709 70.2274 741.628 70.2274C741.548 70.2274 741.468 70.2076 741.398 70.1699C741.328 70.1323 741.27 70.0782 741.23 70.0131L740.051 67.7507C740.014 67.6803 739.958 67.6208 739.887 67.579L737.55 66.2963C737.479 66.2607 737.42 66.2081 737.379 66.1441C737.338 66.0801 737.316 66.0071 737.316 65.9327C737.316 65.8583 737.338 65.7852 737.379 65.7212C737.42 65.6573 737.479 65.6047 737.55 65.5691L740.029 64.4278C740.108 64.3939 740.173 64.3372 740.214 64.2662L741.656 62.0846C741.694 62.0192 741.751 61.9647 741.82 61.9267C741.889 61.8887 741.968 61.8687 742.049 61.8687C742.129 61.8687 742.208 61.8887 742.277 61.9267C742.347 61.9647 742.404 62.0192 742.442 62.0846L743.654 64.3672C743.681 64.4367 743.731 64.4968 743.796 64.5389Z" fill="#E0E0E0"/>
<path d="M477.14 467.458L479.87 468.933C479.952 468.976 480.02 469.039 480.067 469.114C480.114 469.19 480.139 469.275 480.139 469.362C480.139 469.449 480.114 469.535 480.067 469.61C480.02 469.686 479.952 469.748 479.87 469.791L476.998 471.145C476.908 471.189 476.832 471.256 476.78 471.337L475.12 473.892C475.073 473.968 475.005 474.03 474.924 474.074C474.842 474.118 474.75 474.141 474.656 474.141C474.562 474.141 474.469 474.118 474.388 474.074C474.306 474.03 474.238 473.968 474.192 473.892L472.794 471.266C472.746 471.188 472.679 471.123 472.597 471.074L469.856 469.6C469.774 469.558 469.706 469.496 469.659 469.422C469.611 469.347 469.586 469.262 469.586 469.175C469.586 469.089 469.611 469.004 469.659 468.929C469.706 468.855 469.774 468.793 469.856 468.751L472.728 467.388C472.818 467.347 472.894 467.284 472.947 467.206L474.607 464.64C474.653 464.565 474.721 464.502 474.802 464.458C474.884 464.415 474.976 464.392 475.071 464.392C475.165 464.392 475.257 464.415 475.339 464.458C475.42 464.502 475.488 464.565 475.535 464.64L476.933 467.266C476.978 467.349 477.051 467.416 477.14 467.458Z" fill="#E0E0E0"/>
<path d="M762.688 284.376L765.429 285.85C765.51 285.892 765.579 285.954 765.626 286.028C765.674 286.103 765.699 286.188 765.699 286.274C765.699 286.361 765.674 286.446 765.626 286.521C765.579 286.595 765.51 286.657 765.429 286.699L762.557 288.062C762.464 288.104 762.388 288.171 762.338 288.254L760.678 290.809C760.632 290.885 760.564 290.948 760.482 290.991C760.401 291.035 760.308 291.058 760.214 291.058C760.12 291.058 760.028 291.035 759.946 290.991C759.865 290.948 759.797 290.885 759.75 290.809L758.352 288.183C758.307 288.101 758.234 288.034 758.145 287.991L755.415 286.517C755.333 286.475 755.265 286.413 755.217 286.339C755.17 286.264 755.145 286.179 755.145 286.093C755.145 286.006 755.17 285.921 755.217 285.846C755.265 285.772 755.333 285.71 755.415 285.668L758.287 284.305C758.377 284.26 758.452 284.194 758.505 284.113L760.165 281.558C760.212 281.482 760.28 281.419 760.361 281.376C760.443 281.332 760.535 281.309 760.629 281.309C760.723 281.309 760.816 281.332 760.897 281.376C760.979 281.419 761.046 281.482 761.093 281.558L762.491 284.184C762.536 284.264 762.604 284.33 762.688 284.376Z" fill="#E0E0E0"/>
<path d="M57.9321 306.858L60.1161 308.06C60.182 308.094 60.2368 308.144 60.275 308.205C60.3132 308.265 60.3333 308.334 60.3333 308.404C60.3333 308.473 60.3132 308.542 60.275 308.602C60.2368 308.663 60.182 308.713 60.1161 308.747L57.7792 309.828C57.7086 309.864 57.6486 309.916 57.6045 309.979L56.2395 311.999C56.2024 312.06 56.1485 312.111 56.0833 312.146C56.018 312.181 55.9438 312.2 55.8682 312.2C55.7926 312.2 55.7183 312.181 55.6531 312.146C55.5878 312.111 55.5339 312.06 55.4969 311.999L54.4049 309.868C54.3652 309.803 54.309 309.747 54.2411 309.706L52.0571 308.494C51.9912 308.46 51.9363 308.41 51.8981 308.35C51.86 308.29 51.8398 308.221 51.8398 308.151C51.8398 308.081 51.86 308.012 51.8981 307.952C51.9363 307.892 51.9912 307.842 52.0571 307.808L54.394 306.727C54.4692 306.696 54.5308 306.643 54.5687 306.575L55.9337 304.555C55.9681 304.492 56.0211 304.438 56.0867 304.4C56.1523 304.363 56.2279 304.343 56.305 304.343C56.3821 304.343 56.4577 304.363 56.5233 304.4C56.5888 304.438 56.6418 304.492 56.6763 304.555L57.7683 306.687C57.8099 306.753 57.8656 306.812 57.9321 306.858Z" fill="#E0E0E0"/>
<path d="M290.135 457.045L292.319 458.257C292.385 458.291 292.44 458.341 292.478 458.402C292.516 458.462 292.536 458.531 292.536 458.601C292.536 458.67 292.516 458.739 292.478 458.799C292.44 458.86 292.385 458.91 292.319 458.944L289.982 460.025C289.91 460.059 289.849 460.111 289.808 460.176L288.443 462.196C288.406 462.257 288.352 462.308 288.286 462.343C288.221 462.378 288.147 462.397 288.071 462.397C287.996 462.397 287.921 462.378 287.856 462.343C287.791 462.308 287.737 462.257 287.7 462.196L286.608 460.065C286.568 460 286.512 459.944 286.444 459.903L284.26 458.691C284.194 458.657 284.139 458.607 284.101 458.547C284.063 458.487 284.043 458.418 284.043 458.348C284.043 458.278 284.063 458.209 284.101 458.149C284.139 458.089 284.194 458.039 284.26 458.005L286.597 456.924C286.672 456.893 286.734 456.84 286.772 456.772L288.137 454.752C288.174 454.691 288.228 454.641 288.293 454.605C288.358 454.57 288.433 454.552 288.508 454.552C288.584 454.552 288.658 454.57 288.723 454.605C288.788 454.641 288.842 454.691 288.879 454.752L289.971 456.884C290.008 456.951 290.065 457.007 290.135 457.045Z" fill="#E0E0E0"/>
<path d="M708.796 407.636L710.98 408.848C711.046 408.882 711.101 408.932 711.139 408.992C711.177 409.053 711.197 409.121 711.197 409.191C711.197 409.261 711.177 409.33 711.139 409.39C711.101 409.451 711.046 409.501 710.98 409.535L708.643 410.615C708.571 410.649 708.51 410.702 708.469 410.767L707.104 412.787C707.067 412.848 707.013 412.899 706.947 412.934C706.882 412.969 706.808 412.988 706.732 412.988C706.657 412.988 706.582 412.969 706.517 412.934C706.452 412.899 706.398 412.848 706.361 412.787L705.269 410.656C705.237 410.589 705.184 410.533 705.116 410.494L702.932 409.282C702.866 409.248 702.811 409.198 702.773 409.138C702.735 409.077 702.715 409.009 702.715 408.939C702.715 408.869 702.735 408.8 702.773 408.74C702.811 408.68 702.866 408.63 702.932 408.595L705.269 407.515C705.344 407.484 705.406 407.431 705.444 407.363L706.809 405.343C706.846 405.282 706.9 405.232 706.965 405.196C707.03 405.161 707.104 405.142 707.18 405.142C707.256 405.142 707.33 405.161 707.395 405.196C707.46 405.232 707.514 405.282 707.551 405.343L708.643 407.464C708.675 407.534 708.728 407.594 708.796 407.636Z" fill="#E0E0E0"/>
<path d="M662.342 455.611L664.526 456.823C664.592 456.857 664.647 456.907 664.685 456.967C664.723 457.028 664.743 457.096 664.743 457.166C664.743 457.236 664.723 457.305 664.685 457.365C664.647 457.426 664.592 457.476 664.526 457.51L662.189 458.59C662.114 458.621 662.052 458.675 662.015 458.742L660.65 460.762C660.613 460.823 660.559 460.874 660.493 460.909C660.428 460.944 660.354 460.963 660.278 460.963C660.203 460.963 660.129 460.944 660.063 460.909C659.998 460.874 659.944 460.823 659.907 460.762L658.815 458.631C658.775 458.569 658.719 458.516 658.651 458.479L656.467 457.267C656.401 457.233 656.346 457.183 656.308 457.123C656.27 457.063 656.25 456.994 656.25 456.924C656.25 456.854 656.27 456.785 656.308 456.725C656.346 456.665 656.401 456.615 656.467 456.581L658.804 455.5C658.875 455.463 658.935 455.411 658.979 455.348L660.344 453.328C660.381 453.267 660.435 453.217 660.5 453.181C660.565 453.146 660.64 453.127 660.715 453.127C660.791 453.127 660.865 453.146 660.93 453.181C660.995 453.217 661.049 453.267 661.086 453.328L662.178 455.459C662.22 455.521 662.276 455.573 662.342 455.611Z" fill="#E0E0E0"/>
<path d="M709.31 146.622L711.691 147.935C711.761 147.972 711.82 148.025 711.86 148.09C711.901 148.155 711.923 148.228 711.923 148.303C711.923 148.378 711.901 148.452 711.86 148.516C711.82 148.581 711.761 148.635 711.691 148.672L709.157 149.843C709.081 149.881 709.017 149.937 708.972 150.005L707.487 152.237C707.447 152.302 707.389 152.356 707.319 152.394C707.249 152.432 707.169 152.452 707.088 152.452C707.007 152.452 706.927 152.432 706.857 152.394C706.787 152.356 706.73 152.302 706.689 152.237L705.434 149.904C705.397 149.831 705.336 149.771 705.259 149.732L702.878 148.419C702.805 148.383 702.744 148.329 702.702 148.263C702.659 148.198 702.637 148.122 702.637 148.046C702.637 147.969 702.659 147.894 702.702 147.828C702.744 147.762 702.805 147.708 702.878 147.672L705.412 146.51C705.489 146.469 705.553 146.41 705.597 146.339L707.072 144.117C707.111 144.049 707.169 143.993 707.24 143.953C707.311 143.914 707.393 143.893 707.476 143.893C707.559 143.893 707.64 143.914 707.711 143.953C707.782 143.993 707.84 144.049 707.88 144.117L709.092 146.42C709.111 146.465 709.14 146.507 709.178 146.542C709.216 146.577 709.261 146.604 709.31 146.622Z" fill="#E0E0E0"/>
<path d="M633.097 185.042L634.189 185.699C634.223 185.715 634.252 185.739 634.273 185.77C634.293 185.8 634.304 185.835 634.304 185.87C634.304 185.906 634.293 185.941 634.273 185.971C634.252 186.002 634.223 186.026 634.189 186.042L633.031 186.557C632.992 186.573 632.961 186.602 632.944 186.638L632.289 187.648C632.27 187.68 632.242 187.706 632.209 187.724C632.175 187.743 632.137 187.752 632.098 187.752C632.059 187.752 632.02 187.743 631.987 187.724C631.953 187.706 631.925 187.68 631.906 187.648L631.306 186.547C631.286 186.513 631.255 186.485 631.218 186.466L630.126 185.81C630.092 185.794 630.063 185.769 630.043 185.739C630.022 185.709 630.012 185.674 630.012 185.638C630.012 185.603 630.022 185.568 630.043 185.537C630.063 185.507 630.092 185.482 630.126 185.466L631.295 184.951C631.332 184.933 631.362 184.905 631.382 184.871L632.037 183.861C632.055 183.829 632.081 183.802 632.114 183.783C632.147 183.764 632.185 183.754 632.223 183.754C632.262 183.754 632.299 183.764 632.332 183.783C632.365 183.802 632.392 183.829 632.409 183.861L633.02 184.961C633.036 184.995 633.063 185.023 633.097 185.042Z" fill="#47D7AC"/>
<path d="M633.993 337.714L635.085 338.37C635.12 338.386 635.149 338.411 635.169 338.441C635.189 338.471 635.2 338.506 635.2 338.542C635.2 338.578 635.189 338.613 635.169 338.643C635.149 338.673 635.12 338.698 635.085 338.714L633.928 339.229C633.888 339.244 633.857 339.273 633.84 339.31L633.185 340.32C633.166 340.351 633.138 340.377 633.105 340.396C633.071 340.414 633.033 340.424 632.994 340.424C632.955 340.424 632.917 340.414 632.883 340.396C632.849 340.377 632.822 340.351 632.803 340.32L632.202 339.219C632.179 339.187 632.149 339.159 632.115 339.138L631.023 338.492C630.989 338.474 630.96 338.448 630.94 338.417C630.921 338.386 630.91 338.351 630.91 338.315C630.91 338.279 630.921 338.243 630.94 338.212C630.96 338.181 630.989 338.155 631.023 338.138L632.191 337.623C632.225 337.605 632.255 337.581 632.279 337.552L632.923 336.542C632.942 336.511 632.969 336.484 633.003 336.466C633.037 336.448 633.075 336.438 633.114 336.438C633.153 336.438 633.191 336.448 633.225 336.466C633.259 336.484 633.286 336.511 633.305 336.542L633.906 337.643C633.93 337.671 633.96 337.695 633.993 337.714Z" fill="#47D7AC"/>
<path d="M679.345 267.751L681.529 268.963C681.595 268.997 681.65 269.047 681.688 269.108C681.727 269.168 681.747 269.237 681.747 269.307C681.747 269.376 681.727 269.445 681.688 269.505C681.65 269.566 681.595 269.616 681.529 269.65L679.225 270.731C679.149 270.764 679.085 270.816 679.04 270.882L677.686 272.902C677.649 272.963 677.595 273.014 677.529 273.049C677.464 273.084 677.39 273.103 677.314 273.103C677.239 273.103 677.164 273.084 677.099 273.049C677.034 273.014 676.98 272.963 676.943 272.902L675.851 270.781C675.819 270.714 675.766 270.658 675.698 270.62L673.514 269.408C673.448 269.373 673.393 269.323 673.355 269.263C673.317 269.203 673.297 269.134 673.297 269.064C673.297 268.994 673.317 268.926 673.355 268.865C673.393 268.805 673.448 268.755 673.514 268.721L675.851 267.64C675.926 267.609 675.988 267.556 676.026 267.489L677.391 265.469C677.428 265.408 677.482 265.357 677.547 265.321C677.612 265.286 677.686 265.268 677.762 265.268C677.838 265.268 677.912 265.286 677.977 265.321C678.042 265.357 678.096 265.408 678.133 265.469L679.225 267.6C679.248 267.66 679.29 267.713 679.345 267.751Z" fill="#47D7AC"/>
<path d="M620.912 196.475L623.096 197.738C623.162 197.771 623.217 197.82 623.256 197.879C623.295 197.939 623.315 198.007 623.315 198.076C623.315 198.146 623.295 198.214 623.256 198.274C623.217 198.333 623.162 198.382 623.096 198.415L620.836 199.425C620.765 199.461 620.705 199.513 620.661 199.576L619.394 201.596C619.357 201.657 619.303 201.708 619.238 201.743C619.173 201.779 619.098 201.797 619.023 201.797C618.947 201.797 618.873 201.779 618.808 201.743C618.742 201.708 618.689 201.657 618.652 201.596L617.483 199.445C617.443 199.38 617.387 199.324 617.319 199.283L615.135 198.021C615.069 197.987 615.014 197.937 614.976 197.876C614.938 197.816 614.918 197.747 614.918 197.677C614.918 197.607 614.938 197.539 614.976 197.478C615.014 197.418 615.069 197.368 615.135 197.334L617.407 196.324C617.476 196.294 617.533 196.244 617.57 196.183L618.848 194.163C618.884 194.101 618.936 194.05 619.001 194.015C619.065 193.979 619.139 193.96 619.214 193.96C619.289 193.96 619.363 193.979 619.427 194.015C619.491 194.05 619.544 194.101 619.58 194.163L620.759 196.304C620.791 196.373 620.844 196.433 620.912 196.475Z" fill="#47D7AC"/>
<path d="M102.124 255.884L103.794 256.894C103.844 256.919 103.886 256.956 103.916 257.001C103.945 257.047 103.96 257.098 103.96 257.151C103.96 257.204 103.945 257.256 103.916 257.301C103.886 257.346 103.844 257.384 103.794 257.409L102.058 258.156C102.002 258.179 101.956 258.218 101.927 258.267L100.933 259.772C100.906 259.818 100.866 259.857 100.817 259.884C100.768 259.911 100.712 259.925 100.655 259.925C100.598 259.925 100.542 259.911 100.493 259.884C100.444 259.857 100.403 259.818 100.376 259.772L99.5136 258.136C99.4821 258.083 99.4371 258.038 99.3826 258.005L97.7228 256.995C97.6729 256.968 97.6314 256.93 97.6026 256.884C97.5738 256.838 97.5586 256.785 97.5586 256.732C97.5586 256.679 97.5738 256.626 97.6026 256.58C97.6314 256.534 97.6729 256.496 97.7228 256.469L99.4481 255.732C99.5055 255.712 99.5524 255.672 99.5792 255.621L100.573 254.116C100.6 254.07 100.64 254.031 100.689 254.004C100.738 253.977 100.794 253.963 100.851 253.963C100.908 253.963 100.964 253.977 101.013 254.004C101.062 254.031 101.103 254.07 101.13 254.116L102.003 255.752C102.031 255.805 102.072 255.85 102.124 255.884Z" fill="#47D7AC"/>
<path d="M138.289 290.88L139.905 291.739C139.953 291.762 139.994 291.796 140.022 291.839C140.05 291.882 140.065 291.931 140.065 291.981C140.065 292.031 140.05 292.08 140.022 292.123C139.994 292.166 139.953 292.201 139.905 292.224L138.311 292.991C138.261 293.017 138.219 293.056 138.191 293.102L137.339 294.557C137.313 294.601 137.274 294.638 137.227 294.663C137.18 294.689 137.126 294.703 137.072 294.703C137.017 294.703 136.963 294.689 136.916 294.663C136.869 294.638 136.83 294.601 136.804 294.557L135.909 293.052C135.884 293 135.842 292.957 135.788 292.931L134.183 292.082C134.135 292.059 134.095 292.024 134.067 291.982C134.038 291.939 134.023 291.89 134.023 291.84C134.023 291.79 134.038 291.741 134.067 291.698C134.095 291.655 134.135 291.62 134.183 291.597L135.778 290.83C135.825 290.801 135.866 290.763 135.898 290.719L136.749 289.264C136.774 289.22 136.812 289.182 136.858 289.156C136.904 289.13 136.957 289.116 137.011 289.116C137.066 289.116 137.119 289.13 137.165 289.156C137.211 289.182 137.249 289.22 137.274 289.264L138.169 290.769C138.197 290.816 138.239 290.854 138.289 290.88Z" fill="#47D7AC"/>
<path d="M186.665 175.043L188.281 175.902C188.327 175.927 188.364 175.962 188.39 176.005C188.416 176.047 188.43 176.095 188.43 176.144C188.43 176.193 188.416 176.241 188.39 176.283C188.364 176.326 188.327 176.361 188.281 176.386L186.687 177.154C186.636 177.174 186.593 177.21 186.567 177.255L185.704 178.72C185.679 178.764 185.642 178.801 185.596 178.827C185.549 178.854 185.496 178.867 185.442 178.867C185.388 178.867 185.335 178.854 185.289 178.827C185.242 178.801 185.205 178.764 185.18 178.72L184.285 177.205C184.256 177.158 184.215 177.12 184.165 177.093L182.548 176.245C182.501 176.221 182.461 176.185 182.433 176.141C182.405 176.098 182.391 176.048 182.391 175.998C182.391 175.947 182.405 175.897 182.433 175.854C182.461 175.81 182.501 175.775 182.548 175.75L184.143 174.983C184.189 174.96 184.227 174.925 184.252 174.882L185.115 173.417C185.139 173.373 185.177 173.335 185.223 173.309C185.269 173.283 185.322 173.269 185.377 173.269C185.431 173.269 185.484 173.283 185.53 173.309C185.576 173.335 185.614 173.373 185.639 173.417L186.534 174.922C186.571 174.968 186.615 175.009 186.665 175.043Z" fill="#47D7AC"/>
<path d="M312.179 150.49L313.795 151.349C313.843 151.371 313.884 151.406 313.912 151.449C313.94 151.492 313.955 151.541 313.955 151.591C313.955 151.641 313.94 151.69 313.912 151.733C313.884 151.776 313.843 151.81 313.795 151.833L312.201 152.601C312.174 152.611 312.149 152.626 312.129 152.645C312.108 152.664 312.092 152.687 312.081 152.712L311.218 154.166C311.193 154.211 311.156 154.248 311.109 154.274C311.063 154.3 311.01 154.314 310.956 154.314C310.902 154.314 310.849 154.3 310.802 154.274C310.756 154.248 310.719 154.211 310.694 154.166L309.798 152.662C309.774 152.61 309.732 152.567 309.678 152.54L308.062 151.692C308.014 151.669 307.974 151.634 307.945 151.591C307.917 151.549 307.902 151.5 307.902 151.45C307.902 151.399 307.917 151.35 307.945 151.308C307.974 151.265 308.014 151.23 308.062 151.207L309.656 150.44C309.704 150.411 309.745 150.373 309.777 150.328L310.628 148.864C310.655 148.822 310.694 148.787 310.74 148.763C310.786 148.739 310.838 148.727 310.89 148.727C310.943 148.727 310.995 148.739 311.041 148.763C311.087 148.787 311.125 148.822 311.152 148.864L312.048 150.369C312.078 150.42 312.123 150.463 312.179 150.49Z" fill="#47D7AC"/>
<path d="M126.496 296.455L129.696 298.152C129.8 298.196 129.889 298.268 129.951 298.357C130.013 298.447 130.046 298.551 130.046 298.657C130.046 298.763 130.013 298.868 129.951 298.957C129.889 299.047 129.8 299.118 129.696 299.162L126.54 300.687C126.438 300.733 126.354 300.807 126.299 300.899L124.596 303.798C124.552 303.898 124.476 303.984 124.379 304.045C124.282 304.105 124.167 304.137 124.05 304.137C123.933 304.137 123.818 304.105 123.721 304.045C123.624 303.984 123.548 303.898 123.504 303.798L121.724 300.768C121.667 300.672 121.585 300.592 121.484 300.536L118.273 298.839C118.165 298.798 118.072 298.728 118.007 298.638C117.941 298.548 117.906 298.442 117.906 298.334C117.906 298.226 117.941 298.12 118.007 298.03C118.072 297.94 118.165 297.87 118.273 297.829L121.44 296.304C121.537 296.255 121.616 296.181 121.669 296.092L123.373 293.193C123.421 293.096 123.498 293.014 123.594 292.957C123.691 292.899 123.804 292.869 123.919 292.869C124.034 292.869 124.146 292.899 124.243 292.957C124.34 293.014 124.417 293.096 124.465 293.193L126.245 296.223C126.303 296.321 126.39 296.402 126.496 296.455Z" fill="#47D7AC"/>
<path d="M334.816 134.997L338.016 136.694C338.109 136.74 338.187 136.81 338.242 136.894C338.296 136.978 338.325 137.075 338.325 137.173C338.325 137.272 338.296 137.368 338.242 137.453C338.187 137.537 338.109 137.606 338.016 137.653L334.86 139.178C334.76 139.227 334.677 139.3 334.62 139.39L332.916 142.289C332.866 142.375 332.791 142.448 332.699 142.498C332.608 142.548 332.504 142.575 332.397 142.575C332.291 142.575 332.187 142.548 332.096 142.498C332.004 142.448 331.929 142.375 331.879 142.289L330.099 139.259C330.042 139.166 329.959 139.089 329.859 139.037L326.659 137.36C326.554 137.316 326.466 137.245 326.404 137.155C326.342 137.066 326.309 136.961 326.309 136.855C326.309 136.749 326.342 136.645 326.404 136.555C326.466 136.466 326.554 136.394 326.659 136.35L329.826 134.825C329.925 134.779 330.005 134.705 330.055 134.613L331.759 131.714C331.807 131.618 331.883 131.536 331.98 131.478C332.077 131.421 332.19 131.39 332.305 131.39C332.42 131.39 332.532 131.421 332.629 131.478C332.726 131.536 332.803 131.618 332.851 131.714L334.631 134.744C334.669 134.841 334.732 134.928 334.816 134.997Z" fill="#47D7AC"/>
<path d="M289.032 423.19L292.231 424.887C292.325 424.934 292.403 425.003 292.457 425.088C292.512 425.172 292.541 425.268 292.541 425.367C292.541 425.465 292.512 425.562 292.457 425.646C292.403 425.73 292.325 425.8 292.231 425.847L289.065 427.372C288.965 427.418 288.885 427.492 288.835 427.584L287.197 430.482C287.149 430.579 287.072 430.661 286.976 430.719C286.879 430.776 286.766 430.806 286.651 430.806C286.536 430.806 286.424 430.776 286.327 430.719C286.23 430.661 286.153 430.579 286.105 430.482L284.325 427.452C284.269 427.36 284.186 427.283 284.085 427.23L280.886 425.533C280.781 425.489 280.692 425.418 280.63 425.328C280.568 425.239 280.535 425.135 280.535 425.028C280.535 424.922 280.568 424.818 280.63 424.728C280.692 424.639 280.781 424.568 280.886 424.523L284.052 422.998C284.154 422.952 284.238 422.878 284.293 422.786L285.996 419.888C286.047 419.801 286.122 419.729 286.213 419.678C286.304 419.628 286.408 419.602 286.515 419.602C286.621 419.602 286.725 419.628 286.817 419.678C286.908 419.729 286.983 419.801 287.034 419.888L288.813 422.918C288.857 423.026 288.933 423.12 289.032 423.19Z" fill="#47D7AC"/>
<path d="M587.136 370.529L590.336 372.225C590.441 372.27 590.529 372.341 590.591 372.43C590.653 372.52 590.686 372.624 590.686 372.73C590.686 372.837 590.653 372.941 590.591 373.03C590.529 373.12 590.441 373.191 590.336 373.235L587.191 374.71C587.091 374.759 587.008 374.832 586.951 374.922L585.247 377.821C585.203 377.921 585.127 378.007 585.03 378.067C584.933 378.128 584.818 378.16 584.701 378.16C584.584 378.16 584.47 378.128 584.372 378.067C584.275 378.007 584.2 377.921 584.155 377.821L582.375 374.791C582.319 374.698 582.236 374.621 582.135 374.569L578.925 372.872C578.82 372.828 578.732 372.756 578.669 372.667C578.607 372.577 578.574 372.473 578.574 372.367C578.574 372.26 578.607 372.156 578.669 372.067C578.732 371.977 578.82 371.906 578.925 371.862L582.091 370.337C582.191 370.291 582.271 370.216 582.321 370.125L584.024 367.226C584.072 367.129 584.149 367.047 584.246 366.99C584.343 366.932 584.455 366.902 584.57 366.902C584.685 366.902 584.798 366.932 584.895 366.99C584.991 367.047 585.068 367.129 585.116 367.226L586.896 370.256C586.94 370.37 587.025 370.466 587.136 370.529Z" fill="#47D7AC"/>
<path d="M543.074 151.187L545.16 152.298C545.222 152.328 545.274 152.373 545.31 152.428C545.346 152.483 545.365 152.547 545.365 152.611C545.365 152.676 545.346 152.739 545.31 152.794C545.274 152.849 545.222 152.894 545.16 152.924L543.096 153.934C543.033 153.968 542.98 154.017 542.943 154.076L541.851 155.964C541.817 156.021 541.768 156.068 541.707 156.101C541.647 156.134 541.578 156.152 541.507 156.152C541.437 156.152 541.368 156.134 541.308 156.101C541.247 156.068 541.197 156.021 541.163 155.964L540.006 154.015C539.972 153.954 539.919 153.905 539.853 153.874L537.767 152.763C537.705 152.733 537.654 152.688 537.618 152.632C537.582 152.577 537.562 152.514 537.562 152.449C537.562 152.385 537.582 152.322 537.618 152.267C537.654 152.211 537.705 152.166 537.767 152.136L539.831 151.126C539.897 151.095 539.95 151.046 539.984 150.985L541.076 149.096C541.11 149.039 541.16 148.992 541.22 148.959C541.281 148.926 541.35 148.909 541.42 148.909C541.49 148.909 541.559 148.926 541.62 148.959C541.68 148.992 541.73 149.039 541.764 149.096L542.921 151.046C542.955 151.106 543.009 151.156 543.074 151.187Z" fill="#47D7AC"/>
<path d="M639.627 435.394C658.506 419.088 664.631 396.777 653.307 385.562C641.984 374.346 617.5 378.473 598.621 394.779C579.742 411.084 573.617 433.395 584.941 444.61C596.264 455.826 620.748 451.699 639.627 435.394Z" fill="#263238"/>
<path d="M633.526 429.099C616.349 443.986 594.476 448.763 582.137 441.017C582.918 442.325 583.876 443.537 584.987 444.622C596.344 455.813 620.837 451.642 639.696 435.32C658.555 418.999 664.626 396.688 653.27 385.507C652.286 384.528 651.187 383.654 649.994 382.901C657.146 394.809 650.529 414.383 633.526 429.099Z" fill="#455A64"/>
<path d="M312.052 104.683C325.141 100.931 334.074 92.8878 332.007 86.7179C329.939 80.5481 317.653 78.5879 304.565 82.3397C291.477 86.0916 282.543 94.1347 284.611 100.305C286.678 106.474 298.964 108.435 312.052 104.683Z" fill="#263238"/>
<path d="M305.245 85.8502C317.115 82.295 328.559 83.4464 332.304 88.2742C332.276 87.6431 332.143 87.0198 331.911 86.4259C329.52 80.3659 317.016 78.5883 303.978 82.497C290.939 86.4057 282.323 94.4958 284.715 100.566C284.934 101.104 285.227 101.613 285.589 102.081C285.326 96.3138 293.495 89.3953 305.245 85.8502Z" fill="#455A64"/>
<path d="M515.844 146.472C517.87 134.327 491.714 120.515 457.424 115.623C423.134 110.73 393.694 116.609 391.668 128.753C389.642 140.898 415.798 154.71 450.088 159.603C484.379 164.496 513.819 158.617 515.844 146.472Z" fill="#263238"/>
<path d="M457.917 122.523C489.071 127.432 512.517 139.531 513.838 150.682C514.656 149.69 515.26 148.562 515.618 147.359C519.047 135.421 494.127 121.372 459.926 115.988C425.725 110.605 395.258 115.908 391.818 127.846C391.528 128.894 391.443 129.982 391.567 131.058C399.287 121.513 427.1 117.665 457.917 122.523Z" fill="#455A64"/>
<path d="M451.082 135.704C458.912 139.491 464.186 146.642 471.426 151.308C476.231 154.389 482.062 156.52 485.294 161.024C484.978 158.388 483.023 156.197 481.079 154.247C475.588 148.767 469.445 143.878 462.766 139.673C459.338 137.522 455.537 135.481 451.399 135.502" fill="#455A64"/>
<g opacity="0.2">
<path d="M451.082 135.704C458.912 139.491 464.186 146.642 471.426 151.308C476.231 154.389 482.062 156.52 485.294 161.024C484.978 158.388 483.023 156.197 481.079 154.247C475.588 148.767 469.445 143.878 462.766 139.673C459.338 137.522 455.537 135.481 451.399 135.502" fill="#212121"/>
</g>
<path d="M488.339 37.9558C488.311 36.769 487.879 35.6206 487.105 34.6733C485.926 33.4714 483.949 33.3502 482.202 33.4714C474.755 33.9865 465.276 44.1976 460.723 49.6314L461.487 80.0223C481.886 70.1849 490.087 52.52 488.339 37.9558Z" fill="#455A64"/>
<g opacity="0.2">
<path d="M488.339 37.9558C488.311 36.769 487.879 35.6206 487.105 34.6733C485.926 33.4714 483.949 33.3502 482.202 33.4714C474.755 33.9865 465.276 44.1976 460.723 49.6314L461.487 80.0223C481.886 70.1849 490.087 52.52 488.339 37.9558Z" fill="#212121"/>
</g>
<path d="M456.082 100.374C459.885 99.1182 463.793 98.1521 467.766 97.4853C471.654 96.8995 475.552 95.3946 479.385 94.5563C484.343 93.4857 488.973 91.4152 493.734 89.7184C498.495 88.0216 503.562 86.6884 508.64 87.2136C504.83 85.5539 500.653 84.7411 496.442 84.8401C492.25 84.9496 488.074 85.3582 483.95 86.0622C478.206 86.9106 472.353 87.7893 467.155 90.2032C461.957 92.6171 457.163 95.0815 456.082 100.374Z" fill="#455A64"/>
<g opacity="0.2">
<path d="M456.082 100.374C459.885 99.1182 463.793 98.1521 467.766 97.4853C471.654 96.8995 475.552 95.3946 479.385 94.5563C484.343 93.4857 488.973 91.4152 493.734 89.7184C498.495 88.0216 503.562 86.6884 508.64 87.2136C504.83 85.5539 500.653 84.7411 496.442 84.8401C492.25 84.9496 488.074 85.3582 483.95 86.0622C478.206 86.9106 472.353 87.7893 467.155 90.2032C461.957 92.6171 457.163 95.0815 456.082 100.374Z" fill="#212121"/>
</g>
<path d="M429.622 101.404C424.588 94.5763 414.498 92.5866 405.816 90.5969C417.883 100.193 428.744 111.014 438.194 122.856C440.203 117.301 435.999 110.09 429.622 101.404Z" fill="#455A64"/>
<g opacity="0.2">
<path d="M429.622 101.404C424.588 94.5763 414.498 92.5866 405.816 90.5969C417.883 100.193 428.744 111.014 438.194 122.856C440.203 117.301 435.999 110.09 429.622 101.404Z" fill="#212121"/>
</g>
<path d="M436.131 143.814C425.746 141.036 417.184 130.068 406.941 126.977C418.757 126.462 433.532 133.037 436.131 143.814Z" fill="#455A64"/>
<g opacity="0.2">
<path d="M436.131 143.814C425.746 141.036 417.184 130.068 406.941 126.977C418.757 126.462 433.532 133.037 436.131 143.814Z" fill="#212121"/>
</g>
<path d="M446.473 121.644C452.324 121.369 458.157 122.448 463.442 124.786C468.704 127.124 473.748 129.86 478.523 132.967C478.971 129.492 476.776 126.24 474.679 123.321C473.173 121.077 471.44 118.97 469.503 117.029C467.56 115.071 465.051 113.669 462.274 112.989C460.585 112.671 458.844 112.672 457.155 112.991C455.466 113.31 453.865 113.942 452.446 114.847C449.717 116.444 447.624 118.82 446.484 121.614" fill="#455A64"/>
<path d="M436.918 157.035C436.918 157.035 442.072 124.462 447.783 106.535C453.495 88.6073 459.031 68.1548 459.031 68.1548L461.281 68.7204C461.281 68.7204 449.268 104.202 444.529 126.29C439.79 148.379 441.395 158.216 441.395 158.216L436.918 157.136" fill="#455A64"/>
<path d="M486.245 35.6733C486.178 35.7922 486.098 35.904 486.005 36.0066L485.262 36.9257C484.607 37.7034 483.679 38.8548 482.543 40.289C480.272 43.1473 477.269 47.1873 474.277 51.8333C471.285 56.4793 468.893 60.8627 467.266 64.0745C466.447 65.6804 465.803 66.9833 465.366 67.8923C465.159 68.3165 464.995 68.6599 464.853 68.9023C464.804 69.0276 464.738 69.1464 464.656 69.2558C464.685 69.1272 464.729 69.0019 464.787 68.8821C464.896 68.5993 465.049 68.2458 465.235 67.8115C465.617 66.8823 466.229 65.5592 467.015 63.9432C471.129 55.4932 476.257 47.4976 482.303 40.1072C483.46 38.6932 484.432 37.562 485.12 36.8045C485.448 36.451 485.71 36.1581 485.928 35.9359C486.147 35.7137 486.234 35.6632 486.245 35.6733Z" fill="#455A64"/>
<path d="M455.252 84.6482C452.026 81.2524 449.796 77.1478 448.775 72.7269C447.754 68.306 447.976 63.7168 449.421 59.3982C451.376 53.1766 455.634 47.8236 460.068 42.814C460.402 42.3371 460.903 41.9806 461.487 41.804C461.914 41.7876 462.338 41.8717 462.72 42.0483C463.102 42.225 463.43 42.4884 463.671 42.814C468.52 47.864 469.918 55.1158 469.568 61.8828C469.448 66.4088 468.314 70.8625 466.238 74.9623C463.821 79.1945 459.991 82.5917 455.318 84.6482" fill="#455A64"/>
<path d="M455.254 84.6482C455.278 84.5174 455.314 84.389 455.363 84.2644C455.461 83.9816 455.582 83.6281 455.734 83.2039C456.073 82.2848 456.532 80.9415 457.056 79.275C458.404 74.9305 459.473 70.5157 460.255 66.0541C461.162 60.8223 461.697 56.045 462.057 52.5908C462.232 50.894 462.385 49.5608 462.483 48.5508C462.541 48.0929 462.585 47.7192 462.614 47.4297C462.614 47.1772 462.669 47.0459 462.69 47.0459C462.704 47.1769 462.704 47.3088 462.69 47.4398C462.69 47.7327 462.69 48.1064 462.69 48.5609C462.636 49.5709 462.538 50.9344 462.385 52.6615C462.09 56.1258 461.609 60.9132 460.681 66.1652C459.921 70.6403 458.827 75.0612 457.405 79.3962C456.837 81.0627 456.313 82.4262 455.964 83.2948C455.789 83.719 455.636 84.0624 455.527 84.3048C455.455 84.4314 455.363 84.5472 455.254 84.6482Z" fill="#263238"/>
<g opacity="0.2">
<path d="M446.473 121.644C452.324 121.369 458.157 122.448 463.442 124.786C468.704 127.124 473.748 129.86 478.523 132.967C478.971 129.492 476.776 126.24 474.679 123.321C473.173 121.077 471.44 118.97 469.503 117.029C467.56 115.071 465.051 113.669 462.274 112.989C460.585 112.671 458.844 112.672 457.155 112.991C455.466 113.31 453.865 113.942 452.446 114.847C449.717 116.444 447.624 118.82 446.484 121.614" fill="#212121"/>
</g>
<path d="M471.938 148.177C471.938 148.177 471.829 148.106 471.643 147.955C471.457 147.803 471.174 147.561 470.857 147.298C470.191 146.713 469.23 145.854 468.007 144.834C467.406 144.319 466.729 143.763 465.987 143.188C465.244 142.612 464.469 141.986 463.617 141.36C461.796 139.982 459.852 138.749 457.807 137.673C455.791 136.566 453.511 135.935 451.168 135.835C450.145 135.791 449.119 135.815 448.1 135.906C447.215 136.008 446.342 136.181 445.49 136.421C444.254 136.771 443.072 137.266 441.973 137.895C441.198 138.34 440.794 138.633 440.772 138.612C440.75 138.592 440.86 138.521 441.045 138.37C441.317 138.157 441.602 137.958 441.897 137.774C442.984 137.094 444.167 136.557 445.413 136.178C446.273 135.915 447.158 135.725 448.056 135.613C449.092 135.501 450.137 135.468 451.179 135.512C453.581 135.595 455.923 136.231 457.993 137.36C460.061 138.442 462.02 139.692 463.846 141.097C464.687 141.743 465.484 142.359 466.205 142.965C466.926 143.571 467.592 144.117 468.192 144.652C469.394 145.662 470.322 146.581 470.966 147.197L471.698 147.904C471.786 147.989 471.866 148.08 471.938 148.177Z" fill="#455A64"/>
<path d="M429.756 137.087C429.973 137.17 430.175 137.283 430.356 137.421C430.879 137.763 431.378 138.134 431.852 138.532C433.428 139.849 434.786 141.373 435.882 143.057C436.974 144.736 437.787 146.557 438.295 148.46C438.45 149.035 438.566 149.619 438.644 150.207C438.683 150.425 438.683 150.646 438.644 150.864C438.579 150.864 438.426 149.955 437.989 148.531C436.839 144.797 434.643 141.41 431.623 138.714C430.52 137.683 429.712 137.138 429.756 137.087Z" fill="#455A64"/>
<path d="M416.051 98.1921C416.194 98.2564 416.329 98.3343 416.455 98.4244L417.547 99.1516L419.316 100.323C420.015 100.778 420.735 101.333 421.565 102C425.837 105.328 429.612 109.165 432.791 113.413C434.511 115.765 436.058 118.221 437.421 120.766C438.525 122.851 439.509 124.988 440.37 127.169C441.101 129.027 441.625 130.553 441.975 131.603C442.15 132.098 442.281 132.502 442.39 132.815C442.444 132.956 442.484 133.101 442.51 133.249C442.435 133.119 442.369 132.984 442.313 132.845C442.204 132.573 442.029 132.169 441.833 131.643C441.44 130.633 440.883 129.098 440.118 127.25C439.354 125.402 438.349 123.21 437.105 120.917C435.732 118.394 434.186 115.955 432.474 113.615C429.347 109.401 425.664 105.563 421.511 102.192C420.692 101.566 419.982 100.949 419.327 100.485L417.601 99.2627L416.509 98.485C416.344 98.4059 416.19 98.3075 416.051 98.1921Z" fill="#455A64"/>
<path d="M463.705 120.19C463.427 120.113 463.16 120.008 462.908 119.877L461.99 119.473C461.641 119.322 461.204 119.21 460.746 119.039C458.332 118.215 455.714 118.047 453.2 118.554C451.819 118.827 450.495 119.304 449.28 119.968C448.272 120.493 447.331 121.12 446.473 121.836C445.692 122.513 444.963 123.239 444.289 124.008C444.398 123.758 444.545 123.523 444.726 123.311C445.182 122.712 445.701 122.157 446.277 121.655C447.121 120.876 448.068 120.197 449.094 119.635C450.841 118.656 452.812 118.069 454.848 117.92C456.884 117.771 458.93 118.064 460.822 118.776C461.281 118.958 461.717 119.089 462.067 119.271L462.951 119.726C463.222 119.852 463.475 120.008 463.705 120.19Z" fill="#455A64"/>
<path d="M484.453 88.5063C484.304 88.557 484.15 88.5975 483.995 88.6276L482.662 88.8801C481.505 89.1326 479.834 89.5062 477.781 90.0314C475.728 90.5566 473.304 91.2434 470.672 92.1524C467.807 93.1017 465.037 94.2812 462.395 95.6774C461.018 96.4013 459.755 97.2949 458.638 98.3337C457.601 99.3437 456.607 100.354 455.679 101.364C454.014 103.078 452.446 104.871 450.983 106.737C450.01 107.999 449.12 109.314 448.319 110.676C447.74 111.686 447.478 112.201 447.445 112.191C447.483 112.044 447.538 111.902 447.609 111.767C447.729 111.504 447.915 111.11 448.177 110.615C448.937 109.215 449.802 107.865 450.765 106.575C452.196 104.679 453.746 102.861 455.406 101.131C456.334 100.121 457.328 99.1113 458.365 98.1013C459.501 97.0562 460.783 96.156 462.176 95.4249C464.843 94.0206 467.643 92.8442 470.541 91.9101C473.195 91.0213 475.641 90.3648 477.694 89.8901C479.747 89.4154 481.45 89.0619 482.619 88.8801L483.973 88.6477L484.453 88.5063Z" fill="#455A64"/>
<path d="M446.167 116.635C446.125 116.35 446.125 116.061 446.167 115.776C446.167 115.15 446.167 114.362 446.167 113.423C446.198 110.842 446.063 108.262 445.763 105.696C445.433 103.133 444.938 100.59 444.278 98.081C444.048 97.172 443.863 96.4044 443.71 95.7984C443.624 95.5176 443.566 95.2303 443.535 94.9399C443.675 95.2002 443.781 95.4748 443.852 95.758C444.027 96.2933 444.267 97.0609 444.551 98.0204C446.043 103.036 446.681 108.236 446.44 113.433C446.44 114.443 446.342 115.221 446.287 115.776C446.276 116.065 446.236 116.353 446.167 116.635Z" fill="#455A64"/>
<path d="M450.261 94.2129C450.752 90.4431 450.38 86.62 449.169 82.9918C447.528 78.0152 444.728 73.4315 440.966 69.563C437.204 65.6945 432.572 62.6352 427.395 60.6001C432.935 72.9356 438.453 85.2811 443.949 97.6368L445.74 104.04C448.338 101.292 449.922 97.8499 450.261 94.2129Z" fill="#455A64"/>
<g opacity="0.2">
<path d="M450.261 94.2129C450.752 90.4431 450.38 86.62 449.169 82.9918C447.528 78.0152 444.728 73.4315 440.966 69.563C437.204 65.6945 432.572 62.6352 427.395 60.6001C432.935 72.9356 438.453 85.2811 443.949 97.6368L445.74 104.04C448.338 101.292 449.922 97.8499 450.261 94.2129Z" fill="#212121"/>
</g>
<path d="M244.22 446.327C256.613 434.897 251.062 411.164 231.822 393.319C212.581 375.474 186.938 370.274 174.545 381.704C162.152 393.134 167.703 416.867 186.943 434.712C206.183 452.557 231.827 457.757 244.22 446.327Z" fill="#263238"/>
<path d="M193.884 428.543C176.325 412.302 170.133 391.173 178.52 378.841C177.061 379.652 175.715 380.626 174.512 381.74C162.151 393.213 167.753 416.948 187.016 434.775C206.279 452.601 231.908 457.742 244.258 446.279C245.349 445.278 246.309 444.163 247.119 442.956C233.797 450.379 211.258 444.612 193.884 428.543Z" fill="#455A64"/>
<path d="M213.531 406.646L229.081 391.324L230.938 393.031C230.938 393.031 217.834 407.171 217.561 410.555L213.531 406.646Z" fill="#455A64"/>
<path d="M188.172 397.819L166.867 427.24L199.147 457.106L231.23 434.472L188.172 397.819Z" fill="#47D7AC"/>
<path d="M199.356 456.944C196.441 459.59 186.929 454.985 178.106 446.662C169.283 438.34 164.511 429.492 167.426 426.806C170.342 424.119 179.853 428.765 188.677 437.087C197.5 445.41 202.283 454.298 199.356 456.944Z" fill="#47D7AC"/>
<g opacity="0.3">
<path d="M199.356 456.944C196.441 459.59 186.929 454.985 178.106 446.662C169.283 438.34 164.511 429.492 167.426 426.806C170.342 424.119 179.853 428.765 188.677 437.087C197.5 445.41 202.283 454.298 199.356 456.944Z" fill="#212121"/>
</g>
<path d="M232.193 436.724C229.528 438.966 216.042 437.047 201.322 424.523C186.602 411.999 178.27 402.576 185.772 395.233C191.942 389.173 204.259 393.789 218.98 406.343C233.7 418.897 240.951 429.351 232.193 436.724Z" fill="#47D7AC"/>
<path d="M199.148 457.106C199.315 456.959 199.49 456.821 199.672 456.692L201.212 455.53L207.12 451.187L228.075 435.946C228.37 435.546 228.564 435.089 228.643 434.611C228.722 434.132 228.685 433.643 228.534 433.179C228.305 432.148 227.938 431.147 227.442 430.199C226.39 428.196 225.136 426.288 223.696 424.503C217.169 416.53 209.165 409.69 200.055 404.303C197.857 403.022 195.531 401.94 193.109 401.071C191.97 400.658 190.783 400.37 189.571 400.212C189.026 400.094 188.458 400.09 187.91 400.2C187.362 400.31 186.848 400.531 186.405 400.849L172.318 420.019L168.321 425.372L167.229 426.775C167.112 426.94 166.98 427.095 166.836 427.24C166.93 427.064 167.04 426.895 167.164 426.735L168.168 425.291L172.034 419.867L185.935 400.677C186.397 400.255 186.995 399.982 187.639 399.899C188.261 399.813 188.894 399.813 189.517 399.899C190.771 400.06 192.002 400.351 193.186 400.768C195.642 401.643 198.001 402.735 200.229 404.03C209.428 409.378 217.513 416.209 224.1 424.2C225.556 426.015 226.825 427.953 227.89 429.987C228.386 430.977 228.752 432.018 228.982 433.088C229.148 433.624 229.181 434.188 229.077 434.738C228.973 435.287 228.735 435.808 228.381 436.259L207.295 451.349L201.299 455.581L199.705 456.692C199.534 456.846 199.347 456.984 199.148 457.106Z" fill="#263238"/>
<path d="M298.117 395.092V399.96H278.68V377.588H297.68V382.487H285.472V386.264H296.228V391.001H285.472V395.092H298.117Z" fill="#263238"/>
<path d="M312.518 394.041H308.773V399.96H301.926V377.588H312.999C319.605 377.588 323.755 380.76 323.755 385.88C323.819 387.362 323.401 388.827 322.557 390.087C321.712 391.347 320.479 392.344 319.016 392.95L324.235 400.02H316.908L312.518 394.041ZM312.584 382.588H308.773V389.143H312.584C315.423 389.143 316.832 387.931 316.832 385.88C316.832 383.83 315.423 382.588 312.584 382.588Z" fill="#263238"/>
<path d="M338.105 394.041H334.37V399.96H327.523V377.588H338.596C345.203 377.588 349.353 380.76 349.353 385.88C349.416 387.362 348.999 388.827 348.154 390.087C347.309 391.347 346.076 392.344 344.613 392.95L349.833 400.02H342.506L338.105 394.041ZM338.181 382.588H334.37V389.143H338.181C341.021 389.143 342.429 387.931 342.429 385.88C342.429 383.83 341.021 382.588 338.181 382.588Z" fill="#263238"/>
<path d="M351.875 388.789C351.875 382.073 357.586 377.144 365.328 377.144C373.071 377.144 378.793 382.073 378.793 388.789C378.793 395.506 373.082 400.435 365.328 400.435C357.575 400.435 351.875 395.506 351.875 388.789ZM371.87 388.789C371.87 384.921 368.998 382.386 365.318 382.386C361.637 382.386 358.766 384.921 358.766 388.789C358.766 392.658 361.627 395.193 365.318 395.193C369.008 395.193 371.87 392.658 371.87 388.789Z" fill="#263238"/>
<path d="M392.968 394.041H389.234V399.96H382.387V377.588H393.449C400.055 377.588 404.216 380.76 404.216 385.88C404.277 387.361 403.858 388.825 403.014 390.085C402.169 391.344 400.938 392.342 399.477 392.95L404.696 400.02H397.358L392.968 394.041ZM393.034 382.588H389.234V389.143H393.034C395.873 389.143 397.293 387.931 397.293 385.88C397.293 383.83 395.873 382.588 393.034 382.588Z" fill="#263238"/>
<path d="M449.903 385.88C449.903 390.93 445.753 394.132 439.146 394.132H434.92V399.96H428.062V377.588H439.135C445.786 377.588 449.903 380.77 449.903 385.88ZM442.979 385.88C442.979 383.8 441.571 382.588 438.731 382.588H434.92V389.143H438.731C441.603 389.143 443.012 387.931 443.012 385.88H442.979Z" fill="#263238"/>
<path d="M468.272 395.637H458.03L456.129 399.96H449.141L459.831 377.558H466.569L477.292 399.96H470.173L468.272 395.637ZM466.285 390.971L463.173 383.8L460.061 390.971H466.285Z" fill="#263238"/>
<path d="M495.113 388.315H501.162V397.586C498.159 399.458 494.617 400.451 490.996 400.435C483.275 400.435 477.641 395.607 477.641 388.789C477.641 381.972 483.275 377.144 491.127 377.144C495.659 377.144 499.328 378.588 501.719 381.245L497.351 384.891C496.632 384.096 495.731 383.459 494.713 383.026C493.695 382.593 492.586 382.374 491.465 382.386C489.629 382.378 487.865 383.045 486.56 384.24C485.256 385.435 484.518 387.061 484.509 388.759C484.501 390.457 485.222 392.089 486.514 393.296C487.806 394.502 489.564 395.185 491.4 395.193C492.677 395.197 493.94 394.946 495.102 394.455L495.113 388.315Z" fill="#263238"/>
<path d="M524.957 395.092V399.96H505.52V377.588H524.509V382.487H512.301V386.264H523.068V391.001H512.312V395.092H524.957Z" fill="#263238"/>
<path d="M296.958 325.927H238.285V299.344L294.174 173.619H327.698V299.344H342.233V325.927H327.698V359.681H296.958V325.927ZM296.958 299.344V226.775H296.401L266.229 299.344H296.958Z" fill="#47D7AC"/>
<g opacity="0.3">
<path d="M296.958 325.927H238.285V299.344L294.174 173.619H327.698V299.344H342.233V325.927H327.698V359.681H296.958V325.927ZM296.958 299.344V226.775H296.401L266.229 299.344H296.958Z" fill="#212121"/>
</g>
<path d="M282.97 325.927H224.297V299.344L280.175 173.619H313.71V299.344H328.233V325.927H313.71V359.681H282.97V325.927ZM282.97 299.344V226.775H282.413L252.252 299.344H282.97Z" fill="#47D7AC"/>
<path d="M366.793 350.116C358.785 341.962 354.781 330.442 354.781 315.554V217.746C354.781 202.858 358.785 191.338 366.793 183.184C374.801 175.03 386.351 170.956 401.442 170.963C416.534 170.963 428.084 175.036 436.092 183.184C444.1 191.331 448.104 202.852 448.104 217.746V315.554C448.104 330.442 444.1 341.962 436.092 350.116C428.084 358.271 416.534 362.344 401.442 362.337C386.351 362.337 374.801 358.264 366.793 350.116ZM417.364 317.423V215.877C417.364 203.656 412.057 197.546 401.442 197.546C390.828 197.546 385.506 203.656 385.477 215.877V317.423C385.477 329.644 390.788 335.754 401.41 335.754C412.031 335.754 417.349 329.644 417.364 317.423Z" fill="#47D7AC"/>
<g opacity="0.3">
<path d="M436.092 183.184C428.084 175.043 416.534 170.969 401.442 170.963C386.351 170.956 374.801 175.03 366.793 183.184C358.785 191.344 354.781 202.865 354.781 217.746V315.554C354.781 330.442 358.785 341.962 366.793 350.116C374.801 358.271 386.351 362.344 401.442 362.337C416.534 362.337 428.084 358.264 436.092 350.116C444.1 341.969 448.104 330.448 448.104 315.554V217.746C448.104 202.858 444.1 191.338 436.092 183.184ZM417.364 317.423C417.364 329.644 412.057 335.754 401.442 335.754C390.828 335.754 385.51 328.088 385.51 317.423V215.877C385.51 204.767 390.828 197.546 401.442 197.546C412.057 197.546 417.364 203.606 417.364 215.877V317.423Z" fill="#212121"/>
</g>
<path d="M352.805 350.116C344.797 341.962 340.793 330.442 340.793 315.554V217.746C340.793 202.858 344.797 191.338 352.805 183.184C360.813 175.03 372.359 170.956 387.443 170.963C402.535 170.963 414.084 175.036 422.092 183.184C430.1 191.331 434.104 202.852 434.104 217.746V315.554C434.104 330.442 430.1 341.962 422.092 350.116C414.084 358.271 402.535 362.344 387.443 362.337C372.366 362.337 360.82 358.264 352.805 350.116ZM403.376 317.413V215.877C403.376 203.656 398.065 197.546 387.443 197.546C376.822 197.546 371.515 203.656 371.522 215.877V317.413C371.522 329.647 376.829 335.761 387.443 335.754C398.057 335.748 403.368 329.634 403.376 317.413Z" fill="#47D7AC"/>
<path d="M516.736 325.927H458.062V299.344L513.94 173.619H547.475V299.344H561.999V325.927H547.475V359.681H516.736V325.927ZM516.736 299.344V226.785H516.179L485.996 299.344H516.736Z" fill="#47D7AC"/>
<g opacity="0.3">
<path d="M516.736 325.927H458.062V299.344L513.94 173.619H547.475V299.344H561.999V325.927H547.475V359.681H516.736V325.927ZM516.736 299.344V226.785H516.179L485.996 299.344H516.736Z" fill="#212121"/>
</g>
<path d="M502.747 325.927H444.062V299.344L499.951 173.619H533.475V299.344H548.01V325.927H533.475V359.681H502.747V325.927ZM502.747 299.344V226.775H502.179L472.007 299.344H502.747Z" fill="#47D7AC"/>
<path d="M614.489 329.892C628.907 327.2 633.205 291.145 624.087 249.359C614.97 207.574 595.89 175.883 581.471 178.574C567.052 181.265 562.755 217.321 571.872 259.106C580.99 300.891 600.07 332.583 614.489 329.892Z" fill="#263238"/>
<path d="M616.194 251.056C607.883 212.969 591.296 183.275 577.504 180.356C578.657 179.491 580.016 178.892 581.468 178.608C595.882 175.922 614.96 207.616 624.056 249.399C633.152 291.183 628.872 327.24 614.446 329.927C613.145 330.162 611.804 330.134 610.515 329.846C621.719 321.746 624.405 288.729 616.194 251.056Z" fill="#455A64"/>
<path d="M760.283 179.043L775.724 158.186C775.724 158.186 803.832 165.701 807.086 162.105L764.498 132.956L738.945 164.529L760.283 179.043Z" fill="#263238"/>
<path d="M761.178 150.884C760.862 150.486 760.715 149.996 760.763 149.505C760.811 149.014 761.052 148.556 761.44 148.217C761.855 147.909 762.383 147.76 762.913 147.802C763.444 147.843 763.937 148.071 764.29 148.44C764.627 148.86 764.784 149.38 764.729 149.901C764.675 150.422 764.413 150.905 763.995 151.258C763.524 151.531 762.958 151.628 762.412 151.529C761.866 151.429 761.382 151.141 761.058 150.722" fill="#E0E0E0"/>
<path d="M764.455 132.956L762.02 136.229L803.81 162.953C803.81 162.953 806.322 163.489 807.086 162.105L764.455 132.956Z" fill="#455A64"/>
<path d="M776.259 158.863C776.401 158.661 775.429 157.853 774.905 156.54C774.381 155.227 774.479 154.035 774.228 153.985C773.977 153.934 773.387 155.257 774.064 156.843C774.741 158.429 776.161 159.065 776.259 158.863Z" fill="white"/>
<path d="M782.1 160.206C782.297 160.055 781.652 159.105 781.598 157.812C781.543 156.52 782.024 155.51 781.805 155.378C781.587 155.247 780.593 156.247 780.713 157.853C780.833 159.459 781.947 160.388 782.1 160.206Z" fill="white"/>
<path d="M788.599 156.994C788.435 156.823 787.376 157.58 787.07 159.014C786.764 160.448 787.398 161.519 787.616 161.418C787.835 161.317 787.682 160.347 787.955 159.186C788.228 158.024 788.785 157.156 788.599 156.994Z" fill="white"/>
<path d="M772.165 163.246C772.165 163.014 771.073 162.63 769.981 161.751C768.889 160.873 768.223 159.903 767.983 159.994C767.742 160.085 768.07 161.368 769.402 162.388C770.735 163.408 772.154 163.468 772.165 163.246Z" fill="white"/>
<path d="M745.466 263.792L761.049 243.026C761.049 243.026 789.102 250.702 792.389 247.066L749.932 217.685L724.227 249.167L745.466 263.792Z" fill="#263238"/>
<path d="M746.543 235.643C746.233 235.244 746.091 234.754 746.143 234.265C746.196 233.776 746.439 233.322 746.827 232.987C747.244 232.68 747.772 232.533 748.303 232.576C748.833 232.619 749.325 232.849 749.677 233.219C750.01 233.642 750.161 234.164 750.102 234.684C750.044 235.204 749.78 235.686 749.361 236.037C748.887 236.308 748.319 236.402 747.773 236.299C747.227 236.196 746.744 235.903 746.423 235.481" fill="#E0E0E0"/>
<path d="M749.93 217.736L747.473 220.998L789.1 247.955C789.1 247.955 791.6 248.5 792.376 247.116L749.93 217.736Z" fill="#455A64"/>
<path d="M761.573 243.703C761.726 243.511 760.754 242.693 760.23 241.38C759.705 240.067 759.826 238.875 759.574 238.814C759.323 238.754 758.734 240.087 759.389 241.673C760.044 243.258 761.474 243.905 761.573 243.703Z" fill="white"/>
<path d="M767.402 245.087C767.598 244.925 766.965 243.986 766.921 242.683C766.877 241.38 767.358 240.39 767.151 240.249C766.943 240.107 765.927 241.107 766.059 242.723C766.19 244.339 767.249 245.258 767.402 245.087Z" fill="white"/>
<path d="M773.92 241.905C773.767 241.733 772.697 242.491 772.38 243.925C772.063 245.359 772.697 246.44 772.915 246.339C773.133 246.238 772.981 245.258 773.264 244.097C773.548 242.935 774.105 242.067 773.92 241.905Z" fill="white"/>
<path d="M757.455 248.076C757.51 247.834 756.363 247.44 755.271 246.561C754.179 245.682 753.524 244.703 753.284 244.793C753.043 244.884 753.371 246.167 754.692 247.197C756.014 248.227 757.433 248.288 757.455 248.076Z" fill="white"/>
<path d="M584.644 278.841C586.097 278.841 715.586 244.339 724.595 236.845C733.604 229.351 770.382 170.003 770.382 170.003L744.262 150.308L698.878 205.03L619.162 211.686C619.162 211.686 585.551 209.565 579.697 220.685L579.086 237.35L584.644 278.841Z" fill="#263238"/>
<path d="M584.645 278.841C586.566 278.891 644.41 338.431 662.526 341.814C680.642 345.198 689.76 333.633 695.952 326.664C703.836 317.877 757.519 254.52 757.519 254.52L730.547 233.916L671.579 292.021L636.078 246.804L605.13 244.117L586.272 259.57L584.645 278.841Z" fill="#263238"/>
<path d="M666.293 297.586C666.293 297.586 666.348 297.495 666.49 297.334L667.134 296.657L669.645 294.061L678.96 284.588L692.829 270.589L701.04 262.347C703.934 259.529 706.926 256.611 709.984 253.611L730.393 233.744L730.568 233.583L730.754 233.724L750.202 248.712L755.662 252.964L757.093 254.106C757.262 254.231 757.419 254.369 757.562 254.52C757.377 254.416 757.202 254.298 757.038 254.166L755.553 253.086L750.017 248.935L730.459 234.098H730.819C724.802 239.996 717.846 246.793 710.464 254.005L701.51 262.741L693.265 270.963L679.222 284.82L669.776 294.172L667.177 296.697L666.49 297.344L666.293 297.586Z" fill="#455A64"/>
<path d="M665.553 256.712C665.009 256.938 664.447 257.123 663.871 257.267L659.241 258.56C655.332 259.681 649.916 261.186 643.953 262.974L639.585 264.307C638.242 264.682 636.926 265.134 635.643 265.66C633.499 266.591 631.773 268.184 630.762 270.165C630.111 271.52 629.645 272.945 629.375 274.407C629.303 274.952 629.19 275.492 629.037 276.023C629.009 275.879 629.009 275.732 629.037 275.589C629.037 275.306 629.037 274.902 629.157 274.377C629.346 272.873 629.761 271.401 630.391 270.003C631.399 267.91 633.18 266.217 635.414 265.226C636.711 264.676 638.046 264.207 639.411 263.822L643.779 262.469C649.719 260.681 655.157 259.237 659.067 258.206C661.043 257.691 662.638 257.297 663.751 257.025C664.34 256.867 664.943 256.762 665.553 256.712Z" fill="#455A64"/>
<path d="M567.207 227.624C567.279 227.453 567.37 227.291 567.48 227.139C567.578 226.977 567.698 226.785 567.84 226.583L568.419 225.866C569.718 224.397 571.245 223.113 572.951 222.059C577.199 219.281 583.871 216.645 591.515 214.696C598.01 213.022 604.667 211.943 611.389 211.474C613.428 211.344 615.474 211.32 617.515 211.403C618.236 211.403 618.793 211.494 619.175 211.544C619.368 211.556 619.558 211.587 619.743 211.635C619.743 211.686 618.946 211.635 617.505 211.635C616.063 211.635 613.988 211.635 611.422 211.878C604.743 212.452 598.132 213.574 591.668 215.231C584.111 217.17 577.472 219.725 573.235 222.392C571.536 223.411 569.99 224.633 568.638 226.028L568.026 226.705L567.622 227.23C567.349 227.482 567.229 227.634 567.207 227.624Z" fill="#455A64"/>
<path d="M620.811 312.09C620.651 312.016 620.5 311.924 620.363 311.817L619.14 310.939L614.674 307.686C610.896 304.949 605.545 301.344 599.582 297.395C594.486 294.031 589.593 290.409 584.928 286.547C583.159 285.042 581.739 283.81 580.789 282.931L579.697 281.921C579.565 281.81 579.447 281.685 579.348 281.548C579.348 281.548 579.511 281.638 579.784 281.851C580.057 282.063 580.483 282.406 580.942 282.79L585.201 286.264C588.826 289.183 593.937 293.021 599.932 296.97C605.927 300.919 611.223 304.576 614.936 307.394C616.792 308.808 618.288 309.959 619.304 310.777L620.461 311.726C620.593 311.835 620.71 311.957 620.811 312.09Z" fill="#455A64"/>
<path d="M220.664 270.157C237.661 228.154 239.69 190.038 225.197 185.02C210.703 180.003 185.175 209.985 168.178 251.987C151.181 293.989 149.152 332.106 163.645 337.123C178.139 342.141 203.667 312.159 220.664 270.157Z" fill="#263238"/>
<path d="M176.086 254.934C191.57 216.645 214.153 188.355 229.004 187.446C227.963 186.371 226.661 185.54 225.204 185.022C210.713 179.972 185.182 209.989 168.191 251.995C151.199 294.001 149.157 332.108 163.648 337.128C164.961 337.569 166.36 337.748 167.754 337.653C157.598 327.513 160.754 292.799 176.086 254.934Z" fill="#455A64"/>
<path d="M24.3517 160.388C24.3517 160.388 20.486 151.298 18.8152 147.975C17.1445 144.652 17.5048 134.593 18.6187 132.765C18.9477 132.285 19.1296 131.732 19.145 131.165C19.1604 130.597 19.0086 130.037 18.706 129.543C18.706 129.543 13.0058 119.715 15.6703 117.291L17.2209 117.13C17.2209 117.13 22.9321 127.674 23.1286 127.886C23.3252 128.098 24.5701 128.149 24.9632 126.311C25.3563 124.473 24.4063 119.019 24.4063 119.019C24.4063 119.019 22.2223 115.544 22.0803 113.161C22.132 112.635 22.2991 112.125 22.5714 111.661C22.8436 111.197 23.2153 110.79 23.6637 110.464L24.439 109.908C24.439 109.908 29.2329 117.928 29.5059 119.887C29.7789 121.847 30.6525 126.099 30.6525 126.099L31.3186 125.604L31.3732 115.766C31.3732 115.766 28.9708 107.444 30.7945 105.666C32.6181 103.889 32.7928 105.373 32.7928 105.373C32.7928 105.373 36.2217 113.868 36.4729 116.019C36.5821 116.898 36.6803 125.351 36.6803 125.351L38.1545 124.786L38.6678 116.887C38.6678 116.887 36.9424 109.05 39.5305 108.252L41.5943 108.191C41.5943 108.191 43.5599 118.503 43.7783 118.988C43.9967 119.473 42.2714 131.24 42.2714 131.24L42.7955 132.351L44.2916 130.472C45.0488 129.007 46.3347 127.832 47.9279 127.149C50.9091 125.644 52.2086 126.735 52.2086 126.735L48.4739 132.876C48.4739 132.876 45.0669 140.057 43.6801 141.713C41.5874 143.877 39.2805 145.855 36.7895 147.622C36.047 148.006 36.8878 151.187 36.8878 151.187L38.0563 153.409L24.3517 160.388Z" fill="#FFBF9D"/>
<path d="M39.3114 136.35C39.3114 136.461 38.1102 136.431 36.2538 136.845C33.843 137.364 31.6194 138.453 29.8008 140.005C27.9821 141.558 26.631 143.522 25.8798 145.703C25.2901 147.379 25.2246 148.49 25.1154 148.48C24.9983 147.507 25.11 146.521 25.443 145.592C26.1049 143.27 27.4641 141.169 29.3633 139.532C32.4427 137.269 34.9434 136.401 36.1664 136.391C37.2006 136.178 38.2712 136.164 39.3114 136.35Z" fill="#FF9A6C"/>
<path d="M39.816 125.078C39.816 125.28 35.3279 124.604 30.0536 125.886C24.7792 127.169 21.1756 129.694 21.0664 129.522C21.7349 128.857 22.517 128.297 23.3814 127.866C27.4405 125.555 32.1615 124.435 36.9222 124.654C37.905 124.654 38.8815 124.797 39.816 125.078Z" fill="#FF9A6C"/>
<path d="M24.3516 160.388C24.7228 161.226 43.5271 213.858 51.6516 219.514C59.776 225.17 113.481 239.714 113.481 239.714L121.922 213.252L69.3966 198.051L36.7894 147.551L24.3516 160.388Z" fill="#FFBF9D"/>
<path d="M125.395 206.03L84.8385 199.637L76.168 232.26L123.091 242.188L125.395 206.03Z" fill="#47D7AC"/>
<path d="M150.871 208.626L148.49 151.056C148.403 136.724 139.306 124.796 123.822 125.301L122.391 125.422C115.468 126.02 109.041 129.005 104.388 133.784C99.7349 138.563 97.1958 144.786 97.2752 151.217C97.4281 163.64 97.7666 177.366 98.5092 183.972C100.06 197.657 115.075 198.526 115.075 198.526L119.683 215.544L124.925 217.16L150.871 208.626Z" fill="#FFBF9D"/>
<path d="M115.02 198.556C121.859 197.955 128.37 195.554 133.78 191.637C133.78 191.637 131.05 202.667 116.155 202.687L115.02 198.556Z" fill="#FF9A6C"/>
<path d="M104.689 162.388C104.731 162.891 104.982 163.359 105.389 163.694C105.796 164.029 106.328 164.205 106.873 164.186C107.143 164.183 107.41 164.131 107.657 164.031C107.905 163.932 108.129 163.787 108.315 163.606C108.501 163.426 108.646 163.212 108.742 162.978C108.838 162.745 108.882 162.496 108.871 162.246C108.814 161.748 108.559 161.287 108.156 160.953C107.752 160.619 107.229 160.436 106.687 160.439C106.417 160.442 106.15 160.496 105.902 160.597C105.654 160.697 105.431 160.843 105.245 161.024C105.059 161.206 104.914 161.42 104.818 161.654C104.723 161.888 104.679 162.138 104.689 162.388Z" fill="#263238"/>
<path d="M100.965 157.035C101.26 157.267 102.745 156.025 105.027 155.843C107.31 155.661 109.079 156.56 109.297 156.288C109.516 156.015 109.09 155.722 108.314 155.278C107.266 154.731 106.062 154.495 104.864 154.601C103.682 154.701 102.565 155.147 101.675 155.874C101.02 156.449 100.834 156.924 100.965 157.035Z" fill="#263238"/>
<path d="M122.677 162.014C122.96 162.246 124.456 161.004 126.739 160.822C129.021 160.641 130.779 161.55 131.008 161.267C131.118 161.146 130.801 160.711 130.026 160.257C128.978 159.709 127.772 159.476 126.575 159.59C125.391 159.688 124.271 160.13 123.375 160.853C122.731 161.428 122.535 161.913 122.677 162.014Z" fill="#263238"/>
<path d="M116.766 172.488C115.534 172.238 114.271 172.137 113.01 172.185C112.42 172.185 111.918 172.114 111.732 171.761C111.629 171.21 111.709 170.643 111.962 170.135L113.272 165.893C115.074 159.833 116.33 154.924 116.068 154.863C115.806 154.803 114.124 159.631 112.322 165.66C111.885 167.145 111.47 168.559 111.077 169.922C110.778 170.601 110.747 171.356 110.99 172.054C111.1 172.242 111.256 172.404 111.445 172.527C111.635 172.649 111.853 172.73 112.082 172.761C112.412 172.799 112.746 172.799 113.076 172.761C114.313 172.812 115.553 172.721 116.766 172.488Z" fill="#263238"/>
<path d="M120.776 156.469C121.136 156.984 123.288 156.227 125.974 155.954C128.66 155.681 130.932 155.863 131.15 155.288C131.237 155.015 130.735 154.56 129.752 154.207C128.447 153.782 127.051 153.651 125.679 153.823C124.308 153.965 122.994 154.408 121.846 155.116C120.984 155.681 120.612 156.227 120.776 156.469Z" fill="#263238"/>
<path d="M100.463 151.692C100.977 152.136 102.789 151.5 105.017 151.318C107.245 151.136 109.167 151.318 109.56 150.823C109.723 150.561 109.385 150.106 108.468 149.712C107.285 149.228 105.984 149.047 104.7 149.187C103.416 149.289 102.186 149.712 101.14 150.409C100.463 150.955 100.201 151.5 100.463 151.692Z" fill="#263238"/>
<path d="M148.281 161.327C148.521 161.206 158.186 157.681 158.786 167.064C159.387 176.447 149.078 175.084 149.046 174.821C149.013 174.558 148.281 161.327 148.281 161.327Z" fill="#FFBF9D"/>
<path d="M151.918 171.084C151.918 171.084 152.103 171.195 152.409 171.306C152.841 171.445 153.313 171.427 153.73 171.256C154.822 170.831 155.576 169.236 155.521 167.509C155.493 166.703 155.273 165.913 154.877 165.196C154.76 164.908 154.57 164.65 154.323 164.445C154.076 164.239 153.779 164.091 153.457 164.014C153.251 163.976 153.037 164.006 152.852 164.098C152.666 164.19 152.521 164.339 152.442 164.519C152.322 164.792 152.442 164.973 152.355 164.994C152.267 165.014 152.125 164.852 152.18 164.458C152.222 164.221 152.349 164.004 152.54 163.842C152.81 163.637 153.152 163.533 153.501 163.549C153.923 163.603 154.323 163.756 154.663 163.993C155.003 164.23 155.272 164.543 155.445 164.903C155.928 165.693 156.198 166.58 156.231 167.488C156.286 169.387 155.358 171.215 153.905 171.69C153.638 171.778 153.353 171.809 153.072 171.781C152.79 171.753 152.519 171.666 152.278 171.528C151.95 171.316 151.885 171.104 151.918 171.084Z" fill="#FF9A6C"/>
<path d="M124.009 173.458C123.649 173.458 123.758 175.609 121.825 177.225C119.892 178.841 117.457 178.71 117.457 179.013C117.457 179.154 118.036 179.417 119.084 179.396C120.454 179.356 121.765 178.87 122.786 178.023C123.762 177.212 124.357 176.082 124.446 174.872C124.49 173.963 124.162 173.437 124.009 173.458Z" fill="#263238"/>
<path d="M76.0465 139.845C76.2023 139.275 76.5947 138.785 77.1385 138.481C78.2979 137.918 79.5972 137.646 80.9059 137.693C84.1331 137.449 87.2582 136.53 90.046 135.007C89.0093 134.611 88.0473 134.066 87.1958 133.391C86.3 132.706 85.6231 131.808 85.2383 130.793C84.8534 129.779 84.7751 128.686 85.0118 127.634C85.0492 127.435 85.1357 127.247 85.2645 127.084C85.3933 126.921 85.5609 126.788 85.7544 126.695C86.3987 126.462 87.0102 127.028 87.5016 127.482C88.1379 128.183 88.9661 128.714 89.8997 129.017C90.8333 129.321 91.838 129.388 92.8087 129.209C94.161 129.055 95.4572 128.616 96.598 127.927L96.7072 127.795C97.2095 127.26 97.69 126.785 98.1704 126.25C101.752 122.533 104.875 119.917 108.173 118.463C113 116.332 121.277 115.11 126.497 116.069C131.717 117.029 136.642 120.635 137.69 125.493C140.442 123.059 144.788 122.836 148.413 123.947H148.49C152.508 125.018 155.042 128.725 156.407 132.371C156.483 132.573 156.56 132.775 156.625 132.967C158.082 134.855 160.007 136.393 162.238 137.451C162.631 137.633 163.09 137.855 163.155 138.259C163.16 138.463 163.106 138.663 162.998 138.841C162.891 139.019 162.734 139.166 162.544 139.269C161.64 139.947 160.585 140.43 159.453 140.683C159.865 141.546 160.358 142.375 160.928 143.158C161.419 143.824 162.02 144.632 161.659 145.38C161.498 145.656 161.25 145.88 160.948 146.023C160.645 146.165 160.303 146.219 159.967 146.177C159.298 146.075 158.659 145.848 158.088 145.511L159.595 148.349C158.185 148.662 156.714 148.662 155.304 148.349C154.703 151.864 154.507 158.328 153.699 160.732C151.001 160.923 150.335 160.732 149.003 161.186C147.278 161.832 148.14 164.671 145.803 163.984C144.602 163.63 142.527 159.651 142.08 158.58C139.006 151.416 137.632 143.725 138.05 136.027C136.311 134.51 134.272 133.316 132.044 132.512L132.23 132.654C127.993 131.553 123.21 130.512 119.388 132.542C116.429 134.118 114.823 137.148 112.705 139.612C108.665 144.289 103.969 146.935 97.4934 147.561C97.1876 151.743 97.4934 158.53 97.4934 162.408L93.4093 154.874C93.0926 154.439 92.8196 153.995 92.5576 153.55L92.4702 153.409C92.0552 152.692 91.6512 151.975 91.1489 151.278C90.6925 151.702 90.0823 151.953 89.4365 151.985C88.7908 152.016 88.1555 151.824 87.6538 151.447C87.152 151.07 86.8196 150.534 86.7209 149.943C86.6221 149.352 86.7642 148.748 87.1194 148.248C87.4401 147.777 87.838 147.354 88.2988 146.996C87.8176 147.485 87.2074 147.85 86.5278 148.055C85.8483 148.26 85.1227 148.299 84.4222 148.167C83.7297 148.009 83.1119 147.647 82.6625 147.134C82.2132 146.622 81.9568 145.988 81.9324 145.329C81.9605 144.882 82.1143 144.449 82.3786 144.073C82.6429 143.698 83.0085 143.393 83.4394 143.188C81.6093 143.433 79.7417 143.166 78.0776 142.42C76.8546 141.935 75.7735 141.087 76.0465 139.845Z" fill="#263238"/>
<path d="M133.027 127.341C133.582 127.694 134.108 128.086 134.6 128.512C135.86 129.76 136.751 131.287 137.188 132.946C137.518 134.082 137.723 135.246 137.799 136.421C137.887 137.683 137.865 139.047 137.865 140.461C137.82 141.968 137.882 143.476 138.051 144.975C138.152 145.77 138.316 146.556 138.542 147.329C138.733 148.157 139.146 148.929 139.743 149.571C140.02 149.836 140.37 150.026 140.754 150.12C141.139 150.214 141.545 150.21 141.927 150.106C142.651 149.945 143.295 149.56 143.751 149.015C144.484 147.942 144.898 146.709 144.952 145.44H144.635C145.157 146.451 145.834 147.386 146.645 148.218C147.42 148.988 148.489 149.448 149.626 149.5C150.156 149.525 150.682 149.409 151.144 149.167C151.573 148.932 151.913 148.579 152.116 148.157C152.317 147.774 152.4 147.348 152.356 146.925C152.301 146.541 152.109 146.185 151.81 145.915L151.657 146.056C152.605 146.939 153.743 147.628 154.998 148.076C155.435 148.228 155.774 148.319 156.014 148.379L156.374 148.44C156.262 148.389 156.145 148.348 156.025 148.319C155.691 148.22 155.363 148.106 155.042 147.975C153.807 147.501 152.692 146.796 151.766 145.905L151.613 146.046C151.873 146.319 152.036 146.659 152.079 147.021C152.122 147.382 152.043 147.747 151.853 148.066C151.659 148.436 151.351 148.745 150.969 148.955C150.547 149.165 150.072 149.266 149.593 149.248C148.533 149.177 147.542 148.736 146.819 148.016C146.038 147.2 145.387 146.285 144.886 145.299L144.646 144.864L144.581 145.349C144.532 146.561 144.136 147.739 143.434 148.763C143.032 149.261 142.458 149.618 141.807 149.773C141.489 149.852 141.155 149.853 140.836 149.775C140.518 149.697 140.228 149.543 139.994 149.329C139.442 148.722 139.066 147.996 138.902 147.218C138.669 146.464 138.505 145.694 138.411 144.915C138.241 143.429 138.171 141.935 138.203 140.441C138.203 139.006 138.203 137.643 138.105 136.401C138.017 135.211 137.793 134.033 137.439 132.886C136.975 131.201 136.037 129.661 134.72 128.422C134.224 127.978 133.652 127.612 133.027 127.341Z" fill="#455A64"/>
<path d="M87.9609 143.339C87.9609 143.339 87.9609 143.339 88.0811 143.43L88.4742 143.652C88.6811 143.785 88.9004 143.9 89.1294 143.996C89.4281 144.145 89.7383 144.273 90.0576 144.38C92.1047 145.106 94.3162 145.346 96.4895 145.077C99.7132 144.689 102.747 143.447 105.225 141.501C108.224 139.098 110.659 136.152 112.378 132.845C113.35 131.118 114.114 129.371 114.988 127.735C115.768 126.15 116.791 124.677 118.024 123.362C119.134 122.174 120.55 121.264 122.141 120.715C122.865 120.486 123.624 120.36 124.39 120.342C125.094 120.341 125.795 120.426 126.476 120.594C128.561 121.124 130.355 122.361 131.499 124.058C131.884 124.697 132.188 125.375 132.405 126.078C132.405 126.078 132.405 126.078 132.405 125.937C132.405 125.796 132.405 125.695 132.307 125.523C132.15 124.995 131.927 124.487 131.641 124.008C131.166 123.247 130.557 122.564 129.839 121.988C128.882 121.241 127.766 120.687 126.563 120.362C125.852 120.179 125.117 120.087 124.379 120.089C123.588 120.098 122.803 120.221 122.053 120.453C120.407 121.005 118.938 121.932 117.783 123.149C116.526 124.482 115.481 125.976 114.682 127.583C113.798 129.23 113.033 130.977 112.072 132.694C110.369 135.957 107.973 138.869 105.029 141.259C102.591 143.185 99.6099 144.429 96.4349 144.844C94.2999 145.125 92.1232 144.924 90.0903 144.258C89.3618 143.991 88.6508 143.684 87.9609 143.339Z" fill="#455A64"/>
<path d="M86.2031 137.36C86.3708 137.49 86.5585 137.595 86.76 137.673C87.2817 137.931 87.826 138.147 88.3871 138.32C89.214 138.594 90.0654 138.8 90.9315 138.936C92.0133 139.105 93.1106 139.177 94.2075 139.148C95.2844 139.111 96.3555 138.982 97.407 138.764C98.2661 138.578 99.1064 138.325 99.9186 138.007C100.466 137.799 100.995 137.552 101.502 137.269C101.696 137.177 101.876 137.061 102.037 136.926C102.037 136.875 101.207 137.31 99.8531 137.794C99.0476 138.081 98.2187 138.307 97.3743 138.471C95.3031 138.885 93.1674 138.943 91.0734 138.643C90.2189 138.525 89.3755 138.346 88.5509 138.108C87.0549 137.714 86.2686 137.36 86.2031 137.36Z" fill="#455A64"/>
<path d="M196.976 313.948L198.002 309.403C185.637 304.337 174.408 297.174 164.893 288.284L110.293 237.138L111.713 222.463L138.619 199.162C143.06 196.801 148.027 195.414 153.138 195.106C158.249 194.798 163.369 195.577 168.103 197.384C186.995 204.313 194.999 214.12 217.047 237.895C225.783 247.319 220.88 239.441 229.43 244.551C229.43 244.551 224.068 271.488 213.924 288.183C206.454 300.404 196.976 313.948 196.976 313.948Z" fill="#47D7AC"/>
<path d="M115.915 242.572C115.147 241.776 114.473 240.906 113.906 239.976C112.413 237.803 111.053 235.554 109.833 233.239C108.602 230.94 107.508 228.58 106.557 226.169C106.125 225.191 105.796 224.176 105.574 223.139C106.11 224.082 106.566 225.061 106.939 226.068C107.747 227.886 108.905 230.381 110.324 233.078C111.744 235.775 113.164 238.128 114.223 239.855C114.855 240.723 115.42 241.631 115.915 242.572Z" fill="#263238"/>
<g opacity="0.3">
<path d="M211.082 276.346C211.943 270.773 211.317 265.09 209.258 259.792C205.829 251.531 196.973 239.916 196.973 239.916L193.938 242.572L211.082 276.346Z" fill="#212121"/>
</g>
<path d="M163.801 327.129L183.457 279.498L173.083 267.519L153.514 245.299C153.514 245.299 139.547 238.593 132.853 228.695C131.753 226.846 131.151 224.779 131.098 222.669C131.044 220.559 131.542 218.469 132.548 216.575C138.663 205.889 151.33 201.647 163.932 204.848L175.026 211.565C175.026 211.565 211.641 264.651 211.062 274.872C210.648 282.103 179.777 331.008 179.777 331.008L163.801 327.129Z" fill="#FFBF9D"/>
<path d="M165.175 325.109L143.335 326.846C142.201 326.936 141.104 327.267 140.13 327.814C139.156 328.361 138.332 329.108 137.723 329.998L127.895 344.269C127.895 344.269 131.793 345.945 134.37 343.259C136.947 340.572 141.119 334.977 141.119 334.977L139.262 350.874C139.262 350.874 144.307 351.329 145.148 347.784C145.799 344.687 146.164 341.545 146.24 338.391L151.165 353.541C151.165 353.541 156.505 351.915 154.78 346.198C153.688 342.592 152.53 338.886 152.53 338.886L158.525 348.713C158.525 348.713 162.893 348.359 161.801 344.673C161.048 342.239 158.733 337.411 158.733 337.411C158.733 337.411 171.312 338.29 173.813 337.411C177.22 336.27 180.704 329.583 180.704 329.583L165.175 325.109Z" fill="#FFBF9D"/>
<path d="M145.803 202.051C145.803 202.051 127.469 211.141 129.423 223.907C131.378 236.673 147.201 243.299 147.201 243.299L167.742 263.61L199.956 237.724L170.646 204.02" fill="#47D7AC"/>
<path d="M170.649 204.02C170.649 204.02 170.649 204.02 170.802 204.161L171.227 204.616L172.833 206.404L178.85 213.221L200.154 237.542L200.318 237.724L200.133 237.875L168.104 263.661L167.94 263.782L167.722 263.964L167.536 263.762L147.051 243.43L147.138 243.491C143.393 241.772 139.957 239.531 136.95 236.845C134.17 234.423 131.978 231.483 130.518 228.22C130.245 227.422 129.884 226.664 129.699 225.866C129.513 225.068 129.305 224.301 129.218 223.523C129.032 222.013 129.114 220.485 129.458 218.998C130.125 216.383 131.391 213.931 133.171 211.807C135.685 208.824 138.688 206.224 142.071 204.101C143.239 203.353 144.168 202.828 144.812 202.485L145.544 202.111C145.707 202.03 145.795 202 145.806 202.01L145.565 202.152L144.856 202.566C144.233 202.929 143.316 203.475 142.169 204.242C138.845 206.399 135.899 209.015 133.433 211.999C131.702 214.091 130.477 216.502 129.841 219.069C129.513 220.513 129.443 221.997 129.633 223.463C129.72 224.22 129.961 224.978 130.125 225.755C130.288 226.533 130.66 227.27 130.922 228.048C133.575 234.108 139.767 239.481 147.302 243.016H147.356C153.701 249.288 160.635 256.146 167.864 263.327H167.46L167.613 263.196L199.838 237.552V237.885C191.102 227.785 183.829 219.382 178.697 213.433L172.778 206.535L171.238 204.707C171.074 204.505 170.943 204.353 170.845 204.222C170.77 204.163 170.704 204.095 170.649 204.02Z" fill="#263238"/>
<path d="M148.097 329.007C148.097 329.098 147.388 329.078 146.307 329.361C144.912 329.71 143.668 330.448 142.744 331.474C141.819 332.501 141.26 333.766 141.141 335.098C141.032 336.108 141.141 336.774 141.087 336.784C140.799 336.257 140.678 335.666 140.737 335.078C140.756 333.641 141.309 332.254 142.304 331.151C143.298 330.047 144.673 329.294 146.197 329.018C146.817 328.846 147.476 328.842 148.097 329.007Z" fill="#FF9A6C"/>
<path d="M150.105 331.381C150.105 331.452 149.679 331.745 148.936 332.24C148.576 332.492 148.139 332.785 147.702 333.149C147.225 333.499 146.85 333.954 146.61 334.472C146.295 335.499 146.209 336.574 146.359 337.633C146.456 338.082 146.504 338.539 146.501 338.996C146.436 338.996 146.152 338.542 145.955 337.694C145.683 336.568 145.724 335.397 146.075 334.29C146.359 333.686 146.811 333.163 147.386 332.775C147.813 332.46 148.265 332.177 148.74 331.926C149.526 331.502 150.072 331.28 150.105 331.381Z" fill="#FF9A6C"/>
<path d="M159.247 333.3C158.695 333.537 158.097 333.664 157.489 333.674C156.397 333.815 154.802 333.896 153.82 335.068C153.408 335.571 153.112 336.147 152.949 336.76C152.785 337.373 152.758 338.01 152.87 338.633C153.066 339.592 153.427 340.158 153.339 340.198C152.892 339.798 152.591 339.279 152.476 338.714C152.294 338.031 152.28 337.319 152.435 336.63C152.59 335.941 152.91 335.293 153.372 334.734C153.911 334.12 154.657 333.69 155.49 333.512C156.136 333.377 156.795 333.306 157.456 333.3C158.051 333.243 158.652 333.243 159.247 333.3Z" fill="#FF9A6C"/>
<path d="M176.228 329.008C174.219 328.575 172.253 327.984 170.353 327.24C168.759 326.675 167.329 326.139 166.302 325.745C165.736 325.551 165.188 325.315 164.664 325.038C164.664 324.826 167.372 325.624 170.561 326.745C172.523 327.333 174.42 328.091 176.228 329.008Z" fill="#FF9A6C"/>
<g opacity="0.3">
<path d="M225.322 239.067C225.322 239.067 221.402 270.791 213.725 283.719C206.048 296.647 199.726 307.717 199.726 307.717L199.18 310.161C199.18 310.161 214.773 287.406 217.591 281.75C222.113 272.714 225.724 263.311 228.38 253.662C231.197 242.673 231.656 240.764 231.568 240.764C231.481 240.764 227.135 237.744 225.322 239.067Z" fill="#212121"/>
</g>
</svg>
