<svg width="153" height="65" viewBox="0 0 153 65" fill="none" xmlns="http://www.w3.org/2000/svg">
<path fill-rule="evenodd" clip-rule="evenodd" d="M12.9999 19.5001L0 32.5002L13.0001 45.5001L26.0002 58.5L39.0001 45.4999L52 32.4998L38.9999 19.4999L25.9998 6.5L12.9999 19.5001ZM26.0366 14.339V16.9365L33.7975 24.696L41.5584 32.4555L44.1584 32.4614C45.5884 32.4646 46.7584 32.4886 46.7584 32.5146C46.7584 32.5891 26.0701 53.2584 25.9956 53.2584C25.9093 53.2584 5.42955 32.7984 5.31598 32.5988C5.24185 32.4686 6.64585 31.0313 15.5735 22.0984C21.2623 16.4061 25.9438 11.7473 25.9767 11.7453C26.0097 11.7433 26.0366 12.9105 26.0366 14.339ZM18.1534 24.7466L10.4 32.5003L18.2002 40.3002L26.0003 48.1L33.7683 40.3317C38.0406 36.0591 41.5038 32.5455 41.4641 32.5235C41.4244 32.5017 41.2048 32.4938 40.976 32.5061C40.7472 32.5183 39.6217 32.5314 38.4748 32.535L36.3895 32.5416L31.1978 37.7332L26.0059 42.9249L20.7912 37.7124L15.5764 32.5L20.7674 27.3045L25.9584 22.1091L25.9659 20.0245C25.97 18.8781 25.9819 17.7414 25.9923 17.4988C26.0027 17.2561 25.9878 17.0429 25.9591 17.0252C25.9303 17.0074 22.4177 20.4821 18.1534 24.7466ZM23.3995 29.9005L20.8 32.501L23.4005 35.1005L26.001 37.7L28.6005 35.0995L31.2 32.499L28.5995 29.8995L25.999 27.3L23.3995 29.9005Z" fill="#47D7AC"/>
<path d="M80.5295 29L72.6418 10.5851L73.836 7.91395H74.9673L84.1119 29H80.5295ZM64.6913 29L71.8562 12.4391L73.5846 16.4929L70.9449 22.6836H76.2557L77.5127 25.5433H69.7193L68.2424 29H64.6913ZM90.746 8.25962V24.5691H87.4149V8.25962H90.746ZM100.236 26.0146V29H87.4149V26.0146H100.236ZM118.965 14.2303C117.394 12.062 115.352 10.9622 112.775 10.9622C110.386 10.9622 108.375 11.8106 106.773 13.5076V9.79943C108.47 8.54244 110.449 7.91395 112.775 7.91395C114.566 7.91395 116.2 8.29104 117.677 9.04524C119.154 9.79943 120.38 10.8679 121.385 12.2506L118.965 14.2303ZM112.9 29.3457C109.758 29.3457 107.15 28.3401 105.044 26.266C102.907 24.2234 101.87 21.678 101.87 18.6298C101.87 17.09 102.153 15.6445 102.782 14.3246C103.41 13.0048 104.259 11.9049 105.327 11.025V18.4727C105.327 20.7981 106.018 22.715 107.464 24.1606C108.878 25.6375 110.701 26.3603 112.932 26.3603C114.22 26.3603 115.414 26.1089 116.514 25.5747C117.583 25.0719 118.463 24.3806 119.154 23.5007V22.4008H122.485V24.1292C121.542 25.7632 120.222 27.0202 118.494 27.963C116.766 28.9057 114.912 29.3457 112.9 29.3457ZM112.775 20.9867V18.0327H122.485V20.9867H112.775ZM136.189 7.91395C139.206 7.91395 141.783 8.95096 143.92 10.9936C146.025 13.0676 147.094 15.613 147.094 18.6927C147.094 20.2639 146.779 21.678 146.182 22.9979C145.554 24.3177 144.737 25.3861 143.7 26.2346V18.7869C143.7 16.5243 142.977 14.6703 141.563 13.1933C140.117 11.7163 138.358 10.9622 136.221 10.9622C133.832 10.9622 131.821 11.8106 130.218 13.5076V9.79943C131.853 8.54244 133.864 7.91395 136.189 7.91395ZM128.773 11.025V18.4727C128.773 20.7353 129.464 22.6208 130.878 24.0977C132.293 25.5747 134.084 26.2975 136.221 26.2975C137.415 26.2975 138.515 26.0775 139.583 25.6061C140.62 25.1347 141.5 24.5063 142.223 23.7521V27.4602C140.526 28.7172 138.515 29.3457 136.221 29.3457C133.172 29.3457 130.596 28.3401 128.49 26.266C126.353 24.2234 125.316 21.6466 125.316 18.567C125.316 17.0271 125.599 15.613 126.228 14.2932C126.856 12.9733 127.704 11.9049 128.773 11.025Z" fill="white"/>
<path d="M62.0085 58V44.4737H70.2677V45.4369H63.0742V58H62.0085ZM64.1399 51.6467V50.663H69.0585V51.6467H64.1399ZM80.9484 58L75.5173 45.0475L75.8657 44.2687H76.2961L82.0756 58H80.9484ZM70.0658 58L74.9435 46.4206L75.4764 47.7118L72.9145 53.8191H78.0587L78.448 54.7824H72.5047L71.1725 58H70.0658ZM94.9064 58.2049L84.8846 45.3959V44.2687H85.2945L95.3368 57.0573V58.2049H94.9064ZM95.3368 55.3152L94.271 54.0036V44.4737H95.3368V55.3152ZM84.8846 58V47.1379L85.9503 48.4701V58H84.8846ZM109.028 58L103.597 45.0475L103.946 44.2687H104.376L110.155 58H109.028ZM98.1456 58L103.023 46.4206L103.556 47.7118L100.994 53.8191H106.138L106.528 54.7824H100.584L99.2523 58H98.1456ZM109.907 45.4369V44.4737H120.871V45.4369H109.907ZM114.846 58V46.5026H115.912V58H114.846ZM123.372 58V44.4737H124.437V58H123.372ZM139.113 47.6503C137.965 46.0517 136.428 45.2525 134.461 45.2525C133.477 45.2525 132.575 45.4779 131.755 45.8878C130.936 46.2977 130.239 46.851 129.706 47.5068V46.1542C130.977 44.904 132.555 44.2687 134.44 44.2687C135.567 44.2687 136.613 44.5147 137.576 45.0065C138.519 45.4984 139.297 46.1747 139.912 47.015L139.113 47.6503ZM134.461 58.2049C132.534 58.2049 130.895 57.5491 129.542 56.1965C128.189 54.8643 127.513 53.2043 127.513 51.2163C127.513 49.8432 127.882 48.6135 128.64 47.5478V51.2163C128.64 52.9174 129.194 54.3315 130.3 55.4792C131.407 56.6269 132.801 57.2007 134.461 57.2007C136.428 57.2007 137.986 56.4219 139.113 54.8234L139.912 55.4587C139.297 56.3195 138.519 56.9753 137.576 57.4671C136.633 57.959 135.588 58.2049 134.461 58.2049ZM150.096 47.015C149.276 45.8468 148.19 45.2525 146.838 45.2525C146.182 45.2525 145.587 45.3754 145.055 45.6214V44.5966C145.567 44.3917 146.161 44.2687 146.838 44.2687C147.698 44.2687 148.477 44.4737 149.174 44.8631C149.871 45.2525 150.424 45.7648 150.875 46.4206L150.096 47.015ZM149.912 57.0777V54.8439C149.912 54.0651 149.727 53.4912 149.358 53.1018C148.989 52.7329 148.334 52.3025 147.411 51.8517L145.874 51.1139C145.423 50.9089 145.055 50.704 144.768 50.54C144.481 50.3761 144.173 50.1506 143.845 49.8637C143.517 49.5768 143.272 49.2489 143.108 48.88C142.944 48.5111 142.882 48.1012 142.882 47.6298C142.882 46.6871 143.251 45.8878 143.989 45.2525V47.3429C143.989 47.7528 144.03 48.1217 144.132 48.4086C144.235 48.6955 144.419 48.9619 144.686 49.1669C144.952 49.3923 145.198 49.5563 145.403 49.6793C145.608 49.8022 145.936 49.9662 146.387 50.1711L147.903 50.9089C148.969 51.4213 149.748 51.9541 150.26 52.5075C150.752 53.0608 151.018 53.7576 151.018 54.5979C151.018 55.6226 150.65 56.4629 149.912 57.0777ZM146.817 58.2049C145.792 58.2049 144.85 57.959 144.009 57.4466C143.169 56.9343 142.493 56.2375 141.96 55.3357L142.759 54.7414C143.784 56.3809 145.136 57.2007 146.817 57.2007C147.493 57.2007 148.17 57.0573 148.846 56.7703V57.7951C148.231 58.082 147.555 58.2049 146.817 58.2049Z" fill="white"/>
</svg>
