<svg width="30" height="31" viewBox="0 0 30 31" fill="none" xmlns="http://www.w3.org/2000/svg">
<path fill-rule="evenodd" clip-rule="evenodd" d="M7.53447 7.91481L0.0693359 15.38L7.53456 22.8452L14.9998 30.3103L22.4649 22.8451L29.93 15.3798L22.4648 7.91471L14.9996 0.449585L7.53447 7.91481ZM15.0207 4.9511V6.4427L19.4774 10.8985L23.934 15.3544L25.4271 15.3578C26.2482 15.3596 26.9201 15.3734 26.9201 15.3883C26.9201 15.4311 15.04 27.3003 14.9972 27.3003C14.9476 27.3003 3.18722 15.5513 3.12201 15.4367C3.07944 15.3619 3.88568 14.5365 9.01231 9.40689C12.2791 6.13812 14.9674 3.46279 14.9863 3.46165C15.0052 3.4605 15.0207 4.13077 15.0207 4.9511ZM10.4938 10.9276L6.04148 15.3801L10.5207 19.8591L14.9999 24.3382L19.4606 19.8772C21.9139 17.4238 23.9027 15.4061 23.8799 15.3935C23.8571 15.3809 23.731 15.3764 23.5996 15.3834C23.4682 15.3905 22.8219 15.398 22.1633 15.4001L20.9658 15.4038L17.9845 18.3851L15.0031 21.3664L12.0086 18.3731L9.01398 15.3799L11.9949 12.3964L14.9758 9.41301L14.9801 8.21595C14.9825 7.55763 14.9893 6.9049 14.9953 6.76558C15.0013 6.62621 14.9927 6.50381 14.9762 6.49363C14.9597 6.48341 12.9426 8.47872 10.4938 10.9276ZM13.5064 13.8872L12.0136 15.3805L13.5069 16.8733L15.0003 18.366L16.493 16.8727L17.9858 15.3794L16.4924 13.8866L14.9991 12.3939L13.5064 13.8872Z" fill="#47D7AC"/>
</svg>
