<svg width="190" height="82" viewBox="0 0 190 82" fill="none" xmlns="http://www.w3.org/2000/svg">
<path fill-rule="evenodd" clip-rule="evenodd" d="M16.1437 25.2157L0 41.3596L16.1439 57.5032L32.2878 73.6469L48.4315 57.503L64.5752 41.3591L48.4313 25.2155L32.2874 9.07178L16.1437 25.2157ZM32.333 18.8065V22.0322L41.9708 31.6681L51.6085 41.3041L54.8372 41.3114C56.6131 41.3154 58.066 41.3452 58.066 41.3774C58.066 41.47 32.3747 67.1378 32.2821 67.1378C32.175 67.1378 6.74258 41.73 6.60154 41.482C6.50949 41.3203 8.25301 39.5354 19.3396 28.4424C26.4041 21.3735 32.2177 15.588 32.2586 15.5855C32.2996 15.583 32.333 17.0325 32.333 18.8065ZM22.5434 31.7309L12.915 41.3598L22.6015 51.0458L32.288 60.7319L41.9345 51.085C47.24 45.7792 51.5407 41.4159 51.4914 41.3886C51.4421 41.3614 51.1694 41.3516 50.8852 41.3669C50.6011 41.3821 49.2034 41.3983 47.7791 41.4029L45.1896 41.411L38.7423 47.8581L32.2949 54.3053L25.8191 47.8323L19.3432 41.3594L25.7896 34.9074L32.2359 28.4556L32.2452 25.8669C32.2504 24.4432 32.2652 23.0317 32.2781 22.7304C32.291 22.429 32.2724 22.1643 32.2367 22.1423C32.201 22.1202 27.839 26.4352 22.5434 31.7309ZM29.0582 38.1312L25.8301 41.3606L29.0594 44.5887L32.2888 47.8169L35.517 44.5875L38.7451 41.3581L35.5157 38.13L32.2863 34.9018L29.0582 38.1312Z" fill="#47D7AC"/>
<path d="M100.037 36.8594L90.2414 13.9911L91.7244 10.6741H93.1292L104.485 36.8594H100.037ZM80.3683 36.8594L89.2658 16.2936L91.4122 21.3277L88.1341 29.0155H94.7292L96.2902 32.5667H86.6122L84.778 36.8594H80.3683ZM112.724 11.1033V31.357H108.587V11.1033H112.724ZM124.509 33.1521V36.8594H108.587V33.1521H124.509ZM147.768 18.518C145.816 15.8253 143.28 14.4594 140.08 14.4594C137.114 14.4594 134.616 15.5131 132.626 17.6204V13.0155C134.733 11.4546 137.192 10.6741 140.08 10.6741C142.304 10.6741 144.333 11.1424 146.168 12.079C148.002 13.0155 149.524 14.3424 150.772 16.0594L147.768 18.518ZM140.236 37.2886C136.333 37.2886 133.094 36.0399 130.48 33.4643C127.826 30.9277 126.538 27.7667 126.538 23.9814C126.538 22.0692 126.89 20.2741 127.67 18.635C128.45 16.996 129.504 15.6302 130.831 14.5375V23.7862C130.831 26.674 131.69 29.0545 133.485 30.8496C135.241 32.6838 137.504 33.5813 140.275 33.5813C141.875 33.5813 143.358 33.2691 144.724 32.6057C146.05 31.9813 147.143 31.1228 148.002 30.0301V28.6643H152.138V30.8106C150.967 32.8399 149.328 34.4008 147.182 35.5716C145.036 36.7423 142.733 37.2886 140.236 37.2886ZM140.08 26.9082V23.2399H152.138V26.9082H140.08ZM169.156 10.6741C172.903 10.6741 176.103 11.9619 178.756 14.4985C181.371 17.0741 182.698 20.235 182.698 24.0594C182.698 26.0106 182.308 27.7667 181.566 29.4057C180.786 31.0448 179.771 32.3716 178.483 33.4252V24.1765C178.483 21.3667 177.586 19.0643 175.83 17.2302C174.035 15.396 171.849 14.4594 169.195 14.4594C166.23 14.4594 163.732 15.5131 161.742 17.6204V13.0155C163.771 11.4546 166.269 10.6741 169.156 10.6741ZM159.947 14.5375V23.7862C159.947 26.596 160.805 28.9374 162.561 30.7716C164.317 32.6057 166.542 33.5033 169.195 33.5033C170.678 33.5033 172.044 33.2301 173.371 32.6448C174.659 32.0594 175.752 31.2789 176.649 30.3423V34.9472C174.542 36.5082 172.044 37.2886 169.195 37.2886C165.41 37.2886 162.21 36.0399 159.596 33.4643C156.942 30.9277 155.654 27.7277 155.654 23.9033C155.654 21.9911 156.005 20.235 156.786 18.596C157.566 16.957 158.62 15.6302 159.947 14.5375Z" fill="black"/>
<path d="M77.0039 73.8594V57.062H87.2605V58.2581H78.3274V73.8594H77.0039ZM79.6508 65.9697V64.7481H85.7589V65.9697H79.6508ZM100.524 73.8594L93.7797 57.7746L94.2123 56.8075H94.7468L101.924 73.8594H100.524ZM87.0098 73.8594L93.067 59.4798L93.7288 61.0832L90.5474 68.6674H96.9355L97.4191 69.8636H90.0384L88.3841 73.8594H87.0098ZM117.858 74.1139L105.412 58.2072V56.8075H105.921L118.392 72.6886V74.1139H117.858ZM118.392 70.5253L117.069 68.8965V57.062H118.392V70.5253ZM105.412 73.8594V60.3705L106.736 62.0248V73.8594H105.412ZM135.394 73.8594L128.65 57.7746L129.083 56.8075H129.617L136.794 73.8594H135.394ZM121.88 73.8594L127.937 59.4798L128.599 61.0832L125.418 68.6674H131.806L132.289 69.8636H124.909L123.254 73.8594H121.88ZM136.485 58.2581V57.062H150.101V58.2581H136.485ZM142.619 73.8594V59.5816H143.942V73.8594H142.619ZM153.207 73.8594V57.062H154.53V73.8594H153.207ZM172.755 61.0068C171.329 59.0217 169.42 58.0291 166.977 58.0291C165.756 58.0291 164.636 58.309 163.618 58.8181C162.6 59.3271 161.734 60.0142 161.073 60.8287V59.1489C162.651 57.5964 164.61 56.8075 166.952 56.8075C168.352 56.8075 169.65 57.1129 170.846 57.7237C172.016 58.3345 172.984 59.1744 173.747 60.2178L172.755 61.0068ZM166.977 74.1139C164.585 74.1139 162.549 73.2995 160.869 71.6197C159.189 69.9654 158.349 67.9039 158.349 65.4352C158.349 63.73 158.808 62.203 159.749 60.8796V65.4352C159.749 67.5476 160.436 69.3037 161.811 70.7289C163.185 72.1542 164.916 72.8668 166.977 72.8668C169.42 72.8668 171.355 71.8997 172.755 69.9145L173.747 70.7035C172.984 71.7724 172.016 72.5868 170.846 73.1977C169.675 73.8085 168.377 74.1139 166.977 74.1139ZM186.394 60.2178C185.376 58.7672 184.027 58.0291 182.347 58.0291C181.533 58.0291 180.795 58.1818 180.133 58.4872V57.2147C180.769 56.9602 181.507 56.8075 182.347 56.8075C183.416 56.8075 184.383 57.062 185.249 57.5455C186.114 58.0291 186.801 58.6654 187.361 59.4798L186.394 60.2178ZM186.165 72.7141V69.94C186.165 68.9729 185.936 68.2602 185.478 67.7767C185.02 67.3186 184.205 66.7841 183.06 66.2242L181.151 65.308C180.591 65.0535 180.133 64.799 179.777 64.5953C179.42 64.3917 179.039 64.1118 178.631 63.7555C178.224 63.3992 177.919 62.992 177.715 62.5338C177.512 62.0757 177.435 61.5667 177.435 60.9814C177.435 59.8106 177.893 58.8181 178.81 58.0291V60.6251C178.81 61.1341 178.86 61.5922 178.988 61.9485C179.115 62.3048 179.344 62.6357 179.675 62.8902C180.006 63.1701 180.311 63.3737 180.566 63.5264C180.82 63.6791 181.227 63.8827 181.787 64.1372L183.671 65.0535C184.994 65.6897 185.961 66.3514 186.597 67.0386C187.208 67.7258 187.539 68.5911 187.539 69.6346C187.539 70.9071 187.081 71.9506 186.165 72.7141ZM182.322 74.1139C181.049 74.1139 179.879 73.8085 178.835 73.1722C177.792 72.5359 176.952 71.6706 176.29 70.5508L177.283 69.8127C178.555 71.8488 180.235 72.8668 182.322 72.8668C183.162 72.8668 184.002 72.6886 184.841 72.3323V73.6049C184.078 73.9612 183.238 74.1139 182.322 74.1139Z" fill="black"/>
</svg>
