<svg width="103" height="40" viewBox="0 0 103 40" fill="none" xmlns="http://www.w3.org/2000/svg">
<path fill-rule="evenodd" clip-rule="evenodd" d="M8.35146 11.6484L0 20L8.35157 28.3515L16.7031 36.7029L25.0546 28.3514L33.406 19.9998L25.0545 11.6483L16.7029 3.29688L8.35146 11.6484ZM16.7265 8.33285V10.0015L21.7123 14.9864L26.6981 19.9713L28.3684 19.9751C29.2871 19.9772 30.0387 19.9926 30.0387 20.0093C30.0387 20.0571 16.7481 33.3356 16.7002 33.3356C16.6448 33.3356 3.48807 20.1916 3.41511 20.0633C3.36749 19.9797 4.26945 19.0564 10.0048 13.3177C13.6594 9.66081 16.6669 6.66784 16.6881 6.66656C16.7092 6.66527 16.7265 7.41512 16.7265 8.33285ZM11.6622 15.0189L6.68121 20.0001L11.6922 25.0109L16.7032 30.0217L21.6936 25.0312C24.4382 22.2864 26.663 20.0291 26.6376 20.015C26.6121 20.001 26.471 19.9959 26.324 20.0038C26.177 20.0117 25.4539 20.02 24.7171 20.0224L23.3775 20.0266L20.0422 23.3618L16.7068 26.6971L13.3568 23.3485L10.0066 19.9999L13.3415 16.6622L16.6763 13.3245L16.6811 11.9853C16.6838 11.2489 16.6914 10.5186 16.6981 10.3628C16.7048 10.2068 16.6952 10.0699 16.6767 10.0585C16.6582 10.0471 14.4017 12.2793 11.6622 15.0189ZM15.0324 18.3299L13.3624 20.0005L15.033 21.6705L16.7037 23.3405L18.3736 21.6699L20.0436 19.9993L18.373 18.3293L16.7024 16.6593L15.0324 18.3299Z" fill="#47D7AC"/>
<path d="M56.9487 18L52.1678 6.83809L52.8916 5.21905H53.5773L59.1202 18H56.9487ZM47.3487 18L51.6916 7.9619L52.7392 10.419L51.1392 14.1714H54.3583L55.1202 15.9048H50.3964L49.5011 18H47.3487ZM63.1413 5.42857V15.3143H61.1222V5.42857H63.1413ZM68.8937 16.1905V18H61.1222V16.1905H68.8937ZM80.2461 9.04762C79.2937 7.73333 78.0556 7.06667 76.4937 7.06667C75.0461 7.06667 73.827 7.58095 72.8556 8.60952V6.3619C73.8842 5.6 75.0842 5.21905 76.4937 5.21905C77.5794 5.21905 78.5699 5.44762 79.4651 5.90476C80.3603 6.3619 81.1032 7.00952 81.7127 7.84762L80.2461 9.04762ZM76.5699 18.2095C74.6651 18.2095 73.0842 17.6 71.808 16.3429C70.5127 15.1048 69.8842 13.5619 69.8842 11.7143C69.8842 10.781 70.0556 9.90476 70.4365 9.10476C70.8175 8.30476 71.3318 7.63809 71.9794 7.10476V11.619C71.9794 13.0286 72.3984 14.1905 73.2746 15.0667C74.1318 15.9619 75.2365 16.4 76.5889 16.4C77.3699 16.4 78.0937 16.2476 78.7603 15.9238C79.408 15.619 79.9413 15.2 80.3603 14.6667V14H82.3794V15.0476C81.808 16.0381 81.008 16.8 79.9603 17.3714C78.9127 17.9429 77.7889 18.2095 76.5699 18.2095ZM76.4937 13.1429V11.3524H82.3794V13.1429H76.4937ZM90.6859 5.21905C92.5145 5.21905 94.0764 5.84762 95.3717 7.08571C96.6478 8.34286 97.2955 9.88571 97.2955 11.7524C97.2955 12.7048 97.105 13.5619 96.7431 14.3619C96.3621 15.1619 95.8669 15.8095 95.2383 16.3238V11.8095C95.2383 10.4381 94.8002 9.31429 93.9431 8.41905C93.0669 7.52381 92.0002 7.06667 90.705 7.06667C89.2574 7.06667 88.0383 7.58095 87.0669 8.60952V6.3619C88.0574 5.6 89.2764 5.21905 90.6859 5.21905ZM86.1907 7.10476V11.619C86.1907 12.9905 86.6097 14.1333 87.4669 15.0286C88.324 15.9238 89.4097 16.3619 90.705 16.3619C91.4288 16.3619 92.0955 16.2286 92.7431 15.9429C93.3717 15.6571 93.905 15.2762 94.3431 14.819V17.0667C93.3145 17.8286 92.0955 18.2095 90.705 18.2095C88.8574 18.2095 87.2955 17.6 86.0193 16.3429C84.724 15.1048 84.0955 13.5429 84.0955 11.6762C84.0955 10.7429 84.2669 9.88571 84.6478 9.08571C85.0288 8.28571 85.5431 7.63809 86.1907 7.10476Z" fill="white"/>
<path d="M44.213 36V27.3571H49.4904V27.9726H44.894V36H44.213ZM45.5749 31.9405V31.3119H48.7178V31.9405H45.5749ZM56.315 36L52.8447 27.7238L53.0673 27.2262H53.3423L57.0352 36H56.315ZM49.3614 36L52.4781 28.6012L52.8185 29.4262L51.1816 33.3286H54.4685L54.7173 33.944H50.9197L50.0685 36H49.3614ZM65.2336 36.131L58.8301 27.9464V27.2262H59.092L65.5086 35.3976V36.131H65.2336ZM65.5086 34.2845L64.8277 33.4464V27.3571H65.5086V34.2845ZM58.8301 36V29.0595L59.511 29.9107V36H58.8301ZM74.257 36L70.7867 27.7238L71.0094 27.2262H71.2844L74.9772 36H74.257ZM67.3034 36L70.4201 28.6012L70.7605 29.4262L69.1236 33.3286H72.4105L72.6594 33.944H68.8617L68.0105 36H67.3034ZM74.8183 27.9726V27.3571H81.8243V27.9726H74.8183ZM77.9743 36V28.6536H78.6552V36H77.9743ZM83.422 36V27.3571H84.103V36H83.422ZM93.4801 29.3869C92.7467 28.3655 91.7646 27.8548 90.5074 27.8548C89.8789 27.8548 89.3027 27.9988 88.7789 28.2607C88.2551 28.5226 87.8098 28.8762 87.4694 29.2952V28.431C88.2813 27.6321 89.2896 27.2262 90.4944 27.2262C91.2146 27.2262 91.8824 27.3833 92.4979 27.6976C93.1003 28.0119 93.5979 28.444 93.9908 28.981L93.4801 29.3869ZM90.5074 36.131C89.2765 36.131 88.2289 35.7119 87.3646 34.8476C86.5003 33.9964 86.0682 32.9357 86.0682 31.6655C86.0682 30.7881 86.3039 30.0024 86.7884 29.3214V31.6655C86.7884 32.7524 87.142 33.656 87.8491 34.3893C88.5563 35.1226 89.4467 35.4893 90.5074 35.4893C91.7646 35.4893 92.7598 34.9917 93.4801 33.9702L93.9908 34.3762C93.5979 34.9262 93.1003 35.3452 92.4979 35.6595C91.8955 35.9738 91.2277 36.131 90.5074 36.131ZM100.498 28.981C99.9742 28.2345 99.2801 27.8548 98.4158 27.8548C97.9968 27.8548 97.617 27.9333 97.2766 28.0905V27.4357C97.6039 27.3048 97.9837 27.2262 98.4158 27.2262C98.9658 27.2262 99.4635 27.3571 99.9087 27.606C100.354 27.8548 100.708 28.1821 100.996 28.6012L100.498 28.981ZM100.38 35.4107V33.9833C100.38 33.4857 100.262 33.119 100.027 32.8702C99.7908 32.6345 99.3718 32.3595 98.7825 32.0714L97.8004 31.6C97.5123 31.469 97.2766 31.3381 97.0932 31.2333C96.9099 31.1286 96.7135 30.9845 96.5039 30.8012C96.2944 30.6179 96.1373 30.4083 96.0325 30.1726C95.9278 29.9369 95.8885 29.675 95.8885 29.3738C95.8885 28.7714 96.1242 28.2607 96.5956 27.8548V29.1905C96.5956 29.4524 96.6218 29.6881 96.6873 29.8714C96.7528 30.0548 96.8706 30.225 97.0408 30.356C97.2111 30.5 97.3682 30.6048 97.4992 30.6833C97.6301 30.7619 97.8397 30.8667 98.1278 30.9976L99.0968 31.469C99.7778 31.7964 100.275 32.1369 100.603 32.4905C100.917 32.844 101.087 33.2893 101.087 33.8262C101.087 34.481 100.852 35.0179 100.38 35.4107ZM98.4028 36.131C97.748 36.131 97.1456 35.9738 96.6087 35.6464C96.0718 35.319 95.6397 34.8738 95.2992 34.2976L95.8099 33.9179C96.4647 34.9655 97.3289 35.4893 98.4028 35.4893C98.8349 35.4893 99.267 35.3976 99.6992 35.2143V35.869C99.3063 36.0524 98.8742 36.131 98.4028 36.131Z" fill="white"/>
</svg>
