<svg width="88" height="80" viewBox="0 0 88 80" fill="none" xmlns="http://www.w3.org/2000/svg">
<rect width="88" height="80" rx="20" fill="#92E3A9" fill-opacity="0.34"/>
<path fill-rule="evenodd" clip-rule="evenodd" d="M42.2418 24H45.7585C48.0368 24 49.8752 24 51.3202 24.195C52.8202 24.395 54.0835 24.8283 55.0868 25.83C55.5835 26.3283 55.9402 26.89 56.1985 27.5133C57.7518 27.7067 59.0568 28.1333 60.0868 29.1633C61.0902 30.1667 61.5202 31.43 61.7235 32.93C61.9168 34.375 61.9168 36.2133 61.9168 38.4917V45.3417C61.9168 47.62 61.9168 49.4583 61.7235 50.9033C61.5202 52.4033 61.0902 53.6667 60.0868 54.67C59.0568 55.7 57.7535 56.1267 56.1985 56.3217C55.9402 56.9433 55.5835 57.505 55.0868 58.0033C54.0835 59.0067 52.8202 59.4367 51.3202 59.64C49.8752 59.8333 48.0368 59.8333 45.7585 59.8333H42.2418C39.9635 59.8333 38.1252 59.8333 36.6802 59.64C35.1802 59.4367 33.9168 59.0067 32.9135 58.0033C32.4346 57.5224 32.0566 56.9507 31.8018 56.3217C30.2485 56.1267 28.9435 55.7 27.9135 54.67C26.9102 53.6667 26.4802 52.4033 26.2785 50.9033C26.0835 49.4583 26.0835 47.62 26.0835 45.3417V38.4917C26.0835 36.2133 26.0835 34.375 26.2785 32.93C26.4785 31.43 26.9118 30.1667 27.9135 29.1633C28.9435 28.1333 30.2468 27.7067 31.8018 27.5133C32.057 26.884 32.4349 26.3118 32.9135 25.83C33.9168 24.8267 35.1802 24.3967 36.6802 24.195C38.1252 24 39.9635 24 42.2418 24ZM31.2135 30.15C30.4852 30.3267 30.0302 30.5833 29.6818 30.9333C29.2202 31.3933 28.9202 32.04 28.7552 33.2633C28.5868 34.5233 28.5835 36.1917 28.5835 38.5833V45.25C28.5835 47.6417 28.5868 49.3117 28.7552 50.57C28.9202 51.7933 29.2218 52.44 29.6818 52.9017C30.0302 53.25 30.4852 53.5067 31.2152 53.6833C31.0835 52.33 31.0835 50.6733 31.0835 48.675V35.1583C31.0835 33.1617 31.0835 31.5033 31.2135 30.15ZM56.7868 53.6833C57.5152 53.5067 57.9702 53.25 58.3185 52.9017C58.7802 52.44 59.0802 51.7933 59.2452 50.5683C59.4135 49.3117 59.4168 47.6433 59.4168 45.2517V38.585C59.4168 36.1917 59.4135 34.5233 59.2452 33.2633C59.0802 32.04 58.7785 31.3933 58.3185 30.9317C57.9702 30.5833 57.5152 30.3267 56.7852 30.15C56.9168 31.5033 56.9168 33.1617 56.9168 35.1583V48.675C56.9168 50.6717 56.9168 52.33 56.7868 53.6833ZM37.0135 26.6717C35.7902 26.8367 35.1435 27.1383 34.6818 27.5983C34.2202 28.06 33.9202 28.7067 33.7552 29.9317C33.5868 31.1867 33.5835 32.8567 33.5835 35.25V48.5833C33.5835 50.975 33.5868 52.6433 33.7552 53.9033C33.9202 55.1267 34.2218 55.7733 34.6818 56.235C35.1435 56.6967 35.7902 56.9967 37.0152 57.1617C38.2718 57.33 39.9418 57.3333 42.3335 57.3333H45.6668C48.0585 57.3333 49.7285 57.33 50.9868 57.1617C52.2102 56.9967 52.8568 56.695 53.3185 56.235C53.7802 55.7733 54.0802 55.1267 54.2452 53.9017C54.4135 52.6433 54.4168 50.975 54.4168 48.5833V35.25C54.4168 32.8583 54.4135 31.1883 54.2452 29.93C54.0802 28.7067 53.7785 28.06 53.3185 27.5983C52.8568 27.1367 52.2102 26.8367 50.9852 26.6717C49.7285 26.5033 48.0585 26.5 45.6668 26.5H42.3335C39.9418 26.5 38.2718 26.5033 37.0135 26.6717ZM37.7502 36.9167C37.7502 36.5851 37.8819 36.2672 38.1163 36.0328C38.3507 35.7984 38.6686 35.6667 39.0002 35.6667H49.0002C49.3317 35.6667 49.6496 35.7984 49.884 36.0328C50.1185 36.2672 50.2502 36.5851 50.2502 36.9167C50.2502 37.2482 50.1185 37.5661 49.884 37.8005C49.6496 38.035 49.3317 38.1667 49.0002 38.1667H39.0002C38.6686 38.1667 38.3507 38.035 38.1163 37.8005C37.8819 37.5661 37.7502 37.2482 37.7502 36.9167ZM37.7502 43.5833C37.7502 43.2518 37.8819 42.9339 38.1163 42.6994C38.3507 42.465 38.6686 42.3333 39.0002 42.3333H49.0002C49.3317 42.3333 49.6496 42.465 49.884 42.6994C50.1185 42.9339 50.2502 43.2518 50.2502 43.5833C50.2502 43.9149 50.1185 44.2328 49.884 44.4672C49.6496 44.7016 49.3317 44.8333 49.0002 44.8333H39.0002C38.6686 44.8333 38.3507 44.7016 38.1163 44.4672C37.8819 44.2328 37.7502 43.9149 37.7502 43.5833ZM37.7502 50.25C37.7502 49.9185 37.8819 49.6005 38.1163 49.3661C38.3507 49.1317 38.6686 49 39.0002 49H44.0002C44.3317 49 44.6496 49.1317 44.884 49.3661C45.1185 49.6005 45.2502 49.9185 45.2502 50.25C45.2502 50.5815 45.1185 50.8995 44.884 51.1339C44.6496 51.3683 44.3317 51.5 44.0002 51.5H39.0002C38.6686 51.5 38.3507 51.3683 38.1163 51.1339C37.8819 50.8995 37.7502 50.5815 37.7502 50.25Z" fill="#47D7AC"/>
</svg>
