<svg width="88" height="88" viewBox="0 0 88 88" fill="none" xmlns="http://www.w3.org/2000/svg">
<rect width="88" height="88" rx="20" fill="black" fill-opacity="0.1"/>
<path d="M26.0835 41.5C26.0835 41.8316 26.2152 42.1495 26.4496 42.3839C26.684 42.6183 27.002 42.75 27.3335 42.75C27.665 42.75 27.983 42.6183 28.2174 42.3839C28.4518 42.1495 28.5835 41.8316 28.5835 41.5H26.0835ZM29.1235 50.0434C28.9966 49.737 28.7533 49.4937 28.447 49.3668C28.1407 49.2399 27.7965 49.2398 27.4902 49.3667C27.1838 49.4936 26.9405 49.7369 26.8136 50.0432C26.6867 50.3495 26.6866 50.6937 26.8135 51L29.1235 50.0434ZM46.8868 60.2834L47.7902 58.7567L45.6402 57.4834L44.7352 59.01L46.8868 60.2834ZM40.2102 58.7567L41.1135 60.2834L43.2635 59.01L42.3618 57.4834L40.2102 58.7567ZM44.7352 59.01C44.6573 59.1347 44.5489 59.2375 44.4204 59.3088C44.2918 59.3801 44.1472 59.4175 44.0002 59.4175C43.8531 59.4175 43.7086 59.3801 43.58 59.3088C43.4514 59.2375 43.3431 59.1347 43.2652 59.01L41.1135 60.2834C42.4018 62.4617 45.5968 62.4617 46.8868 60.2834L44.7368 59.01H44.7352ZM41.5002 28.5834H46.5002V26.0834H41.5002V28.5834ZM59.4168 41.5V43.1667H61.9168V41.5H59.4168ZM37.0052 54.4034C34.9118 54.3667 33.8152 54.2334 32.9552 53.8767L32.0002 56.1867C33.3418 56.7434 34.8685 56.8684 36.9618 56.905L37.0052 54.4034ZM26.8135 51C27.2951 52.1628 28.001 53.2193 28.891 54.1092C29.7809 54.9992 30.8374 55.7051 32.0002 56.1867L32.9552 53.8767C31.2196 53.1578 29.8424 51.7789 29.1235 50.0434L26.8135 51ZM59.4168 43.1667C59.4168 45.125 59.4168 46.5317 59.3402 47.6417C59.2652 48.74 59.1218 49.4567 58.8785 50.0434L61.1868 51C61.5785 50.0567 61.7502 49.0367 61.8352 47.8117C61.9185 46.5967 61.9168 45.0917 61.9168 43.1667H59.4168ZM51.0385 56.9017C53.1318 56.8667 54.6585 56.7434 56.0002 56.1867L55.0435 53.8767C54.1852 54.2334 53.0885 54.3667 50.9968 54.4034L51.0385 56.9034V56.9017ZM58.8785 50.0434C58.1596 51.7789 56.7807 53.1578 55.0452 53.8767L56.0002 56.1867C57.1629 55.7051 58.2194 54.9992 59.1094 54.1092C59.9993 53.2193 60.7052 52.1628 61.1868 51L58.8785 50.0434ZM46.5002 28.5834C49.2518 28.5834 51.2285 28.5834 52.7702 28.7317C54.2935 28.8767 55.2618 29.1534 56.0352 29.6267L57.3402 27.495C56.1085 26.7417 54.7118 26.405 53.0068 26.2417C51.3202 26.0817 49.2035 26.0834 46.5002 26.0834V28.5834ZM61.9168 41.5C61.9168 38.7967 61.9168 36.6817 61.7568 34.9934C61.5952 33.2884 61.2585 31.89 60.5052 30.66L58.3718 31.965C58.8468 32.7384 59.1235 33.7067 59.2685 35.2317C59.4152 36.7717 59.4168 38.7484 59.4168 41.5H61.9168ZM56.0335 29.6267C56.9871 30.2105 57.789 31.0118 58.3735 31.965L60.5052 30.66C59.7148 29.37 58.6302 28.2854 57.3402 27.495L56.0352 29.6284L56.0335 29.6267ZM41.5002 26.0834C38.7968 26.0834 36.6818 26.0834 34.9935 26.2417C33.2885 26.405 31.8902 26.7417 30.6602 27.495L31.9652 29.6284C32.7385 29.1534 33.7068 28.8767 35.2318 28.7317C36.7718 28.585 38.7485 28.5834 41.5002 28.5834V26.0834ZM28.5835 41.5C28.5835 38.7484 28.5835 36.7717 28.7318 35.23C28.8768 33.7067 29.1535 32.7384 29.6268 31.965L27.4952 30.6617C26.7418 31.8917 26.4052 33.2884 26.2418 34.9934C26.0835 36.6834 26.0835 38.7967 26.0835 41.5H28.5835ZM30.6602 27.495C29.3701 28.2854 28.2855 29.3717 27.4952 30.6617L29.6285 31.965C30.2121 31.0122 31.0127 30.2109 31.9652 29.6267L30.6602 27.495ZM42.3602 57.4834C42.0235 56.9117 41.7268 56.4067 41.4368 56.01C41.1385 55.5751 40.7511 55.2086 40.3002 54.935L39.0435 57.0967C39.1218 57.1434 39.2302 57.2267 39.4168 57.4834C39.6185 57.76 39.8468 58.1434 40.2102 58.7567L42.3602 57.4834ZM36.9618 56.9017C37.6952 56.915 38.1568 56.925 38.5102 56.9634C38.8402 57 38.9685 57.0534 39.0435 57.0967L40.3002 54.935C39.8335 54.6765 39.317 54.5208 38.7852 54.4784C38.2885 54.4234 37.6918 54.415 37.0052 54.4034L36.9618 56.905V56.9017ZM47.7902 58.7567C48.1535 58.145 48.3818 57.76 48.5835 57.4834C48.7702 57.2267 48.8785 57.1434 48.9568 57.0967L47.7002 54.935C47.2168 55.2184 46.8668 55.5934 46.5635 56.01C46.2752 56.4067 45.9768 56.91 45.6385 57.4834L47.7902 58.7567ZM50.9968 54.4034C50.3102 54.415 49.7118 54.4234 49.2152 54.4784C48.6968 54.5367 48.1885 54.6517 47.7002 54.935L48.9568 57.0967C49.0318 57.0534 49.1602 57 49.4902 56.9634C49.8435 56.925 50.3068 56.9134 51.0402 56.9017L50.9968 54.4017V54.4034Z" fill="black" fill-opacity="0.71"/>
<path d="M49.8335 37.05L50.1202 37.3367C52.3419 39.5583 53.4535 40.67 53.4535 42.05C53.4535 43.4317 52.3419 44.5417 50.1202 46.765L49.8335 47.05M46.1569 34L44.0002 42.05L41.8435 50.1M38.1669 37.05L37.8802 37.3367C35.6585 39.5583 34.5469 40.67 34.5469 42.05C34.5469 43.4317 35.6585 44.5417 37.8802 46.765L38.1669 47.05" stroke="black" stroke-opacity="0.71" stroke-width="1.5" stroke-linecap="round"/>
</svg>
