<svg width="88" height="81" viewBox="0 0 88 81" fill="none" xmlns="http://www.w3.org/2000/svg">
<rect y="0.5" width="88" height="80" rx="20" fill="#FFA500" fill-opacity="0.15"/>
<path d="M37.75 29.5C35.6938 29.5 34 31.1938 34 33.25C34 34.8663 35.055 36.2437 36.5 36.7662V52.2337C35.055 52.7563 34 54.1338 34 55.75C34 57.8062 35.6938 59.5 37.75 59.5C39.8063 59.5 41.5 57.8062 41.5 55.75C41.5 54.1625 40.48 52.82 39.0775 52.2738C39.2588 50.7362 39.855 49.9788 40.7975 49.3438C41.92 48.5875 43.6438 48.1375 45.5225 47.7025C47.4038 47.2688 49.42 46.8188 51.11 45.6325C52.5938 44.5925 53.7163 42.8888 53.96 40.5162C55.4275 40.0025 56.5 38.625 56.5 37C56.5 34.9437 54.8062 33.25 52.75 33.25C50.6938 33.25 49 34.9437 49 37C49 38.5962 50.04 39.94 51.4613 40.4762C51.29 42.1175 50.655 42.9325 49.7025 43.6012C48.58 44.3888 46.8462 44.8512 44.9775 45.2812C43.1062 45.7113 41.08 46.0912 39.39 47.235C39.2538 47.3275 39.1275 47.4438 39 47.5475V36.7662C40.445 36.2437 41.5 34.8663 41.5 33.25C41.5 31.1938 39.8063 29.5 37.75 29.5ZM37.75 32C38.4538 32 39 32.5475 39 33.25C39 33.9538 38.4525 34.5 37.75 34.5C37.0462 34.5 36.5 33.9525 36.5 33.25C36.5 32.5462 37.0475 32 37.75 32ZM52.75 35.75C53.4538 35.75 54 36.2975 54 37C54 37.7037 53.4525 38.25 52.75 38.25C52.0462 38.25 51.5 37.7025 51.5 37C51.5 36.2962 52.0475 35.75 52.75 35.75ZM37.75 54.5C38.4538 54.5 39 55.0475 39 55.75C39 56.4538 38.4525 57 37.75 57C37.0462 57 36.5 56.4525 36.5 55.75C36.5 55.0462 37.0475 54.5 37.75 54.5Z" fill="#FFA500"/>
</svg>
