<svg width="901" height="766" viewBox="0 0 901 766" fill="none" xmlns="http://www.w3.org/2000/svg">
<g filter="url(#filter0_f_122_4693)">
<path d="M555.5 641.918C793.811 641.918 987 541.201 987 416.959C987 292.718 793.811 192 555.5 192C317.189 192 124 292.718 124 416.959C124 541.201 317.189 641.918 555.5 641.918Z" fill="#92E3A9" fill-opacity="0.23"/>
</g>
<path d="M700.99 501.871C724.917 501.871 744.314 490.127 744.314 475.639C744.314 461.152 724.917 449.407 700.99 449.407C677.063 449.407 657.666 461.152 657.666 475.639C657.666 490.127 677.063 501.871 700.99 501.871Z" fill="#E0E0E0"/>
<path d="M307.775 446.418L259.305 417.08C257.59 416.044 257.59 414.362 259.305 413.327L526.359 251.586C527.317 251.082 528.373 250.819 529.444 250.819C530.516 250.819 531.572 251.082 532.529 251.586L580.987 280.924C582.69 281.959 582.69 283.642 580.987 284.677L313.945 446.418C312.988 446.924 311.932 447.188 310.86 447.188C309.788 447.188 308.732 446.924 307.775 446.418Z" fill="#E0E0E0"/>
<path d="M475.829 400.476L514.847 376.819C518.87 374.373 520.881 371.19 520.881 367.993C520.881 364.797 520.881 362.299 520.881 362.299L473.953 334.411C472.824 333.634 471.884 332.59 471.209 331.362C470.534 330.135 470.142 328.759 470.066 327.345V276.874L401.915 318.169V368.64C401.992 370.053 402.384 371.426 403.059 372.651C403.734 373.876 404.674 374.918 405.802 375.693L446.707 400.463C454.753 405.342 467.796 405.342 475.829 400.476Z" fill="#92E3A9"/>
<g opacity="0.5">
<path d="M475.829 400.476L514.847 376.819C518.87 374.373 520.881 371.19 520.881 367.993C520.881 364.797 520.881 362.299 520.881 362.299L473.953 334.411C472.824 333.634 471.884 332.59 471.209 331.362C470.534 330.135 470.142 328.759 470.066 327.345V276.874L401.915 318.169V368.64C401.992 370.053 402.384 371.426 403.059 372.651C403.734 373.876 404.674 374.918 405.802 375.693L446.707 400.463C454.753 405.342 467.796 405.342 475.829 400.476Z" fill="black"/>
</g>
<path d="M418.277 377.583V383.251L405.789 375.706C404.659 374.929 403.719 373.885 403.044 372.658C402.369 371.431 401.978 370.055 401.902 368.64V318.169L414.895 310.314C415.155 313.769 415.451 317.341 415.722 320.822L406.616 326.348V365.768C406.685 367.18 407.073 368.556 407.746 369.782C408.419 371.007 409.36 372.049 410.49 372.821L418.277 377.583Z" fill="#92E3A9"/>
<path opacity="0.7" d="M418.277 377.583V383.251L405.789 375.706C404.659 374.929 403.719 373.885 403.044 372.658C402.369 371.431 401.978 370.055 401.902 368.64V318.169L414.895 310.314C415.155 313.769 415.451 317.341 415.722 320.822L406.616 326.348V365.768C406.685 367.18 407.073 368.556 407.746 369.782C408.419 371.007 409.36 372.049 410.49 372.821L418.277 377.583Z" fill="black"/>
<path d="M406.616 365.806C406.688 367.22 407.077 368.596 407.753 369.822C408.428 371.047 409.371 372.088 410.503 372.859L446.695 394.782C454.74 399.661 467.783 399.661 475.829 394.782L514.871 371.125C522.917 366.259 522.917 358.365 514.871 353.499L478.655 331.564C477.522 330.792 476.58 329.752 475.905 328.526C475.229 327.3 474.84 325.924 474.768 324.511V285.091L406.616 326.387V365.806Z" fill="#92E3A9"/>
<path opacity="0.3" d="M406.616 365.806C406.688 367.22 407.077 368.596 407.753 369.822C408.428 371.047 409.371 372.088 410.503 372.859L446.695 394.782C454.74 399.661 467.783 399.661 475.829 394.782L514.871 371.125C522.917 366.259 522.917 358.365 514.871 353.499L478.655 331.564C477.522 330.792 476.58 329.752 475.905 328.526C475.229 327.3 474.84 325.924 474.768 324.511V285.091L406.616 326.387V365.806Z" fill="black"/>
<path opacity="0.7" d="M486.564 336.365L478.655 331.577C477.522 330.805 476.58 329.764 475.905 328.539C475.229 327.313 474.84 325.937 474.768 324.523V285.091L406.616 326.387V365.806C406.688 367.22 407.077 368.596 407.753 369.822C408.428 371.047 409.371 372.088 410.503 372.859L418.277 377.57L486.564 336.365Z" fill="#92E3A9"/>
<path opacity="0.6" d="M486.564 336.365L478.655 331.577C477.522 330.805 476.58 329.764 475.905 328.539C475.229 327.313 474.84 325.937 474.768 324.523V285.091L406.616 326.387V365.806C406.688 367.22 407.077 368.596 407.753 369.822C408.428 371.047 409.371 372.088 410.503 372.859L418.277 377.57L486.564 336.365Z" fill="black"/>
<path d="M520.893 362.312V368.058C520.893 371.255 518.87 374.425 514.859 376.871L475.841 400.412C471.565 402.814 466.785 404.059 461.935 404.035V398.367C466.785 398.391 471.565 397.145 475.841 394.743L514.859 371.074C518.87 368.705 520.893 365.47 520.893 362.312Z" fill="#92E3A9"/>
<path opacity="0.2" d="M520.893 362.312V368.058C520.893 371.255 518.87 374.425 514.859 376.871L475.841 400.412C471.565 402.814 466.785 404.059 461.935 404.035V398.367C466.785 398.391 471.565 397.145 475.841 394.743L514.859 371.074C518.87 368.705 520.893 365.47 520.893 362.312Z" fill="black"/>
<path d="M297.188 420.237C298.661 420.984 300.281 421.357 301.916 421.325C303.552 421.294 305.157 420.859 306.603 420.056L570.153 260.477C571.565 259.507 572.739 258.204 573.581 256.67C574.424 255.137 574.911 253.418 575.003 251.651V9.72585C574.945 8.01265 574.503 6.33783 573.712 4.83782C572.921 3.33782 571.803 2.05504 570.449 1.09399C568.979 0.34458 567.361 -0.0296528 565.727 0.00183455C564.093 0.0333219 562.489 0.469641 561.046 1.27517L297.496 160.855C296.084 161.82 294.908 163.121 294.066 164.652C293.223 166.184 292.737 167.902 292.647 169.668V411.67C292.718 413.37 293.165 415.029 293.954 416.516C294.742 418.003 295.849 419.277 297.188 420.237Z" fill="#92E3A9"/>
<path opacity="0.3" d="M297.188 420.237C298.661 420.984 300.281 421.357 301.916 421.325C303.552 421.294 305.157 420.859 306.603 420.056L570.153 260.477C571.565 259.507 572.739 258.204 573.581 256.67C574.424 255.137 574.911 253.418 575.003 251.651V9.72585C574.945 8.01265 574.503 6.33783 573.712 4.83782C572.921 3.33782 571.803 2.05504 570.449 1.09399C568.979 0.34458 567.361 -0.0296528 565.727 0.00183455C564.093 0.0333219 562.489 0.469641 561.046 1.27517L297.496 160.855C296.084 161.82 294.908 163.121 294.066 164.652C293.223 166.184 292.737 167.902 292.647 169.668V411.67C292.718 413.37 293.165 415.029 293.954 416.516C294.742 418.003 295.849 419.277 297.188 420.237Z" fill="black"/>
<path d="M306.603 420.043L570.153 260.464C571.567 259.5 572.744 258.199 573.589 256.667C574.434 255.136 574.922 253.417 575.015 251.651V9.71291C575.015 6.46464 572.831 5.15757 570.153 6.77524L306.603 166.355C305.185 167.329 304.006 168.641 303.164 170.184C302.321 171.727 301.838 173.457 301.753 175.232V417.106C301.753 420.354 303.925 421.674 306.603 420.043Z" fill="#92E3A9"/>
<path d="M306.603 420.043L570.153 260.464C571.567 259.5 572.744 258.199 573.589 256.667C574.434 255.136 574.922 253.417 575.015 251.651V9.71291C575.015 6.46464 572.831 5.15757 570.153 6.77524L306.603 166.355C305.185 167.329 304.006 168.641 303.164 170.184C302.321 171.727 301.838 173.457 301.753 175.232V417.106C301.753 420.354 303.925 421.674 306.603 420.043Z" fill="#92E3A9"/>
<path opacity="0.5" d="M306.603 420.043L570.153 260.464C571.567 259.5 572.744 258.199 573.589 256.667C574.434 255.136 574.922 253.417 575.015 251.651V9.71291C575.015 6.46464 572.831 5.15757 570.153 6.77524L306.603 166.355C305.185 167.329 304.006 168.641 303.164 170.184C302.321 171.727 301.838 173.457 301.753 175.232V417.106C301.753 420.354 303.925 421.674 306.603 420.043Z" fill="black"/>
<path d="M305.887 420.431C304.517 421.046 303.038 421.346 301.548 421.313C300.059 421.28 298.593 420.913 297.25 420.237C295.896 419.273 294.778 417.988 293.987 416.486C293.196 414.984 292.753 413.308 292.696 411.593V384.416L301.803 389.942V417.118C301.741 420.082 303.53 421.415 305.887 420.431Z" fill="#92E3A9"/>
<path opacity="0.7" d="M305.887 420.431C304.517 421.046 303.038 421.346 301.548 421.313C300.059 421.28 298.593 420.913 297.25 420.237C295.896 419.273 294.778 417.988 293.987 416.486C293.196 414.984 292.753 413.308 292.696 411.593V384.416L301.803 389.942V417.118C301.741 420.082 303.53 421.415 305.887 420.431Z" fill="black"/>
<path d="M301.753 389.903V417.08C301.753 420.328 303.925 421.648 306.603 420.017L570.153 260.464C571.567 259.5 572.744 258.199 573.589 256.668C574.434 255.136 574.922 253.417 575.015 251.651V224.409L301.753 389.903Z" fill="#92E3A9"/>
<g opacity="0.5">
<path d="M301.753 389.903V417.08C301.753 420.328 303.925 421.648 306.603 420.017L570.153 260.464C571.567 259.5 572.744 258.199 573.589 256.668C574.434 255.136 574.922 253.417 575.015 251.651V224.409L301.753 389.903Z" fill="black"/>
</g>
<path d="M310.86 369.831V178.299C310.912 177.239 311.203 176.206 311.709 175.286C312.215 174.365 312.923 173.584 313.773 173.006L563.033 22.0977C564.637 21.1271 565.945 21.9166 565.945 23.8707V215.35C565.891 216.411 565.599 217.442 565.093 218.362C564.587 219.282 563.881 220.063 563.033 220.643L313.773 371.539C312.156 372.562 310.86 371.772 310.86 369.831Z" fill="#FAFAFA"/>
<path d="M438.378 318.208C437.052 319.113 435.948 320.334 435.157 321.771C434.365 323.208 433.909 324.821 433.825 326.478C433.825 329.519 435.861 330.761 438.378 329.234C439.703 328.328 440.806 327.107 441.597 325.67C442.388 324.233 442.845 322.621 442.931 320.965C442.931 317.911 440.895 316.681 438.378 318.208Z" fill="#92E3A9"/>
<path opacity="0.5" d="M438.378 318.208C437.052 319.113 435.948 320.334 435.157 321.771C434.365 323.208 433.909 324.821 433.825 326.478C433.825 329.519 435.861 330.761 438.378 329.234C439.703 328.328 440.806 327.107 441.597 325.67C442.388 324.233 442.845 322.621 442.931 320.965C442.931 317.911 440.895 316.681 438.378 318.208Z" fill="white"/>
<path d="M303.173 170.134C302.3 171.683 301.808 173.435 301.741 175.232V389.903L292.635 384.377V169.668C292.706 167.891 293.198 166.161 294.066 164.634L303.173 170.134Z" fill="#92E3A9"/>
<path opacity="0.7" d="M303.173 170.134C302.3 171.683 301.808 173.435 301.741 175.232V389.903L292.635 384.377V169.668C292.706 167.891 293.198 166.161 294.066 164.634L303.173 170.134Z" fill="black"/>
<path d="M397.731 475.393L463.576 515.382C464.722 515.996 465.991 516.315 467.278 516.315C468.565 516.315 469.833 515.996 470.979 515.382L665.501 397.823C667.55 396.529 667.55 394.588 665.501 393.345L599.645 353.357C598.499 352.743 597.23 352.423 595.943 352.423C594.656 352.423 593.387 352.743 592.241 353.357L397.731 470.929C395.695 472.158 395.683 474.177 397.731 475.393Z" fill="#E0E0E0"/>
<path d="M661.515 386.176C661.473 385.694 661.308 385.233 661.039 384.839C660.77 384.446 660.407 384.135 659.985 383.937L598.127 346.498C596.98 345.884 595.712 345.564 594.425 345.564C593.138 345.564 591.869 345.884 590.723 346.498L401.926 460.977C401.508 461.177 401.148 461.49 400.881 461.883C400.615 462.276 400.452 462.735 400.409 463.216V470.023C400.45 470.504 400.614 470.964 400.883 471.355C401.152 471.747 401.517 472.056 401.939 472.249L463.773 509.701C464.92 510.311 466.188 510.629 467.475 510.629C468.761 510.629 470.029 510.311 471.177 509.701L659.973 395.39C660.393 395.195 660.757 394.886 661.026 394.495C661.294 394.103 661.459 393.644 661.503 393.164L661.515 386.176Z" fill="#92E3A9"/>
<path opacity="0.5" d="M661.515 386.176C661.473 385.694 661.308 385.233 661.039 384.839C660.77 384.446 660.407 384.135 659.985 383.937L598.127 346.498C596.98 345.884 595.712 345.564 594.425 345.564C593.138 345.564 591.869 345.884 590.723 346.498L401.926 460.977C401.508 461.177 401.148 461.49 400.881 461.883C400.615 462.276 400.452 462.735 400.409 463.216V470.023C400.45 470.504 400.614 470.964 400.883 471.355C401.152 471.747 401.517 472.056 401.939 472.249L463.773 509.701C464.92 510.311 466.188 510.629 467.475 510.629C468.761 510.629 470.029 510.311 471.177 509.701L659.973 395.39C660.393 395.195 660.757 394.886 661.026 394.495C661.294 394.103 661.459 393.644 661.503 393.164L661.515 386.176Z" fill="black"/>
<path d="M463.81 502.739L401.976 465.455C399.94 464.226 399.928 462.233 401.976 460.99L590.772 346.511C591.919 345.898 593.187 345.578 594.474 345.578C595.761 345.578 597.03 345.898 598.176 346.511L660.035 383.963C662.071 385.258 662.071 387.199 660.035 388.441L471.238 502.752C470.087 503.365 468.814 503.683 467.523 503.681C466.232 503.678 464.959 503.356 463.81 502.739Z" fill="#92E3A9"/>
<path opacity="0.3" d="M463.81 502.739L401.976 465.455C399.94 464.226 399.928 462.233 401.976 460.99L590.772 346.511C591.919 345.898 593.187 345.578 594.474 345.578C595.761 345.578 597.03 345.898 598.176 346.511L660.035 383.963C662.071 385.258 662.071 387.199 660.035 388.441L471.238 502.752C470.087 503.365 468.814 503.683 467.523 503.681C466.232 503.678 464.959 503.356 463.81 502.739Z" fill="black"/>
<path d="M467.265 503.657V510.62C466.059 510.605 464.873 510.299 463.797 509.727L401.988 472.275C401.565 472.079 401.198 471.768 400.927 471.375C400.656 470.981 400.49 470.519 400.446 470.036V463.216C400.494 463.698 400.661 464.158 400.932 464.551C401.203 464.944 401.567 465.256 401.988 465.455L463.797 502.751C464.868 503.34 466.057 503.651 467.265 503.657Z" fill="#92E3A9"/>
<path opacity="0.7" d="M467.265 503.657V510.62C466.059 510.605 464.873 510.299 463.797 509.727L401.988 472.275C401.565 472.079 401.198 471.768 400.927 471.375C400.656 470.981 400.49 470.519 400.446 470.036V463.216C400.494 463.698 400.661 464.158 400.932 464.551C401.203 464.944 401.567 465.256 401.988 465.455L463.797 502.751C464.868 503.34 466.057 503.651 467.265 503.657Z" fill="black"/>
<path d="M546.226 394.717L553.272 398.988C553.413 399.066 553.57 399.106 553.729 399.104L560.219 395.313L552.643 390.835L546.226 394.717Z" fill="#37474F"/>
<path d="M554.703 389.592L561.786 393.876C561.917 393.942 562.061 393.973 562.206 393.967H562.465L568.696 390.188L561.12 385.723L554.703 389.592Z" fill="#37474F"/>
<path d="M531.949 403.375L539.02 407.659C539.151 407.723 539.295 407.754 539.439 407.749L549.953 401.524L542.376 397.06L531.949 403.375Z" fill="#37474F"/>
<path d="M523.472 408.513L530.53 412.783C530.664 412.853 530.812 412.888 530.962 412.887L537.465 409.095L529.888 404.63L523.472 408.513Z" fill="#37474F"/>
<path d="M484.726 475.704L491.228 471.912L483.652 467.447L477.235 471.33L484.306 475.626C484.44 475.679 484.582 475.705 484.726 475.704Z" fill="#37474F"/>
<path d="M514.982 413.637L522.028 417.908C522.167 417.99 522.325 418.03 522.484 418.024L528.975 414.233L521.399 409.755L514.982 413.637Z" fill="#37474F"/>
<path d="M562.231 396.646L555.814 400.528L562.872 404.799C563.005 404.874 563.154 404.909 563.304 404.902L569.807 401.11L562.231 396.646Z" fill="#37474F"/>
<path d="M538.526 431.471L545.029 427.679L537.441 423.214L531.024 427.096L538.095 431.38C538.229 431.446 538.378 431.477 538.526 431.471Z" fill="#37474F"/>
<path d="M571.843 399.777L578.334 395.985L570.757 391.508L564.341 395.39L571.424 399.674C571.553 399.744 571.697 399.78 571.843 399.777Z" fill="#37474F"/>
<path d="M530.049 436.647L536.54 432.855L528.963 428.378L522.546 432.26L529.592 436.531C529.732 436.612 529.889 436.653 530.049 436.647Z" fill="#37474F"/>
<path d="M521.571 441.824L528.062 438.032L520.485 433.554L514.069 437.437L521.139 441.72C521.274 441.789 521.422 441.825 521.571 441.824Z" fill="#37474F"/>
<path d="M555.481 421.247L569.116 413.133L551.964 402.857L544.696 407.283L553.667 412.706C553.74 412.74 553.802 412.794 553.847 412.863C553.893 412.931 553.92 413.011 553.926 413.094C553.922 413.168 553.9 413.239 553.861 413.3C553.822 413.362 553.768 413.411 553.704 413.443L548.04 416.873L555.074 421.131C555.199 421.203 555.339 421.243 555.481 421.247Z" fill="#37474F"/>
<path d="M498.028 423.913L505.098 428.196C505.229 428.263 505.373 428.294 505.518 428.287L512.021 424.495L504.432 420.031L498.028 423.913Z" fill="#37474F"/>
<path d="M547.003 426.385L553.506 422.593L545.93 418.128L539.513 422.01L546.534 426.255C546.677 426.342 546.839 426.387 547.003 426.385Z" fill="#37474F"/>
<path d="M450.384 473.284L456.887 469.492L449.298 465.015L442.882 468.897L449.928 473.155C450.067 473.237 450.224 473.281 450.384 473.284Z" fill="#37474F"/>
<path d="M430.184 464.989L437.267 469.285C437.396 469.344 437.534 469.375 437.674 469.376H437.933L444.177 465.597L436.588 461.132L430.184 464.989Z" fill="#37474F"/>
<path d="M462.206 477.736H462.465L468.635 473.957L461.058 469.492L454.642 473.375L461.725 477.658C461.877 477.723 462.042 477.749 462.206 477.736Z" fill="#37474F"/>
<path d="M467.771 485.966L474.274 482.175L466.685 477.71L460.268 481.592L467.314 485.85C467.452 485.934 467.611 485.975 467.771 485.966Z" fill="#37474F"/>
<path d="M438.662 459.851L445.732 464.148C445.866 464.205 446.008 464.236 446.152 464.238L452.655 460.446L445.066 455.982L438.662 459.851Z" fill="#37474F"/>
<path d="M476.248 480.842L482.739 477.037L475.162 472.572L468.758 476.455L475.828 480.738C475.958 480.807 476.102 480.843 476.248 480.842Z" fill="#37474F"/>
<path d="M464.106 444.412L471.164 448.696C471.3 448.76 471.447 448.791 471.596 448.786L478.099 445.007L470.51 440.53L464.106 444.412Z" fill="#37474F"/>
<path d="M472.583 439.313L479.629 443.584C479.765 443.663 479.918 443.703 480.074 443.7L486.577 439.908L479 435.431L472.583 439.313Z" fill="#37474F"/>
<path d="M481.061 434.175L488.094 438.446C488.234 438.525 488.392 438.565 488.551 438.562L495.054 434.771L487.477 430.306L481.061 434.175Z" fill="#37474F"/>
<path d="M455.616 449.588L462.662 453.846C462.797 453.929 462.95 453.974 463.106 453.976L469.622 450.171L462.02 445.706L455.616 449.588Z" fill="#37474F"/>
<path d="M489.55 429.05L496.621 433.334C496.753 433.395 496.896 433.426 497.04 433.425L503.543 429.633L495.955 425.168L489.55 429.05Z" fill="#37474F"/>
<path d="M447.139 454.765L454.209 459.036C454.344 459.105 454.491 459.14 454.641 459.139L461.132 455.347L453.555 450.883L447.139 454.765Z" fill="#37474F"/>
<path d="M506.505 418.775L513.588 423.072C513.716 423.131 513.855 423.161 513.995 423.162L520.498 419.371L512.921 414.893L506.505 418.775Z" fill="#37474F"/>
<path d="M527.692 417.559L534.738 421.816C534.878 421.897 535.036 421.937 535.195 421.933H535.454L541.686 418.154L534.109 413.689L527.692 417.559Z" fill="#37474F"/>
<path d="M573.46 378.243L580.506 382.501C580.642 382.578 580.795 382.618 580.95 382.617L587.453 378.825L579.864 374.361L573.46 378.243Z" fill="#37474F"/>
<path d="M581.937 373.105L588.983 377.363C589.119 377.442 589.272 377.482 589.427 377.479L595.93 373.687L588.354 369.223L581.937 373.105Z" fill="#37474F"/>
<path d="M519.215 422.683L526.261 426.954C526.397 427.031 526.55 427.071 526.705 427.071L533.208 423.279L525.631 418.801L519.215 422.683Z" fill="#37474F"/>
<path d="M590.415 367.968L597.461 372.238C597.597 372.314 597.75 372.354 597.905 372.355L604.408 368.55L596.831 364.085L590.415 367.968Z" fill="#37474F"/>
<path d="M543.672 416.795H543.931L550.163 413.016L542.586 408.552L536.169 412.434L543.215 416.692C543.357 416.766 543.514 416.802 543.672 416.795Z" fill="#37474F"/>
<path d="M583.035 384.041L590.069 388.298C590.213 388.381 590.374 388.425 590.538 388.428L597.028 384.636L589.452 380.158L583.035 384.041Z" fill="#37474F"/>
<path d="M600.002 373.765L607.036 378.023C607.174 378.108 607.332 378.153 607.493 378.152L613.996 374.36L606.394 369.896L600.002 373.765Z" fill="#37474F"/>
<path d="M598.99 383.29L605.493 379.498L597.904 375.021L591.488 378.903L598.558 383.186C598.693 383.256 598.841 383.291 598.99 383.29Z" fill="#37474F"/>
<path d="M625.163 378.735C625.287 378.792 625.421 378.823 625.558 378.825H625.829L632.061 375.059L614.896 364.784L608.479 368.666L625.163 378.735Z" fill="#37474F"/>
<path d="M510.725 427.821L517.783 432.092C517.919 432.172 518.072 432.212 518.228 432.208H518.487L524.731 428.442L517.142 423.965L510.725 427.821Z" fill="#37474F"/>
<path d="M608.603 389.088H608.862L615.094 385.309L607.517 380.844L601.101 384.727L608.147 388.984C608.288 389.059 608.445 389.094 608.603 389.088Z" fill="#37474F"/>
<path d="M617.08 383.95L623.583 380.158L615.994 375.693L609.578 379.576L616.611 383.833C616.756 383.913 616.917 383.953 617.08 383.95Z" fill="#37474F"/>
<path d="M468.326 453.471L475.372 457.729C475.511 457.812 475.668 457.857 475.829 457.858L482.319 454.066L474.743 449.589L468.326 453.471Z" fill="#37474F"/>
<path d="M451.372 463.824L458.405 468.082C458.545 468.162 458.702 468.202 458.862 468.198H459.121L465.365 464.419L457.776 459.941L451.372 463.824Z" fill="#37474F"/>
<path d="M479.16 467.473L485.663 463.681L478.062 459.204L471.658 463.086L478.741 467.37C478.87 467.442 479.014 467.478 479.16 467.473Z" fill="#37474F"/>
<path d="M470.658 472.598L477.161 468.806L469.572 464.342L463.156 468.224L470.239 472.508C470.369 472.574 470.513 472.605 470.658 472.598Z" fill="#37474F"/>
<path d="M487.638 462.336H487.909L494.141 458.57L486.564 454.092L480.147 457.974L487.181 462.232C487.322 462.308 487.479 462.344 487.638 462.336Z" fill="#37474F"/>
<path d="M502.248 432.959L509.306 437.229C509.444 437.301 509.596 437.337 509.75 437.333H510.009L516.241 433.554L508.664 429.089L502.248 432.959Z" fill="#37474F"/>
<path d="M504.605 452.06L511.108 448.268L503.519 443.804L497.102 447.686L504.148 451.944C504.289 452.022 504.446 452.062 504.605 452.06Z" fill="#37474F"/>
<path d="M496.127 457.198L502.618 453.471L495.041 449.006L488.625 452.888L495.707 457.185C495.845 457.217 495.988 457.222 496.127 457.198Z" fill="#37474F"/>
<path d="M485.293 443.234L492.327 447.492C492.466 447.573 492.624 447.613 492.783 447.608L499.286 443.817L491.71 439.352L485.293 443.234Z" fill="#37474F"/>
<path d="M459.849 458.647L466.882 462.905C467.026 462.985 467.188 463.026 467.351 463.021L473.842 459.23L466.265 454.765L459.849 458.647Z" fill="#37474F"/>
<path d="M493.771 438.097L500.816 442.354C500.956 442.435 501.114 442.475 501.273 442.471L507.764 438.679L500.187 434.214L493.771 438.097Z" fill="#37474F"/>
<path d="M476.828 448.359L483.862 452.63C484.001 452.71 484.159 452.75 484.318 452.746H484.577L490.821 448.98L483.232 444.503L476.828 448.359Z" fill="#37474F"/>
<path d="M513.082 446.922L519.585 443.131L511.996 438.666L505.592 442.548L512.65 446.819C512.782 446.894 512.932 446.93 513.082 446.922Z" fill="#37474F"/>
<path d="M563.206 384.455L570.276 388.738C570.408 388.802 570.551 388.832 570.696 388.829L577.199 385.037L569.61 380.572L563.206 384.455Z" fill="#37474F"/>
<path d="M428.111 466.244L421.694 470.126L428.777 474.41C428.908 474.476 429.052 474.507 429.197 474.5H429.456L435.7 470.722L428.111 466.244Z" fill="#37474F"/>
<path d="M440.821 470.152L431.283 475.924L438.366 480.22C438.494 480.279 438.633 480.31 438.773 480.311H439.044L448.398 474.643L440.821 470.152Z" fill="#37474F"/>
<path d="M417.82 458.388L410.058 463.086L417.116 467.344C417.252 467.424 417.405 467.464 417.561 467.46L425.396 462.866L417.82 458.388Z" fill="#37474F"/>
<path d="M458.207 482.848L450.458 487.545L457.492 491.803C457.632 491.881 457.789 491.921 457.948 491.919L465.784 487.312L458.207 482.848Z" fill="#37474F"/>
<path d="M452.63 474.617L440.871 481.735L447.941 486.018C448.073 486.082 448.216 486.113 448.361 486.109H448.62L460.219 479.095L452.63 474.617Z" fill="#37474F"/>
<path d="M431.073 459.281L437.563 455.49L429.938 451.025L423.521 454.907L430.567 459.178C430.722 459.263 430.898 459.299 431.073 459.281Z" fill="#37474F"/>
<path d="M460.034 493.343L467.08 497.614C467.218 497.683 467.37 497.718 467.524 497.717L477.149 492.036L469.572 487.571L460.034 493.343Z" fill="#37474F"/>
<path d="M439.55 454.144L446.053 450.352L438.464 445.887L432.06 449.77L439.131 454.053C439.262 454.117 439.406 454.148 439.55 454.144Z" fill="#37474F"/>
<path d="M477.161 431.38H477.42L483.664 427.601L476.075 423.136L469.671 427.019L476.717 431.289C476.855 431.36 477.008 431.391 477.161 431.38Z" fill="#37474F"/>
<path d="M485.639 426.294L492.142 422.502L484.565 418.025L478.148 421.907L485.207 426.178C485.338 426.256 485.487 426.296 485.639 426.294Z" fill="#37474F"/>
<path d="M468.684 436.505H468.943L475.113 432.726L467.536 428.261L461.12 432.144L468.19 436.388C468.341 436.474 468.512 436.514 468.684 436.505Z" fill="#37474F"/>
<path d="M456.504 443.881H456.776L463.007 440.115L455.431 435.638L449.014 439.52L456.072 443.791C456.205 443.863 456.355 443.894 456.504 443.881Z" fill="#37474F"/>
<path d="M448.027 449.019L454.53 445.227L446.954 440.749L440.537 444.632L447.608 448.915C447.737 448.986 447.881 449.022 448.027 449.019Z" fill="#37474F"/>
<path d="M628.766 391.184L635.849 395.481C635.978 395.535 636.117 395.561 636.256 395.558H636.515L642.685 391.779L635.109 387.315L628.766 391.184Z" fill="#37474F"/>
<path d="M584.565 417.934L591.599 422.192C591.736 422.28 591.895 422.325 592.056 422.321L598.559 418.529L590.982 414.052L584.565 417.934Z" fill="#37474F"/>
<path d="M611.799 401.46L618.845 405.717C618.981 405.795 619.134 405.835 619.289 405.834H619.548L634.269 396.917L626.693 392.453L611.799 401.46Z" fill="#37474F"/>
<path d="M593.043 412.809L600.077 417.054C600.218 417.142 600.381 417.187 600.545 417.183L607.048 413.392L599.46 408.927L593.043 412.809Z" fill="#37474F"/>
<path d="M601.532 407.671L608.541 411.903C608.683 412.003 608.852 412.053 609.022 412.046L615.525 408.254L607.937 403.789L601.532 407.671Z" fill="#37474F"/>
<path d="M494.103 421.118H494.375L500.606 417.339L493.03 412.861L486.613 416.743L493.647 421.001C493.787 421.08 493.944 421.12 494.103 421.118Z" fill="#37474F"/>
<path d="M634.072 376.354L627.656 380.236L644.327 390.33C644.455 390.389 644.594 390.42 644.734 390.421H644.993L651.224 386.642L634.072 376.354Z" fill="#37474F"/>
<path d="M481.468 480.376L488.501 484.634C488.642 484.711 488.799 484.751 488.958 484.75L496.794 480.143L489.168 475.678L481.468 480.376Z" fill="#37474F"/>
<path d="M491.278 474.423L498.311 478.681C498.454 478.765 498.616 478.81 498.78 478.81H499.039L547.238 449.588L539.649 445.111L491.278 474.423Z" fill="#37474F"/>
<path d="M493.203 470.566L499.706 466.774L492.129 462.31L485.712 466.192L492.783 470.463C492.913 470.531 493.057 470.566 493.203 470.566Z" fill="#37474F"/>
<path d="M471.646 486.316L478.679 490.574C478.819 490.655 478.976 490.7 479.136 490.703L486.971 486.096L479.395 481.618L471.646 486.316Z" fill="#37474F"/>
<path d="M541.722 443.881L548.768 448.152C548.906 448.226 549.058 448.266 549.212 448.268H549.484L557.048 443.687L549.471 439.235L541.722 443.881Z" fill="#37474F"/>
<path d="M561.354 431.988L568.425 436.272C568.559 436.344 568.707 436.379 568.857 436.375H569.116L576.693 431.794L569.116 427.317L561.354 431.988Z" fill="#37474F"/>
<path d="M551.532 437.941L558.615 442.225C558.747 442.288 558.89 442.319 559.035 442.316L566.87 437.708L559.294 433.244L551.532 437.941Z" fill="#37474F"/>
<path d="M571.177 426.048L578.223 430.306C578.362 430.386 578.52 430.427 578.679 430.422H578.938L588.292 424.754L580.715 420.289L571.177 426.048Z" fill="#37474F"/>
<path d="M580.271 394.64H580.531L586.774 390.874L579.247 386.37L572.831 390.253L579.901 394.536C580.016 394.597 580.142 394.633 580.271 394.64Z" fill="#37474F"/>
<path d="M590.957 411.386H591.217L597.46 407.607L589.884 403.142L583.467 407.024L590.526 411.308C590.662 411.37 590.81 411.396 590.957 411.386Z" fill="#37474F"/>
<path d="M561.059 429.49L578.717 418.93L571.128 414.466L553.556 425.103L560.639 429.387C560.768 429.459 560.913 429.494 561.059 429.49Z" fill="#37474F"/>
<path d="M609.701 400.023H609.973L616.204 396.244L608.628 391.78L602.211 395.662L609.282 399.946C609.414 400.004 609.557 400.031 609.701 400.023Z" fill="#37474F"/>
<path d="M618.191 394.898H618.45L624.682 391.132L617.105 386.655L610.688 390.537L617.747 394.821C617.887 394.883 618.039 394.909 618.191 394.898Z" fill="#37474F"/>
<path d="M552.569 434.628L559.072 430.836L551.495 426.359L545.079 430.241L552.125 434.512C552.262 434.586 552.414 434.626 552.569 434.628Z" fill="#37474F"/>
<path d="M600.126 394.226H600.385L606.616 390.447L598.99 385.969L592.574 389.851L599.607 394.096C599.762 394.197 599.944 394.243 600.126 394.226Z" fill="#37474F"/>
<path d="M510.145 460.291L516.648 456.499L509.059 452.034L502.655 455.917L509.725 460.2C509.856 460.266 510 460.297 510.145 460.291Z" fill="#37474F"/>
<path d="M544.091 439.753L550.594 435.961L543.005 431.471L536.601 435.353L543.684 439.65C543.812 439.711 543.951 439.746 544.091 439.753Z" fill="#37474F"/>
<path d="M501.693 465.429H501.952L508.122 461.65L500.545 457.185L494.128 461.067L501.211 465.351C501.362 465.424 501.528 465.451 501.693 465.429Z" fill="#37474F"/>
<path d="M518.647 455.166L525.15 451.374L517.549 446.897L511.132 450.779L518.228 455.076C518.358 455.141 518.502 455.172 518.647 455.166Z" fill="#37474F"/>
<path d="M527.137 450.028H527.421L533.652 446.25L526.051 441.824L519.634 445.706L526.68 449.977C526.825 450.036 526.983 450.054 527.137 450.028Z" fill="#37474F"/>
<path d="M535.614 444.891H535.873L542.117 441.112L534.528 436.647L528.111 440.529L535.194 444.813C535.328 444.868 535.47 444.895 535.614 444.891Z" fill="#37474F"/>
<path d="M514.772 408.603L521.251 404.811L513.662 400.334L507.245 404.216L514.291 408.474C514.435 408.568 514.603 408.614 514.772 408.603Z" fill="#37474F"/>
<path d="M626.668 389.761H626.927L633.171 385.995L625.582 381.517L619.166 385.399L626.248 389.696C626.383 389.747 626.525 389.769 626.668 389.761Z" fill="#37474F"/>
<path d="M531.739 398.328L538.23 394.536L530.653 390.058L524.237 393.941L531.27 398.198C531.413 398.283 531.575 398.328 531.739 398.328Z" fill="#37474F"/>
<path d="M550.57 386.927L557.073 383.135L549.484 378.657L543.08 382.54L550.126 386.81C550.261 386.89 550.414 386.931 550.57 386.927Z" fill="#37474F"/>
<path d="M542.092 392.064L548.583 388.272L540.994 383.795L534.578 387.677L541.624 391.948C541.768 392.029 541.929 392.069 542.092 392.064Z" fill="#37474F"/>
<path d="M506.295 413.741L512.798 409.936L505.209 405.471L498.805 409.354L505.851 413.624C505.988 413.698 506.14 413.738 506.295 413.741Z" fill="#37474F"/>
<path d="M523.249 403.466H523.521L529.691 399.687L522.176 395.235L515.759 399.117L522.793 403.375C522.935 403.445 523.092 403.476 523.249 403.466Z" fill="#37474F"/>
<path d="M559.047 381.789L565.55 377.997L557.973 373.532L551.557 377.415L558.603 381.673C558.738 381.753 558.891 381.793 559.047 381.789Z" fill="#37474F"/>
<path d="M592.302 358.676L598.793 354.884L594.672 352.529L588.255 356.411L591.858 358.546C591.995 358.624 592.147 358.669 592.302 358.676Z" fill="#37474F"/>
<path d="M606.394 367.217L612.897 363.425L605.308 358.999L598.892 362.882L605.938 367.152C606.082 367.212 606.239 367.235 606.394 367.217Z" fill="#37474F"/>
<path d="M566.907 374.089H567.166L573.398 370.31L569.276 367.98L562.86 371.863L566.451 373.998C566.595 374.062 566.751 374.093 566.907 374.089Z" fill="#37474F"/>
<path d="M575.335 368.951H575.595L581.764 365.185L577.717 362.882L571.3 366.764L574.916 368.899C575.05 368.949 575.194 368.967 575.335 368.951Z" fill="#37474F"/>
<path d="M583.813 363.813L590.316 360.022L586.194 357.705L579.778 361.587L583.406 363.736C583.535 363.79 583.674 363.816 583.813 363.813Z" fill="#37474F"/>
<g opacity="0.8">
<path d="M593.462 28.6848V220.799C593.391 222.183 593.01 223.53 592.35 224.731C591.689 225.932 590.768 226.952 589.661 227.709L342.757 377.492C342.386 377.734 341.96 377.868 341.523 377.88C341.364 377.899 341.202 377.899 341.042 377.88C340.931 377.855 340.823 377.816 340.721 377.764L340.512 377.635L340.289 377.479C340.214 377.422 340.144 377.357 340.08 377.285C339.781 376.988 339.542 376.632 339.376 376.237C339.113 375.6 338.979 374.912 338.981 374.218V182.997C339.055 181.611 339.439 180.262 340.101 179.059C340.764 177.856 341.686 176.834 342.794 176.074L589.661 26.4072C590.029 26.139 590.454 25.9683 590.899 25.9097C591.344 25.8511 591.796 25.9063 592.216 26.0707C592.332 26.1254 592.443 26.1903 592.549 26.2648C592.646 26.3389 592.73 26.431 592.796 26.5366C592.839 26.578 592.876 26.6259 592.907 26.6789C592.959 26.7398 593.001 26.8099 593.03 26.886C593.129 27.041 593.204 27.2113 593.252 27.3907C593.295 27.5072 593.324 27.6289 593.338 27.7531C593.344 27.7652 593.347 27.7784 593.347 27.7919C593.347 27.8053 593.344 27.8186 593.338 27.8307C593.372 27.9487 593.393 28.0702 593.4 28.1931C593.45 28.3354 593.462 28.5036 593.462 28.6848Z" fill="black"/>
<path d="M591.352 27.1318C591.479 27.1324 591.605 27.1588 591.722 27.2094H591.796L591.895 27.3518L591.994 27.4941C591.994 27.4941 591.994 27.4941 591.994 27.5588L592.105 27.9341C592.103 27.9643 592.103 27.9946 592.105 28.0247C592.105 28.1541 592.105 28.2836 592.105 28.4259V220.799C592.037 221.957 591.714 223.083 591.162 224.089C590.609 225.095 589.843 225.953 588.921 226.596L342.141 376.379C341.949 376.509 341.727 376.581 341.499 376.586H341.24H341.154L340.993 376.47V376.405C340.816 376.236 340.677 376.029 340.586 375.797C340.386 375.324 340.285 374.812 340.29 374.296V182.997C340.357 181.837 340.681 180.709 341.236 179.703C341.791 178.697 342.561 177.84 343.486 177.199L590.266 27.4941C590.595 27.2834 590.968 27.1591 591.352 27.1318ZM591.352 25.8376C590.754 25.8569 590.171 26.0398 589.662 26.3682L342.758 176.086C341.651 176.845 340.73 177.866 340.067 179.066C339.405 180.266 339.021 181.613 338.945 182.997V374.14C338.942 374.835 339.076 375.522 339.34 376.159C339.506 376.554 339.745 376.91 340.043 377.207C340.107 377.279 340.177 377.344 340.253 377.402L340.475 377.557L340.685 377.686C340.787 377.739 340.895 377.778 341.006 377.803C341.165 377.822 341.327 377.822 341.487 377.803H341.549C341.985 377.79 342.411 377.656 342.782 377.415L589.662 227.709C590.769 226.952 591.69 225.932 592.35 224.731C593.011 223.53 593.392 222.183 593.462 220.799V28.6847C593.462 28.5036 593.462 28.3353 593.462 28.18C593.455 28.0572 593.434 27.9356 593.401 27.8177C593.406 27.8055 593.409 27.7923 593.409 27.7788C593.409 27.7654 593.406 27.7522 593.401 27.74C593.386 27.6159 593.357 27.4942 593.314 27.3777C593.266 27.1983 593.191 27.028 593.092 26.873C593.063 26.7969 593.021 26.7268 592.969 26.6659C592.939 26.6129 592.901 26.5649 592.858 26.5235C592.792 26.4179 592.708 26.3258 592.611 26.2518C592.505 26.1773 592.394 26.1123 592.278 26.0576C592.007 25.9266 591.712 25.8603 591.414 25.8635L591.352 25.8376Z" fill="black"/>
<g opacity="0.7">
<path d="M593.462 28.6848V220.799C593.391 222.183 593.01 223.53 592.35 224.731C591.689 225.932 590.768 226.952 589.661 227.709L342.757 377.492C342.386 377.734 341.96 377.868 341.523 377.88C341.364 377.899 341.202 377.899 341.042 377.88C340.931 377.855 340.823 377.816 340.721 377.764L340.512 377.635L340.289 377.479C340.214 377.422 340.144 377.357 340.08 377.285C339.781 376.988 339.542 376.632 339.376 376.237C339.113 375.6 338.979 374.912 338.981 374.218V182.997C339.055 181.611 339.439 180.262 340.101 179.059C340.764 177.856 341.686 176.834 342.794 176.074L589.661 26.4072C590.029 26.139 590.454 25.9683 590.899 25.9097C591.344 25.8511 591.796 25.9063 592.216 26.0707C592.332 26.1254 592.443 26.1903 592.549 26.2648C592.646 26.3389 592.73 26.431 592.796 26.5366C592.839 26.578 592.876 26.6259 592.907 26.6789C592.959 26.7398 593.001 26.8099 593.03 26.886C593.129 27.041 593.204 27.2113 593.252 27.3907C593.295 27.5072 593.324 27.6289 593.338 27.7531C593.344 27.7652 593.347 27.7784 593.347 27.7919C593.347 27.8053 593.344 27.8186 593.338 27.8307C593.372 27.9487 593.393 28.0702 593.4 28.1931C593.45 28.3354 593.462 28.5036 593.462 28.6848Z" fill="black"/>
</g>
</g>
<path d="M592.216 26.032C591.796 25.8676 591.345 25.8124 590.9 25.871C590.455 25.9296 590.03 26.1003 589.662 26.3685L342.758 176.087C341.652 176.846 340.73 177.866 340.068 179.066C339.406 180.266 339.021 181.613 338.945 182.997V196.042L334.083 193.053V180.111C334.156 178.729 334.538 177.385 335.198 176.186C335.859 174.988 336.779 173.97 337.884 173.214L584.8 23.4955C585.194 23.1903 585.662 23.0068 586.151 22.9656C586.639 22.9245 587.129 23.0273 587.564 23.2626C588.243 23.6896 591.402 25.592 592.216 26.032Z" fill="#92E3A9"/>
<path d="M593.463 28.646C593.463 26.1353 591.747 25.113 589.662 26.3812L342.746 176.099C341.64 176.855 340.72 177.874 340.06 179.072C339.4 180.27 339.018 181.615 338.945 182.997V196.042L593.463 41.7426V28.646Z" fill="#92E3A9"/>
<g opacity="0.4">
<path d="M589.662 26.4072L342.758 176.099C341.63 176.843 340.707 177.882 340.08 179.115L335.243 176.19C335.873 174.996 336.782 173.99 337.884 173.265L584.8 23.4954C585.195 23.1922 585.662 23.0089 586.149 22.9656C586.637 22.9222 587.126 23.0204 587.564 23.2495C588.243 23.6895 591.402 25.5789 592.204 26.0319C591.784 25.8673 591.331 25.8154 590.887 25.881C590.443 25.9465 590.022 26.1274 589.662 26.4072Z" fill="white"/>
</g>
<path opacity="0.15" d="M334.083 193.078V180.137C334.137 178.726 334.536 177.353 335.243 176.151L340.093 179.063C339.384 180.258 338.988 181.629 338.945 183.036V196.081L334.083 193.078Z" fill="black"/>
<path d="M570.609 43.5027C569.926 44.0725 569.377 44.7996 569.005 45.6277C568.632 46.4558 568.447 47.3626 568.462 48.278C568.462 50.1933 569.425 51.1639 570.609 50.4521C571.293 49.8823 571.842 49.1552 572.214 48.3271C572.586 47.499 572.772 46.5922 572.756 45.6768C572.695 43.7615 571.732 42.7909 570.609 43.5027Z" fill="black"/>
<path d="M578.285 38.8181C577.601 39.3846 577.052 40.1092 576.679 40.9353C576.307 41.7615 576.121 42.6668 576.138 43.5805C576.138 45.4958 577.1 46.4664 578.285 45.7546C578.977 45.19 579.536 44.4653 579.917 43.6369C580.298 42.8085 580.491 41.8989 580.481 40.9793C580.481 39.0639 579.469 38.0545 578.285 38.8181Z" fill="black"/>
<path d="M586.022 34.172C585.336 34.7398 584.786 35.4666 584.413 36.2951C584.041 37.1237 583.856 38.0315 583.875 38.9474C583.875 40.8627 584.837 41.8333 586.022 41.1086C586.707 40.5407 587.258 39.814 587.63 38.9855C588.003 38.1569 588.187 37.2491 588.169 36.3332C588.169 34.3661 587.206 33.3955 586.022 34.172Z" fill="black"/>
<path opacity="0.9" d="M340.34 377.505L339.871 377.221C339.525 377.001 339.118 376.768 338.637 376.535L337.995 376.159L336.996 375.564C336.675 375.357 336.391 375.189 336.157 375.059C335.922 374.93 335.762 374.827 335.688 374.788C335.435 374.652 335.212 374.462 335.034 374.231C334.825 373.994 334.654 373.723 334.528 373.429C334.231 372.77 334.079 372.049 334.084 371.319V193.066L338.945 196.055V374.154C338.965 374.845 339.098 375.528 339.34 376.172C339.506 376.567 339.745 376.923 340.044 377.221C340.098 377.301 340.17 377.368 340.253 377.415L340.34 377.505Z" fill="#37474F"/>
<path d="M421.485 262.547C421.485 262.547 412.502 256.452 411.342 256.413L385.799 255.572L395.954 261.24V261.706L421.485 262.547Z" fill="#263238"/>
<path d="M377.704 280.911V264.087L421.485 207.003V229.262L395.954 261.188V261.654L421.485 262.496V284.755L377.704 280.911Z" fill="#FAFAFA"/>
<path d="M421.485 207.055L411.342 200.921L367.549 258.005L377.704 264.139L421.485 207.055Z" fill="black"/>
<path d="M367.549 258.005V274.777L377.704 280.911V264.139L367.549 258.005Z" fill="#37474F"/>
<path d="M447.991 273.78L434.417 282.011L468.302 151.757L481.406 143.824L447.991 273.78Z" fill="#FAFAFA"/>
<path d="M481.394 143.824L471.238 137.689L458.134 145.622L468.277 151.757L481.394 143.824Z" fill="black"/>
<path d="M458.134 145.623L468.277 151.757L434.405 282.011L424.249 275.877L458.134 145.623Z" fill="#37474F"/>
<path d="M484.158 212.322L494.301 218.456L519.832 186.233L509.689 180.098L484.158 212.322Z" fill="#263238"/>
<path d="M519.832 186.232L494.301 185.223V162.964L538.082 167.027V183.851L494.301 240.793V218.456L519.832 186.698V186.232Z" fill="#FAFAFA"/>
<path d="M484.158 156.83L494.301 162.964L538.095 167.028L527.939 160.893L484.158 156.83Z" fill="black"/>
<path d="M494.301 162.964V185.223L484.158 179.089V156.83" fill="#37474F"/>
<path d="M484.158 212.322L494.301 218.456V240.715L484.158 234.581V212.322Z" fill="#37474F"/>
<g opacity="0.8">
<path d="M673.189 61.8143V253.928C673.118 255.316 672.736 256.666 672.073 257.869C671.411 259.072 670.487 260.094 669.376 260.852L564.131 324.523C563.763 324.771 563.335 324.906 562.897 324.911C562.735 324.909 562.574 324.887 562.416 324.847L562.083 324.73L561.886 324.601L561.664 324.445C561.588 324.388 561.518 324.323 561.454 324.251C561.151 323.958 560.912 323.601 560.75 323.203C560.487 322.566 560.353 321.879 560.356 321.184V130.041C560.427 128.655 560.809 127.307 561.469 126.104C562.129 124.901 563.049 123.878 564.156 123.117L669.327 59.5108C669.695 59.2383 670.122 59.0641 670.569 59.0032C671.016 58.9424 671.471 58.9966 671.893 59.1614C672.007 59.2179 672.115 59.2874 672.214 59.3684C672.308 59.442 672.391 59.5292 672.461 59.6273C672.505 59.6687 672.542 59.7166 672.572 59.7696C672.625 59.8305 672.666 59.9006 672.696 59.9767C672.801 60.1344 672.88 60.3093 672.93 60.4943C672.973 60.6063 673.002 60.7238 673.016 60.8437C673.022 60.8559 673.025 60.8691 673.025 60.8826C673.025 60.896 673.022 60.9093 673.016 60.9214C673.05 61.0393 673.071 61.1609 673.078 61.2837C673.177 61.4779 673.189 61.6461 673.189 61.8143Z" fill="black"/>
<path d="M671.067 60.2617C671.195 60.2593 671.323 60.2904 671.437 60.3522H671.511L671.622 60.4946L671.708 60.6499L671.832 61.0252C671.838 61.0551 671.838 61.0859 671.832 61.1158C671.839 61.2451 671.839 61.3747 671.832 61.504V253.928C671.761 255.088 671.436 256.215 670.882 257.22C670.328 258.226 669.559 259.084 668.636 259.726L563.527 323.41C563.335 323.54 563.113 323.612 562.885 323.617H562.626H562.54L562.379 323.514C562.21 323.341 562.076 323.134 561.984 322.906C561.785 322.433 561.684 321.921 561.688 321.405V130.041C561.756 128.883 562.079 127.756 562.631 126.751C563.184 125.745 563.95 124.887 564.872 124.244L670.117 60.637C670.438 60.4178 670.808 60.2886 671.19 60.2617M671.19 58.9675C670.591 58.9936 670.009 59.1808 669.5 59.5111L564.255 123.118C563.148 123.878 562.228 124.902 561.567 126.104C560.907 127.307 560.526 128.656 560.454 130.041V321.185C560.451 321.879 560.586 322.566 560.849 323.203C561.01 323.601 561.25 323.958 561.552 324.252C561.616 324.323 561.687 324.388 561.762 324.446L561.984 324.601L562.182 324.73L562.515 324.847C562.672 324.887 562.834 324.909 562.996 324.912C563.434 324.905 563.861 324.77 564.23 324.523L669.327 260.852C670.436 260.093 671.359 259.07 672.021 257.868C672.684 256.665 673.067 255.315 673.14 253.928V61.8146C673.14 61.6464 673.14 61.4781 673.14 61.3099C673.132 61.1871 673.112 61.0655 673.078 60.9475C673.084 60.9354 673.086 60.9222 673.086 60.9087C673.086 60.8953 673.084 60.882 673.078 60.8699C673.064 60.75 673.035 60.6325 672.992 60.5205C672.941 60.3355 672.862 60.1605 672.757 60.0028C672.728 59.9267 672.686 59.8567 672.634 59.7958C672.604 59.7428 672.566 59.6948 672.523 59.6534C672.453 59.5553 672.37 59.4682 672.276 59.3946C672.177 59.3135 672.069 59.2441 671.955 59.1875C671.68 59.0563 671.381 58.99 671.079 58.9934L671.19 58.9675Z" fill="black"/>
<g opacity="0.8">
<path d="M673.189 61.8143V253.928C673.118 255.316 672.736 256.666 672.073 257.869C671.411 259.072 670.487 260.094 669.376 260.852L564.131 324.523C563.763 324.771 563.335 324.906 562.897 324.911C562.735 324.909 562.574 324.887 562.416 324.847L562.083 324.73L561.886 324.601L561.664 324.445C561.588 324.388 561.518 324.323 561.454 324.251C561.151 323.958 560.912 323.601 560.75 323.203C560.487 322.566 560.353 321.879 560.356 321.184V130.041C560.427 128.655 560.809 127.307 561.469 126.104C562.129 124.901 563.049 123.878 564.156 123.117L669.327 59.5108C669.695 59.2383 670.122 59.0641 670.569 59.0032C671.016 58.9424 671.471 58.9966 671.893 59.1614C672.007 59.2179 672.115 59.2874 672.214 59.3684C672.308 59.442 672.391 59.5292 672.461 59.6273C672.505 59.6687 672.542 59.7166 672.572 59.7696C672.625 59.8305 672.666 59.9006 672.696 59.9767C672.801 60.1344 672.88 60.3093 672.93 60.4943C672.973 60.6063 673.002 60.7238 673.016 60.8437C673.022 60.8559 673.025 60.8691 673.025 60.8826C673.025 60.896 673.022 60.9093 673.016 60.9214C673.05 61.0393 673.071 61.1609 673.078 61.2837C673.177 61.4779 673.189 61.6461 673.189 61.8143Z" fill="black"/>
</g>
</g>
<path d="M671.943 59.1617C671.52 58.997 671.065 58.9427 670.618 59.0036C670.171 59.0645 669.745 59.2387 669.376 59.5111L564.131 123.118C563.025 123.879 562.104 124.902 561.444 126.104C560.784 127.307 560.402 128.656 560.331 130.041V143.086L555.469 140.097V127.155C555.541 125.773 555.923 124.429 556.583 123.23C557.244 122.032 558.164 121.014 559.269 120.258L664.526 56.6382C664.921 56.3396 665.386 56.16 665.871 56.1189C666.356 56.0779 666.843 56.1769 667.278 56.4052C667.969 56.8193 671.128 58.7605 671.943 59.1617Z" fill="#92E3A9"/>
<path d="M673.177 61.7888C673.177 59.2006 671.474 58.2429 669.376 59.5112L564.131 123.131C563.024 123.888 562.103 124.908 561.443 126.109C560.782 127.31 560.401 128.657 560.331 130.041V143.086L673.177 74.8854V61.7888Z" fill="#92E3A9"/>
<g opacity="0.4">
<path d="M669.327 59.5111L564.094 123.131C562.974 123.859 562.048 124.874 561.404 126.081L556.58 123.157C557.206 121.964 558.116 120.961 559.22 120.245L664.514 56.6252C664.911 56.3255 665.378 56.1453 665.865 56.1042C666.353 56.0632 666.841 56.1628 667.278 56.3922C667.969 56.8322 671.116 58.7087 671.918 59.1617C671.493 58.9878 671.033 58.9287 670.58 58.9898C670.127 59.0508 669.696 59.2301 669.327 59.5111Z" fill="white"/>
</g>
<path opacity="0.15" d="M555.469 140.11V127.168C555.524 125.757 555.923 124.385 556.629 123.182L561.466 126.094C560.766 127.293 560.374 128.662 560.331 130.067V143.112L555.469 140.11Z" fill="black"/>
<path d="M650.262 76.6454C649.578 77.2119 649.029 77.9365 648.656 78.7626C648.284 79.5888 648.098 80.4941 648.115 81.4078C648.115 83.3231 649.077 84.2937 650.262 83.5819C650.945 83.0121 651.494 82.285 651.867 81.4569C652.239 80.6288 652.424 79.7219 652.409 78.8065C652.409 76.8783 651.446 75.9206 650.262 76.6454Z" fill="black"/>
<path d="M657.999 71.9478C657.315 72.5169 656.765 73.2439 656.393 74.0722C656.02 74.9004 655.835 75.8076 655.852 76.7231C655.852 78.6384 656.814 79.609 657.999 78.8843C658.686 78.3185 659.238 77.5922 659.611 76.7632C659.984 75.9341 660.167 75.0253 660.146 74.109C660.146 72.1937 659.196 71.2231 657.999 71.9478Z" fill="black"/>
<path d="M665.736 67.2501C665.053 67.8199 664.504 68.547 664.131 69.3751C663.759 70.2032 663.573 71.11 663.589 72.0254C663.589 73.9407 664.551 74.9113 665.736 74.1866C666.423 73.6228 666.976 72.899 667.351 72.0725C667.726 71.2459 667.912 70.3393 667.895 69.4242C667.895 67.5089 666.933 66.5254 665.736 67.2501Z" fill="black"/>
<path opacity="0.9" d="M561.725 324.536L561.256 324.252L560.084 323.566L559.442 323.178L558.443 322.582C558.122 322.375 557.826 322.207 557.603 322.077C557.381 321.948 557.209 321.845 557.135 321.806C556.882 321.67 556.659 321.48 556.481 321.249C556.272 321.012 556.101 320.741 555.975 320.447C555.677 319.788 555.525 319.067 555.53 318.337V140.097L560.392 143.086V321.185C560.412 321.876 560.545 322.559 560.787 323.203C560.949 323.601 561.188 323.958 561.49 324.252C561.545 324.332 561.617 324.399 561.7 324.446C561.704 324.477 561.712 324.508 561.725 324.536Z" fill="#37474F"/>
<path d="M569.672 153.918C569.682 153.659 569.75 153.407 569.869 153.18L572.608 147.24C572.633 147.173 572.676 147.114 572.732 147.072V147.007C572.764 146.982 572.803 146.969 572.843 146.969C572.883 146.969 572.922 146.982 572.954 147.007C572.987 147.046 573.012 147.091 573.026 147.14C573.041 147.189 573.046 147.241 573.04 147.292V149.35C573.063 149.556 573.063 149.765 573.04 149.971C572.988 150.157 572.922 150.339 572.843 150.514L571.399 153.646L572.843 155.044C572.927 155.128 572.995 155.229 573.04 155.342C573.066 155.526 573.066 155.713 573.04 155.898V157.891C573.041 158.03 573.012 158.167 572.954 158.292C572.907 158.404 572.83 158.498 572.732 158.564C572.712 158.573 572.691 158.578 572.67 158.578C572.649 158.578 572.628 158.573 572.608 158.564L569.869 155.976C569.801 155.913 569.748 155.835 569.713 155.748C569.679 155.66 569.665 155.565 569.672 155.471V153.918Z" fill="#92E3A9"/>
<path d="M579.679 138.997C579.727 138.795 579.798 138.599 579.889 138.414C579.974 138.22 580.117 138.061 580.296 137.961L581.32 137.34C581.334 137.326 581.351 137.314 581.369 137.306C581.387 137.298 581.406 137.294 581.425 137.294C581.445 137.294 581.464 137.298 581.482 137.306C581.5 137.314 581.517 137.326 581.53 137.34C581.565 137.377 581.592 137.422 581.609 137.471C581.626 137.52 581.633 137.573 581.629 137.625C581.64 137.698 581.64 137.772 581.629 137.845L576.94 158.81C576.898 159.008 576.831 159.199 576.742 159.379C576.659 159.58 576.517 159.748 576.335 159.858L575.348 160.453C575.319 160.48 575.282 160.494 575.243 160.494C575.205 160.494 575.167 160.48 575.138 160.453C575.069 160.372 575.034 160.265 575.04 160.156C575.035 160.082 575.035 160.009 575.04 159.936L579.679 138.997Z" fill="#92E3A9"/>
<path d="M586.935 144.95C586.93 145.208 586.867 145.46 586.75 145.687L584.011 151.627C583.977 151.693 583.936 151.754 583.887 151.809H583.813C583.783 151.833 583.746 151.846 583.708 151.846C583.67 151.846 583.634 151.833 583.603 151.809C583.539 151.725 583.508 151.618 583.517 151.511V149.518C583.494 149.312 583.494 149.103 583.517 148.897C583.564 148.709 583.63 148.526 583.714 148.353L585.158 145.221L583.714 143.837C583.628 143.749 583.561 143.643 583.517 143.526C583.492 143.342 583.492 143.154 583.517 142.97V140.977C583.517 140.838 583.547 140.701 583.603 140.575C583.65 140.468 583.722 140.374 583.813 140.304H583.887C583.887 140.304 583.961 140.304 584.011 140.304L586.75 142.892C586.817 142.957 586.868 143.038 586.901 143.128C586.933 143.218 586.944 143.314 586.935 143.41V144.95Z" fill="#92E3A9"/>
<path d="M594.536 143.565C594.575 143.533 594.623 143.516 594.672 143.516C594.721 143.516 594.769 143.533 594.808 143.565C594.848 143.615 594.879 143.672 594.898 143.734C594.917 143.797 594.924 143.862 594.919 143.927V146.114C594.919 146.285 594.881 146.453 594.808 146.606C594.755 146.75 594.66 146.872 594.536 146.956L593.302 147.732C593.268 147.768 593.221 147.788 593.173 147.788C593.124 147.788 593.078 147.768 593.043 147.732C593.002 147.686 592.97 147.63 592.951 147.57C592.932 147.51 592.926 147.446 592.932 147.383V145.183C592.934 145.012 592.972 144.844 593.043 144.691C593.096 144.554 593.186 144.437 593.302 144.354L594.536 143.565Z" fill="#92E3A9"/>
<path d="M598.855 140.964C598.893 140.93 598.941 140.912 598.991 140.912C599.041 140.912 599.089 140.93 599.127 140.964C599.167 141.014 599.198 141.071 599.217 141.133C599.236 141.196 599.243 141.261 599.238 141.326V143.513C599.237 143.684 599.199 143.852 599.127 144.005C599.074 144.149 598.979 144.271 598.855 144.355L597.621 145.131C597.582 145.162 597.534 145.18 597.485 145.18C597.436 145.18 597.389 145.162 597.35 145.131C597.309 145.081 597.278 145.024 597.259 144.962C597.24 144.899 597.233 144.834 597.239 144.769V142.569C597.242 142.398 597.28 142.231 597.35 142.077C597.402 141.936 597.498 141.818 597.621 141.74L598.855 140.964Z" fill="#92E3A9"/>
<path d="M603.174 138.349C603.209 138.314 603.255 138.294 603.303 138.294C603.352 138.294 603.398 138.314 603.433 138.349C603.474 138.399 603.504 138.457 603.523 138.519C603.542 138.581 603.55 138.647 603.544 138.712V140.899C603.543 141.074 603.505 141.246 603.433 141.404C603.377 141.538 603.288 141.654 603.174 141.74L601.878 142.517C601.842 142.549 601.796 142.567 601.749 142.567C601.701 142.567 601.655 142.549 601.619 142.517C601.579 142.467 601.548 142.409 601.529 142.347C601.51 142.285 601.503 142.219 601.508 142.154V139.954C601.511 139.784 601.549 139.616 601.619 139.462C601.675 139.328 601.765 139.212 601.878 139.126L603.174 138.349Z" fill="#92E3A9"/>
<path d="M570.832 169.926L634.06 131.646C634.813 131.193 635.418 131.517 635.418 132.358C635.385 132.835 635.245 133.297 635.009 133.706C634.773 134.116 634.448 134.461 634.06 134.713L570.832 173.006C570.079 173.459 569.475 173.136 569.475 172.282C569.508 171.805 569.649 171.343 569.885 170.934C570.121 170.525 570.445 170.179 570.832 169.926Z" fill="#92E3A9"/>
<path d="M591.118 194.502L654.346 156.209C655.099 155.756 655.704 156.079 655.704 156.933C655.67 157.41 655.53 157.872 655.294 158.281C655.058 158.69 654.733 159.036 654.346 159.289L591.118 197.569C590.365 198.022 589.761 197.699 589.761 196.857C589.794 196.38 589.934 195.918 590.17 195.509C590.406 195.099 590.731 194.754 591.118 194.502Z" fill="#E0E0E0"/>
<path d="M591.118 206.783L621.387 188.471C622.128 188.018 622.732 188.342 622.732 189.196C622.7 189.67 622.561 190.129 622.327 190.536C622.094 190.943 621.772 191.287 621.387 191.538L591.118 209.863C590.365 210.303 589.761 209.993 589.761 209.139C589.795 208.662 589.935 208.2 590.171 207.791C590.407 207.381 590.731 207.036 591.118 206.783Z" fill="#E0E0E0"/>
<path d="M591.118 219.064L621.387 200.752C622.128 200.312 622.732 200.623 622.732 201.477C622.698 201.952 622.559 202.413 622.325 202.821C622.092 203.23 621.77 203.576 621.387 203.833L591.118 222.144C590.365 222.597 589.761 222.274 589.761 221.42C589.795 220.943 589.935 220.481 590.171 220.072C590.407 219.663 590.731 219.317 591.118 219.064Z" fill="#E0E0E0"/>
<path d="M639.305 128.475L664.49 113.114C665.243 112.661 665.847 112.985 665.847 113.826C665.814 114.303 665.674 114.765 665.438 115.175C665.202 115.584 664.877 115.929 664.49 116.181L639.305 131.491C638.552 131.944 637.947 131.62 637.947 130.779C637.988 130.311 638.131 129.859 638.367 129.459C638.602 129.059 638.923 128.723 639.305 128.475Z" fill="#92E3A9"/>
<path d="M570.832 305.047L634.06 266.766C634.813 266.313 635.418 266.637 635.418 267.478C635.385 267.955 635.245 268.417 635.009 268.827C634.773 269.236 634.448 269.581 634.06 269.833L570.832 308.127C570.079 308.567 569.475 308.256 569.475 307.402C569.508 306.925 569.649 306.463 569.885 306.054C570.121 305.645 570.445 305.3 570.832 305.047Z" fill="#92E3A9"/>
<path d="M639.305 263.583L664.49 248.273C665.243 247.82 665.847 248.144 665.847 248.998C665.813 249.475 665.673 249.937 665.437 250.346C665.201 250.755 664.877 251.1 664.49 251.353L639.305 266.663C638.552 267.116 637.947 266.792 637.947 265.938C637.981 265.461 638.122 265 638.357 264.59C638.593 264.181 638.918 263.836 639.305 263.583Z" fill="#92E3A9"/>
<path d="M639.305 226.804L664.49 211.468C665.243 211.015 665.847 211.339 665.847 212.18C665.814 212.657 665.674 213.119 665.438 213.529C665.202 213.938 664.877 214.283 664.49 214.535L639.305 229.845C638.552 230.298 637.947 229.974 637.947 229.133C637.984 228.66 638.126 228.203 638.361 227.799C638.597 227.394 638.92 227.053 639.305 226.804Z" fill="#92E3A9"/>
<path d="M639.305 239.085L664.49 223.775C665.243 223.322 665.847 223.646 665.847 224.487C665.814 224.964 665.674 225.426 665.438 225.836C665.202 226.245 664.877 226.59 664.49 226.842L639.305 242.152C638.552 242.605 637.947 242.281 637.947 241.44C637.98 240.963 638.12 240.501 638.356 240.091C638.592 239.682 638.917 239.337 639.305 239.085Z" fill="#92E3A9"/>
<path d="M570.832 292.778L634.06 254.485C634.813 254.045 635.418 254.355 635.418 255.21C635.384 255.686 635.243 256.148 635.008 256.558C634.772 256.967 634.447 257.312 634.06 257.565L570.832 295.845C570.079 296.298 569.475 295.975 569.475 295.134C569.507 294.656 569.648 294.194 569.883 293.785C570.119 293.375 570.444 293.03 570.832 292.778Z" fill="#F5F5F5"/>
<path d="M617.821 239.771L631.975 231.204C632.715 230.751 633.32 231.074 633.32 231.915C633.287 232.391 633.149 232.852 632.915 233.261C632.682 233.67 632.359 234.016 631.975 234.271L617.821 242.838C617.069 243.291 616.464 242.98 616.464 242.126C616.497 241.649 616.637 241.187 616.873 240.777C617.109 240.368 617.434 240.023 617.821 239.771Z" fill="#92E3A9"/>
<path d="M570.832 182.247L607.715 159.897C608.456 159.444 609.06 159.768 609.06 160.609C609.028 161.084 608.889 161.546 608.656 161.955C608.422 162.364 608.1 162.71 607.715 162.964L570.832 185.314C570.079 185.767 569.475 185.443 569.475 184.602C569.507 184.125 569.648 183.663 569.883 183.253C570.119 182.844 570.444 182.499 570.832 182.247Z" fill="#92E3A9"/>
<path opacity="0.6" d="M570.832 182.247L607.715 159.897C608.456 159.444 609.06 159.768 609.06 160.609C609.028 161.084 608.889 161.546 608.656 161.955C608.422 162.364 608.1 162.71 607.715 162.964L570.832 185.314C570.079 185.767 569.475 185.443 569.475 184.602C569.507 184.125 569.648 183.663 569.883 183.253C570.119 182.844 570.444 182.499 570.832 182.247Z" fill="white"/>
<path d="M570.832 194.502L583.344 186.88C584.085 186.427 584.689 186.75 584.689 187.604C584.655 188.079 584.516 188.54 584.282 188.949C584.049 189.357 583.728 189.704 583.344 189.96L570.832 197.543C570.079 197.996 569.475 197.673 569.475 196.818C569.514 196.348 569.657 195.894 569.893 195.492C570.128 195.09 570.45 194.751 570.832 194.502Z" fill="#92E3A9"/>
<path opacity="0.6" d="M570.832 194.502L583.344 186.88C584.085 186.427 584.689 186.75 584.689 187.604C584.655 188.079 584.516 188.54 584.282 188.949C584.049 189.357 583.728 189.704 583.344 189.96L570.832 197.543C570.079 197.996 569.475 197.673 569.475 196.818C569.514 196.348 569.657 195.894 569.893 195.492C570.128 195.09 570.45 194.751 570.832 194.502Z" fill="white"/>
<path d="M570.832 206.796L583.344 199.2C584.085 198.747 584.689 199.07 584.689 199.924C584.655 200.4 584.516 200.86 584.282 201.269C584.049 201.677 583.728 202.024 583.344 202.28L570.832 209.863C570.079 210.316 569.475 209.993 569.475 209.139C569.507 208.663 569.648 208.203 569.884 207.795C570.12 207.388 570.445 207.046 570.832 206.796Z" fill="#92E3A9"/>
<path opacity="0.6" d="M570.832 206.796L583.344 199.2C584.085 198.747 584.689 199.07 584.689 199.924C584.655 200.4 584.516 200.86 584.282 201.269C584.049 201.677 583.728 202.024 583.344 202.28L570.832 209.863C570.079 210.316 569.475 209.993 569.475 209.139C569.507 208.663 569.648 208.203 569.884 207.795C570.12 207.388 570.445 207.046 570.832 206.796Z" fill="white"/>
<path d="M570.832 219.077L583.344 211.468C584.085 211.015 584.689 211.326 584.689 212.18C584.657 212.655 584.518 213.116 584.285 213.526C584.051 213.935 583.729 214.281 583.344 214.535L570.832 222.119C570.079 222.572 569.475 222.248 569.475 221.407C569.511 220.934 569.653 220.477 569.889 220.073C570.125 219.668 570.448 219.327 570.832 219.077Z" fill="#92E3A9"/>
<path opacity="0.6" d="M570.832 219.077L583.344 211.468C584.085 211.015 584.689 211.326 584.689 212.18C584.657 212.655 584.518 213.116 584.285 213.526C584.051 213.935 583.729 214.281 583.344 214.535L570.832 222.119C570.079 222.572 569.475 222.248 569.475 221.407C569.511 220.934 569.653 220.477 569.889 220.073C570.125 219.668 570.448 219.327 570.832 219.077Z" fill="white"/>
<path d="M570.832 231.359L583.344 223.775C584.085 223.322 584.689 223.646 584.689 224.487C584.657 224.963 584.518 225.424 584.285 225.833C584.051 226.242 583.729 226.588 583.344 226.842L570.832 234.426C570.079 234.879 569.475 234.555 569.475 233.714C569.507 233.237 569.648 232.775 569.883 232.365C570.119 231.956 570.444 231.611 570.832 231.359Z" fill="#92E3A9"/>
<path opacity="0.6" d="M570.832 231.359L583.344 223.775C584.085 223.322 584.689 223.646 584.689 224.487C584.657 224.963 584.518 225.424 584.285 225.833C584.051 226.242 583.729 226.588 583.344 226.842L570.832 234.426C570.079 234.879 569.475 234.555 569.475 233.714C569.507 233.237 569.648 232.775 569.883 232.365C570.119 231.956 570.444 231.611 570.832 231.359Z" fill="white"/>
<path d="M612.947 156.726L628.988 147.046C629.728 146.593 630.345 146.917 630.345 147.758C630.311 148.235 630.17 148.696 629.934 149.105C629.698 149.514 629.374 149.859 628.988 150.113L612.947 159.793C612.206 160.246 611.602 159.923 611.602 159.082C611.634 158.606 611.773 158.145 612.006 157.736C612.24 157.327 612.562 156.981 612.947 156.726Z" fill="#92E3A9"/>
<path opacity="0.6" d="M612.947 156.726L628.988 147.046C629.728 146.593 630.345 146.917 630.345 147.758C630.311 148.235 630.17 148.696 629.934 149.105C629.698 149.514 629.374 149.859 628.988 150.113L612.947 159.793C612.206 160.246 611.602 159.923 611.602 159.082C611.634 158.606 611.773 158.145 612.006 157.736C612.24 157.327 612.562 156.981 612.947 156.726Z" fill="white"/>
<path d="M606.394 222.119L643.216 199.821C643.956 199.368 644.561 199.692 644.561 200.546C644.527 201.021 644.387 201.481 644.154 201.89C643.92 202.299 643.599 202.645 643.216 202.901L606.394 225.199C605.654 225.652 605.037 225.328 605.037 224.474C605.071 223.997 605.211 223.535 605.447 223.126C605.683 222.717 606.008 222.372 606.394 222.119Z" fill="#F5F5F5"/>
<path d="M627.606 221.575L664.489 199.226C665.242 198.773 665.847 199.096 665.847 199.937C665.814 200.415 665.674 200.877 665.438 201.286C665.202 201.695 664.877 202.04 664.489 202.293L627.606 224.642C626.866 225.095 626.261 224.772 626.261 223.931C626.294 223.455 626.432 222.994 626.666 222.585C626.9 222.176 627.222 221.83 627.606 221.575Z" fill="#F5F5F5"/>
<path d="M648.46 196.598L664.502 186.918C665.255 186.465 665.859 186.789 665.859 187.643C665.826 188.12 665.685 188.582 665.449 188.991C665.213 189.4 664.889 189.745 664.502 189.998L648.46 199.678C647.708 200.119 647.103 199.808 647.103 198.954C647.137 198.477 647.277 198.015 647.513 197.606C647.749 197.197 648.074 196.851 648.46 196.598Z" fill="#F5F5F5"/>
<path d="M591.118 182.221L628.001 159.871C628.742 159.418 629.346 159.742 629.346 160.596C629.312 161.071 629.173 161.531 628.939 161.94C628.706 162.349 628.385 162.695 628.001 162.951L591.118 185.288C590.365 185.741 589.761 185.43 589.761 184.576C589.795 184.099 589.935 183.637 590.171 183.228C590.407 182.819 590.731 182.474 591.118 182.221Z" fill="#92E3A9"/>
<path opacity="0.6" d="M591.118 182.221L628.001 159.871C628.742 159.418 629.346 159.742 629.346 160.596C629.312 161.071 629.173 161.531 628.939 161.94C628.706 162.349 628.385 162.695 628.001 162.951L591.118 185.288C590.365 185.741 589.761 185.43 589.761 184.576C589.795 184.099 589.935 183.637 590.171 183.228C590.407 182.819 590.731 182.474 591.118 182.221Z" fill="white"/>
<path d="M633.233 156.7L649.275 147.02C650.027 146.567 650.632 146.891 650.632 147.732C650.599 148.209 650.459 148.671 650.223 149.081C649.987 149.49 649.662 149.835 649.275 150.087L633.233 159.767C632.493 160.22 631.888 159.897 631.888 159.056C631.921 158.58 632.059 158.119 632.293 157.71C632.526 157.301 632.849 156.955 633.233 156.7Z" fill="#92E3A9"/>
<path opacity="0.6" d="M633.233 156.7L649.275 147.02C650.027 146.567 650.632 146.891 650.632 147.732C650.599 148.209 650.459 148.671 650.223 149.081C649.987 149.49 649.662 149.835 649.275 150.087L633.233 159.767C632.493 160.22 631.888 159.897 631.888 159.056C631.921 158.58 632.059 158.119 632.293 157.71C632.526 157.301 632.849 156.955 633.233 156.7Z" fill="white"/>
<path d="M751.027 70.9642V56.1722L739.169 55.0981C738.998 55.07 738.823 55.1067 738.675 55.2016C738.207 55.4605 726.977 62.2029 726.842 62.2935C726.73 62.3619 726.635 62.4558 726.562 62.5682C726.49 62.6805 726.442 62.8085 726.423 62.9426C726.404 63.0768 726.414 63.2137 726.453 63.3432C726.491 63.4728 726.556 63.5917 726.644 63.6911L739.218 77.9913L751.027 70.9642Z" fill="#FFA500"/>
<path d="M739.218 78.0431L726.644 63.7429C726.528 63.6065 726.454 63.437 726.43 63.2561C726.407 63.0751 726.435 62.891 726.512 62.7271C726.589 62.5633 726.711 62.4271 726.861 62.3361C727.012 62.245 727.186 62.2032 727.359 62.2158L739.218 63.3029V78.0431Z" fill="#FFA500"/>
<path d="M751.015 56.1723L739.218 63.2641L727.323 62.2159C727.184 62.1888 727.042 62.1888 726.903 62.2159C727.853 61.6335 738.206 55.4217 738.626 55.1887C738.779 55.0959 738.957 55.0594 739.132 55.0852L751.015 56.1723Z" fill="#FFA500"/>
<path opacity="0.5" d="M751.015 56.1723L739.218 63.2641L727.323 62.2159C727.184 62.1888 727.042 62.1888 726.903 62.2159C727.853 61.6335 738.206 55.4217 738.626 55.1887C738.779 55.0959 738.957 55.0594 739.132 55.0852L751.015 56.1723Z" fill="white"/>
<path d="M739.243 46.6863C739.326 45.132 739.755 43.6198 740.497 42.2712C741.238 40.9226 742.271 39.7753 743.512 38.9215L746.992 36.7603C748.316 36.0524 749.781 35.6833 751.268 35.6833C752.754 35.6833 754.219 36.0524 755.543 36.7603L792.649 59.2782C793.895 60.1268 794.933 61.2726 795.677 62.622C796.422 63.9715 796.851 65.4863 796.93 67.043V112.001C796.85 113.557 796.42 115.072 795.676 116.421C794.932 117.771 793.895 118.916 792.649 119.766L789.169 121.875C787.843 122.577 786.378 122.943 784.893 122.943C783.408 122.943 781.943 122.577 780.617 121.875L769.672 115.236L755.432 106.643L743.512 99.4221C742.268 98.5713 741.233 97.4247 740.492 96.0755C739.75 94.7263 739.322 93.2126 739.243 91.6573V46.6863Z" fill="#FFA500"/>
<path opacity="0.2" d="M796.931 112.001C796.85 113.557 796.42 115.072 795.676 116.421C794.932 117.77 793.895 118.916 792.649 119.766L789.169 121.875C787.963 122.51 786.642 122.87 785.294 122.932C783.946 122.995 782.601 122.758 781.346 122.238C783.369 123.027 784.9 121.836 784.9 119.287V74.29C784.855 72.7284 784.43 71.2047 783.666 69.8641L795.672 62.6428C796.437 63.9834 796.862 65.5071 796.906 67.0688L796.931 112.001Z" fill="black"/>
<path opacity="0.5" d="M739.378 45.4048C739.884 43.5024 741.538 42.8942 743.512 44.1107L780.63 66.525C781.894 67.3489 782.932 68.5041 783.641 69.8768L795.66 62.6426C794.95 61.2736 793.912 60.1226 792.649 59.3038L755.556 36.76C754.238 36.0687 752.784 35.7087 751.311 35.7087C749.837 35.7087 748.384 36.0687 747.066 36.76L743.574 38.8694C742.486 39.6008 741.553 40.5579 740.831 41.6819C740.11 42.8058 739.615 44.0728 739.378 45.4048Z" fill="white"/>
<path d="M762.071 63.0958L747.942 61.0251L749.917 88.3702L762.071 104.922V63.0958Z" fill="#455A64"/>
<path d="M762.071 63.0957L776.2 78.1465L774.213 103.084L762.071 104.922V63.0957Z" fill="#37474F"/>
<path d="M767.883 98.6715L771.129 100.639L762.096 67.2629L753.076 89.7032L756.309 91.6703L758.258 86.8043L765.934 91.4503L767.883 98.6715ZM759.406 83.8667L762.071 77.2148L764.737 87.102L759.406 83.8667Z" fill="#FAFAFA"/>
<path d="M751.027 154.876V140.148L739.169 139.061C738.998 139.047 738.827 139.083 738.675 139.165C738.206 139.424 726.977 146.166 726.841 146.257C726.73 146.327 726.634 146.422 726.562 146.535C726.489 146.649 726.442 146.778 726.423 146.913C726.404 147.048 726.414 147.186 726.452 147.316C726.491 147.447 726.556 147.567 726.644 147.667L739.218 161.903L751.027 154.876Z" fill="#FFA500"/>
<path d="M739.218 161.954L726.644 147.719C726.522 147.585 726.441 147.414 726.414 147.231C726.387 147.047 726.415 146.86 726.493 146.693C726.571 146.526 726.696 146.389 726.851 146.299C727.006 146.21 727.184 146.172 727.36 146.192L739.218 147.279V161.954Z" fill="#EBEBEB"/>
<path d="M751.015 140.135L739.218 147.227L727.359 146.14C727.221 146.107 727.078 146.107 726.94 146.14C727.89 145.545 738.243 139.346 738.663 139.1C738.818 139.013 738.994 138.977 739.169 138.997L751.015 140.135Z" fill="#FFA500"/>
<path d="M751.015 140.135L739.218 147.227L727.359 146.14C727.221 146.107 727.078 146.107 726.94 146.14C727.89 145.545 738.243 139.346 738.663 139.1C738.818 139.013 738.994 138.977 739.169 138.997L751.015 140.135Z" fill="#F5F5F5"/>
<path d="M739.243 130.598C739.322 129.042 739.75 127.529 740.492 126.179C741.233 124.83 742.268 123.684 743.512 122.833L746.992 120.723C748.316 120.016 749.781 119.646 751.268 119.646C752.754 119.646 754.219 120.016 755.543 120.723L792.649 143.19C793.895 144.039 794.932 145.185 795.676 146.534C796.42 147.883 796.85 149.398 796.93 150.954V195.938C796.851 197.495 796.422 199.01 795.677 200.359C794.933 201.709 793.895 202.855 792.649 203.703L789.169 205.813C787.845 206.52 786.379 206.89 784.893 206.89C783.407 206.89 781.942 206.52 780.617 205.813L769.672 199.187L755.432 190.555L743.512 183.346C742.27 182.494 741.236 181.347 740.494 179.998C739.752 178.649 739.324 177.136 739.243 175.582V130.598Z" fill="#EBEBEB"/>
<path d="M796.931 195.938C796.851 197.495 796.422 199.01 795.678 200.359C794.934 201.709 793.896 202.854 792.649 203.703L789.169 205.813C787.964 206.45 786.643 206.812 785.294 206.874C783.946 206.937 782.6 206.698 781.346 206.175C783.369 206.977 784.9 205.787 784.9 203.224V158.24C784.857 156.682 784.432 155.162 783.666 153.827L795.697 146.541C796.463 147.876 796.888 149.396 796.931 150.954V195.938Z" fill="#E0E0E0"/>
<path d="M739.378 129.317C739.884 127.414 741.538 126.806 743.512 128.022L780.63 150.489C781.894 151.312 782.932 152.468 783.641 153.84L795.66 146.567C794.951 145.195 793.913 144.039 792.649 143.216L755.556 120.736C754.23 120.035 752.765 119.669 751.28 119.669C749.795 119.669 748.33 120.035 747.004 120.736L743.512 122.846C742.443 123.576 741.525 124.526 740.815 125.638C740.104 126.75 739.616 128.001 739.378 129.317Z" fill="#F5F5F5"/>
<path d="M762.071 158.085L765.181 151.925L776.2 158.603L762.071 186.465L747.942 141.481L758.949 148.146L762.071 158.085Z" fill="#FFA500"/>
<path opacity="0.15" d="M762.071 158.085L765.181 151.925L776.2 158.603L762.071 186.465L747.942 141.481L758.949 148.146L762.071 158.085Z" fill="black"/>
<path d="M762.071 158.085L758.949 148.159L754.013 145.182C757.95 157.723 762.046 170.741 762.046 170.741L770.067 154.901L765.131 151.925L762.071 158.085Z" fill="#37474F"/>
<path d="M751.027 238.8V224.06L739.169 222.973C738.998 222.958 738.827 222.994 738.675 223.076L726.841 230.168C726.73 230.238 726.634 230.333 726.562 230.447C726.489 230.56 726.442 230.689 726.423 230.824C726.404 230.959 726.414 231.097 726.452 231.228C726.491 231.358 726.556 231.478 726.644 231.579L739.218 245.814L751.027 238.8Z" fill="#FFA500"/>
<path d="M739.218 245.866L726.644 231.631C726.522 231.496 726.441 231.326 726.414 231.143C726.387 230.959 726.415 230.771 726.493 230.605C726.571 230.438 726.696 230.301 726.851 230.211C727.006 230.121 727.184 230.084 727.36 230.103L739.218 231.191V245.866Z" fill="#37474F"/>
<path d="M751.015 224.06L739.218 231.139L727.359 230.052C727.221 230.019 727.078 230.019 726.94 230.052L738.663 223.012C738.819 222.93 738.994 222.894 739.169 222.908L751.015 224.06Z" fill="#FFA500"/>
<path d="M751.015 224.06L739.218 231.139L727.359 230.052C727.221 230.019 727.078 230.019 726.94 230.052L738.663 223.012C738.819 222.93 738.994 222.894 739.169 222.908L751.015 224.06Z" fill="#455A64"/>
<path d="M739.243 214.509C739.324 212.955 739.752 211.442 740.494 210.093C741.236 208.744 742.27 207.597 743.512 206.745L746.992 204.635C748.318 203.933 749.782 203.568 751.268 203.568C752.753 203.568 754.217 203.933 755.543 204.635L792.649 227.101C793.893 227.952 794.93 229.098 795.674 230.447C796.417 231.796 796.848 233.31 796.93 234.866V279.811C796.851 281.368 796.422 282.883 795.677 284.232C794.933 285.582 793.895 286.727 792.649 287.576L789.169 289.685C787.845 290.393 786.379 290.762 784.893 290.762C783.407 290.762 781.942 290.393 780.617 289.685L769.672 283.06L755.432 274.428L743.512 267.219C742.268 266.369 741.233 265.222 740.492 263.873C739.75 262.524 739.322 261.01 739.243 259.455V214.509Z" fill="#37474F"/>
<path d="M796.931 279.824C796.851 281.381 796.422 282.896 795.678 284.245C794.934 285.594 793.896 286.74 792.649 287.589L789.169 289.698C787.964 290.336 786.643 290.698 785.294 290.76C783.946 290.823 782.6 290.584 781.346 290.061C783.369 290.863 784.9 289.672 784.9 287.11V242.165C784.855 240.603 784.43 239.079 783.666 237.739L795.697 230.453C796.462 231.794 796.886 233.317 796.931 234.879V279.824Z" fill="#263238"/>
<path d="M739.378 213.241C739.884 211.339 741.538 210.73 743.512 211.947L780.63 234.426C781.894 235.245 782.932 236.396 783.641 237.765L795.66 230.492C794.951 229.119 793.913 227.964 792.649 227.14L755.556 204.661C754.23 203.959 752.765 203.594 751.28 203.594C749.795 203.594 748.33 203.959 747.004 204.661L743.512 206.783C742.443 207.511 741.525 208.458 740.814 209.568C740.104 210.678 739.615 211.928 739.378 213.241Z" fill="#455A64"/>
<path d="M770.326 248.855C771.203 244.197 770.845 239.913 769.092 237.48C768.717 236.909 768.216 236.442 767.632 236.117C767.048 235.793 766.397 235.621 765.736 235.616H765.428C764.248 235.737 763.119 236.184 762.158 236.911C759.69 232.019 757.222 229.016 755.457 229.016H755.198C754.961 229.064 754.738 229.169 754.545 229.321C754.353 229.474 754.196 229.67 754.087 229.896C753.236 231.385 753.187 234.607 753.828 238.839C752.298 238.388 750.666 238.512 749.213 239.188C748.749 239.473 748.369 239.888 748.116 240.386C747.863 240.884 747.747 241.446 747.782 242.009C747.782 244.818 750.139 248.674 753.804 252.363C752.927 257.021 753.285 261.305 755.038 263.738C755.417 264.261 755.891 264.701 756.432 265.032C757.024 265.392 757.697 265.58 758.382 265.576C758.824 265.573 759.264 265.507 759.69 265.381C760.539 265.091 761.335 264.654 762.047 264.087C764.033 267.97 766.02 270.778 767.612 271.749C767.983 271.99 768.409 272.124 768.846 272.137C768.927 272.15 769.011 272.15 769.092 272.137C769.331 272.089 769.556 271.985 769.75 271.832C769.945 271.68 770.104 271.483 770.215 271.257C771.067 269.769 771.104 266.546 770.462 262.289C771.109 262.416 771.766 262.486 772.424 262.496C773.302 262.533 774.175 262.327 774.954 261.9C775.417 261.615 775.797 261.2 776.049 260.702C776.302 260.204 776.418 259.642 776.385 259.079C776.348 256.387 773.991 252.531 770.326 248.855ZM766.094 256.348C765.68 257.128 765.227 257.884 764.737 258.613C763.922 258.199 763.058 257.733 762.145 257.177C761.232 256.62 760.356 256.051 759.529 255.455C759.048 254.161 758.567 252.79 758.11 251.366C757.654 249.942 757.259 248.622 756.876 247.328C757.222 246.526 757.592 245.724 758.011 244.934C758.431 244.145 758.9 243.368 759.356 242.669C760.183 243.084 761.047 243.549 761.96 244.106C762.873 244.662 763.836 245.297 764.712 245.918C765.193 247.212 765.662 248.506 766.131 249.994C766.6 251.483 766.933 252.583 767.266 253.799C766.945 254.64 766.538 255.468 766.094 256.348ZM767.328 249.735C767.056 248.881 766.773 248.04 766.489 247.225C767.316 247.872 768.093 248.519 768.821 249.218C768.599 250.111 768.34 251.03 768.019 251.948C767.772 251.224 767.55 250.486 767.303 249.735H767.328ZM762.17 242.437C761.536 242.057 760.919 241.707 760.319 241.388C760.853 240.693 761.439 240.044 762.071 239.447C762.651 240.676 763.243 242.035 763.836 243.498C763.268 243.135 762.713 242.773 762.145 242.437H762.17ZM756.926 243.575C756.703 244.002 756.481 244.429 756.284 244.869C755.951 243.511 755.667 242.281 755.445 241.052C756.283 241.3 757.107 241.599 757.913 241.945C757.518 242.527 757.197 243.006 756.938 243.575H756.926ZM756.926 251.625C757.209 252.492 757.493 253.333 757.789 254.213C756.913 253.527 756.086 252.815 755.321 252.104C755.562 251.118 755.85 250.146 756.185 249.192C756.432 249.968 756.679 250.784 756.938 251.586L756.926 251.625ZM761.96 258.846C762.589 259.221 763.194 259.558 763.799 259.881C763.291 260.551 762.734 261.179 762.133 261.758C761.565 260.567 760.998 259.273 760.442 257.876C760.961 258.199 761.467 258.536 761.985 258.846H761.96ZM767.204 257.707C767.464 257.228 767.698 256.75 767.92 256.258C768.278 257.681 768.574 259.027 768.809 260.27C767.944 260.012 767.096 259.701 766.267 259.338C766.612 258.82 766.933 258.277 767.229 257.707H767.204ZM765.526 244.766C764.7 242.553 763.836 240.521 762.972 238.696C763.593 238.21 764.29 237.842 765.033 237.609C765.374 237.509 765.727 237.457 766.082 237.454C766.578 237.441 767.069 237.571 767.501 237.829C767.825 238.035 768.11 238.302 768.34 238.619C769.512 240.249 769.833 243.679 769.092 247.678C767.968 246.637 766.795 245.656 765.576 244.74L765.526 244.766ZM758.702 240.638C757.531 240.084 756.323 239.621 755.087 239.253C754.47 235.241 754.544 232.485 755.161 231.411C755.204 231.283 755.276 231.168 755.37 231.075C755.465 230.983 755.579 230.916 755.704 230.88H755.815C756.053 230.894 756.283 230.974 756.481 231.113C757.654 231.825 759.344 234.128 761.183 237.726C760.266 238.591 759.443 239.559 758.727 240.612L758.702 240.638ZM755.469 246.681C754.912 248.058 754.454 249.477 754.1 250.926C750.941 247.717 749.053 244.611 749.053 242.708C749.039 242.356 749.12 242.007 749.286 241.701C749.452 241.395 749.696 241.143 749.991 240.974C750.641 240.635 751.363 240.474 752.088 240.508C752.769 240.518 753.447 240.6 754.112 240.754C754.47 242.527 754.927 244.546 755.494 246.655L755.469 246.681ZM758.69 256.672C759.505 258.794 760.344 260.774 761.158 262.586C760.304 263.296 759.279 263.744 758.197 263.88C757.725 263.93 757.25 263.849 756.817 263.647C756.384 263.445 756.009 263.129 755.729 262.729C754.556 261.085 754.236 257.656 754.976 253.67C756.169 254.733 757.417 255.727 758.715 256.646L758.69 256.672ZM765.378 260.697C766.575 261.271 767.813 261.747 769.08 262.12C769.709 266.145 769.635 268.914 769.018 270.002C768.963 270.117 768.885 270.218 768.789 270.298C768.693 270.379 768.582 270.436 768.463 270.467C767.34 270.674 765.23 268.047 762.923 263.479C763.847 262.634 764.679 261.683 765.403 260.645L765.378 260.697ZM768.685 254.485C769.186 253.158 769.599 251.796 769.919 250.408C773.078 253.618 774.966 256.724 774.966 258.626C774.977 258.978 774.895 259.325 774.729 259.631C774.564 259.937 774.321 260.189 774.028 260.36C772.759 260.906 771.352 260.993 770.03 260.606C769.771 258.691 769.278 256.633 768.71 254.459L768.685 254.485Z" fill="#FFA500"/>
<path d="M764.576 252.155C764.576 254.097 763.453 254.99 762.108 254.148C761.35 253.57 760.732 252.813 760.304 251.939C759.875 251.065 759.648 250.097 759.64 249.114C759.64 247.186 760.763 246.293 762.108 247.134C762.864 247.711 763.481 248.466 763.91 249.338C764.338 250.21 764.566 251.175 764.576 252.155Z" fill="#FFA500"/>
<g opacity="0.65">
<path d="M770.326 248.855C771.203 244.197 770.845 239.913 769.092 237.48C768.717 236.909 768.216 236.442 767.632 236.117C767.048 235.793 766.397 235.621 765.736 235.616H765.428C764.248 235.737 763.119 236.184 762.158 236.911C759.69 232.019 757.222 229.016 755.457 229.016H755.198C754.961 229.064 754.738 229.169 754.545 229.321C754.353 229.474 754.196 229.67 754.087 229.896C753.236 231.385 753.187 234.607 753.828 238.839C752.298 238.388 750.666 238.512 749.213 239.188C748.749 239.473 748.369 239.888 748.116 240.386C747.863 240.884 747.747 241.446 747.782 242.009C747.782 244.818 750.139 248.674 753.804 252.363C752.927 257.021 753.285 261.305 755.038 263.738C755.417 264.261 755.891 264.701 756.432 265.032C757.024 265.392 757.697 265.58 758.382 265.576C758.824 265.573 759.264 265.507 759.69 265.381C760.539 265.091 761.335 264.654 762.047 264.087C764.033 267.97 766.02 270.778 767.612 271.749C767.983 271.99 768.409 272.124 768.846 272.137C768.927 272.15 769.011 272.15 769.092 272.137C769.331 272.089 769.556 271.985 769.75 271.832C769.945 271.68 770.104 271.483 770.215 271.257C771.067 269.769 771.104 266.546 770.462 262.289C771.109 262.416 771.766 262.486 772.424 262.496C773.302 262.533 774.175 262.327 774.954 261.9C775.417 261.615 775.797 261.2 776.049 260.702C776.302 260.204 776.418 259.642 776.385 259.079C776.348 256.387 773.991 252.531 770.326 248.855ZM766.094 256.348C765.68 257.128 765.227 257.884 764.737 258.613C763.922 258.199 763.058 257.733 762.145 257.177C761.232 256.62 760.356 256.051 759.529 255.455C759.048 254.161 758.567 252.79 758.11 251.366C757.654 249.942 757.259 248.622 756.876 247.328C757.222 246.526 757.592 245.724 758.011 244.934C758.431 244.145 758.9 243.368 759.356 242.669C760.183 243.084 761.047 243.549 761.96 244.106C762.873 244.662 763.836 245.297 764.712 245.918C765.193 247.212 765.662 248.506 766.131 249.994C766.6 251.483 766.933 252.583 767.266 253.799C766.945 254.64 766.538 255.468 766.094 256.348ZM767.328 249.735C767.056 248.881 766.773 248.04 766.489 247.225C767.316 247.872 768.093 248.519 768.821 249.218C768.599 250.111 768.34 251.03 768.019 251.948C767.772 251.224 767.55 250.486 767.303 249.735H767.328ZM762.17 242.437C761.536 242.057 760.919 241.707 760.319 241.388C760.853 240.693 761.439 240.044 762.071 239.447C762.651 240.676 763.243 242.035 763.836 243.498C763.268 243.135 762.713 242.773 762.145 242.437H762.17ZM756.926 243.575C756.703 244.002 756.481 244.429 756.284 244.869C755.951 243.511 755.667 242.281 755.445 241.052C756.283 241.3 757.107 241.599 757.913 241.945C757.518 242.527 757.197 243.006 756.938 243.575H756.926ZM756.926 251.625C757.209 252.492 757.493 253.333 757.789 254.213C756.913 253.527 756.086 252.815 755.321 252.104C755.562 251.118 755.85 250.146 756.185 249.192C756.432 249.968 756.679 250.784 756.938 251.586L756.926 251.625ZM761.96 258.846C762.589 259.221 763.194 259.558 763.799 259.881C763.291 260.551 762.734 261.179 762.133 261.758C761.565 260.567 760.998 259.273 760.442 257.876C760.961 258.199 761.467 258.536 761.985 258.846H761.96ZM767.204 257.707C767.464 257.228 767.698 256.75 767.92 256.258C768.278 257.681 768.574 259.027 768.809 260.27C767.944 260.012 767.096 259.701 766.267 259.338C766.612 258.82 766.933 258.277 767.229 257.707H767.204ZM765.526 244.766C764.7 242.553 763.836 240.521 762.972 238.696C763.593 238.21 764.29 237.842 765.033 237.609C765.374 237.509 765.727 237.457 766.082 237.454C766.578 237.441 767.069 237.571 767.501 237.829C767.825 238.035 768.11 238.302 768.34 238.619C769.512 240.249 769.833 243.679 769.092 247.678C767.968 246.637 766.795 245.656 765.576 244.74L765.526 244.766ZM758.702 240.638C757.531 240.084 756.323 239.621 755.087 239.253C754.47 235.241 754.544 232.485 755.161 231.411C755.204 231.283 755.276 231.168 755.37 231.075C755.465 230.983 755.579 230.916 755.704 230.88H755.815C756.053 230.894 756.283 230.974 756.481 231.113C757.654 231.825 759.344 234.128 761.183 237.726C760.266 238.591 759.443 239.559 758.727 240.612L758.702 240.638ZM755.469 246.681C754.912 248.058 754.454 249.477 754.1 250.926C750.941 247.717 749.053 244.611 749.053 242.708C749.039 242.356 749.12 242.007 749.286 241.701C749.452 241.395 749.696 241.143 749.991 240.974C750.641 240.635 751.363 240.474 752.088 240.508C752.769 240.518 753.447 240.6 754.112 240.754C754.47 242.527 754.927 244.546 755.494 246.655L755.469 246.681ZM758.69 256.672C759.505 258.794 760.344 260.774 761.158 262.586C760.304 263.296 759.279 263.744 758.197 263.88C757.725 263.93 757.25 263.849 756.817 263.647C756.384 263.445 756.009 263.129 755.729 262.729C754.556 261.085 754.236 257.656 754.976 253.67C756.169 254.733 757.417 255.727 758.715 256.646L758.69 256.672ZM765.378 260.697C766.575 261.271 767.813 261.747 769.08 262.12C769.709 266.145 769.635 268.914 769.018 270.002C768.963 270.117 768.885 270.218 768.789 270.298C768.693 270.379 768.582 270.436 768.463 270.467C767.34 270.674 765.23 268.047 762.923 263.479C763.847 262.634 764.679 261.683 765.403 260.645L765.378 260.697ZM768.685 254.485C769.186 253.158 769.599 251.796 769.919 250.408C773.078 253.618 774.966 256.724 774.966 258.626C774.977 258.978 774.895 259.325 774.729 259.631C774.564 259.937 774.321 260.189 774.028 260.36C772.759 260.906 771.352 260.993 770.03 260.606C769.771 258.691 769.278 256.633 768.71 254.459L768.685 254.485Z" fill="white"/>
<path d="M764.576 252.155C764.576 254.097 763.453 254.99 762.108 254.148C761.35 253.57 760.732 252.813 760.304 251.939C759.875 251.065 759.648 250.097 759.64 249.114C759.64 247.186 760.763 246.293 762.108 247.134C762.864 247.711 763.481 248.466 763.91 249.338C764.338 250.21 764.566 251.175 764.576 252.155Z" fill="white"/>
</g>
<path d="M711.417 302.342C716.242 303.326 718.439 305.047 721.178 312.061C723.918 319.075 728.816 336.158 729.952 340.855C730.47 342.952 717.797 361.743 718.34 361.458C718.5 361.38 713.404 352.399 713.404 352.399L719.636 339.924L715.206 328.561L711.417 302.342Z" fill="#FFA8A7"/>
<path d="M709.789 302.446C709.789 302.446 714.182 301.617 717.094 304.154C720.006 306.69 720.45 308.386 722.424 313.588C724.399 318.791 727.632 329.635 727.632 329.635C727.632 329.635 726.694 335.459 717.649 336.611L709.9 318.299C709.9 318.299 707.197 307.234 709.789 302.446Z" fill="#92E3A9"/>
<path d="M700.707 452.707C700.436 454.352 700.533 456.04 700.99 457.638C701.791 459.588 703.111 461.255 704.791 462.439C706.008 463.624 707.07 464.973 707.95 466.451C708.809 468.075 709.923 469.536 711.245 470.773C712.269 471.705 715.169 471.796 716.563 471.174C717.957 470.553 718.439 470.01 718.352 467.667C718.266 465.325 711.492 464.523 711.492 464.523L700.707 452.707Z" fill="#455A64"/>
<path d="M717.452 460.692C718.019 460.912 718.168 462.064 718.254 464.367C718.328 466.101 719.019 468.638 716.736 469.725C715.724 470.151 714.614 470.255 713.546 470.025C712.478 469.795 711.497 469.24 710.727 468.431C709.172 466.386 708.123 464.548 705.914 462.103C703.989 459.941 702.003 459.217 701.139 454.894C700.596 452.125 701.028 451.012 702.805 450.171C705.273 449.084 709.11 452.655 711.023 453.212C712.701 453.665 716.897 460.459 717.452 460.692Z" fill="#92E3A9"/>
<path opacity="0.2" d="M717.452 460.692C718.019 460.912 718.168 462.064 718.254 464.367C718.328 466.101 719.019 468.638 716.736 469.725C715.724 470.151 714.614 470.255 713.546 470.025C712.478 469.795 711.497 469.24 710.727 468.431C709.172 466.386 708.123 464.548 705.914 462.103C703.989 459.941 702.003 459.217 701.139 454.894C700.596 452.125 701.028 451.012 702.805 450.171C705.273 449.084 709.11 452.655 711.023 453.212C712.701 453.665 716.897 460.459 717.452 460.692Z" fill="black"/>
<path d="M711.047 453.173L710.727 453.057C709.613 453.119 708.536 453.489 707.604 454.13C706.672 454.771 705.918 455.66 705.42 456.706C705.1 457.47 706.099 458 706.654 457.47C707.185 456.455 707.946 455.593 708.869 454.959C709.792 454.325 710.849 453.938 711.948 453.833C711.692 453.554 711.386 453.329 711.047 453.173Z" fill="#FAFAFA"/>
<path d="M712.627 454.48C711.58 454.602 710.58 454.997 709.718 455.631C708.855 456.264 708.158 457.114 707.691 458.104C707.37 458.854 708.37 459.398 708.925 458.854C709.375 457.974 710.004 457.209 710.768 456.611C711.531 456.014 712.41 455.6 713.343 455.399C713.145 455.075 712.886 454.765 712.627 454.48Z" fill="#FAFAFA"/>
<path d="M669.919 488.179C669.549 490.121 670.215 491.13 672.609 492.579C675.751 494.206 679.377 494.471 682.703 493.317C686.652 492.114 688.54 490.315 690.181 489.875C691.822 489.435 695.882 489.409 697.498 488.917C699.115 488.425 699.09 487.545 699.09 485.5L669.919 488.179Z" fill="#455A64"/>
<path d="M697.498 475.639C697.498 475.639 698.263 478.098 698.732 480.233C699.065 481.942 699.534 484.776 698.967 486.057C698.399 487.338 696.178 488.166 692.797 488.141C690.576 488.141 687.096 489.706 684.727 491.091C682.339 492.33 679.634 492.725 677.015 492.217C673.954 491.842 670.845 489.978 670.302 488.658C669.759 487.338 669.672 486.329 676.879 483.106C676.953 483.106 685.245 479.871 688.725 475.833L697.498 475.639Z" fill="#92E3A9"/>
<g opacity="0.2">
<path d="M697.498 475.639C697.498 475.639 698.263 478.098 698.732 480.233C699.065 481.942 699.534 484.776 698.967 486.057C698.399 487.338 696.178 488.166 692.797 488.141C690.576 488.141 687.096 489.706 684.727 491.091C682.339 492.33 679.634 492.725 677.015 492.217C673.954 491.842 670.845 489.978 670.302 488.658C669.759 487.338 669.672 486.329 676.879 483.106C676.953 483.106 685.245 479.871 688.725 475.833L697.498 475.639Z" fill="black"/>
</g>
<path d="M683.641 491.596C683.641 491.596 683.024 485.125 678.002 483.249C673.449 481.566 669.488 485.099 669.92 488.179C670.216 490.237 675.756 494.883 683.641 491.596Z" fill="#FAFAFA"/>
<path d="M679.273 482.032C680.554 482.157 681.759 482.721 682.703 483.637C684.159 484.931 684.196 485.759 684.196 485.759C684.308 485.88 684.453 485.961 684.612 485.991C684.77 486.02 684.933 485.997 685.077 485.924C685.222 485.851 685.341 485.732 685.418 485.584C685.494 485.436 685.525 485.266 685.504 485.099C685.504 485.099 685.171 481.825 681.062 481.217C680.72 481.138 680.363 481.175 680.042 481.321C679.721 481.468 679.452 481.716 679.273 482.032Z" fill="#FAFAFA"/>
<path d="M682.148 480.648C683.436 480.657 684.674 481.175 685.615 482.097C687.059 483.391 687.071 484.388 687.071 484.388C687.183 484.508 687.328 484.589 687.487 484.619C687.645 484.648 687.808 484.625 687.952 484.552C688.097 484.479 688.216 484.36 688.293 484.212C688.369 484.064 688.4 483.895 688.379 483.728C688.379 483.728 688.046 480.453 683.937 479.78C683.59 479.707 683.229 479.751 682.907 479.907C682.585 480.063 682.319 480.322 682.148 480.648Z" fill="#FAFAFA"/>
<path d="M684.999 478.875C686.285 478.794 687.554 479.223 688.552 480.078C690.082 481.243 690.156 482.252 690.156 482.252C690.277 482.353 690.424 482.414 690.577 482.426C690.731 482.438 690.885 482.401 691.018 482.32C691.152 482.239 691.259 482.117 691.325 481.971C691.392 481.825 691.414 481.661 691.39 481.502C691.39 481.502 690.835 478.253 686.689 477.878C686.344 477.84 685.995 477.916 685.693 478.094C685.39 478.273 685.147 478.545 684.999 478.875Z" fill="#FAFAFA"/>
<path d="M717.451 456.978V461.378C716.444 462.054 715.28 462.43 714.084 462.464C712.888 462.499 711.706 462.19 710.665 461.572C710.541 461.3 710.208 456.978 710.208 456.978H717.451Z" fill="#FFA8A7"/>
<path d="M697.498 472.598C697.498 472.598 697.498 474.694 697.498 475.885C697.498 477.076 696.166 478.861 692.686 478.732C690.218 478.641 688.54 477.943 688.626 475.833V472.792L697.498 472.598Z" fill="#FFA8A7"/>
<path d="M721.993 419.629C721.771 410.337 719.957 406.261 719.957 406.261C719.957 406.261 720.623 394.795 722.104 380.754C724.337 359.387 723.338 355.246 719.29 345.618C719.29 345.618 684.974 341.981 683.937 356.929C682.629 375.551 682.481 413.43 682.95 420.005C683.419 426.579 683.407 420.509 684.937 433.826C686.171 444.36 688.639 472.792 688.639 472.792C690.019 473.525 691.551 473.891 693.098 473.857C694.645 473.823 696.161 473.391 697.511 472.598C697.511 472.598 700.312 437.812 699.979 430.215C699.944 426.317 699.66 422.426 699.127 418.568C699.127 418.568 703.138 388.557 703.755 383.73C703.755 383.73 704.31 392.375 704.791 398.949C705.273 405.523 705.223 410.829 706.544 424.43C707.58 435.107 710.085 458.156 710.085 458.156C711.292 458.67 712.596 458.884 713.895 458.783C715.194 458.682 716.454 458.268 717.575 457.573C717.575 457.573 722.178 427.135 721.993 419.629Z" fill="#455A64"/>
<path d="M702.299 458.052C702.299 458.052 702.484 452.875 709.11 452.202L709.493 452.422C708.747 451.17 707.587 450.248 706.235 449.834C705.34 449.492 704.364 449.457 703.448 449.734C702.532 450.011 701.724 450.585 701.139 451.374C699.979 452.888 701.151 457.055 702.299 458.052Z" fill="#FAFAFA"/>
<path d="M693.846 297.502L695.462 311.401L707.111 310.301L705.79 294.862L693.846 297.502Z" fill="#FFA8A7"/>
<path d="M718.488 309.058C717.254 305.409 714.268 301.578 709.851 302.445C708.617 302.678 707.654 302.847 706.556 303.08C706.457 306.289 700.695 307.946 694.969 306.004C693.241 306.522 691.662 307.053 690.231 307.583C686.122 309.123 684.48 316.267 684.382 328.289C684.283 340.312 682.629 364.176 682.629 364.176C682.629 364.176 691.267 368.977 707.395 365.91C723.523 362.843 723.264 357.084 723.264 357.084C723.264 357.084 722.943 350.07 715.663 338.293C721.845 321.068 720.389 314.494 718.488 309.058Z" fill="#37474F"/>
<path d="M685.183 279.837C684.481 278.174 684.195 276.351 684.35 274.54C684.506 272.729 685.098 270.989 686.072 269.484C689.983 263.013 697.523 261.939 706.457 264.463C709.574 265.466 712.321 267.453 714.322 270.154C716.323 272.854 717.48 276.136 717.636 279.552C718.068 286.424 699.793 291.497 700.201 296.208L685.183 279.837Z" fill="#263238"/>
<path d="M684.801 282.451C684.801 282.451 682.333 286.618 682.666 287.045C683.28 287.448 683.956 287.733 684.665 287.887L684.801 282.451Z" fill="#F28F8F"/>
<path d="M692.365 269.238C689.897 270.662 685.603 273.302 684.739 283.047C683.851 293.05 686.047 296.454 687.38 297.722C688.281 298.576 692.797 298.77 695.129 297.942C698.054 296.894 704.347 293.413 707.21 288.184C710.579 282.024 711.097 273.949 706.951 270.895C704.852 269.346 702.413 268.382 699.862 268.092C697.311 267.802 694.731 268.197 692.365 269.238Z" fill="#FFA8A7"/>
<path d="M692.488 281.002C690.882 280.373 689.47 279.298 688.403 277.891C687.335 276.484 686.653 274.799 686.43 273.017C685.504 266.663 693.056 263.958 693.056 263.958L692.488 281.002Z" fill="#263238"/>
<path d="M691.625 269.704C691.625 269.704 689.675 278.866 692.451 284.535C692.451 284.535 693.895 280.95 696.82 281.882C699.744 282.813 699.621 286.929 697.363 289.077C696.792 289.695 696.065 290.129 695.268 290.331C694.471 290.533 693.635 290.493 692.859 290.216C693.843 292.809 695.325 295.161 697.215 297.127C697.215 297.127 705.852 301.19 713.429 292.286C720.253 284.198 718.982 270.105 708.493 266.779C698.004 263.453 691.625 269.704 691.625 269.704Z" fill="#263238"/>
<path d="M727.632 305.538C724.486 305.538 721.468 304.229 719.242 301.897C717.017 299.565 715.765 296.401 715.761 293.102V272.292C718.907 272.292 721.925 273.602 724.151 275.934C726.377 278.266 727.629 281.429 727.632 284.729V305.538Z" fill="#263238"/>
<path d="M717.081 269.562C716.825 269.648 716.588 269.787 716.383 269.97C716.178 270.153 716.009 270.376 715.887 270.627C715.764 270.878 715.69 271.152 715.668 271.434C715.647 271.715 715.678 271.998 715.761 272.266L719.66 270.972C719.58 270.701 719.45 270.45 719.276 270.232C719.103 270.014 718.891 269.835 718.651 269.703C718.411 269.572 718.149 269.492 717.879 269.468C717.61 269.444 717.339 269.475 717.081 269.562Z" fill="#263238"/>
<path d="M660.689 329.609C658.999 327.578 658.715 323.139 656.469 320.02C654.223 316.901 654.618 313.834 653.211 315.219C651.805 316.603 652.854 321.689 652.854 321.689C652.854 321.689 650.225 326.801 650.003 329.454C649.781 332.107 656.37 338.629 656.37 338.629L660.689 329.609Z" fill="#FFA8A7"/>
<path d="M653.187 321.301C653.187 321.301 650.509 325.184 638.478 320.111C635.159 318.687 637.404 326.18 641.476 329.286C645.252 332.159 649.966 333.052 653.742 335.757C653.754 335.342 653.187 321.301 653.187 321.301Z" fill="#FFA8A7"/>
<path d="M691.18 307.234C687.762 308.528 684.764 309.926 681.555 316.228C677.446 324.329 669.981 340.195 669.981 340.195L660.689 329.609C660.689 329.609 659.332 327.604 656.814 331.978C654.297 336.352 655.408 337.555 655.408 337.555C655.408 337.555 666.242 352.774 668.228 354.703C670.215 356.631 673.485 355.143 675.632 352.114C677.779 349.086 688.786 328.134 688.786 328.134C688.786 328.134 696.03 314.869 691.18 307.234Z" fill="#FFA8A7"/>
<path d="M692.846 306.651C690.663 306.852 688.564 307.624 686.74 308.897C684.916 310.17 683.426 311.903 682.407 313.937C678.31 321.702 673.991 330.463 673.991 330.463C673.991 330.463 676.965 337.982 684.529 338.552C684.529 337.775 690.699 326.258 693.056 321.327C695.413 316.396 695.166 308.864 692.846 306.651Z" fill="#92E3A9"/>
<path d="M703.779 383.756L704.433 376.483C708.165 375.901 711.734 374.484 714.897 372.329C714.897 372.329 712.664 376.069 706.556 377.777L705.174 384.882L704.816 398.988L703.779 383.756Z" fill="#37474F"/>
<defs>
<filter id="filter0_f_122_4693" x="0.904915" y="68.9049" width="1109.19" height="696.108" filterUnits="userSpaceOnUse" color-interpolation-filters="sRGB">
<feFlood flood-opacity="0" result="BackgroundImageFix"/>
<feBlend mode="normal" in="SourceGraphic" in2="BackgroundImageFix" result="shape"/>
<feGaussianBlur stdDeviation="61.5475" result="effect1_foregroundBlur_122_4693"/>
</filter>
</defs>
</svg>
