<svg width="388" height="275" viewBox="0 0 388 275" fill="none" xmlns="http://www.w3.org/2000/svg">
<g filter="url(#filter0_f_255_4603)">
<path d="M199.552 229.918C284.909 229.918 354.104 193.844 354.104 149.344C354.104 104.844 284.909 68.7693 199.552 68.7693C114.195 68.7693 45 104.844 45 149.344C45 193.844 114.195 229.918 199.552 229.918Z" fill="#92E3A9" fill-opacity="0.23"/>
</g>
<path d="M251.663 179.757C260.233 179.757 267.18 175.551 267.18 170.361C267.18 165.172 260.233 160.966 251.663 160.966C243.093 160.966 236.145 165.172 236.145 170.361C236.145 175.551 243.093 179.757 251.663 179.757Z" fill="#E0E0E0"/>
<path d="M110.823 159.895L93.4627 149.387C92.8484 149.016 92.8484 148.414 93.4627 148.043L189.115 90.1116C189.457 89.931 189.836 89.8369 190.219 89.8369C190.603 89.8369 190.982 89.931 191.324 90.1116L208.681 100.62C209.291 100.99 209.291 101.593 208.681 101.964L113.033 159.895C112.691 160.076 112.312 160.171 111.928 160.171C111.545 160.171 111.166 160.076 110.823 159.895Z" fill="#E0E0E0"/>
<path d="M171.016 143.44L184.991 134.967C186.432 134.091 187.152 132.951 187.152 131.806C187.152 130.661 187.152 129.766 187.152 129.766L170.344 119.777C169.939 119.499 169.603 119.125 169.361 118.685C169.119 118.246 168.979 117.753 168.952 117.246V99.1689L144.542 113.96V132.037C144.569 132.543 144.71 133.035 144.952 133.474C145.193 133.913 145.53 134.286 145.934 134.564L160.585 143.435C163.467 145.183 168.138 145.183 171.016 143.44Z" fill="#92E3A9"/>
<g opacity="0.5">
<path d="M171.016 143.44L184.991 134.967C186.432 134.091 187.152 132.95 187.152 131.805C187.152 130.661 187.152 129.766 187.152 129.766L170.344 119.777C169.939 119.499 169.603 119.125 169.361 118.685C169.119 118.246 168.979 117.753 168.952 117.246V99.1687L144.542 113.96V132.037C144.569 132.543 144.71 133.035 144.952 133.474C145.193 133.912 145.53 134.286 145.934 134.563L160.585 143.435C163.467 145.183 168.138 145.183 171.016 143.44Z" fill="black"/>
</g>
<path d="M150.402 135.24V137.27L145.929 134.568C145.525 134.29 145.188 133.916 144.946 133.476C144.704 133.037 144.564 132.544 144.537 132.037V113.96L149.191 111.146C149.284 112.384 149.39 113.663 149.487 114.91L146.225 116.889V131.008C146.25 131.514 146.389 132.007 146.63 132.446C146.872 132.885 147.208 133.258 147.613 133.534L150.402 135.24Z" fill="#92E3A9"/>
<path opacity="0.7" d="M150.402 135.24V137.27L145.929 134.568C145.525 134.29 145.188 133.916 144.946 133.476C144.704 133.037 144.564 132.544 144.537 132.037V113.96L149.191 111.146C149.284 112.384 149.39 113.663 149.487 114.91L146.225 116.889V131.008C146.25 131.514 146.389 132.007 146.63 132.446C146.872 132.885 147.208 133.258 147.613 133.534L150.402 135.24Z" fill="black"/>
<path d="M146.226 131.022C146.251 131.529 146.391 132.021 146.633 132.46C146.875 132.899 147.212 133.272 147.618 133.548L160.581 141.401C163.463 143.148 168.134 143.148 171.016 141.401L185 132.927C187.882 131.185 187.882 128.357 185 126.614L172.028 118.757C171.622 118.481 171.285 118.108 171.043 117.669C170.801 117.23 170.662 116.738 170.636 116.231V102.112L146.226 116.903V131.022Z" fill="#92E3A9"/>
<path opacity="0.3" d="M146.226 131.022C146.251 131.529 146.391 132.021 146.633 132.46C146.875 132.899 147.212 133.272 147.618 133.548L160.581 141.401C163.463 143.148 168.134 143.148 171.016 141.401L185 132.927C187.882 131.185 187.882 128.357 185 126.614L172.028 118.757C171.622 118.481 171.285 118.108 171.043 117.669C170.801 117.23 170.662 116.738 170.636 116.231V102.112L146.226 116.903V131.022Z" fill="black"/>
<path opacity="0.7" d="M174.861 120.477L172.028 118.762C171.622 118.486 171.285 118.113 171.043 117.674C170.801 117.235 170.662 116.742 170.636 116.236V102.112L146.226 116.903V131.022C146.251 131.529 146.391 132.021 146.633 132.46C146.875 132.899 147.212 133.272 147.618 133.548L150.402 135.236L174.861 120.477Z" fill="#92E3A9"/>
<path opacity="0.6" d="M174.861 120.477L172.028 118.762C171.622 118.486 171.285 118.113 171.043 117.674C170.801 117.235 170.662 116.742 170.636 116.236V102.112L146.226 116.903V131.022C146.251 131.529 146.391 132.021 146.633 132.46C146.875 132.899 147.212 133.272 147.618 133.548L150.402 135.236L174.861 120.477Z" fill="black"/>
<path d="M187.157 129.771V131.829C187.157 132.973 186.432 134.109 184.995 134.985L171.02 143.417C169.489 144.277 167.776 144.723 166.039 144.715V142.684C167.776 142.693 169.489 142.247 171.02 141.386L184.995 132.909C186.432 132.06 187.157 130.902 187.157 129.771Z" fill="#92E3A9"/>
<path opacity="0.2" d="M187.157 129.771V131.829C187.157 132.973 186.432 134.109 184.995 134.985L171.02 143.417C169.489 144.277 167.776 144.723 166.039 144.715V142.684C167.776 142.693 169.489 142.247 171.02 141.386L184.995 132.909C186.432 132.06 187.157 130.902 187.157 129.771Z" fill="black"/>
<path d="M107.031 150.518C107.559 150.785 108.139 150.919 108.725 150.908C109.311 150.896 109.886 150.741 110.404 150.453L204.8 93.2959C205.306 92.9487 205.726 92.4817 206.028 91.9326C206.33 91.3834 206.504 90.7676 206.537 90.1347V3.48354C206.517 2.86992 206.358 2.27004 206.075 1.73278C205.791 1.19552 205.391 0.73606 204.906 0.391837C204.38 0.12342 203.8 -0.0106208 203.215 0.000657087C202.63 0.011935 202.055 0.168213 201.538 0.456732L107.142 57.6139C106.636 57.9595 106.215 58.4256 105.913 58.9741C105.611 59.5226 105.437 60.1381 105.405 60.7705V147.449C105.43 148.058 105.59 148.652 105.873 149.185C106.155 149.718 106.552 150.174 107.031 150.518Z" fill="#92E3A9"/>
<path opacity="0.3" d="M107.031 150.518C107.559 150.785 108.139 150.919 108.725 150.908C109.311 150.896 109.886 150.741 110.404 150.453L204.8 93.2959C205.306 92.9487 205.726 92.4817 206.028 91.9326C206.33 91.3834 206.504 90.7676 206.537 90.1347V3.48354C206.517 2.86992 206.358 2.27004 206.075 1.73278C205.791 1.19552 205.391 0.73606 204.906 0.391837C204.38 0.12342 203.8 -0.0106208 203.215 0.000657087C202.63 0.011935 202.055 0.168213 201.538 0.456732L107.142 57.6139C106.636 57.9595 106.215 58.4256 105.913 58.9741C105.611 59.5226 105.437 60.1381 105.405 60.7705V147.449C105.43 148.058 105.59 148.652 105.873 149.185C106.155 149.718 106.552 150.174 107.031 150.518Z" fill="black"/>
<path d="M110.403 150.448L204.8 93.2912C205.307 92.9458 205.728 92.4799 206.031 91.9314C206.333 91.3829 206.508 90.7673 206.541 90.1346V3.4788C206.541 2.31535 205.759 1.84719 204.8 2.4266L110.403 59.5837C109.896 59.9328 109.473 60.4027 109.172 60.9553C108.87 61.5079 108.697 62.1274 108.667 62.7635V149.396C108.667 150.56 109.444 151.032 110.403 150.448Z" fill="#92E3A9"/>
<path d="M110.403 150.448L204.8 93.2912C205.307 92.9458 205.728 92.4799 206.031 91.9314C206.333 91.3829 206.508 90.7673 206.541 90.1346V3.4788C206.541 2.31535 205.759 1.84719 204.8 2.4266L110.403 59.5837C109.896 59.9328 109.473 60.4027 109.172 60.9553C108.87 61.5079 108.697 62.1274 108.667 62.7635V149.396C108.667 150.56 109.444 151.032 110.403 150.448Z" fill="#92E3A9"/>
<path opacity="0.5" d="M110.403 150.448L204.8 93.2912C205.307 92.9458 205.728 92.4799 206.031 91.9314C206.333 91.3829 206.508 90.7673 206.541 90.1346V3.4788C206.541 2.31535 205.759 1.84719 204.8 2.4266L110.403 59.5837C109.896 59.9328 109.473 60.4027 109.172 60.9553C108.87 61.5079 108.697 62.1274 108.667 62.7635V149.396C108.667 150.56 109.444 151.032 110.403 150.448Z" fill="black"/>
<path d="M110.147 150.587C109.656 150.807 109.127 150.915 108.593 150.903C108.059 150.891 107.534 150.76 107.053 150.518C106.568 150.173 106.168 149.712 105.885 149.174C105.601 148.636 105.443 148.036 105.422 147.422V137.688L108.684 139.667V149.401C108.662 150.462 109.303 150.94 110.147 150.587Z" fill="#92E3A9"/>
<path opacity="0.7" d="M110.147 150.587C109.656 150.807 109.127 150.915 108.593 150.903C108.059 150.891 107.534 150.76 107.053 150.518C106.568 150.173 106.168 149.712 105.885 149.174C105.601 148.636 105.443 148.036 105.422 147.422V137.688L108.684 139.667V149.401C108.662 150.462 109.303 150.94 110.147 150.587Z" fill="black"/>
<path d="M108.667 139.653V149.387C108.667 150.55 109.444 151.023 110.403 150.439L204.8 93.2912C205.307 92.9458 205.728 92.4799 206.031 91.9314C206.333 91.3829 206.508 90.7673 206.541 90.1346V80.3774L108.667 139.653Z" fill="#92E3A9"/>
<g opacity="0.5">
<path d="M108.667 139.653V149.387C108.667 150.55 109.444 151.023 110.403 150.439L204.8 93.2912C205.307 92.9458 205.728 92.4799 206.031 91.9314C206.333 91.3829 206.508 90.7673 206.541 90.1346V80.3774L108.667 139.653Z" fill="black"/>
</g>
<path d="M111.928 132.464V63.862C111.947 63.482 112.051 63.1121 112.232 62.7825C112.414 62.453 112.667 62.1732 112.971 61.9662L202.25 7.91471C202.824 7.56707 203.293 7.84982 203.293 8.54974V77.1327C203.273 77.5125 203.169 77.882 202.987 78.2114C202.806 78.5408 202.554 78.8207 202.25 79.0285L112.971 133.075C112.392 133.442 111.928 133.159 111.928 132.464Z" fill="#FAFAFA"/>
<path d="M157.602 113.974C157.127 114.298 156.731 114.735 156.448 115.25C156.164 115.764 156.001 116.342 155.971 116.936C155.971 118.025 156.7 118.47 157.602 117.923C158.076 117.598 158.471 117.161 158.754 116.646C159.038 116.132 159.202 115.554 159.232 114.961C159.232 113.867 158.503 113.427 157.602 113.974Z" fill="#92E3A9"/>
<path opacity="0.5" d="M157.602 113.974C157.127 114.298 156.731 114.735 156.448 115.25C156.164 115.764 156.001 116.342 155.971 116.936C155.971 118.025 156.7 118.47 157.602 117.923C158.076 117.598 158.471 117.161 158.754 116.646C159.038 116.132 159.202 115.554 159.232 114.961C159.232 113.867 158.503 113.427 157.602 113.974Z" fill="white"/>
<path d="M109.175 60.9373C108.862 61.4921 108.686 62.1196 108.662 62.7635V139.653L105.4 137.674V60.7704C105.426 60.134 105.602 59.5143 105.913 58.9673L109.175 60.9373Z" fill="#92E3A9"/>
<path opacity="0.7" d="M109.175 60.9373C108.862 61.4921 108.686 62.1196 108.662 62.7635V139.653L105.4 137.674V60.7704C105.426 60.134 105.602 59.5143 105.913 58.9673L109.175 60.9373Z" fill="black"/>
<path d="M143.043 170.273L166.627 184.596C167.038 184.816 167.492 184.931 167.953 184.931C168.414 184.931 168.868 184.816 169.279 184.596L238.951 142.49C239.685 142.026 239.685 141.331 238.951 140.886L215.363 126.563C214.953 126.343 214.498 126.229 214.037 126.229C213.576 126.229 213.122 126.343 212.711 126.563L143.043 168.674C142.314 169.115 142.31 169.838 143.043 170.273Z" fill="#E0E0E0"/>
<path d="M237.523 138.318C237.508 138.145 237.449 137.98 237.353 137.839C237.257 137.698 237.126 137.587 236.975 137.516L214.819 124.106C214.409 123.887 213.954 123.772 213.493 123.772C213.032 123.772 212.578 123.887 212.167 124.106L144.546 165.11C144.396 165.181 144.267 165.293 144.171 165.434C144.076 165.575 144.017 165.74 144.002 165.911V168.35C144.017 168.522 144.075 168.687 144.172 168.827C144.268 168.967 144.399 169.078 144.55 169.147L166.697 182.561C167.108 182.78 167.562 182.894 168.023 182.894C168.484 182.894 168.938 182.78 169.349 182.561L236.971 141.618C237.122 141.548 237.252 141.438 237.348 141.297C237.444 141.157 237.503 140.993 237.519 140.821L237.523 138.318Z" fill="#92E3A9"/>
<path opacity="0.5" d="M237.523 138.318C237.508 138.145 237.449 137.98 237.353 137.839C237.257 137.698 237.126 137.587 236.975 137.516L214.819 124.106C214.409 123.887 213.954 123.772 213.493 123.772C213.032 123.772 212.578 123.887 212.167 124.106L144.546 165.11C144.396 165.181 144.267 165.293 144.171 165.434C144.076 165.575 144.017 165.74 144.002 165.911V168.35C144.017 168.522 144.075 168.687 144.172 168.827C144.268 168.967 144.399 169.078 144.55 169.147L166.697 182.561C167.108 182.78 167.562 182.894 168.023 182.894C168.484 182.894 168.938 182.78 169.349 182.561L236.971 141.618C237.122 141.548 237.252 141.438 237.348 141.297C237.444 141.157 237.503 140.993 237.519 140.821L237.523 138.318Z" fill="black"/>
<path d="M166.711 180.068L144.563 166.714C143.834 166.273 143.83 165.559 144.563 165.114L212.185 124.111C212.596 123.891 213.05 123.777 213.511 123.777C213.972 123.777 214.426 123.891 214.837 124.111L236.993 137.526C237.722 137.989 237.722 138.684 236.993 139.129L169.371 180.072C168.959 180.292 168.503 180.406 168.04 180.405C167.578 180.404 167.122 180.289 166.711 180.068Z" fill="#92E3A9"/>
<path opacity="0.3" d="M166.711 180.068L144.563 166.714C143.834 166.273 143.83 165.559 144.563 165.114L212.185 124.111C212.596 123.891 213.05 123.777 213.511 123.777C213.972 123.777 214.426 123.891 214.837 124.111L236.993 137.526C237.722 137.989 237.722 138.684 236.993 139.129L169.371 180.072C168.959 180.292 168.503 180.406 168.04 180.405C167.578 180.404 167.122 180.289 166.711 180.068Z" fill="black"/>
<path d="M167.948 180.397V182.891C167.516 182.885 167.091 182.776 166.706 182.571L144.568 169.156C144.416 169.086 144.285 168.975 144.188 168.834C144.09 168.693 144.031 168.527 144.015 168.354V165.912C144.032 166.084 144.092 166.249 144.189 166.39C144.286 166.531 144.417 166.642 144.568 166.714L166.706 180.072C167.089 180.283 167.515 180.394 167.948 180.397Z" fill="#92E3A9"/>
<path opacity="0.7" d="M167.948 180.397V182.891C167.516 182.885 167.091 182.776 166.706 182.571L144.568 169.156C144.416 169.086 144.285 168.975 144.188 168.834C144.09 168.693 144.031 168.527 144.015 168.354V165.912C144.032 166.084 144.092 166.249 144.189 166.39C144.286 166.531 144.417 166.642 144.568 166.714L166.706 180.072C167.089 180.283 167.515 180.394 167.948 180.397Z" fill="black"/>
<path d="M196.23 141.377L198.754 142.907C198.804 142.935 198.86 142.949 198.917 142.949L201.242 141.591L198.528 139.987L196.23 141.377Z" fill="#37474F"/>
<path d="M199.266 139.542L201.803 141.076C201.85 141.1 201.901 141.111 201.953 141.108H202.046L204.278 139.755L201.564 138.156L199.266 139.542Z" fill="#37474F"/>
<path d="M191.116 144.478L193.649 146.013C193.696 146.036 193.747 146.047 193.799 146.045L197.565 143.815L194.851 142.216L191.116 144.478Z" fill="#37474F"/>
<path d="M188.08 146.318L190.608 147.848C190.656 147.873 190.709 147.885 190.763 147.885L193.092 146.527L190.378 144.928L188.08 146.318Z" fill="#37474F"/>
<path d="M174.202 170.385L176.532 169.026L173.818 167.427L171.52 168.818L174.052 170.357C174.1 170.376 174.151 170.385 174.202 170.385Z" fill="#37474F"/>
<path d="M185.039 148.154L187.563 149.684C187.613 149.713 187.669 149.727 187.726 149.725L190.051 148.367L187.337 146.763L185.039 148.154Z" fill="#37474F"/>
<path d="M201.962 142.068L199.664 143.458L202.192 144.988C202.24 145.015 202.293 145.028 202.347 145.025L204.676 143.667L201.962 142.068Z" fill="#37474F"/>
<path d="M193.472 154.541L195.802 153.183L193.083 151.584L190.785 152.975L193.318 154.509C193.366 154.533 193.419 154.544 193.472 154.541Z" fill="#37474F"/>
<path d="M205.405 143.19L207.73 141.832L205.017 140.228L202.718 141.618L205.255 143.153C205.302 143.178 205.353 143.191 205.405 143.19Z" fill="#37474F"/>
<path d="M190.436 156.396L192.761 155.037L190.047 153.434L187.749 154.824L190.272 156.354C190.322 156.383 190.379 156.397 190.436 156.396Z" fill="#37474F"/>
<path d="M187.399 158.25L189.724 156.891L187.01 155.288L184.712 156.678L187.244 158.212C187.293 158.237 187.346 158.25 187.399 158.25Z" fill="#37474F"/>
<path d="M199.545 150.88L204.429 147.973L198.285 144.293L195.682 145.878L198.895 147.82C198.921 147.833 198.943 147.852 198.96 147.877C198.976 147.901 198.986 147.93 198.988 147.959C198.987 147.986 198.979 148.011 198.965 148.033C198.951 148.055 198.931 148.073 198.909 148.085L196.88 149.313L199.399 150.838C199.444 150.864 199.494 150.878 199.545 150.88Z" fill="#37474F"/>
<path d="M178.967 151.834L181.499 153.369C181.546 153.392 181.598 153.404 181.65 153.401L183.979 152.043L181.261 150.444L178.967 151.834Z" fill="#37474F"/>
<path d="M196.508 152.72L198.838 151.362L196.124 149.762L193.826 151.153L196.341 152.673C196.391 152.704 196.45 152.72 196.508 152.72Z" fill="#37474F"/>
<path d="M161.902 169.518L164.231 168.16L161.513 166.556L159.215 167.946L161.739 169.471C161.788 169.501 161.845 169.517 161.902 169.518Z" fill="#37474F"/>
<path d="M154.667 166.547L157.204 168.085C157.25 168.107 157.3 168.118 157.35 168.118H157.443L159.679 166.764L156.961 165.165L154.667 166.547Z" fill="#37474F"/>
<path d="M166.136 171.112H166.229L168.439 169.759L165.725 168.16L163.427 169.55L165.964 171.085C166.018 171.108 166.077 171.117 166.136 171.112Z" fill="#37474F"/>
<path d="M168.129 174.06L170.458 172.702L167.74 171.103L165.442 172.494L167.966 174.019C168.015 174.049 168.072 174.063 168.129 174.06Z" fill="#37474F"/>
<path d="M157.703 164.706L160.236 166.245C160.283 166.266 160.334 166.277 160.386 166.278L162.715 164.92L159.997 163.321L157.703 164.706Z" fill="#37474F"/>
<path d="M171.166 172.225L173.49 170.862L170.777 169.263L168.483 170.654L171.015 172.188C171.062 172.213 171.113 172.225 171.166 172.225Z" fill="#37474F"/>
<path d="M166.817 159.177L169.345 160.711C169.393 160.734 169.446 160.745 169.5 160.743L171.829 159.39L169.111 157.786L166.817 159.177Z" fill="#37474F"/>
<path d="M169.853 157.35L172.377 158.88C172.425 158.908 172.48 158.923 172.536 158.922L174.865 157.564L172.151 155.96L169.853 157.35Z" fill="#37474F"/>
<path d="M172.889 155.51L175.408 157.04C175.459 157.068 175.515 157.082 175.572 157.081L177.901 155.723L175.187 154.124L172.889 155.51Z" fill="#37474F"/>
<path d="M163.776 161.031L166.3 162.556C166.348 162.585 166.403 162.601 166.459 162.602L168.792 161.239L166.07 159.64L163.776 161.031Z" fill="#37474F"/>
<path d="M175.93 153.675L178.463 155.209C178.51 155.231 178.561 155.242 178.613 155.241L180.942 153.883L178.224 152.284L175.93 153.675Z" fill="#37474F"/>
<path d="M160.739 162.885L163.272 164.414C163.32 164.439 163.373 164.452 163.426 164.451L165.751 163.093L163.038 161.494L160.739 162.885Z" fill="#37474F"/>
<path d="M182.003 149.994L184.54 151.533C184.586 151.554 184.635 151.565 184.686 151.565L187.015 150.207L184.301 148.604L182.003 149.994Z" fill="#37474F"/>
<path d="M189.592 149.559L192.115 151.084C192.165 151.112 192.222 151.127 192.279 151.125H192.372L194.604 149.772L191.89 148.173L189.592 149.559Z" fill="#37474F"/>
<path d="M205.984 135.477L208.508 137.002C208.557 137.029 208.612 137.044 208.667 137.043L210.996 135.685L208.278 134.086L205.984 135.477Z" fill="#37474F"/>
<path d="M209.021 133.636L211.544 135.161C211.593 135.19 211.648 135.204 211.703 135.203L214.032 133.845L211.319 132.246L209.021 133.636Z" fill="#37474F"/>
<path d="M186.555 151.394L189.079 152.924C189.128 152.951 189.182 152.966 189.238 152.965L191.567 151.607L188.853 150.003L186.555 151.394Z" fill="#37474F"/>
<path d="M212.057 131.796L214.581 133.326C214.63 133.353 214.684 133.368 214.74 133.368L217.069 132.005L214.355 130.406L212.057 131.796Z" fill="#37474F"/>
<path d="M195.315 149.285H195.408L197.64 147.932L194.926 146.333L192.628 147.723L195.152 149.248C195.202 149.275 195.259 149.287 195.315 149.285Z" fill="#37474F"/>
<path d="M209.414 137.553L211.933 139.078C211.985 139.108 212.043 139.124 212.101 139.125L214.426 137.766L211.712 136.163L209.414 137.553Z" fill="#37474F"/>
<path d="M215.491 133.873L218.01 135.398C218.06 135.428 218.117 135.444 218.174 135.444L220.503 134.086L217.781 132.487L215.491 133.873Z" fill="#37474F"/>
<path d="M215.129 137.284L217.458 135.926L214.74 134.322L212.441 135.713L214.974 137.247C215.022 137.272 215.075 137.285 215.129 137.284Z" fill="#37474F"/>
<path d="M224.503 135.653C224.547 135.673 224.596 135.684 224.644 135.685H224.741L226.973 134.336L220.826 130.656L218.527 132.047L224.503 135.653Z" fill="#37474F"/>
<path d="M183.515 153.234L186.043 154.764C186.091 154.793 186.146 154.807 186.202 154.806H186.295L188.531 153.457L185.813 151.853L183.515 153.234Z" fill="#37474F"/>
<path d="M218.572 139.361H218.665L220.897 138.007L218.183 136.408L215.885 137.799L218.408 139.324C218.459 139.35 218.515 139.363 218.572 139.361Z" fill="#37474F"/>
<path d="M221.608 137.521L223.937 136.163L221.219 134.563L218.921 135.954L221.44 137.479C221.492 137.507 221.55 137.522 221.608 137.521Z" fill="#37474F"/>
<path d="M168.328 162.421L170.852 163.946C170.902 163.976 170.958 163.992 171.015 163.993L173.34 162.635L170.626 161.031L168.328 162.421Z" fill="#37474F"/>
<path d="M162.255 166.129L164.775 167.654C164.825 167.683 164.881 167.698 164.938 167.696H165.031L167.267 166.343L164.549 164.739L162.255 166.129Z" fill="#37474F"/>
<path d="M172.209 167.437L174.538 166.078L171.815 164.475L169.521 165.865L172.058 167.399C172.105 167.425 172.156 167.438 172.209 167.437Z" fill="#37474F"/>
<path d="M169.164 169.272L171.493 167.914L168.775 166.315L166.477 167.706L169.013 169.24C169.06 169.263 169.112 169.275 169.164 169.272Z" fill="#37474F"/>
<path d="M175.245 165.596H175.343L177.574 164.248L174.861 162.644L172.562 164.034L175.082 165.559C175.132 165.587 175.189 165.599 175.245 165.596Z" fill="#37474F"/>
<path d="M180.478 155.074L183.006 156.604C183.056 156.63 183.11 156.642 183.165 156.641H183.258L185.49 155.288L182.776 153.688L180.478 155.074Z" fill="#37474F"/>
<path d="M181.322 161.916L183.652 160.558L180.934 158.959L178.635 160.349L181.159 161.874C181.209 161.902 181.265 161.917 181.322 161.916Z" fill="#37474F"/>
<path d="M178.286 163.756L180.611 162.421L177.897 160.822L175.599 162.213L178.136 163.752C178.185 163.763 178.236 163.765 178.286 163.756Z" fill="#37474F"/>
<path d="M174.405 158.755L176.925 160.28C176.975 160.309 177.031 160.323 177.088 160.322L179.417 158.963L176.704 157.364L174.405 158.755Z" fill="#37474F"/>
<path d="M165.292 164.275L167.811 165.8C167.863 165.829 167.921 165.844 167.979 165.842L170.304 164.484L167.59 162.885L165.292 164.275Z" fill="#37474F"/>
<path d="M177.442 156.914L179.966 158.439C180.016 158.468 180.072 158.483 180.129 158.481L182.454 157.123L179.74 155.524L177.442 156.914Z" fill="#37474F"/>
<path d="M171.374 160.59L173.893 162.12C173.943 162.149 173.999 162.163 174.056 162.162H174.149L176.386 160.813L173.667 159.209L171.374 160.59Z" fill="#37474F"/>
<path d="M184.359 160.076L186.688 158.718L183.97 157.119L181.676 158.509L184.204 160.039C184.251 160.066 184.305 160.079 184.359 160.076Z" fill="#37474F"/>
<path d="M202.312 137.702L204.844 139.236C204.891 139.259 204.943 139.27 204.994 139.268L207.323 137.91L204.605 136.311L202.312 137.702Z" fill="#37474F"/>
<path d="M153.924 166.996L151.626 168.387L154.163 169.921C154.21 169.945 154.261 169.956 154.313 169.953H154.406L156.642 168.6L153.924 166.996Z" fill="#37474F"/>
<path d="M158.477 168.396L155.06 170.463L157.597 172.002C157.643 172.023 157.693 172.034 157.743 172.035H157.84L161.19 170.004L158.477 168.396Z" fill="#37474F"/>
<path d="M150.238 164.183L147.458 165.865L149.986 167.39C150.035 167.419 150.09 167.433 150.145 167.432L152.952 165.786L150.238 164.183Z" fill="#37474F"/>
<path d="M164.704 172.943L161.928 174.626L164.447 176.151C164.498 176.179 164.554 176.193 164.611 176.192L167.418 174.542L164.704 172.943Z" fill="#37474F"/>
<path d="M162.707 169.995L158.495 172.544L161.027 174.079C161.074 174.101 161.126 174.113 161.177 174.111H161.27L165.425 171.599L162.707 169.995Z" fill="#37474F"/>
<path d="M154.985 164.502L157.31 163.144L154.579 161.545L152.28 162.936L154.804 164.465C154.86 164.496 154.923 164.509 154.985 164.502Z" fill="#37474F"/>
<path d="M165.358 176.702L167.882 178.232C167.931 178.257 167.986 178.269 168.041 178.269L171.488 176.234L168.774 174.635L165.358 176.702Z" fill="#37474F"/>
<path d="M158.022 162.662L160.351 161.304L157.633 159.705L155.339 161.096L157.871 162.63C157.918 162.653 157.97 162.664 158.022 162.662Z" fill="#37474F"/>
<path d="M171.493 154.509H171.586L173.822 153.155L171.104 151.556L168.81 152.947L171.334 154.476C171.383 154.502 171.438 154.513 171.493 154.509Z" fill="#37474F"/>
<path d="M174.529 152.687L176.858 151.329L174.144 149.725L171.846 151.116L174.374 152.646C174.421 152.674 174.475 152.688 174.529 152.687Z" fill="#37474F"/>
<path d="M168.456 156.345H168.549L170.759 154.991L168.045 153.392L165.747 154.782L168.28 156.303C168.334 156.333 168.395 156.348 168.456 156.345Z" fill="#37474F"/>
<path d="M164.094 158.987H164.191L166.423 157.638L163.709 156.034L161.411 157.425L163.939 158.954C163.987 158.98 164.04 158.991 164.094 158.987Z" fill="#37474F"/>
<path d="M161.058 160.827L163.387 159.469L160.673 157.865L158.375 159.255L160.908 160.79C160.954 160.815 161.006 160.828 161.058 160.827Z" fill="#37474F"/>
<path d="M225.793 140.112L228.33 141.651C228.377 141.67 228.426 141.68 228.476 141.679H228.569L230.779 140.325L228.065 138.726L225.793 140.112Z" fill="#37474F"/>
<path d="M209.962 149.693L212.481 151.218C212.53 151.249 212.587 151.265 212.645 151.264L214.974 149.906L212.26 148.302L209.962 149.693Z" fill="#37474F"/>
<path d="M219.716 143.792L222.24 145.317C222.289 145.345 222.344 145.359 222.399 145.359H222.492L227.765 142.165L225.051 140.566L219.716 143.792Z" fill="#37474F"/>
<path d="M212.999 147.857L215.518 149.378C215.568 149.409 215.627 149.426 215.686 149.424L218.015 148.066L215.297 146.467L212.999 147.857Z" fill="#37474F"/>
<path d="M216.039 146.017L218.549 147.533C218.6 147.569 218.661 147.586 218.722 147.584L221.051 146.226L218.333 144.626L216.039 146.017Z" fill="#37474F"/>
<path d="M177.561 150.833H177.658L179.89 149.48L177.177 147.876L174.878 149.267L177.398 150.792C177.448 150.82 177.504 150.834 177.561 150.833Z" fill="#37474F"/>
<path d="M227.694 134.8L225.396 136.19L231.367 139.806C231.413 139.827 231.463 139.838 231.513 139.838H231.606L233.838 138.485L227.694 134.8Z" fill="#37474F"/>
<path d="M173.035 172.058L175.554 173.583C175.605 173.611 175.661 173.625 175.718 173.625L178.524 171.974L175.793 170.375L173.035 172.058Z" fill="#37474F"/>
<path d="M176.549 169.926L179.068 171.451C179.119 171.481 179.177 171.497 179.236 171.497H179.329L196.592 161.031L193.874 159.427L176.549 169.926Z" fill="#37474F"/>
<path d="M177.238 168.544L179.568 167.186L176.854 165.587L174.556 166.978L177.088 168.507C177.135 168.532 177.186 168.544 177.238 168.544Z" fill="#37474F"/>
<path d="M169.517 174.186L172.036 175.711C172.086 175.74 172.143 175.756 172.2 175.757L175.006 174.107L172.293 172.503L169.517 174.186Z" fill="#37474F"/>
<path d="M194.617 158.987L197.14 160.516C197.19 160.543 197.244 160.557 197.299 160.558H197.397L200.106 158.917L197.392 157.323L194.617 158.987Z" fill="#37474F"/>
<path d="M201.648 154.727L204.181 156.261C204.229 156.287 204.282 156.299 204.336 156.298H204.428L207.142 154.657L204.428 153.053L201.648 154.727Z" fill="#37474F"/>
<path d="M198.13 156.859L200.667 158.393C200.714 158.416 200.766 158.427 200.818 158.426L203.624 156.775L200.91 155.176L198.13 156.859Z" fill="#37474F"/>
<path d="M205.167 152.599L207.69 154.124C207.74 154.153 207.797 154.168 207.854 154.166H207.947L211.297 152.136L208.583 150.537L205.167 152.599Z" fill="#37474F"/>
<path d="M208.424 141.35H208.517L210.753 140.001L208.057 138.388L205.759 139.778L208.291 141.313C208.333 141.334 208.378 141.347 208.424 141.35Z" fill="#37474F"/>
<path d="M212.252 147.348H212.344L214.581 145.994L211.867 144.395L209.569 145.786L212.097 147.32C212.146 147.342 212.199 147.352 212.252 147.348Z" fill="#37474F"/>
<path d="M201.543 153.832L207.867 150.05L205.149 148.451L198.855 152.261L201.392 153.795C201.439 153.821 201.49 153.834 201.543 153.832Z" fill="#37474F"/>
<path d="M218.965 143.278H219.062L221.294 141.924L218.58 140.325L216.282 141.716L218.815 143.25C218.862 143.271 218.914 143.281 218.965 143.278Z" fill="#37474F"/>
<path d="M222.006 141.442H222.099L224.331 140.093L221.617 138.49L219.319 139.88L221.847 141.414C221.897 141.437 221.952 141.446 222.006 141.442Z" fill="#37474F"/>
<path d="M198.502 155.672L200.831 154.314L198.117 152.71L195.819 154.101L198.343 155.631C198.392 155.657 198.446 155.672 198.502 155.672Z" fill="#37474F"/>
<path d="M215.535 141.201H215.628L217.86 139.848L215.129 138.244L212.831 139.634L215.35 141.155C215.405 141.191 215.47 141.207 215.535 141.201Z" fill="#37474F"/>
<path d="M183.307 164.864L185.636 163.506L182.918 161.907L180.624 163.297L183.157 164.832C183.203 164.855 183.255 164.866 183.307 164.864Z" fill="#37474F"/>
<path d="M195.465 157.508L197.795 156.15L195.077 154.542L192.783 155.932L195.32 157.471C195.366 157.493 195.415 157.505 195.465 157.508Z" fill="#37474F"/>
<path d="M180.279 166.704H180.372L182.582 165.351L179.868 163.751L177.57 165.142L180.107 166.676C180.161 166.702 180.22 166.712 180.279 166.704Z" fill="#37474F"/>
<path d="M186.352 163.029L188.681 161.67L185.958 160.067L183.66 161.457L186.202 162.996C186.248 163.02 186.3 163.031 186.352 163.029Z" fill="#37474F"/>
<path d="M189.393 161.188H189.494L191.726 159.835L189.004 158.25L186.706 159.64L189.229 161.17C189.281 161.191 189.338 161.197 189.393 161.188Z" fill="#37474F"/>
<path d="M192.429 159.348H192.522L194.758 157.995L192.04 156.396L189.742 157.786L192.279 159.32C192.326 159.34 192.378 159.35 192.429 159.348Z" fill="#37474F"/>
<path d="M184.964 146.351L187.284 144.993L184.566 143.389L182.268 144.779L184.792 146.304C184.843 146.338 184.903 146.355 184.964 146.351Z" fill="#37474F"/>
<path d="M225.042 139.602H225.135L227.371 138.253L224.653 136.649L222.355 138.04L224.892 139.579C224.94 139.597 224.991 139.605 225.042 139.602Z" fill="#37474F"/>
<path d="M191.041 142.67L193.366 141.312L190.652 139.708L188.354 141.099L190.873 142.624C190.924 142.654 190.982 142.67 191.041 142.67Z" fill="#37474F"/>
<path d="M197.786 138.587L200.115 137.229L197.397 135.625L195.103 137.016L197.627 138.545C197.675 138.574 197.73 138.588 197.786 138.587Z" fill="#37474F"/>
<path d="M194.749 140.427L197.074 139.069L194.356 137.465L192.058 138.856L194.581 140.385C194.633 140.414 194.691 140.429 194.749 140.427Z" fill="#37474F"/>
<path d="M181.927 148.191L184.257 146.828L181.538 145.229L179.245 146.62L181.768 148.149C181.818 148.176 181.872 148.19 181.927 148.191Z" fill="#37474F"/>
<path d="M188 144.511H188.097L190.307 143.157L187.616 141.563L185.317 142.953L187.837 144.478C187.888 144.503 187.944 144.514 188 144.511Z" fill="#37474F"/>
<path d="M200.822 136.747L203.151 135.389L200.437 133.79L198.139 135.18L200.663 136.705C200.711 136.734 200.766 136.748 200.822 136.747Z" fill="#37474F"/>
<path d="M212.733 128.468L215.058 127.11L213.582 126.267L211.284 127.657L212.574 128.422C212.623 128.45 212.678 128.466 212.733 128.468Z" fill="#37474F"/>
<path d="M217.78 131.527L220.11 130.169L217.392 128.584L215.093 129.975L217.617 131.504C217.669 131.526 217.725 131.534 217.78 131.527Z" fill="#37474F"/>
<path d="M203.637 133.989H203.73L205.962 132.635L204.486 131.801L202.188 133.191L203.474 133.956C203.525 133.979 203.581 133.99 203.637 133.989Z" fill="#37474F"/>
<path d="M206.656 132.149H206.749L208.959 130.8L207.509 129.975L205.211 131.365L206.506 132.13C206.554 132.148 206.605 132.154 206.656 132.149Z" fill="#37474F"/>
<path d="M209.692 130.308L212.022 128.95L210.545 128.121L208.247 129.511L209.546 130.281C209.593 130.3 209.642 130.31 209.692 130.308Z" fill="#37474F"/>
<g opacity="0.8">
<path d="M213.149 10.2741V79.0842C213.124 79.58 212.987 80.0625 212.751 80.4926C212.514 80.9227 212.184 81.2882 211.788 81.5594L123.353 135.208C123.22 135.294 123.068 135.342 122.911 135.347C122.854 135.354 122.796 135.354 122.739 135.347C122.699 135.338 122.661 135.324 122.624 135.305L122.549 135.259L122.469 135.203C122.442 135.182 122.417 135.159 122.394 135.134C122.288 135.027 122.202 134.899 122.142 134.758C122.048 134.53 122 134.284 122.001 134.035V65.5447C122.028 65.048 122.165 64.5649 122.402 64.1341C122.639 63.7034 122.97 63.3371 123.367 63.0648L211.788 9.45829C211.92 9.36223 212.072 9.30109 212.231 9.2801C212.39 9.25912 212.552 9.2789 212.703 9.33778C212.744 9.35736 212.784 9.38062 212.822 9.4073C212.857 9.43383 212.887 9.46682 212.91 9.50464C212.926 9.51947 212.939 9.53666 212.95 9.55563C212.969 9.57744 212.984 9.60254 212.994 9.62979C213.03 9.68533 213.057 9.74632 213.074 9.81057C213.089 9.8523 213.1 9.8959 213.105 9.94036C213.107 9.9447 213.108 9.94945 213.108 9.95426C213.108 9.95907 213.107 9.96382 213.105 9.96817C213.117 10.0104 213.124 10.054 213.127 10.098C213.145 10.1489 213.149 10.2092 213.149 10.2741Z" fill="black"/>
<path d="M212.393 9.71792C212.439 9.71816 212.484 9.7276 212.526 9.74573H212.553L212.588 9.79672L212.623 9.8477C212.623 9.8477 212.623 9.8477 212.623 9.87088L212.663 10.0053C212.662 10.0161 212.662 10.0269 212.663 10.0377C212.663 10.0841 212.663 10.1305 212.663 10.1814V79.0843C212.639 79.4992 212.523 79.9026 212.325 80.2629C212.127 80.6232 211.853 80.9305 211.523 81.1609L123.133 134.809C123.064 134.856 122.984 134.881 122.903 134.883H122.81H122.779L122.721 134.842V134.818C122.658 134.758 122.608 134.684 122.576 134.601C122.504 134.431 122.468 134.248 122.47 134.063V65.5447C122.494 65.1292 122.61 64.7253 122.808 64.3649C123.007 64.0045 123.283 63.6975 123.614 63.4682L212.004 9.8477C212.122 9.77224 212.256 9.72772 212.393 9.71792ZM212.393 9.25439C212.179 9.26128 211.97 9.3268 211.788 9.44444L123.354 63.0695C122.957 63.3413 122.627 63.7069 122.39 64.1368C122.153 64.5666 122.015 65.0489 121.988 65.5447V134.007C121.987 134.256 122.035 134.502 122.129 134.73C122.189 134.872 122.274 134.999 122.381 135.106C122.404 135.131 122.429 135.155 122.456 135.175L122.536 135.231L122.611 135.277C122.648 135.296 122.686 135.31 122.726 135.319C122.783 135.326 122.841 135.326 122.898 135.319H122.92C123.077 135.314 123.229 135.267 123.362 135.18L211.788 81.5595C212.184 81.2883 212.514 80.9228 212.751 80.4927C212.987 80.0626 213.124 79.5801 213.149 79.0843V10.2741C213.149 10.2093 213.149 10.149 213.149 10.0934C213.147 10.0494 213.139 10.0058 213.127 9.96359C213.129 9.95924 213.13 9.95449 213.13 9.94968C213.13 9.94487 213.129 9.94012 213.127 9.93577C213.122 9.89132 213.112 9.84772 213.096 9.80599C213.079 9.74174 213.052 9.68075 213.017 9.62521C213.006 9.59796 212.991 9.57286 212.972 9.55105C212.962 9.53208 212.948 9.51489 212.933 9.50006C212.909 9.46224 212.879 9.42925 212.844 9.40272C212.806 9.37604 212.766 9.35278 212.725 9.33319C212.628 9.28626 212.522 9.26251 212.416 9.26367L212.393 9.25439Z" fill="black"/>
<g opacity="0.7">
<path d="M213.149 10.2741V79.0842C213.124 79.58 212.987 80.0625 212.751 80.4926C212.514 80.9227 212.184 81.2882 211.788 81.5594L123.353 135.208C123.22 135.294 123.068 135.342 122.911 135.347C122.854 135.354 122.796 135.354 122.739 135.347C122.699 135.338 122.661 135.324 122.624 135.305L122.549 135.259L122.469 135.203C122.442 135.182 122.417 135.159 122.394 135.134C122.288 135.027 122.202 134.899 122.142 134.758C122.048 134.53 122 134.284 122.001 134.035V65.5447C122.028 65.048 122.165 64.5649 122.402 64.1341C122.639 63.7034 122.97 63.3371 123.367 63.0648L211.788 9.45829C211.92 9.36223 212.072 9.30109 212.231 9.2801C212.39 9.25912 212.552 9.2789 212.703 9.33778C212.744 9.35736 212.784 9.38062 212.822 9.4073C212.857 9.43383 212.887 9.46682 212.91 9.50464C212.926 9.51947 212.939 9.53666 212.95 9.55563C212.969 9.57744 212.984 9.60254 212.994 9.62979C213.03 9.68533 213.057 9.74632 213.074 9.81057C213.089 9.8523 213.1 9.8959 213.105 9.94036C213.107 9.9447 213.108 9.94945 213.108 9.95426C213.108 9.95907 213.107 9.96382 213.105 9.96817C213.117 10.0104 213.124 10.054 213.127 10.098C213.145 10.1489 213.149 10.2092 213.149 10.2741Z" fill="black"/>
</g>
</g>
<path d="M212.703 9.32412C212.553 9.26525 212.391 9.24546 212.231 9.26645C212.072 9.28744 211.92 9.34858 211.788 9.44464L123.354 63.0697C122.957 63.3415 122.627 63.7071 122.39 64.137C122.153 64.5668 122.015 65.0491 121.988 65.5449V70.2173L120.247 69.1465V64.5113C120.273 64.0163 120.409 63.5347 120.646 63.1055C120.882 62.6762 121.212 62.3115 121.608 62.0407L210.047 8.41561C210.188 8.30631 210.355 8.24057 210.53 8.22583C210.705 8.21109 210.881 8.24792 211.037 8.33218C211.28 8.48514 212.411 9.16652 212.703 9.32412Z" fill="#92E3A9"/>
<path d="M213.15 10.2603C213.15 9.36106 212.535 8.99487 211.788 9.44913L123.35 63.0742C122.954 63.345 122.624 63.7097 122.388 64.139C122.151 64.5682 122.014 65.0498 121.988 65.5448V70.2171L213.15 14.9512V10.2603Z" fill="#92E3A9"/>
<g opacity="0.4">
<path d="M211.788 9.45843L123.354 63.0742C122.95 63.3405 122.619 63.7128 122.395 64.1543L120.662 63.1067C120.888 62.6791 121.213 62.3186 121.608 62.0591L210.047 8.41551C210.188 8.30694 210.355 8.24129 210.53 8.22575C210.705 8.21022 210.88 8.2454 211.037 8.32744C211.28 8.48503 212.411 9.16178 212.699 9.32401C212.548 9.26508 212.386 9.2465 212.227 9.26998C212.068 9.29345 211.917 9.35824 211.788 9.45843Z" fill="white"/>
</g>
<path opacity="0.15" d="M120.247 69.1557V64.5204C120.266 64.015 120.409 63.5232 120.662 63.0928L122.399 64.1357C122.145 64.5638 122.003 65.0547 121.988 65.5587V70.231L120.247 69.1557Z" fill="black"/>
<path d="M204.964 15.5816C204.719 15.7857 204.523 16.0462 204.389 16.3428C204.256 16.6394 204.19 16.9642 204.195 17.292C204.195 17.9781 204.54 18.3257 204.964 18.0708C205.209 17.8667 205.406 17.6062 205.539 17.3096C205.672 17.013 205.739 16.6882 205.733 16.3604C205.711 15.6743 205.366 15.3267 204.964 15.5816Z" fill="black"/>
<path d="M207.713 13.9037C207.468 14.1066 207.272 14.3662 207.138 14.6621C207.005 14.958 206.938 15.2822 206.944 15.6095C206.944 16.2955 207.289 16.6431 207.713 16.3882C207.961 16.186 208.161 15.9264 208.298 15.6297C208.434 15.333 208.503 15.0072 208.5 14.6778C208.5 13.9918 208.138 13.6302 207.713 13.9037Z" fill="black"/>
<path d="M210.484 12.2394C210.239 12.4428 210.042 12.7031 209.908 12.9999C209.775 13.2967 209.709 13.6218 209.715 13.9498C209.715 14.6359 210.06 14.9835 210.484 14.7239C210.73 14.5206 210.927 14.2603 211.06 13.9635C211.194 13.6667 211.26 13.3416 211.253 13.0135C211.253 12.309 210.909 11.9613 210.484 12.2394Z" fill="black"/>
<path opacity="0.9" d="M122.487 135.212L122.319 135.11C122.196 135.032 122.05 134.948 121.878 134.865L121.648 134.73L121.29 134.517C121.175 134.443 121.073 134.383 120.989 134.336C120.905 134.29 120.848 134.253 120.821 134.239C120.731 134.19 120.651 134.122 120.587 134.04C120.512 133.955 120.451 133.858 120.406 133.752C120.299 133.516 120.245 133.258 120.247 132.997V69.1509L121.988 70.2216V134.012C121.995 134.26 122.043 134.504 122.129 134.735C122.189 134.876 122.275 135.004 122.381 135.11C122.401 135.139 122.427 135.163 122.456 135.18L122.487 135.212Z" fill="#37474F"/>
<path d="M151.552 94.0375C151.552 94.0375 148.334 91.8543 147.919 91.8404L138.77 91.5391L142.407 93.5693V93.7362L151.552 94.0375Z" fill="#263238"/>
<path d="M135.871 100.615V94.5891L151.552 74.1431V82.1157L142.407 93.5508V93.7177L151.552 94.019V101.992L135.871 100.615Z" fill="#FAFAFA"/>
<path d="M151.552 74.1617L147.919 71.9646L132.233 92.4106L135.871 94.6077L151.552 74.1617Z" fill="black"/>
<path d="M132.233 92.4106V98.4179L135.871 100.615V94.6077L132.233 92.4106Z" fill="#37474F"/>
<path d="M161.045 98.061L156.184 101.009L168.32 54.3553L173.014 51.5139L161.045 98.061Z" fill="#FAFAFA"/>
<path d="M173.009 51.514L169.372 49.3169L164.678 52.1583L168.311 54.3554L173.009 51.514Z" fill="black"/>
<path d="M164.678 52.1582L168.311 54.3553L156.179 101.009L152.542 98.8119L164.678 52.1582Z" fill="#37474F"/>
<path d="M174 76.0481L177.633 78.2452L186.777 66.7035L183.144 64.5063L174 76.0481Z" fill="#263238"/>
<path d="M186.777 66.7035L177.632 66.342V58.3694L193.314 59.8248V65.8507L177.632 86.2457V78.2453L186.777 66.8704V66.7035Z" fill="#FAFAFA"/>
<path d="M174 56.1724L177.633 58.3695L193.318 59.8249L189.681 57.6278L174 56.1724Z" fill="black"/>
<path d="M177.633 58.3695V66.3421L174 64.145V56.1724" fill="#37474F"/>
<path d="M174 76.0483L177.633 78.2454V86.2181L174 84.0209V76.0483Z" fill="#37474F"/>
<g opacity="0.8">
<path d="M241.706 22.1403V90.9504C241.68 91.4473 241.543 91.9309 241.306 92.3618C241.068 92.7927 240.738 93.1588 240.34 93.4303L202.644 116.236C202.512 116.325 202.359 116.373 202.202 116.375C202.144 116.374 202.086 116.366 202.03 116.352L201.91 116.31L201.84 116.263L201.76 116.208C201.733 116.187 201.708 116.164 201.685 116.138C201.577 116.033 201.491 115.905 201.433 115.763C201.339 115.535 201.29 115.288 201.292 115.04V46.5773C201.317 46.0809 201.454 45.5979 201.69 45.1671C201.927 44.7364 202.256 44.3699 202.653 44.0974L240.322 21.3152C240.454 21.2176 240.607 21.1552 240.767 21.1334C240.927 21.1116 241.09 21.1311 241.241 21.1901C241.282 21.2103 241.321 21.2352 241.356 21.2642C241.39 21.2906 241.42 21.3218 241.445 21.3569C241.46 21.3718 241.474 21.389 241.485 21.4079C241.503 21.4297 241.518 21.4548 241.529 21.4821C241.566 21.5386 241.595 21.6012 241.613 21.6675C241.628 21.7076 241.639 21.7497 241.644 21.7927C241.646 21.797 241.647 21.8018 241.647 21.8066C241.647 21.8114 241.646 21.8161 241.644 21.8205C241.656 21.8627 241.663 21.9063 241.666 21.9503C241.701 22.0198 241.706 22.08 241.706 22.1403Z" fill="black"/>
<path d="M240.945 21.5841C240.991 21.5833 241.037 21.5944 241.078 21.6166H241.104L241.144 21.6676L241.175 21.7232L241.219 21.8576C241.221 21.8683 241.221 21.8794 241.219 21.8901C241.222 21.9364 241.222 21.9828 241.219 22.0291V90.9505C241.194 91.3657 241.078 91.7693 240.879 92.1295C240.68 92.4898 240.405 92.797 240.074 93.027L202.427 115.837C202.359 115.884 202.279 115.909 202.197 115.911H202.105H202.074L202.016 115.874C201.956 115.812 201.907 115.738 201.875 115.656C201.803 115.487 201.767 115.304 201.769 115.119V46.5773C201.793 46.1624 201.909 45.759 202.106 45.3987C202.304 45.0384 202.579 44.7311 202.909 44.5007L240.605 21.7185C240.72 21.6401 240.852 21.5938 240.989 21.5841M240.989 21.1206C240.775 21.1299 240.566 21.197 240.384 21.3153L202.688 44.0975C202.292 44.37 201.962 44.7364 201.725 45.1672C201.489 45.598 201.352 46.081 201.327 46.5773V115.04C201.326 115.288 201.374 115.535 201.468 115.763C201.526 115.905 201.612 116.033 201.72 116.138C201.743 116.164 201.768 116.187 201.795 116.208L201.875 116.264L201.945 116.31L202.065 116.352C202.121 116.366 202.179 116.374 202.237 116.375C202.394 116.372 202.547 116.324 202.679 116.236L240.322 93.4303C240.719 93.1583 241.05 92.7921 241.287 92.3613C241.524 91.9305 241.662 91.4472 241.688 90.9505V22.1404C241.688 22.0801 241.688 22.0198 241.688 21.9596C241.685 21.9156 241.678 21.872 241.666 21.8298C241.668 21.8255 241.669 21.8207 241.669 21.8159C241.669 21.8111 241.668 21.8063 241.666 21.802C241.661 21.759 241.65 21.717 241.635 21.6768C241.617 21.6106 241.588 21.5479 241.551 21.4914C241.54 21.4642 241.525 21.4391 241.506 21.4173C241.496 21.3983 241.482 21.3811 241.467 21.3663C241.442 21.3311 241.412 21.2999 241.378 21.2736C241.343 21.2445 241.304 21.2197 241.263 21.1994C241.165 21.1524 241.058 21.1286 240.95 21.1299L240.989 21.1206Z" fill="black"/>
<g opacity="0.8">
<path d="M241.706 22.1403V90.9504C241.68 91.4473 241.543 91.9309 241.306 92.3618C241.068 92.7927 240.738 93.1588 240.34 93.4303L202.644 116.236C202.512 116.325 202.359 116.373 202.202 116.375C202.144 116.374 202.086 116.366 202.03 116.352L201.91 116.31L201.84 116.263L201.76 116.208C201.733 116.187 201.708 116.164 201.685 116.138C201.577 116.033 201.491 115.905 201.433 115.763C201.339 115.535 201.29 115.288 201.292 115.04V46.5773C201.317 46.0809 201.454 45.5979 201.69 45.1671C201.927 44.7364 202.256 44.3699 202.653 44.0974L240.322 21.3152C240.454 21.2176 240.607 21.1552 240.767 21.1334C240.927 21.1116 241.09 21.1311 241.241 21.1901C241.282 21.2103 241.321 21.2352 241.356 21.2642C241.39 21.2906 241.42 21.3218 241.445 21.3569C241.46 21.3718 241.474 21.389 241.485 21.4079C241.503 21.4297 241.518 21.4548 241.529 21.4821C241.566 21.5386 241.595 21.6012 241.613 21.6675C241.628 21.7076 241.639 21.7497 241.644 21.7927C241.646 21.797 241.647 21.8018 241.647 21.8066C241.647 21.8114 241.646 21.8161 241.644 21.8205C241.656 21.8627 241.663 21.9063 241.666 21.9503C241.701 22.0198 241.706 22.08 241.706 22.1403Z" fill="black"/>
</g>
</g>
<path d="M241.259 21.1903C241.107 21.1313 240.945 21.1118 240.784 21.1336C240.624 21.1554 240.472 21.2178 240.34 21.3154L202.644 44.0976C202.247 44.3701 201.918 44.7365 201.681 45.1673C201.445 45.5981 201.308 46.0811 201.282 46.5775V51.2498L199.541 50.179V45.5438C199.567 45.0488 199.704 44.5672 199.94 44.138C200.177 43.7088 200.506 43.344 200.902 43.0732L238.603 20.2864C238.744 20.1794 238.911 20.1151 239.084 20.1004C239.258 20.0857 239.432 20.1212 239.588 20.203C239.836 20.3513 240.967 21.0466 241.259 21.1903Z" fill="#92E3A9"/>
<path d="M241.701 22.1311C241.701 21.2041 241.091 20.8611 240.34 21.3153L202.644 44.1022C202.247 44.3734 201.918 44.7389 201.681 45.169C201.444 45.5991 201.308 46.0816 201.283 46.5774V51.2497L241.701 26.822V22.1311Z" fill="#92E3A9"/>
<g opacity="0.4">
<path d="M240.322 21.3153L202.631 44.1021C202.229 44.363 201.898 44.7267 201.667 45.1589L199.939 44.1114C200.163 43.6841 200.489 43.3249 200.885 43.0684L238.598 20.2816C238.74 20.1743 238.908 20.1097 239.082 20.095C239.257 20.0803 239.432 20.116 239.588 20.1982C239.836 20.3558 240.963 21.0279 241.25 21.1901C241.098 21.1279 240.933 21.1067 240.771 21.1285C240.609 21.1504 240.454 21.2146 240.322 21.3153Z" fill="white"/>
</g>
<path opacity="0.15" d="M199.541 50.1835V45.5483C199.561 45.0429 199.704 44.5513 199.956 44.1206L201.689 45.1635C201.438 45.5929 201.298 46.0833 201.282 46.5866V51.2589L199.541 50.1835Z" fill="black"/>
<path d="M233.494 27.4523C233.249 27.6552 233.052 27.9148 232.918 28.2107C232.785 28.5066 232.719 28.8308 232.724 29.1581C232.724 29.8441 233.069 30.1918 233.494 29.9368C233.738 29.7327 233.935 29.4723 234.068 29.1757C234.202 28.8791 234.268 28.5543 234.263 28.2264C234.263 27.5358 233.918 27.1928 233.494 27.4523Z" fill="black"/>
<path d="M236.265 25.7696C236.02 25.9735 235.823 26.2339 235.689 26.5305C235.556 26.8272 235.49 27.1521 235.495 27.48C235.495 28.1661 235.84 28.5137 236.265 28.2541C236.511 28.0515 236.709 27.7913 236.842 27.4944C236.976 27.1975 237.041 26.8719 237.034 26.5437C237.034 25.8577 236.693 25.5101 236.265 25.7696Z" fill="black"/>
<path d="M239.036 24.0872C238.791 24.2913 238.595 24.5517 238.461 24.8483C238.328 25.1449 238.261 25.4697 238.267 25.7976C238.267 26.4836 238.612 26.8312 239.036 26.5717C239.282 26.3697 239.48 26.1105 239.614 25.8144C239.749 25.5184 239.815 25.1936 239.809 24.8659C239.809 24.1799 239.465 23.8276 239.036 24.0872Z" fill="black"/>
<path opacity="0.9" d="M201.782 116.24L201.614 116.138L201.194 115.893L200.964 115.754L200.606 115.54C200.491 115.466 200.385 115.406 200.306 115.36C200.226 115.313 200.164 115.276 200.138 115.262C200.047 115.214 199.967 115.146 199.903 115.063C199.829 114.978 199.767 114.881 199.722 114.776C199.616 114.54 199.561 114.281 199.563 114.02V50.179L201.304 51.2497V115.04C201.311 115.288 201.359 115.532 201.446 115.763C201.504 115.905 201.59 116.033 201.698 116.138C201.717 116.167 201.743 116.191 201.773 116.208C201.774 116.219 201.777 116.23 201.782 116.24Z" fill="#37474F"/>
<path d="M204.628 55.1293C204.632 55.0367 204.656 54.9462 204.699 54.8651L205.68 52.7375C205.689 52.7133 205.704 52.6924 205.724 52.6772V52.654C205.736 52.645 205.75 52.6401 205.764 52.6401C205.778 52.6401 205.792 52.645 205.804 52.654C205.815 52.6678 205.824 52.6839 205.83 52.7015C205.835 52.7191 205.837 52.7377 205.835 52.756V53.493C205.843 53.5669 205.843 53.6416 205.835 53.7155C205.816 53.7822 205.792 53.8473 205.764 53.9102L205.247 55.0319L205.764 55.5325C205.794 55.5626 205.818 55.5989 205.835 55.6391C205.844 55.7052 205.844 55.7724 205.835 55.8384V56.5523C205.835 56.602 205.824 56.6512 205.804 56.696C205.787 56.7359 205.759 56.7697 205.724 56.7933C205.717 56.7966 205.71 56.7984 205.702 56.7984C205.694 56.7984 205.687 56.7966 205.68 56.7933L204.699 55.8663C204.674 55.844 204.655 55.816 204.643 55.7847C204.631 55.7533 204.626 55.7193 204.628 55.6855V55.1293Z" fill="#92E3A9"/>
<path d="M208.213 49.785C208.23 49.7126 208.255 49.6426 208.288 49.5764C208.318 49.507 208.37 49.45 208.434 49.4141L208.801 49.1917C208.806 49.1865 208.811 49.1824 208.818 49.1795C208.824 49.1767 208.831 49.1753 208.838 49.1753C208.845 49.1753 208.852 49.1767 208.859 49.1795C208.865 49.1824 208.871 49.1865 208.876 49.1917C208.888 49.205 208.898 49.221 208.904 49.2386C208.91 49.2562 208.913 49.275 208.911 49.2936C208.915 49.3197 208.915 49.3463 208.911 49.3724L207.232 56.8815C207.217 56.9524 207.193 57.021 207.161 57.0855C207.131 57.1576 207.08 57.2177 207.015 57.257L206.662 57.4702C206.651 57.4796 206.638 57.4848 206.624 57.4848C206.61 57.4848 206.597 57.4796 206.586 57.4702C206.562 57.4409 206.549 57.4026 206.551 57.3636C206.549 57.3373 206.549 57.311 206.551 57.2848L208.213 49.785Z" fill="#92E3A9"/>
<path d="M210.812 51.917C210.81 52.0093 210.787 52.0999 210.745 52.1812L209.764 54.3088C209.752 54.3324 209.737 54.3542 209.72 54.3737H209.693C209.683 54.3823 209.669 54.387 209.656 54.387C209.642 54.387 209.629 54.3823 209.618 54.3737C209.595 54.3437 209.584 54.3055 209.587 54.267V53.5532C209.579 53.4793 209.579 53.4046 209.587 53.3307C209.604 53.2633 209.628 53.198 209.658 53.136L210.175 52.0143L209.658 51.5184C209.627 51.4871 209.603 51.4491 209.587 51.4071C209.578 51.341 209.578 51.2739 209.587 51.2078V50.494C209.587 50.4443 209.598 50.3952 209.618 50.3503C209.635 50.3117 209.661 50.2782 209.693 50.2529H209.72C209.72 50.2529 209.746 50.2529 209.764 50.2529L210.745 51.18C210.769 51.2034 210.788 51.2324 210.799 51.2645C210.811 51.2967 210.815 51.3312 210.812 51.3654V51.917Z" fill="#92E3A9"/>
<path d="M213.534 51.4212C213.548 51.4099 213.565 51.4038 213.583 51.4038C213.6 51.4038 213.617 51.4099 213.631 51.4212C213.646 51.439 213.657 51.4596 213.664 51.4819C213.67 51.5042 213.673 51.5277 213.671 51.551V52.3343C213.671 52.3955 213.657 52.4558 213.631 52.5105C213.612 52.562 213.578 52.6058 213.534 52.6356L213.092 52.9137C213.08 52.9265 213.063 52.9336 213.046 52.9336C213.028 52.9336 213.012 52.9265 212.999 52.9137C212.984 52.8971 212.973 52.8773 212.966 52.8557C212.959 52.8341 212.957 52.8112 212.959 52.7886V52.0006C212.96 51.9395 212.974 51.8793 212.999 51.8245C213.018 51.7755 213.05 51.7335 213.092 51.704L213.534 51.4212Z" fill="#92E3A9"/>
<path d="M215.081 50.4894C215.095 50.4773 215.112 50.4707 215.13 50.4707C215.148 50.4707 215.165 50.4773 215.178 50.4894C215.193 50.5072 215.204 50.5278 215.211 50.5501C215.217 50.5724 215.22 50.5959 215.218 50.6192V51.4026C215.218 51.4637 215.204 51.524 215.178 51.5787C215.159 51.6302 215.125 51.674 215.081 51.7039L214.639 51.982C214.625 51.9932 214.608 51.9994 214.59 51.9994C214.573 51.9994 214.556 51.9932 214.542 51.982C214.527 51.9642 214.516 51.9436 214.51 51.9213C214.503 51.899 214.5 51.8755 214.502 51.8522V51.0642C214.503 51.0032 214.517 50.9431 214.542 50.8881C214.561 50.8378 214.595 50.7954 214.639 50.7675L215.081 50.4894Z" fill="#92E3A9"/>
<path d="M216.628 49.5531C216.64 49.5403 216.657 49.5332 216.674 49.5332C216.692 49.5332 216.708 49.5403 216.721 49.5531C216.735 49.5709 216.746 49.5915 216.753 49.6138C216.76 49.6361 216.763 49.6595 216.761 49.6829V50.4662C216.76 50.5288 216.747 50.5905 216.721 50.647C216.701 50.6952 216.669 50.7368 216.628 50.7675L216.164 51.0456C216.151 51.0574 216.135 51.0638 216.118 51.0638C216.101 51.0638 216.084 51.0574 216.071 51.0456C216.057 51.0278 216.046 51.0072 216.039 50.9849C216.032 50.9626 216.029 50.9392 216.031 50.9158V50.1278C216.032 50.0668 216.046 50.0068 216.071 49.9517C216.091 49.9035 216.123 49.8619 216.164 49.8312L216.628 49.5531Z" fill="#92E3A9"/>
<path d="M205.044 60.8631L227.691 47.1521C227.96 46.9898 228.177 47.1057 228.177 47.407C228.165 47.5779 228.115 47.7434 228.03 47.8901C227.946 48.0367 227.829 48.1603 227.691 48.2506L205.044 61.9663C204.774 62.1285 204.558 62.0126 204.558 61.7067C204.57 61.5359 204.62 61.3705 204.705 61.2239C204.789 61.0774 204.905 60.9537 205.044 60.8631Z" fill="#92E3A9"/>
<path d="M212.31 69.6655L234.957 55.9498C235.226 55.7876 235.443 55.9034 235.443 56.2094C235.431 56.3802 235.38 56.5456 235.296 56.6921C235.211 56.8387 235.095 56.9623 234.957 57.053L212.31 70.764C212.04 70.9262 211.824 70.8104 211.824 70.5091C211.835 70.3382 211.886 70.1726 211.97 70.026C212.055 69.8794 212.171 69.7558 212.31 69.6655Z" fill="#E0E0E0"/>
<path d="M212.31 74.0643L223.152 67.5055C223.417 67.3432 223.633 67.4591 223.633 67.765C223.622 67.9348 223.572 68.0993 223.488 68.2451C223.405 68.3909 223.289 68.5139 223.152 68.604L212.31 75.1675C212.04 75.3251 211.824 75.2139 211.824 74.9079C211.836 74.7371 211.886 74.5717 211.971 74.4252C212.055 74.2786 212.171 74.155 212.31 74.0643Z" fill="#E0E0E0"/>
<path d="M212.31 78.4631L223.152 71.9043C223.417 71.7467 223.633 71.8579 223.633 72.1639C223.621 72.3341 223.571 72.4989 223.487 72.6454C223.404 72.7918 223.289 72.9158 223.152 73.0075L212.31 79.5663C212.04 79.7286 211.824 79.6127 211.824 79.3068C211.836 79.136 211.886 78.9706 211.971 78.824C212.055 78.6774 212.171 78.5538 212.31 78.4631Z" fill="#E0E0E0"/>
<path d="M229.569 46.0164L238.589 40.5144C238.859 40.3521 239.076 40.468 239.076 40.7693C239.064 40.9402 239.014 41.1058 238.929 41.2524C238.845 41.399 238.728 41.5226 238.589 41.6129L229.569 47.0964C229.299 47.2587 229.083 47.1428 229.083 46.8415C229.097 46.6738 229.148 46.512 229.233 46.3688C229.317 46.2256 229.432 46.1049 229.569 46.0164Z" fill="#92E3A9"/>
<path d="M205.044 109.26L227.691 95.5486C227.96 95.3863 228.177 95.5022 228.177 95.8035C228.165 95.9744 228.115 96.1399 228.03 96.2866C227.946 96.4332 227.829 96.5568 227.691 96.6471L205.044 110.363C204.774 110.52 204.558 110.409 204.558 110.103C204.57 109.932 204.62 109.767 204.705 109.62C204.789 109.474 204.905 109.35 205.044 109.26Z" fill="#92E3A9"/>
<path d="M229.569 94.4084L238.589 88.9249C238.859 88.7627 239.076 88.8785 239.076 89.1845C239.063 89.3553 239.013 89.5207 238.929 89.6672C238.844 89.8138 238.728 89.9375 238.589 90.0281L229.569 95.5116C229.299 95.6738 229.083 95.5579 229.083 95.252C229.095 95.0812 229.145 94.9158 229.229 94.7692C229.314 94.6226 229.43 94.499 229.569 94.4084Z" fill="#92E3A9"/>
<path d="M229.569 81.2352L238.589 75.7424C238.859 75.5802 239.076 75.6961 239.076 75.9973C239.064 76.1682 239.014 76.3338 238.929 76.4804C238.845 76.6271 238.728 76.7506 238.589 76.841L229.569 82.3244C229.299 82.4867 229.083 82.3708 229.083 82.0695C229.096 81.9002 229.146 81.7365 229.231 81.5916C229.315 81.4467 229.431 81.3246 229.569 81.2352Z" fill="#92E3A9"/>
<path d="M229.569 85.6341L238.589 80.1506C238.859 79.9884 239.076 80.1043 239.076 80.4056C239.064 80.5764 239.014 80.742 238.929 80.8886C238.845 81.0353 238.728 81.1588 238.589 81.2492L229.569 86.7327C229.299 86.8949 229.083 86.779 229.083 86.4777C229.094 86.3068 229.144 86.1413 229.229 85.9946C229.313 85.848 229.43 85.7244 229.569 85.6341Z" fill="#92E3A9"/>
<path d="M205.044 104.866L227.691 91.1499C227.96 90.9923 228.177 91.1035 228.177 91.4095C228.165 91.5803 228.114 91.7457 228.03 91.8922C227.945 92.0388 227.829 92.1624 227.691 92.2531L205.044 105.964C204.774 106.126 204.558 106.01 204.558 105.709C204.569 105.538 204.62 105.373 204.704 105.226C204.789 105.079 204.905 104.956 205.044 104.866Z" fill="#F5F5F5"/>
<path d="M221.874 85.8795L226.944 82.811C227.209 82.6488 227.426 82.7647 227.426 83.066C227.414 83.2363 227.364 83.4015 227.281 83.548C227.197 83.6946 227.082 83.8184 226.944 83.9096L221.874 86.9781C221.605 87.1403 221.388 87.0291 221.388 86.7232C221.4 86.5523 221.45 86.3867 221.535 86.2401C221.619 86.0934 221.736 85.9699 221.874 85.8795Z" fill="#92E3A9"/>
<path d="M205.044 65.2758L218.254 57.2707C218.52 57.1085 218.736 57.2244 218.736 57.5257C218.725 57.6961 218.675 57.8612 218.591 58.0077C218.507 58.1543 218.392 58.2781 218.254 58.3693L205.044 66.3743C204.774 66.5366 204.558 66.4207 204.558 66.1194C204.569 65.9485 204.62 65.783 204.704 65.6363C204.789 65.4897 204.905 65.3661 205.044 65.2758Z" fill="#92E3A9"/>
<path opacity="0.6" d="M205.044 65.2758L218.254 57.2707C218.52 57.1085 218.736 57.2244 218.736 57.5257C218.725 57.6961 218.675 57.8612 218.591 58.0077C218.507 58.1543 218.392 58.2781 218.254 58.3693L205.044 66.3743C204.774 66.5366 204.558 66.4207 204.558 66.1194C204.569 65.9485 204.62 65.783 204.704 65.6363C204.789 65.4897 204.905 65.3661 205.044 65.2758Z" fill="white"/>
<path d="M205.044 69.6653L209.525 66.9351C209.791 66.7729 210.007 66.8888 210.007 67.1947C209.995 67.3649 209.945 67.5298 209.861 67.6762C209.778 67.8226 209.663 67.9466 209.525 68.0383L205.044 70.7546C204.774 70.9168 204.558 70.8009 204.558 70.495C204.572 70.3266 204.623 70.164 204.707 70.02C204.792 69.876 204.907 69.7546 205.044 69.6653Z" fill="#92E3A9"/>
<path opacity="0.6" d="M205.044 69.6653L209.525 66.9351C209.791 66.7729 210.007 66.8888 210.007 67.1947C209.995 67.3649 209.945 67.5298 209.861 67.6762C209.778 67.8226 209.663 67.9466 209.525 68.0383L205.044 70.7546C204.774 70.9168 204.558 70.8009 204.558 70.495C204.572 70.3266 204.623 70.164 204.707 70.02C204.792 69.876 204.907 69.7546 205.044 69.6653Z" fill="white"/>
<path d="M205.044 74.0691L209.525 71.3482C209.791 71.186 210.007 71.3019 210.007 71.6078C209.995 71.778 209.945 71.9429 209.861 72.0893C209.778 72.2357 209.663 72.3597 209.525 72.4514L205.044 75.1677C204.774 75.3299 204.558 75.214 204.558 74.9081C204.569 74.7378 204.62 74.5729 204.704 74.427C204.789 74.2811 204.905 74.1584 205.044 74.0691Z" fill="#92E3A9"/>
<path opacity="0.6" d="M205.044 74.0691L209.525 71.3482C209.791 71.186 210.007 71.3019 210.007 71.6078C209.995 71.778 209.945 71.9429 209.861 72.0893C209.778 72.2357 209.663 72.3597 209.525 72.4514L205.044 75.1677C204.774 75.3299 204.558 75.214 204.558 74.9081C204.569 74.7378 204.62 74.5729 204.704 74.427C204.789 74.2811 204.905 74.1584 205.044 74.0691Z" fill="white"/>
<path d="M205.044 78.4679L209.525 75.7423C209.791 75.5801 210.007 75.6914 210.007 75.9973C209.996 76.1677 209.946 76.3328 209.862 76.4794C209.779 76.6259 209.663 76.7497 209.525 76.8409L205.044 79.5571C204.774 79.7194 204.558 79.6035 204.558 79.3022C204.571 79.1329 204.622 78.9692 204.706 78.8243C204.79 78.6794 204.906 78.5573 205.044 78.4679Z" fill="#92E3A9"/>
<path opacity="0.6" d="M205.044 78.4679L209.525 75.7423C209.791 75.5801 210.007 75.6914 210.007 75.9973C209.996 76.1677 209.946 76.3328 209.862 76.4794C209.779 76.6259 209.663 76.7497 209.525 76.8409L205.044 79.5571C204.774 79.7194 204.558 79.6035 204.558 79.3022C204.571 79.1329 204.622 78.9692 204.706 78.8243C204.79 78.6794 204.906 78.5573 205.044 78.4679Z" fill="white"/>
<path d="M205.044 82.8669L209.525 80.1506C209.791 79.9884 210.007 80.1043 210.007 80.4056C209.996 80.5759 209.946 80.7411 209.862 80.8876C209.779 81.0342 209.663 81.158 209.525 81.2492L205.044 83.9654C204.774 84.1277 204.558 84.0118 204.558 83.7105C204.569 83.5396 204.62 83.374 204.704 83.2274C204.789 83.0808 204.905 82.9572 205.044 82.8669Z" fill="#92E3A9"/>
<path opacity="0.6" d="M205.044 82.8669L209.525 80.1506C209.791 79.9884 210.007 80.1043 210.007 80.4056C209.996 80.5759 209.946 80.7411 209.862 80.8876C209.779 81.0342 209.663 81.158 209.525 81.2492L205.044 83.9654C204.774 84.1277 204.558 84.0118 204.558 83.7105C204.569 83.5396 204.62 83.374 204.704 83.2274C204.789 83.0808 204.905 82.9572 205.044 82.8669Z" fill="white"/>
<path d="M220.128 56.1353L225.874 52.6682C226.139 52.506 226.36 52.6218 226.36 52.9231C226.348 53.0938 226.297 53.2591 226.213 53.4056C226.128 53.5521 226.012 53.6758 225.874 53.7667L220.128 57.2339C219.863 57.3961 219.646 57.2803 219.646 56.979C219.658 56.8086 219.708 56.6434 219.791 56.4969C219.875 56.3504 219.99 56.2265 220.128 56.1353Z" fill="#92E3A9"/>
<path opacity="0.6" d="M220.128 56.1353L225.874 52.6682C226.139 52.506 226.36 52.6218 226.36 52.9231C226.348 53.0938 226.297 53.2591 226.213 53.4056C226.128 53.5521 226.012 53.6758 225.874 53.7667L220.128 57.2339C219.863 57.3961 219.646 57.2803 219.646 56.979C219.658 56.8086 219.708 56.6434 219.791 56.4969C219.875 56.3504 219.99 56.2265 220.128 56.1353Z" fill="white"/>
<path d="M217.782 79.5569L230.97 71.5704C231.235 71.4082 231.452 71.524 231.452 71.83C231.44 72.0002 231.39 72.165 231.306 72.3115C231.222 72.4579 231.107 72.5819 230.97 72.6736L217.782 80.6601C217.516 80.8223 217.295 80.7065 217.295 80.4005C217.308 80.2297 217.358 80.0643 217.442 79.9177C217.527 79.7712 217.643 79.6475 217.782 79.5569Z" fill="#F5F5F5"/>
<path d="M225.379 79.3622L238.589 71.3572C238.859 71.1949 239.075 71.3108 239.075 71.6121C239.064 71.783 239.014 71.9485 238.929 72.0952C238.845 72.2418 238.728 72.3654 238.589 72.4557L225.379 80.4608C225.114 80.623 224.897 80.5071 224.897 80.2058C224.909 80.0354 224.958 79.8703 225.042 79.7238C225.126 79.5772 225.241 79.4534 225.379 79.3622Z" fill="#F5F5F5"/>
<path d="M232.848 70.4165L238.594 66.9493C238.864 66.7871 239.08 66.903 239.08 67.2089C239.068 67.3797 239.018 67.5451 238.933 67.6917C238.849 67.8382 238.733 67.9619 238.594 68.0525L232.848 71.5197C232.579 71.6772 232.362 71.566 232.362 71.2601C232.374 71.0893 232.425 70.9239 232.509 70.7773C232.594 70.6307 232.71 70.5071 232.848 70.4165Z" fill="#F5F5F5"/>
<path d="M212.31 65.2666L225.52 57.2616C225.786 57.0993 226.002 57.2152 226.002 57.5211C225.99 57.6913 225.94 57.8562 225.856 58.0026C225.773 58.1491 225.658 58.273 225.52 58.3647L212.31 66.3652C212.04 66.5274 211.824 66.4162 211.824 66.1102C211.836 65.9394 211.886 65.774 211.971 65.6274C212.055 65.4809 212.171 65.3572 212.31 65.2666Z" fill="#92E3A9"/>
<path opacity="0.6" d="M212.31 65.2666L225.52 57.2616C225.786 57.0993 226.002 57.2152 226.002 57.5211C225.99 57.6913 225.94 57.8562 225.856 58.0026C225.773 58.1491 225.658 58.273 225.52 58.3647L212.31 66.3652C212.04 66.5274 211.824 66.4162 211.824 66.1102C211.836 65.9394 211.886 65.774 211.971 65.6274C212.055 65.4809 212.171 65.3572 212.31 65.2666Z" fill="white"/>
<path d="M227.394 56.1261L233.14 52.6589C233.41 52.4967 233.626 52.6126 233.626 52.9139C233.614 53.0847 233.564 53.2503 233.48 53.3969C233.395 53.5436 233.279 53.6671 233.14 53.7575L227.394 57.2246C227.129 57.3869 226.913 57.271 226.913 56.9697C226.924 56.7993 226.974 56.6342 227.058 56.4876C227.141 56.3411 227.257 56.2172 227.394 56.1261Z" fill="#92E3A9"/>
<path opacity="0.6" d="M227.394 56.1261L233.14 52.6589C233.41 52.4967 233.626 52.6126 233.626 52.9139C233.614 53.0847 233.564 53.2503 233.48 53.3969C233.395 53.5436 233.279 53.6671 233.14 53.7575L227.394 57.2246C227.129 57.3869 226.913 57.271 226.913 56.9697C226.924 56.7993 226.974 56.6342 227.058 56.4876C227.141 56.3411 227.257 56.2172 227.394 56.1261Z" fill="white"/>
<path d="M269.585 25.4176V20.1195L265.338 19.7347C265.276 19.7247 265.214 19.7378 265.161 19.7718C264.993 19.8645 260.971 22.2795 260.922 22.3119C260.882 22.3365 260.848 22.3701 260.822 22.4103C260.796 22.4506 260.779 22.4964 260.772 22.5445C260.766 22.5925 260.769 22.6415 260.783 22.6879C260.797 22.7343 260.82 22.7769 260.852 22.8125L265.355 27.9345L269.585 25.4176Z" fill="#FFA500"/>
<path d="M265.355 27.9531L260.851 22.8312C260.81 22.7823 260.783 22.7216 260.775 22.6568C260.766 22.592 260.777 22.5261 260.804 22.4674C260.832 22.4087 260.875 22.3599 260.929 22.3273C260.983 22.2947 261.045 22.2797 261.108 22.2842L265.355 22.6736V27.9531Z" fill="#FFA500"/>
<path d="M269.58 20.1195L265.355 22.6597L261.095 22.2842C261.045 22.2745 260.994 22.2745 260.944 22.2842C261.285 22.0756 264.993 19.8507 265.143 19.7673C265.198 19.734 265.262 19.7209 265.324 19.7302L269.58 20.1195Z" fill="#FFA500"/>
<path opacity="0.5" d="M269.58 20.1195L265.355 22.6597L261.095 22.2842C261.045 22.2745 260.994 22.2745 260.944 22.2842C261.285 22.0756 264.993 19.8507 265.143 19.7673C265.198 19.734 265.262 19.7209 265.324 19.7302L269.58 20.1195Z" fill="white"/>
<path d="M265.364 16.722C265.393 16.1653 265.547 15.6236 265.813 15.1406C266.079 14.6576 266.448 14.2466 266.893 13.9408L268.139 13.1667C268.614 12.9132 269.138 12.781 269.671 12.781C270.203 12.781 270.728 12.9132 271.202 13.1667L284.492 21.232C284.939 21.536 285.311 21.9464 285.577 22.4297C285.844 22.9131 285.998 23.4556 286.026 24.0132V40.116C285.997 40.6735 285.843 41.2159 285.577 41.6992C285.31 42.1825 284.939 42.5929 284.492 42.8971L283.246 43.6527C282.771 43.9041 282.247 44.035 281.715 44.035C281.183 44.035 280.658 43.9041 280.183 43.6527L276.263 41.2748L271.162 38.197L266.893 35.6105C266.447 35.3058 266.077 34.8951 265.811 34.4119C265.545 33.9286 265.392 33.3865 265.364 32.8294V16.722Z" fill="#FFA500"/>
<path opacity="0.2" d="M286.026 40.1161C285.998 40.6735 285.844 41.216 285.577 41.6992C285.311 42.1825 284.939 42.593 284.493 42.8972L283.246 43.6527C282.814 43.88 282.341 44.009 281.859 44.0313C281.376 44.0537 280.894 43.9689 280.444 43.7825C281.169 44.0653 281.717 43.6388 281.717 42.7257V26.609C281.701 26.0496 281.549 25.5039 281.275 25.0237L285.576 22.4373C285.85 22.9174 286.002 23.4632 286.018 24.0225L286.026 40.1161Z" fill="black"/>
<path opacity="0.5" d="M265.413 16.2629C265.594 15.5815 266.186 15.3637 266.893 15.7994L280.188 23.8276C280.641 24.1227 281.012 24.5365 281.266 25.0281L285.571 22.437C285.317 21.9467 284.945 21.5345 284.493 21.2412L271.207 13.1666C270.735 12.919 270.214 12.79 269.686 12.79C269.159 12.79 268.638 12.919 268.166 13.1666L266.915 13.9221C266.526 14.1841 266.191 14.5269 265.933 14.9295C265.675 15.332 265.497 15.7858 265.413 16.2629Z" fill="white"/>
<path d="M273.541 22.5995L268.48 21.8579L269.187 31.6522L273.541 37.5806V22.5995Z" fill="#455A64"/>
<path d="M273.541 22.5994L278.601 27.9901L277.89 36.9223L273.541 37.5805V22.5994Z" fill="#37474F"/>
<path d="M275.623 35.3415L276.785 36.0461L273.55 24.0918L270.319 32.1293L271.477 32.8339L272.175 31.091L274.924 32.7551L275.623 35.3415ZM272.586 30.0388L273.541 27.6563L274.495 31.1976L272.586 30.0388Z" fill="#FAFAFA"/>
<path d="M269.585 55.4725V50.1976L265.338 49.8083C265.277 49.803 265.215 49.8159 265.161 49.8454C264.993 49.9381 260.971 52.353 260.922 52.3855C260.882 52.4105 260.848 52.4446 260.822 52.4852C260.796 52.5259 260.779 52.5721 260.772 52.6204C260.766 52.6688 260.769 52.7182 260.783 52.765C260.797 52.8117 260.82 52.8547 260.852 52.8907L265.355 57.9895L269.585 55.4725Z" fill="#FFA500"/>
<path d="M265.355 58.0079L260.851 52.9091C260.808 52.8611 260.779 52.8001 260.769 52.7344C260.76 52.6686 260.769 52.6014 260.797 52.5417C260.825 52.482 260.87 52.4328 260.926 52.4007C260.981 52.3686 261.045 52.3551 261.108 52.3622L265.355 52.7515V58.0079Z" fill="#EBEBEB"/>
<path d="M269.58 50.193L265.355 52.7331L261.108 52.3437C261.058 52.3318 261.007 52.3318 260.958 52.3437C261.298 52.1305 265.006 49.9102 265.156 49.8221C265.212 49.791 265.275 49.7781 265.337 49.785L269.58 50.193Z" fill="#FFA500"/>
<path d="M269.58 50.193L265.355 52.7331L261.108 52.3437C261.058 52.3318 261.007 52.3318 260.958 52.3437C261.298 52.1305 265.006 49.9102 265.156 49.8221C265.212 49.791 265.275 49.7781 265.337 49.785L269.58 50.193Z" fill="#F5F5F5"/>
<path d="M265.364 46.7769C265.392 46.2199 265.545 45.6777 265.811 45.1944C266.077 44.7112 266.447 44.3005 266.893 43.9958L268.139 43.2402C268.614 42.9867 269.138 42.8545 269.671 42.8545C270.203 42.8545 270.728 42.9867 271.202 43.2402L284.492 51.287C284.939 51.5912 285.31 52.0017 285.577 52.485C285.843 52.9682 285.997 53.5107 286.026 54.0681V70.1802C285.998 70.7378 285.844 71.2804 285.577 71.7637C285.311 72.247 284.939 72.6574 284.492 72.9614L283.246 73.7169C282.772 73.9705 282.247 74.1026 281.715 74.1026C281.182 74.1026 280.657 73.9705 280.183 73.7169L276.263 71.3437L271.162 68.252L266.893 65.6701C266.448 65.3649 266.078 64.954 265.812 64.4709C265.546 63.9878 265.393 63.4459 265.364 62.889V46.7769Z" fill="#EBEBEB"/>
<path d="M286.026 70.18C285.998 70.7376 285.844 71.2801 285.578 71.7635C285.311 72.2468 284.939 72.6572 284.493 72.9612L283.246 73.7167C282.815 73.9451 282.342 74.0747 281.859 74.0971C281.376 74.1194 280.894 74.034 280.444 73.8465C281.169 74.1339 281.717 73.7074 281.717 72.7897V56.6776C281.702 56.1196 281.55 55.5752 281.275 55.0969L285.584 52.4873C285.859 52.9655 286.011 53.51 286.026 54.0679V70.18Z" fill="#E0E0E0"/>
<path d="M265.413 46.3178C265.594 45.6364 266.186 45.4186 266.893 45.8543L280.188 53.9011C280.641 54.1962 281.012 54.6099 281.266 55.1016L285.571 52.4966C285.317 52.0049 284.945 51.5911 284.493 51.2961L271.207 43.2447C270.732 42.9933 270.207 42.8623 269.675 42.8623C269.143 42.8623 268.619 42.9933 268.144 43.2447L266.893 44.0002C266.51 44.2619 266.182 44.6021 265.927 45.0003C265.673 45.3986 265.498 45.8468 265.413 46.3178Z" fill="#F5F5F5"/>
<path d="M273.541 56.6221L274.654 54.4157L278.601 56.8075L273.541 66.7871L268.48 50.675L272.422 53.0622L273.541 56.6221Z" fill="#FFA500"/>
<path opacity="0.15" d="M273.541 56.6221L274.654 54.4157L278.601 56.8075L273.541 66.7871L268.48 50.675L272.422 53.0622L273.541 56.6221Z" fill="black"/>
<path d="M273.54 56.6221L272.422 53.0668L270.654 52.0007C272.064 56.4923 273.532 61.1553 273.532 61.1553L276.404 55.4818L274.636 54.4157L273.54 56.6221Z" fill="#37474F"/>
<path d="M269.585 85.5319V80.2523L265.338 79.863C265.277 79.8577 265.215 79.8706 265.161 79.9L260.922 82.4402C260.882 82.4652 260.848 82.4992 260.822 82.5399C260.796 82.5805 260.779 82.6267 260.772 82.6751C260.766 82.7235 260.769 82.7729 260.783 82.8196C260.797 82.8664 260.82 82.9094 260.852 82.9454L265.355 88.0442L269.585 85.5319Z" fill="#FFA500"/>
<path d="M265.355 88.0628L260.851 82.9641C260.808 82.916 260.779 82.855 260.769 82.7893C260.76 82.7236 260.769 82.6563 260.797 82.5966C260.825 82.5369 260.87 82.4877 260.926 82.4556C260.981 82.4235 261.045 82.4101 261.108 82.4171L265.355 82.8065V88.0628Z" fill="#37474F"/>
<path d="M269.58 80.2524L265.355 82.7879L261.108 82.3985C261.058 82.3866 261.007 82.3866 260.958 82.3985L265.156 79.877C265.212 79.8478 265.275 79.835 265.337 79.8399L269.58 80.2524Z" fill="#FFA500"/>
<path d="M269.58 80.2524L265.355 82.7879L261.108 82.3985C261.058 82.3866 261.007 82.3866 260.958 82.3985L265.156 79.877C265.212 79.8478 265.275 79.835 265.337 79.8399L269.58 80.2524Z" fill="#455A64"/>
<path d="M265.364 76.8316C265.393 76.2748 265.546 75.7329 265.812 75.2497C266.078 74.7666 266.448 74.3558 266.893 74.0505L268.139 73.2949C268.614 73.0436 269.139 72.9126 269.671 72.9126C270.203 72.9126 270.727 73.0436 271.202 73.2949L284.492 81.3417C284.938 81.6465 285.309 82.0571 285.576 82.5402C285.842 83.0234 285.996 83.5656 286.026 84.1229V100.221C285.998 100.779 285.844 101.321 285.577 101.805C285.311 102.288 284.939 102.698 284.492 103.002L283.246 103.758C282.772 104.011 282.247 104.143 281.715 104.143C281.182 104.143 280.657 104.011 280.183 103.758L276.263 101.384L271.162 98.2928L266.893 95.711C266.447 95.4062 266.077 94.9955 265.811 94.5123C265.545 94.029 265.392 93.4869 265.364 92.9298V76.8316Z" fill="#37474F"/>
<path d="M286.026 100.226C285.998 100.783 285.844 101.326 285.578 101.809C285.311 102.293 284.939 102.703 284.493 103.007L283.246 103.763C282.815 103.991 282.342 104.121 281.859 104.143C281.376 104.165 280.894 104.08 280.444 103.892C281.169 104.18 281.717 103.753 281.717 102.836V86.7374C281.701 86.178 281.549 85.6323 281.275 85.1521L285.584 82.5425C285.858 83.0227 286.011 83.5684 286.026 84.1277V100.226Z" fill="#263238"/>
<path d="M265.413 76.3774C265.594 75.696 266.186 75.4782 266.893 75.9139L280.188 83.9653C280.64 84.2586 281.012 84.6708 281.266 85.1612L285.571 82.5562C285.317 82.0645 284.945 81.6507 284.493 81.3556L271.207 73.3042C270.732 73.0528 270.207 72.9219 269.675 72.9219C269.143 72.9219 268.619 73.0528 268.144 73.3042L266.893 74.0644C266.51 74.3249 266.181 74.6642 265.927 75.0618C265.672 75.4593 265.497 75.9069 265.413 76.3774Z" fill="#455A64"/>
<path d="M276.497 89.1337C276.811 87.465 276.683 85.9307 276.055 85.0593C275.921 84.8548 275.742 84.6874 275.532 84.5712C275.323 84.455 275.09 84.3934 274.853 84.3918H274.743C274.32 84.4351 273.916 84.5951 273.572 84.8553C272.688 83.1032 271.804 82.0278 271.172 82.0278H271.079C270.994 82.045 270.914 82.0824 270.845 82.137C270.776 82.1916 270.72 82.2621 270.681 82.343C270.376 82.8761 270.358 84.0303 270.588 85.546C270.04 85.3845 269.456 85.4288 268.935 85.6711C268.769 85.7731 268.633 85.9216 268.542 86.1001C268.452 86.2785 268.41 86.4799 268.423 86.6816C268.423 87.6875 269.267 89.0688 270.579 90.3898C270.266 92.0585 270.394 93.5928 271.021 94.4642C271.157 94.6516 271.327 94.8091 271.521 94.9277C271.733 95.0567 271.974 95.124 272.219 95.1224C272.378 95.1213 272.535 95.0979 272.688 95.0529C272.992 94.949 273.277 94.7923 273.532 94.5893C274.243 95.9799 274.955 96.9858 275.525 97.3334C275.658 97.42 275.811 97.468 275.967 97.4725C275.996 97.477 276.026 97.477 276.055 97.4725C276.141 97.4553 276.221 97.418 276.291 97.3634C276.361 97.3088 276.418 97.2383 276.458 97.1573C276.763 96.6242 276.776 95.47 276.546 93.945C276.778 93.9908 277.013 94.0156 277.249 94.0192C277.563 94.0325 277.876 93.959 278.155 93.806C278.321 93.7036 278.457 93.555 278.547 93.3767C278.638 93.1983 278.679 92.9971 278.667 92.7955C278.654 91.8314 277.81 90.4501 276.497 89.1337ZM274.981 91.8175C274.833 92.0967 274.671 92.3675 274.495 92.6286C274.204 92.4803 273.894 92.3134 273.567 92.1141C273.24 91.9148 272.926 91.7108 272.63 91.4976C272.458 91.0341 272.285 90.5428 272.122 90.0329C271.958 89.523 271.817 89.0502 271.68 88.5867C271.804 88.2993 271.936 88.0119 272.087 87.7292C272.237 87.4464 272.405 87.1683 272.568 86.918C272.864 87.0663 273.174 87.2332 273.501 87.4325C273.828 87.6318 274.173 87.859 274.486 88.0815C274.659 88.545 274.827 89.0085 274.995 89.5416C275.163 90.0746 275.282 90.4686 275.401 90.9043C275.286 91.2056 275.141 91.5023 274.981 91.8175ZM275.423 89.4489C275.326 89.1429 275.225 88.8416 275.123 88.5496C275.419 88.7814 275.697 89.0131 275.958 89.2634C275.879 89.5833 275.786 89.9124 275.671 90.2415C275.583 89.9819 275.503 89.7177 275.415 89.4489H275.423ZM273.576 86.8346C273.349 86.6986 273.128 86.5735 272.913 86.4591C273.104 86.2101 273.314 85.9776 273.541 85.7638C273.748 86.2042 273.96 86.6909 274.173 87.2147C273.969 87.0849 273.77 86.9551 273.567 86.8346H273.576ZM271.698 87.2425C271.618 87.3954 271.538 87.5484 271.468 87.706C271.348 87.2193 271.247 86.779 271.167 86.3386C271.467 86.4277 271.762 86.5345 272.051 86.6584C271.91 86.867 271.795 87.0385 271.702 87.2425H271.698ZM271.698 90.1256C271.799 90.4362 271.901 90.7374 272.007 91.0526C271.693 90.807 271.397 90.552 271.123 90.2971C271.209 89.9442 271.312 89.5961 271.432 89.2542C271.521 89.5323 271.609 89.8243 271.702 90.1117L271.698 90.1256ZM273.501 92.7121C273.726 92.8465 273.943 92.967 274.159 93.0829C273.977 93.3228 273.778 93.5475 273.563 93.755C273.359 93.3285 273.156 92.865 272.957 92.3644C273.143 92.4803 273.324 92.6008 273.51 92.7121H273.501ZM275.379 92.3042C275.472 92.1327 275.556 91.9612 275.636 91.785C275.764 92.2949 275.87 92.777 275.954 93.2219C275.644 93.1297 275.34 93.0183 275.043 92.8882C275.167 92.7028 275.282 92.5081 275.388 92.3042H275.379ZM274.778 87.6689C274.482 86.8763 274.173 86.1486 273.863 85.495C274.086 85.3208 274.335 85.189 274.601 85.1056C274.724 85.0696 274.85 85.0509 274.977 85.05C275.155 85.0454 275.331 85.0919 275.485 85.1844C275.602 85.2579 275.704 85.3538 275.786 85.4672C276.206 86.0512 276.321 87.2796 276.055 88.7118C275.653 88.3389 275.232 87.9877 274.796 87.6597L274.778 87.6689ZM272.334 86.1903C271.915 85.9919 271.482 85.8261 271.039 85.6943C270.818 84.2574 270.845 83.2701 271.066 82.8854C271.081 82.8396 271.107 82.7984 271.141 82.7653C271.174 82.7322 271.215 82.7082 271.26 82.6953H271.3C271.385 82.7002 271.467 82.729 271.538 82.7787C271.958 83.0337 272.564 83.8587 273.222 85.1473C272.894 85.4572 272.599 85.8038 272.343 86.181L272.334 86.1903ZM271.176 88.3549C270.976 88.8481 270.812 89.3563 270.685 89.8753C269.554 88.7258 268.878 87.6133 268.878 86.9319C268.873 86.8058 268.902 86.6809 268.961 86.5711C269.021 86.4614 269.108 86.3712 269.214 86.3108C269.447 86.1892 269.705 86.1318 269.965 86.1439C270.209 86.1473 270.452 86.1768 270.69 86.232C270.818 86.867 270.982 87.5901 271.185 88.3457L271.176 88.3549ZM272.33 91.9333C272.621 92.6935 272.922 93.4027 273.214 94.0516C272.908 94.306 272.54 94.4664 272.153 94.5152C271.984 94.5328 271.814 94.5041 271.659 94.4317C271.504 94.3594 271.369 94.246 271.269 94.1026C270.849 93.514 270.734 92.2856 270.999 90.858C271.427 91.239 271.874 91.5949 272.338 91.9241L272.33 91.9333ZM274.725 93.3749C275.154 93.5807 275.597 93.7512 276.051 93.8848C276.276 95.3263 276.25 96.3183 276.029 96.7076C276.009 96.7488 275.981 96.7851 275.947 96.8139C275.913 96.8427 275.873 96.8634 275.83 96.8745C275.428 96.9487 274.672 96.0077 273.846 94.3715C274.177 94.0688 274.475 93.7283 274.734 93.3564L274.725 93.3749ZM275.91 91.15C276.089 90.6746 276.237 90.1868 276.352 89.6899C277.483 90.8394 278.159 91.9519 278.159 92.6333C278.163 92.7592 278.134 92.8837 278.074 92.9933C278.015 93.1028 277.928 93.1932 277.823 93.2544C277.369 93.4499 276.865 93.4809 276.391 93.3425C276.299 92.6564 276.122 91.9194 275.918 91.1407L275.91 91.15Z" fill="#FFA500"/>
<path d="M274.438 90.3158C274.438 91.011 274.036 91.3309 273.554 91.0296C273.282 90.8224 273.061 90.5514 272.908 90.2382C272.754 89.9251 272.673 89.5786 272.67 89.2265C272.67 88.5358 273.072 88.216 273.554 88.5173C273.825 88.724 274.046 88.9943 274.199 89.3066C274.353 89.6189 274.434 89.9645 274.438 90.3158Z" fill="#FFA500"/>
<g opacity="0.65">
<path d="M276.497 89.1337C276.811 87.465 276.683 85.9307 276.055 85.0593C275.921 84.8548 275.742 84.6874 275.532 84.5712C275.323 84.455 275.09 84.3934 274.853 84.3918H274.743C274.32 84.4351 273.916 84.5951 273.572 84.8553C272.688 83.1032 271.804 82.0278 271.172 82.0278H271.079C270.994 82.045 270.914 82.0824 270.845 82.137C270.776 82.1916 270.72 82.2621 270.681 82.343C270.376 82.8761 270.358 84.0303 270.588 85.546C270.04 85.3845 269.456 85.4288 268.935 85.6711C268.769 85.7731 268.633 85.9216 268.542 86.1001C268.452 86.2785 268.41 86.4799 268.423 86.6816C268.423 87.6875 269.267 89.0688 270.579 90.3898C270.266 92.0585 270.394 93.5928 271.021 94.4642C271.157 94.6516 271.327 94.8091 271.521 94.9277C271.733 95.0567 271.974 95.124 272.219 95.1224C272.378 95.1213 272.535 95.0979 272.688 95.0529C272.992 94.949 273.277 94.7923 273.532 94.5893C274.243 95.9799 274.955 96.9858 275.525 97.3334C275.658 97.42 275.811 97.468 275.967 97.4725C275.996 97.477 276.026 97.477 276.055 97.4725C276.141 97.4553 276.221 97.418 276.291 97.3634C276.361 97.3088 276.418 97.2383 276.458 97.1573C276.763 96.6242 276.776 95.47 276.546 93.945C276.778 93.9908 277.013 94.0156 277.249 94.0192C277.563 94.0325 277.876 93.959 278.155 93.806C278.321 93.7036 278.457 93.555 278.547 93.3767C278.638 93.1983 278.679 92.9971 278.667 92.7955C278.654 91.8314 277.81 90.4501 276.497 89.1337ZM274.981 91.8175C274.833 92.0967 274.671 92.3675 274.495 92.6286C274.204 92.4803 273.894 92.3134 273.567 92.1141C273.24 91.9148 272.926 91.7108 272.63 91.4976C272.458 91.0341 272.285 90.5428 272.122 90.0329C271.958 89.523 271.817 89.0502 271.68 88.5867C271.804 88.2993 271.936 88.0119 272.087 87.7292C272.237 87.4464 272.405 87.1683 272.568 86.918C272.864 87.0663 273.174 87.2332 273.501 87.4325C273.828 87.6318 274.173 87.859 274.486 88.0815C274.659 88.545 274.827 89.0085 274.995 89.5416C275.163 90.0746 275.282 90.4686 275.401 90.9043C275.286 91.2056 275.141 91.5023 274.981 91.8175ZM275.423 89.4489C275.326 89.1429 275.225 88.8416 275.123 88.5496C275.419 88.7814 275.697 89.0131 275.958 89.2634C275.879 89.5833 275.786 89.9124 275.671 90.2415C275.583 89.9819 275.503 89.7177 275.415 89.4489H275.423ZM273.576 86.8346C273.349 86.6986 273.128 86.5735 272.913 86.4591C273.104 86.2101 273.314 85.9776 273.541 85.7638C273.748 86.2042 273.96 86.6909 274.173 87.2147C273.969 87.0849 273.77 86.9551 273.567 86.8346H273.576ZM271.698 87.2425C271.618 87.3954 271.538 87.5484 271.468 87.706C271.348 87.2193 271.247 86.779 271.167 86.3386C271.467 86.4277 271.762 86.5345 272.051 86.6584C271.91 86.867 271.795 87.0385 271.702 87.2425H271.698ZM271.698 90.1256C271.799 90.4362 271.901 90.7374 272.007 91.0526C271.693 90.807 271.397 90.552 271.123 90.2971C271.209 89.9442 271.312 89.5961 271.432 89.2542C271.521 89.5323 271.609 89.8243 271.702 90.1117L271.698 90.1256ZM273.501 92.7121C273.726 92.8465 273.943 92.967 274.159 93.0829C273.977 93.3228 273.778 93.5475 273.563 93.755C273.359 93.3285 273.156 92.865 272.957 92.3644C273.143 92.4803 273.324 92.6008 273.51 92.7121H273.501ZM275.379 92.3042C275.472 92.1327 275.556 91.9612 275.636 91.785C275.764 92.2949 275.87 92.777 275.954 93.2219C275.644 93.1297 275.34 93.0183 275.043 92.8882C275.167 92.7028 275.282 92.5081 275.388 92.3042H275.379ZM274.778 87.6689C274.482 86.8763 274.173 86.1486 273.863 85.495C274.086 85.3208 274.335 85.189 274.601 85.1056C274.724 85.0696 274.85 85.0509 274.977 85.05C275.155 85.0454 275.331 85.0919 275.485 85.1844C275.602 85.2579 275.704 85.3538 275.786 85.4672C276.206 86.0512 276.321 87.2796 276.055 88.7118C275.653 88.3389 275.232 87.9877 274.796 87.6597L274.778 87.6689ZM272.334 86.1903C271.915 85.9919 271.482 85.8261 271.039 85.6943C270.818 84.2574 270.845 83.2701 271.066 82.8854C271.081 82.8396 271.107 82.7984 271.141 82.7653C271.174 82.7322 271.215 82.7082 271.26 82.6953H271.3C271.385 82.7002 271.467 82.729 271.538 82.7787C271.958 83.0337 272.564 83.8587 273.222 85.1473C272.894 85.4572 272.599 85.8038 272.343 86.181L272.334 86.1903ZM271.176 88.3549C270.976 88.8481 270.812 89.3563 270.685 89.8753C269.554 88.7258 268.878 87.6133 268.878 86.9319C268.873 86.8058 268.902 86.6809 268.961 86.5711C269.021 86.4614 269.108 86.3712 269.214 86.3108C269.447 86.1892 269.705 86.1318 269.965 86.1439C270.209 86.1473 270.452 86.1768 270.69 86.232C270.818 86.867 270.982 87.5901 271.185 88.3457L271.176 88.3549ZM272.33 91.9333C272.621 92.6935 272.922 93.4027 273.214 94.0516C272.908 94.306 272.54 94.4664 272.153 94.5152C271.984 94.5328 271.814 94.5041 271.659 94.4317C271.504 94.3594 271.369 94.246 271.269 94.1026C270.849 93.514 270.734 92.2856 270.999 90.858C271.427 91.239 271.874 91.5949 272.338 91.9241L272.33 91.9333ZM274.725 93.3749C275.154 93.5807 275.597 93.7512 276.051 93.8848C276.276 95.3263 276.25 96.3183 276.029 96.7076C276.009 96.7488 275.981 96.7851 275.947 96.8139C275.913 96.8427 275.873 96.8634 275.83 96.8745C275.428 96.9487 274.672 96.0077 273.846 94.3715C274.177 94.0688 274.475 93.7283 274.734 93.3564L274.725 93.3749ZM275.91 91.15C276.089 90.6746 276.237 90.1868 276.352 89.6899C277.483 90.8394 278.159 91.9519 278.159 92.6333C278.163 92.7592 278.134 92.8837 278.074 92.9933C278.015 93.1028 277.928 93.1932 277.823 93.2544C277.369 93.4499 276.865 93.4809 276.391 93.3425C276.299 92.6564 276.122 91.9194 275.918 91.1407L275.91 91.15Z" fill="white"/>
<path d="M274.438 90.3158C274.438 91.011 274.036 91.3309 273.554 91.0296C273.282 90.8224 273.061 90.5514 272.908 90.2382C272.754 89.9251 272.673 89.5786 272.67 89.2265C272.67 88.5358 273.072 88.216 273.554 88.5173C273.825 88.724 274.046 88.9943 274.199 89.3066C274.353 89.6189 274.434 89.9645 274.438 90.3158Z" fill="white"/>
</g>
<path d="M255.397 108.291C257.126 108.643 257.912 109.26 258.893 111.772C259.875 114.284 261.629 120.403 262.036 122.085C262.222 122.836 257.682 129.567 257.877 129.465C257.934 129.437 256.109 126.22 256.109 126.22L258.341 121.752L256.754 117.682L255.397 108.291Z" fill="#FFA8A7"/>
<path d="M254.814 108.328C254.814 108.328 256.387 108.031 257.431 108.94C258.474 109.848 258.633 110.456 259.34 112.319C260.047 114.182 261.205 118.067 261.205 118.067C261.205 118.067 260.869 120.153 257.629 120.565L254.854 114.006C254.854 114.006 253.886 110.043 254.814 108.328Z" fill="#92E3A9"/>
<path d="M251.561 162.148C251.464 162.737 251.499 163.342 251.663 163.914C251.95 164.612 252.422 165.209 253.024 165.634C253.46 166.058 253.84 166.541 254.155 167.071C254.463 167.652 254.862 168.176 255.336 168.619C255.702 168.952 256.741 168.985 257.24 168.762C257.74 168.54 257.912 168.345 257.881 167.506C257.85 166.667 255.424 166.38 255.424 166.38L251.561 162.148Z" fill="#455A64"/>
<path d="M257.559 165.008C257.762 165.087 257.815 165.499 257.846 166.324C257.872 166.945 258.12 167.854 257.302 168.243C256.94 168.396 256.542 168.433 256.16 168.351C255.777 168.268 255.426 168.07 255.15 167.78C254.593 167.047 254.217 166.389 253.426 165.513C252.737 164.739 252.025 164.479 251.716 162.931C251.521 161.939 251.676 161.541 252.312 161.239C253.196 160.85 254.571 162.129 255.256 162.329C255.857 162.491 257.36 164.924 257.559 165.008Z" fill="#92E3A9"/>
<path opacity="0.2" d="M257.559 165.008C257.762 165.087 257.815 165.499 257.846 166.324C257.872 166.945 258.12 167.854 257.302 168.243C256.94 168.396 256.542 168.433 256.16 168.351C255.777 168.268 255.426 168.07 255.15 167.78C254.593 167.047 254.217 166.389 253.426 165.513C252.737 164.739 252.025 164.479 251.716 162.931C251.521 161.939 251.676 161.541 252.312 161.239C253.196 160.85 254.571 162.129 255.256 162.329C255.857 162.491 257.36 164.924 257.559 165.008Z" fill="black"/>
<path d="M255.265 162.315L255.15 162.273C254.751 162.295 254.365 162.428 254.031 162.658C253.697 162.887 253.428 163.205 253.249 163.58C253.134 163.854 253.492 164.044 253.691 163.854C253.881 163.49 254.154 163.181 254.484 162.954C254.815 162.727 255.194 162.589 255.587 162.551C255.495 162.451 255.386 162.371 255.265 162.315Z" fill="#FAFAFA"/>
<path d="M255.831 162.783C255.456 162.827 255.098 162.968 254.789 163.195C254.48 163.422 254.23 163.726 254.063 164.081C253.948 164.35 254.306 164.544 254.505 164.35C254.666 164.034 254.891 163.76 255.165 163.546C255.438 163.333 255.753 163.184 256.087 163.112C256.016 162.996 255.923 162.885 255.831 162.783Z" fill="#FAFAFA"/>
<path d="M240.534 174.853C240.401 175.548 240.64 175.91 241.497 176.429C242.622 177.012 243.921 177.107 245.113 176.693C246.527 176.262 247.203 175.618 247.791 175.46C248.379 175.303 249.833 175.293 250.412 175.117C250.991 174.941 250.982 174.626 250.982 173.894L240.534 174.853Z" fill="#455A64"/>
<path d="M250.412 170.362C250.412 170.362 250.686 171.242 250.854 172.007C250.973 172.619 251.141 173.634 250.938 174.093C250.735 174.552 249.939 174.848 248.728 174.839C247.932 174.839 246.686 175.4 245.838 175.896C244.982 176.34 244.013 176.481 243.075 176.299C241.979 176.165 240.865 175.497 240.671 175.025C240.476 174.552 240.445 174.19 243.027 173.036C243.053 173.036 246.023 171.877 247.269 170.431L250.412 170.362Z" fill="#92E3A9"/>
<g opacity="0.2">
<path d="M250.412 170.362C250.412 170.362 250.686 171.243 250.854 172.007C250.973 172.619 251.141 173.634 250.938 174.093C250.735 174.552 249.939 174.849 248.728 174.839C247.932 174.839 246.686 175.4 245.838 175.896C244.982 176.34 244.013 176.481 243.075 176.3C241.979 176.165 240.865 175.498 240.671 175.025C240.476 174.552 240.445 174.191 243.027 173.036C243.053 173.036 246.023 171.878 247.269 170.431L250.412 170.362Z" fill="black"/>
</g>
<path d="M245.449 176.077C245.449 176.077 245.228 173.759 243.429 173.087C241.798 172.485 240.379 173.75 240.534 174.853C240.64 175.59 242.625 177.254 245.449 176.077Z" fill="#FAFAFA"/>
<path d="M243.884 172.651C244.343 172.696 244.775 172.898 245.113 173.226C245.634 173.69 245.648 173.986 245.648 173.986C245.688 174.03 245.74 174.059 245.796 174.069C245.853 174.08 245.911 174.071 245.963 174.045C246.015 174.019 246.058 173.977 246.085 173.924C246.113 173.871 246.123 173.81 246.116 173.75C246.116 173.75 245.997 172.577 244.525 172.359C244.403 172.331 244.275 172.344 244.16 172.397C244.045 172.449 243.948 172.538 243.884 172.651Z" fill="#FAFAFA"/>
<path d="M244.914 172.156C245.375 172.159 245.818 172.344 246.156 172.675C246.673 173.138 246.677 173.495 246.677 173.495C246.717 173.538 246.769 173.567 246.826 173.578C246.882 173.589 246.941 173.58 246.992 173.554C247.044 173.528 247.087 173.485 247.114 173.432C247.142 173.379 247.153 173.319 247.146 173.259C247.146 173.259 247.026 172.086 245.554 171.845C245.43 171.819 245.301 171.834 245.186 171.89C245.07 171.946 244.975 172.039 244.914 172.156Z" fill="#FAFAFA"/>
<path d="M245.935 171.52C246.396 171.491 246.85 171.645 247.208 171.952C247.756 172.369 247.783 172.73 247.783 172.73C247.826 172.766 247.878 172.788 247.933 172.793C247.988 172.797 248.043 172.784 248.091 172.755C248.139 172.725 248.177 172.682 248.201 172.63C248.225 172.577 248.233 172.519 248.224 172.461C248.224 172.461 248.026 171.298 246.541 171.164C246.417 171.15 246.292 171.177 246.184 171.241C246.075 171.305 245.988 171.403 245.935 171.52Z" fill="#FAFAFA"/>
<path d="M257.559 163.678V165.254C257.198 165.496 256.781 165.631 256.353 165.643C255.924 165.655 255.501 165.545 255.128 165.323C255.084 165.226 254.964 163.678 254.964 163.678H257.559Z" fill="#FFA8A7"/>
<path d="M250.412 169.272C250.412 169.272 250.412 170.023 250.412 170.45C250.412 170.876 249.934 171.516 248.688 171.47C247.804 171.437 247.203 171.187 247.234 170.431V169.342L250.412 169.272Z" fill="#FFA8A7"/>
<path d="M259.185 150.3C259.106 146.972 258.456 145.512 258.456 145.512C258.456 145.512 258.695 141.405 259.225 136.376C260.025 128.723 259.667 127.24 258.217 123.791C258.217 123.791 245.926 122.489 245.555 127.843C245.086 134.513 245.033 148.08 245.201 150.435C245.369 152.789 245.365 150.616 245.913 155.385C246.355 159.158 247.239 169.342 247.239 169.342C247.733 169.604 248.282 169.735 248.836 169.723C249.39 169.711 249.933 169.556 250.417 169.272C250.417 169.272 251.42 156.813 251.301 154.092C251.288 152.696 251.186 151.302 250.996 149.92C250.996 149.92 252.432 139.171 252.653 137.442C252.653 137.442 252.852 140.539 253.024 142.893C253.197 145.248 253.179 147.148 253.652 152.02C254.023 155.844 254.92 164.099 254.92 164.099C255.353 164.284 255.82 164.36 256.285 164.324C256.75 164.288 257.201 164.14 257.603 163.891C257.603 163.891 259.252 152.989 259.185 150.3Z" fill="#455A64"/>
<path d="M252.131 164.062C252.131 164.062 252.197 162.208 254.571 161.967L254.708 162.046C254.441 161.597 254.025 161.267 253.541 161.119C253.22 160.997 252.871 160.984 252.543 161.083C252.215 161.182 251.925 161.388 251.716 161.671C251.3 162.213 251.72 163.706 252.131 164.062Z" fill="#FAFAFA"/>
<path d="M249.104 106.557L249.682 111.536L253.855 111.142L253.382 105.612L249.104 106.557Z" fill="#FFA8A7"/>
<path d="M257.93 110.697C257.488 109.39 256.419 108.018 254.836 108.328C254.394 108.412 254.05 108.472 253.656 108.555C253.621 109.705 251.557 110.298 249.506 109.603C248.887 109.788 248.322 109.978 247.809 110.168C246.337 110.72 245.749 113.279 245.714 117.585C245.679 121.891 245.086 130.438 245.086 130.438C245.086 130.438 248.18 132.158 253.957 131.059C259.733 129.961 259.641 127.898 259.641 127.898C259.641 127.898 259.526 125.386 256.918 121.168C259.132 114.998 258.611 112.644 257.93 110.697Z" fill="#37474F"/>
<path d="M246.001 100.23C245.75 99.6348 245.647 98.9819 245.703 98.3332C245.758 97.6844 245.971 97.0612 246.319 96.5223C247.72 94.2046 250.421 93.8199 253.621 94.7238C254.737 95.083 255.721 95.7948 256.438 96.7621C257.154 97.7293 257.569 98.9049 257.625 100.128C257.78 102.59 251.234 104.407 251.38 106.094L246.001 100.23Z" fill="#263238"/>
<path d="M245.864 101.167C245.864 101.167 244.98 102.659 245.099 102.812C245.319 102.957 245.562 103.059 245.815 103.114L245.864 101.167Z" fill="#F28F8F"/>
<path d="M248.574 96.4344C247.69 96.9443 246.152 97.8899 245.842 101.38C245.524 104.963 246.311 106.182 246.788 106.637C247.111 106.942 248.728 107.012 249.564 106.715C250.611 106.34 252.865 105.093 253.891 103.22C255.097 101.014 255.283 98.1216 253.798 97.0277C253.046 96.473 252.172 96.1276 251.259 96.0238C250.345 95.92 249.421 96.0613 248.574 96.4344Z" fill="#FFA8A7"/>
<path d="M248.618 100.648C248.042 100.422 247.537 100.037 247.154 99.5334C246.772 99.0296 246.528 98.4261 246.448 97.7876C246.116 95.5117 248.821 94.543 248.821 94.543L248.618 100.648Z" fill="#263238"/>
<path d="M248.308 96.6011C248.308 96.6011 247.61 99.8828 248.604 101.913C248.604 101.913 249.121 100.629 250.169 100.963C251.216 101.297 251.172 102.771 250.363 103.54C250.159 103.761 249.899 103.917 249.613 103.989C249.327 104.061 249.028 104.047 248.75 103.948C249.103 104.877 249.634 105.719 250.31 106.423C250.31 106.423 253.404 107.879 256.118 104.69C258.562 101.793 258.107 96.7448 254.35 95.5535C250.593 94.3623 248.308 96.6011 248.308 96.6011Z" fill="#263238"/>
<path d="M261.205 109.436C260.078 109.436 258.997 108.967 258.2 108.132C257.403 107.296 256.954 106.163 256.953 104.982V97.5281C258.08 97.5281 259.161 97.9972 259.958 98.8325C260.755 99.6677 261.204 100.801 261.205 101.983V109.436Z" fill="#263238"/>
<path d="M257.426 96.5501C257.334 96.5811 257.249 96.6308 257.176 96.6962C257.102 96.7617 257.042 96.8417 256.998 96.9317C256.954 97.0217 256.928 97.1198 256.92 97.2206C256.912 97.3213 256.923 97.4226 256.953 97.5188L258.35 97.0553C258.321 96.9583 258.274 96.8682 258.212 96.7902C258.15 96.7122 258.074 96.6479 257.988 96.6009C257.902 96.5539 257.808 96.5252 257.712 96.5165C257.615 96.5078 257.518 96.5192 257.426 96.5501Z" fill="#263238"/>
<path d="M237.228 118.058C236.622 117.33 236.521 115.74 235.716 114.623C234.912 113.506 235.053 112.407 234.55 112.903C234.046 113.399 234.421 115.221 234.421 115.221C234.421 115.221 233.48 117.052 233.4 118.002C233.321 118.952 235.681 121.288 235.681 121.288L237.228 118.058Z" fill="#FFA8A7"/>
<path d="M234.541 115.082C234.541 115.082 233.582 116.473 229.272 114.656C228.083 114.146 228.888 116.829 230.346 117.942C231.699 118.971 233.387 119.291 234.74 120.26C234.744 120.111 234.541 115.082 234.541 115.082Z" fill="#FFA8A7"/>
<path d="M248.149 110.043C246.924 110.507 245.85 111.007 244.701 113.265C243.23 116.166 240.556 121.849 240.556 121.849L237.228 118.058C237.228 118.058 236.741 117.339 235.84 118.906C234.938 120.472 235.336 120.904 235.336 120.904C235.336 120.904 239.216 126.355 239.928 127.045C240.64 127.736 241.811 127.203 242.58 126.118C243.349 125.034 247.291 117.529 247.291 117.529C247.291 117.529 249.886 112.778 248.149 110.043Z" fill="#FFA8A7"/>
<path d="M248.746 109.835C247.964 109.906 247.212 110.183 246.558 110.639C245.905 111.095 245.371 111.716 245.006 112.444C243.539 115.226 241.992 118.364 241.992 118.364C241.992 118.364 243.057 121.057 245.767 121.261C245.767 120.982 247.977 116.857 248.821 115.091C249.665 113.325 249.576 110.627 248.746 109.835Z" fill="#92E3A9"/>
<path d="M252.662 137.451L252.896 134.846C254.232 134.638 255.511 134.13 256.644 133.358C256.644 133.358 255.844 134.698 253.656 135.31L253.161 137.855L253.033 142.907L252.662 137.451Z" fill="#37474F"/>
<defs>
<filter id="filter0_f_255_4603" x="0.910595" y="24.6799" width="397.283" height="249.328" filterUnits="userSpaceOnUse" color-interpolation-filters="sRGB">
<feFlood flood-opacity="0" result="BackgroundImageFix"/>
<feBlend mode="normal" in="SourceGraphic" in2="BackgroundImageFix" result="shape"/>
<feGaussianBlur stdDeviation="22.0447" result="effect1_foregroundBlur_255_4603"/>
</filter>
</defs>
</svg>
