<svg width="647" height="390" viewBox="0 0 647 390" fill="none" xmlns="http://www.w3.org/2000/svg">
<path d="M554.546 389.069L328.334 387.694H329.83C330.286 387.694 330.74 387.679 331.186 387.65H454.277C458.896 387.65 462.641 383.905 462.641 379.284V167.918C462.641 163.298 458.896 159.553 454.277 159.553H350.472V92.656H440.646C445.321 92.656 449.107 88.8565 449.107 84.1691V73.0239C462.935 69.4647 476.936 66.5167 488.851 66.5167C495.045 66.5167 500.678 67.3138 505.43 69.2373C532.93 80.367 521.938 114.25 535.241 127.903C544.863 137.776 554.555 140.613 564.529 140.613C571.272 140.613 578.147 139.319 585.22 138.021C592.29 136.724 599.561 135.428 607.097 135.428C616.223 135.428 625.74 137.331 635.766 143.437C674.591 167.088 595.103 387.836 554.546 389.069ZM106.79 386.347L91.9521 386.258L58.7558 383.275C58.7558 383.275 -33.0722 333.061 32.6166 286.74C77.0307 255.418 45.0724 232.673 40.2424 218.334C34.7943 202.165 22.2157 174.135 75.2057 153.148C76.2543 154.496 77.5399 155.654 78.1476 158.593C78.9162 162.309 80.0651 175.758 84.0038 182.465C87.9416 189.176 96.6023 204.026 96.6023 204.026L105.398 200.343C105.398 200.343 94.8006 181.286 92.2227 177.233C89.6447 173.184 82.9292 157.083 82.6889 156.45C82.5168 155.994 84.9625 151.96 85.9662 149.61H156.119V353.718C145.329 357.171 114.664 380.32 106.79 386.347ZM82.9785 151.484C82.9128 151.484 82.8471 151.47 82.7814 151.442C82.5895 151.355 82.3353 151.002 82.0431 150.473C82.72 150.187 83.3839 149.901 84.0384 149.61H84.6349C84.6159 149.64 84.5977 149.674 84.5787 149.705C84.0479 150.594 83.5093 151.484 82.9785 151.484ZM156.119 67.9094H117.214C114.32 49.0485 114.162 6.32622 197.789 1.47287C205.969 0.999124 214.185 0.769165 222.358 0.769165C267.346 0.769165 311.209 7.76476 342.299 19.6673H305.379C300.707 19.6673 296.918 23.4694 296.918 28.1568V32.373H176.759C176.403 32.373 176.05 32.3816 175.698 32.3989C174.994 32.4344 174.3 32.5053 173.616 32.6116C173.275 32.6626 172.936 32.7248 172.6 32.7931C163.866 34.5861 157.142 41.9154 156.226 50.9651C156.155 51.6627 156.119 52.3682 156.119 53.0831V67.9094Z" fill="#F5F9FE"/>
<path d="M85.351 288.596C74.7098 272.735 72.1336 253.21 71.8466 239.624C71.5345 224.876 73.7761 213.744 73.7986 213.633L73.0621 213.396C73.0387 213.507 70.778 224.721 71.0901 239.567C71.3789 253.286 73.9836 273.009 84.7563 289.07L85.351 288.596Z" fill="#3C8F7C"/>
<path d="M76.1803 210.849C76.0523 214.193 74.721 217.041 72.7223 218.834C70.8783 216.575 69.7769 213.43 69.9057 210.084C70.0336 206.739 71.365 203.891 73.3637 202.101C75.2077 204.358 76.3091 207.505 76.1803 210.849Z" fill="#3C8F7C"/>
<path d="M69.6538 218.792C71.464 221.618 72.1107 224.885 71.6655 227.758C69.0287 227.209 66.4317 225.412 64.6215 222.588C62.812 219.761 62.1654 216.495 62.6097 213.622C65.2474 214.171 67.8443 215.968 69.6538 218.792Z" fill="#3C8F7C"/>
<path d="M66.1248 227.992C68.8384 229.679 70.7334 232.36 71.5271 235.231C69.0347 236.063 66.0651 235.725 63.3506 234.038C60.6369 232.354 58.7419 229.672 57.9482 226.799C60.4406 225.969 63.4102 226.308 66.1248 227.992Z" fill="#3C8F7C"/>
<path d="M67.7631 240.567C69.9114 241.906 71.2989 244.279 71.7485 246.939C69.5967 247.979 67.132 247.95 64.9828 246.611C62.8337 245.273 61.447 242.9 60.9966 240.24C63.1492 239.2 65.6139 239.228 67.7631 240.567Z" fill="#3C8F7C"/>
<path d="M75.9011 225.305C78.2145 223.92 80.8521 223.752 83.1457 224.61C82.6382 227.149 81.1314 229.466 78.8188 230.853C76.5062 232.239 73.8686 232.407 71.5742 231.549C72.0817 229.01 73.5894 226.693 75.9011 225.305Z" fill="#3C8F7C"/>
<path d="M75.9509 234.03C78.2634 232.644 80.9011 232.476 83.1946 233.335C82.688 235.873 81.1803 238.191 78.8677 239.576C76.5552 240.963 73.9176 241.132 71.624 240.272C72.1315 237.734 73.6383 235.417 75.9509 234.03Z" fill="#3C8F7C"/>
<path d="M74.3876 366.502C52.0816 358.379 36.4798 339.008 27.3186 324.186C17.3742 308.099 12.6592 293.746 12.6125 293.603L11.627 293.995C11.6736 294.138 16.4206 308.599 26.4299 324.797C35.6776 339.764 51.4427 359.333 74.0254 367.555L74.3876 366.502Z" fill="#96D9C9"/>
<path d="M13.4839 288.391C15.5155 292.215 15.8682 296.564 14.7815 300.333C11.2353 299.468 7.94844 296.96 5.91771 293.133C3.88611 289.307 3.53339 284.958 4.62008 281.189C8.16629 282.055 11.4531 284.564 13.4839 288.391Z" fill="#96D9C9"/>
<path d="M11.2991 303.022C15.1756 304.544 18.0293 307.594 19.397 311.179C16.0686 312.919 11.9743 313.24 8.09785 311.717C4.22053 310.195 1.36765 307.145 0 303.56C3.32836 301.82 7.42266 301.499 11.2991 303.022Z" fill="#96D9C9"/>
<path d="M13.3065 316.376C17.4613 315.827 21.3404 317.118 24.1025 319.596C21.8349 322.739 18.2688 325.01 14.1148 325.559C9.96086 326.108 6.08181 324.817 3.31885 322.338C5.58732 319.196 9.15255 316.925 13.3065 316.376Z" fill="#96D9C9"/>
<path d="M21.1703 329.172C25.3242 328.623 29.2033 329.912 31.9662 332.39C29.6986 335.533 26.1326 337.806 21.9786 338.353C17.8246 338.902 13.9456 337.613 11.1826 335.135C13.4502 331.99 17.0163 329.719 21.1703 329.172Z" fill="#96D9C9"/>
<path d="M20.5424 309.243C20.768 305.204 22.453 301.556 24.9315 299.069C27.1369 301.473 28.4172 305.067 28.1916 309.108C27.9659 313.147 26.2801 316.794 23.8016 319.281C21.5962 316.878 20.3159 313.284 20.5424 309.243Z" fill="#96D9C9"/>
<path d="M28.7543 322.486C28.9202 318.446 30.5524 314.767 32.9955 312.233C35.2363 314.594 36.5703 318.162 36.4034 322.205C36.2374 326.247 34.6052 329.925 32.1621 332.457C29.9205 330.096 28.5874 326.528 28.7543 322.486Z" fill="#96D9C9"/>
<path d="M34.5816 342.403C36.1653 341.566 37.9082 341.539 39.377 342.177C38.9274 343.826 37.8312 345.3 36.2466 346.136C34.6628 346.975 32.9208 346.999 31.4512 346.364C31.9007 344.713 32.9978 343.239 34.5816 342.403Z" fill="#96D9C9"/>
<path d="M127.878 345.021C127.878 345.021 145.219 306.733 139.422 298.191C131.41 286.386 121.448 322.612 120.962 319.43C116.375 289.358 117.334 251.431 95.8745 245.684C83.6763 242.416 96.6819 274.008 95.1665 282.147C93.6518 290.289 73.3584 261.227 60.8602 245.852C48.362 230.475 40.7094 238.958 47.9548 257.613C54.9599 275.65 80.3384 296.785 74.6577 298.594C68.9762 300.402 37.1208 275.275 32.3202 284.535C26.4338 295.889 75.5058 315.932 70.5824 318.193C65.6591 320.455 42.2819 309.823 42.2819 318.868C42.2819 327.913 74.5842 330.173 73.7439 334.084C72.3841 340.415 52.0923 324.204 50.5077 332.99C48.8868 341.976 78.0535 342.657 77.0343 349.686C76.449 353.725 69.1033 349.498 67.7745 355.051C64.7444 367.715 110.704 385.457 110.704 385.457L127.878 345.021Z" fill="#3C8F7C"/>
<path d="M159.226 353.453C166.203 356.722 164.321 364.839 164.321 364.839C164.321 364.839 183.24 350.067 190.312 358.689C197.385 367.309 193.669 384.211 185.373 386.96C177.077 389.706 104.928 387.781 104.928 387.781C104.928 387.781 152.949 350.512 159.226 353.453Z" fill="#96D9C9"/>
<path d="M109.791 374.278L110.459 373.708C95.302 355.243 88.8285 332.096 86.0673 315.929C83.0709 298.388 83.6778 285.047 83.6838 284.914L82.764 284.748C82.758 284.883 82.1459 298.312 85.157 315.96C87.9398 332.264 94.472 355.615 109.791 374.278Z" fill="#50BFA5"/>
<path d="M85.7121 281.982C86.1607 285.965 85.1294 289.411 83.1367 291.622C80.6002 289.006 78.7649 285.308 78.3153 281.322C77.8666 277.338 78.898 273.895 80.8907 271.682C83.4272 274.298 85.2625 277.996 85.7121 281.982Z" fill="#50BFA5"/>
<path d="M79.7991 291.264C82.3978 294.552 83.7291 298.414 83.7274 301.851C80.5789 301.302 77.2522 299.271 74.6544 295.98C72.0557 292.691 70.7243 288.829 70.7261 285.392C73.8746 285.941 77.2004 287.975 79.7991 291.264Z" fill="#50BFA5"/>
<path d="M77.359 302.351C80.8006 304.25 83.4711 307.364 84.9036 310.75C82.1674 311.839 78.6713 311.556 75.2306 309.659C71.789 307.763 69.1177 304.646 67.686 301.26C70.4213 300.171 73.9183 300.455 77.359 302.351Z" fill="#50BFA5"/>
<path d="M83.5104 320.605C84.9965 321.294 86.1999 322.524 86.8967 323.908C85.7944 324.458 84.3343 324.454 82.8491 323.766C81.363 323.078 80.1587 321.849 79.4619 320.464C80.5642 319.913 82.0243 319.917 83.5104 320.605Z" fill="#50BFA5"/>
<path d="M85.3771 327.413C86.8632 328.101 88.0666 329.33 88.7634 330.715C87.6611 331.264 86.201 331.259 84.7149 330.571C83.2288 329.883 82.0254 328.654 81.3286 327.27C82.4309 326.718 83.891 326.725 85.3771 327.413Z" fill="#50BFA5"/>
<path d="M88.1891 298.764C90.6175 297.02 93.639 296.717 96.446 297.646C96.3129 300.685 94.9833 303.504 92.5549 305.246C90.1273 306.99 87.1059 307.296 84.2988 306.364C84.432 303.325 85.7616 300.505 88.1891 298.764Z" fill="#50BFA5"/>
<path d="M89.8048 309.143C92.2332 307.4 95.2547 307.096 98.0618 308.026C97.9286 311.064 96.599 313.884 94.1715 315.626C91.7431 317.37 88.7216 317.673 85.9146 316.743C86.0477 313.705 87.3773 310.885 89.8048 309.143Z" fill="#50BFA5"/>
<path d="M90.8671 324.131C92.4474 322.998 94.4142 322.798 96.2417 323.403C96.1544 325.381 95.2891 327.216 93.7087 328.351C92.1284 329.484 90.1617 329.683 88.335 329.08C88.4214 327.098 89.2868 325.266 90.8671 324.131Z" fill="#50BFA5"/>
<path d="M121.222 388.135C121.222 388.135 99.0631 359.685 89.799 355.325C79.9289 350.682 88.4875 366.776 88.4875 366.776C88.4875 366.776 67.3823 346.043 62.4252 351.22C57.4681 356.397 62.7607 361.241 62.7607 361.241C62.7607 361.241 45.0884 357.959 42.5113 364.578C38.5518 374.75 67.6192 379.811 67.6192 379.811C67.6192 379.811 53.6937 376.755 56.48 383.054C60.6824 392.552 121.222 388.135 121.222 388.135Z" fill="#50BFA5"/>
<path d="M42.5112 364.578C45.0883 357.959 62.7606 361.241 62.7606 361.241C62.7606 361.241 57.4681 356.397 62.4252 351.22C67.3823 346.043 83.903 358.268 83.903 358.268C83.903 358.268 81.3432 347.032 93.7532 355.872C102.618 362.184 119.726 385.734 119.726 385.734L42.5112 364.578Z" fill="#92E3A9"/>
<path d="M104.928 387.708C104.928 387.708 140.238 390.204 147.115 383.881C153.992 377.561 147.169 366.105 147.169 366.105C147.169 366.105 159.286 356.527 159.097 350.272C158.908 344.019 151.014 347.192 151.014 347.192C151.014 347.192 164.393 329.965 161.219 326.687C155.309 320.585 139.839 338.492 139.839 338.492C139.839 338.492 144.431 329.974 139.587 328.622C132.283 326.581 126.911 347.59 126.911 347.59C126.911 347.59 128.274 339.293 123.24 340.395C114.207 342.372 104.928 387.708 104.928 387.708Z" fill="#50BFA5"/>
<path d="M134.251 388.097H131.295L142.309 330.868L144.766 331.335L134.251 388.097Z" fill="#0E2E35"/>
<path d="M464.67 290.36L467.521 283.449C469.734 278.365 475.393 275.938 480.162 278.027C492.182 283.292 497.407 297.945 491.835 310.755L487.76 320.123C485.974 324.227 486.596 328.738 489.004 331.923C491.188 334.814 491.547 338.833 490.031 342.316L487.881 347.256C485.556 352.601 481.03 356.56 475.663 358.193C472.525 359.149 469.752 361.513 468.287 364.882L465.243 371.875C461.881 379.603 453.277 383.295 446.025 380.119L441.888 378.307C434.636 375.13 431.482 366.289 434.847 358.559C440.283 349.316 439.85 342.418 437.922 337.74C435.089 330.859 435.123 322.944 438.188 315.898L438.617 314.911C441.852 307.475 448.1 301.922 455.539 299.545C458.824 298.494 462.247 295.931 464.67 290.36Z" fill="#50BFA5"/>
<path d="M412.867 387.46C418.699 379.871 451.11 339.57 471.965 332.796C494.986 325.318 473.29 355.018 473.29 355.018C473.29 355.018 514.127 310.21 529.115 314.249C542.852 317.952 529.115 345.727 529.115 345.727C529.115 345.727 544.587 330.345 563.349 330.345C581.61 330.345 550.671 386.264 548.998 389.186L412.867 387.46Z" fill="#47D7AC"/>
<path d="M535.907 301.212C519.22 327.36 507.065 357.702 500.103 388.56L498.449 388.54C505.383 358.329 517.967 327.749 534.624 301.63C538.494 295.56 542.675 288.358 549.925 285.989C550.065 285.945 550.117 286.158 549.985 286.209C543.363 288.712 539.528 295.535 535.907 301.212Z" fill="#3C8F7C"/>
<path d="M503.896 388.615C522.542 363.173 545.417 339.391 572.37 318.941C572.638 318.738 573.001 319.209 572.731 319.417C547.167 339.134 524.633 362.317 505.602 388.629L503.896 388.615Z" fill="#3C8F7C"/>
<path d="M537.432 284.996C537.862 285.632 539.506 287.285 539.989 289.455C540.637 291.516 540.126 294.094 540.071 294.003C539.946 294.057 541.972 292.337 542.605 289.601C543.426 286.979 542.853 283.343 541.832 282.136C540.071 279.412 536.994 279.136 536.399 280.457C535.764 281.769 536.567 283.555 537.432 284.996Z" fill="#3C8F7C"/>
<path d="M541.423 308.336C540.801 307.893 539.185 306.211 537.032 305.682C534.992 304.992 532.411 305.455 532.499 305.512C532.447 305.636 534.199 303.635 536.937 303.056C539.566 302.285 543.18 302.931 544.359 303.978C547.039 305.797 547.254 308.889 545.926 309.463C544.605 310.073 542.843 309.233 541.423 308.336Z" fill="#3C8F7C"/>
<path d="M535.399 318.565C534.777 318.122 533.161 316.44 531.008 315.913C528.967 315.221 526.387 315.683 526.476 315.74C526.422 315.865 528.175 313.866 530.913 313.284C533.542 312.514 537.156 313.161 538.336 314.207C541.016 316.028 541.23 319.118 539.903 319.691C538.583 320.302 536.82 319.461 535.399 318.565Z" fill="#3C8F7C"/>
<path d="M556.887 342.292C556.264 341.85 554.648 340.167 552.493 339.641C550.455 338.948 547.874 339.411 547.963 339.468C547.91 339.592 549.663 337.594 552.4 337.012C555.03 336.241 558.643 336.887 559.823 337.934C562.503 339.753 562.718 342.845 561.39 343.419C560.069 344.029 558.307 343.189 556.887 342.292Z" fill="#3C8F7C"/>
<path d="M567.863 332.59C567.242 332.145 565.626 330.463 563.472 329.936C561.432 329.243 558.852 329.708 558.94 329.764C558.887 329.887 560.639 327.889 563.377 327.307C566.006 326.536 569.621 327.185 570.8 328.23C573.48 330.051 573.695 333.143 572.367 333.716C571.048 334.325 569.284 333.484 567.863 332.59Z" fill="#3C8F7C"/>
<path d="M529.003 296.571C529.528 297.129 531.41 298.5 532.23 300.57C533.192 302.502 533.093 305.129 533.025 305.049C532.91 305.12 534.639 303.101 534.837 300.302C535.233 297.582 534.096 294.081 532.898 293.051C530.732 290.64 527.651 290.854 527.27 292.253C526.849 293.647 527.923 295.285 529.003 296.571Z" fill="#3C8F7C"/>
<path d="M520.146 308.172C520.892 308.569 523.494 309.288 524.805 311.244C526.287 312.984 526.476 315.96 526.378 315.9C526.239 316.028 528.233 313.029 528.146 309.819C528.332 306.611 526.434 303.195 524.761 302.564C521.664 300.804 517.703 302.373 517.377 304.1C517.003 305.839 518.592 307.2 520.146 308.172Z" fill="#3C8F7C"/>
<path d="M510.821 325.742C511.621 326.007 514.311 326.278 515.928 327.984C517.681 329.449 518.367 332.353 518.259 332.309C518.144 332.459 519.609 329.165 518.985 326.017C518.628 322.823 516.185 319.775 514.43 319.435C511.083 318.224 507.441 320.439 507.408 322.194C507.332 323.974 509.127 325.047 510.821 325.742Z" fill="#3C8F7C"/>
<path d="M538.411 337.983C538.993 338.348 541.071 339.08 542.027 340.747C543.134 342.248 543.118 344.68 543.041 344.625C542.919 344.72 544.714 342.396 544.827 339.78C545.159 337.182 543.809 334.294 542.483 333.683C540.064 332.076 536.751 333.125 536.388 334.511C535.985 335.905 537.203 337.104 538.411 337.983Z" fill="#3C8F7C"/>
<path d="M552.772 289.11C552.424 288.821 551.541 287.756 550.291 287.348C549.113 286.849 547.566 287.01 547.617 287.048C547.58 287.118 548.704 286.012 550.348 285.788C551.937 285.45 554.046 285.989 554.699 286.66C556.207 287.855 556.197 289.695 555.387 289.976C554.58 290.277 553.573 289.702 552.772 289.11Z" fill="#3C8F7C"/>
<path d="M549.428 281.643C549.443 282.099 549.747 283.449 549.304 284.693C548.979 285.932 547.908 287.063 547.908 286.999C547.83 286.985 549.388 286.769 550.57 285.598C551.807 284.542 552.668 282.535 552.538 281.608C552.516 279.682 551.059 278.565 550.343 279.038C549.609 279.494 549.45 280.645 549.428 281.643Z" fill="#3C8F7C"/>
<path d="M575.769 322.703C575.421 322.413 574.538 321.349 573.287 320.941C572.11 320.443 570.563 320.603 570.614 320.64C570.576 320.711 571.7 319.607 573.345 319.383C574.933 319.043 577.043 319.583 577.696 320.256C579.203 321.449 579.194 323.287 578.384 323.568C577.576 323.872 576.569 323.294 575.769 322.703Z" fill="#3C8F7C"/>
<path d="M571.735 315.172C571.787 315.624 572.199 316.947 571.858 318.222C571.637 319.483 570.661 320.698 570.657 320.636C570.579 320.63 572.115 320.283 573.195 319.02C574.344 317.865 575.036 315.796 574.83 314.88C574.652 312.964 573.108 311.969 572.434 312.501C571.741 313.016 571.675 314.177 571.735 315.172Z" fill="#3C8F7C"/>
<path d="M553.572 358.539C553.682 359.24 554.41 361.276 553.961 363.288C553.695 365.271 552.25 367.23 552.241 367.132C552.115 367.126 554.49 366.488 556.097 364.448C557.814 362.573 558.763 359.298 558.383 357.883C557.98 354.903 555.51 353.453 554.49 354.325C553.441 355.172 553.414 356.987 553.572 358.539Z" fill="#3C8F7C"/>
<path d="M538.562 363.93C538.672 364.631 539.4 366.668 538.951 368.679C538.685 370.664 537.24 372.623 537.229 372.526C537.105 372.519 539.48 371.879 541.087 369.839C542.804 367.965 543.754 364.689 543.373 363.275C542.968 360.295 540.5 358.847 539.48 359.716C538.431 360.566 538.404 362.381 538.562 363.93Z" fill="#3C8F7C"/>
<path d="M523.308 370.751C523.422 371.452 524.15 373.489 523.7 375.5C523.433 377.485 521.99 379.444 521.979 379.347C521.854 379.34 524.229 378.703 525.836 376.66C527.553 374.787 528.503 371.51 528.122 370.095C527.717 367.116 525.248 365.667 524.227 366.537C523.18 367.387 523.154 369.202 523.308 370.751Z" fill="#3C8F7C"/>
<path d="M558.05 372.61C557.742 372.03 557.148 370.122 555.695 368.891C554.397 367.579 552.243 366.944 552.289 367.021C552.204 367.095 554.308 366.235 556.626 366.84C558.934 367.261 561.456 369.142 561.963 370.396C563.322 372.82 562.309 375.272 561.072 375.201C559.828 375.162 558.798 373.841 558.05 372.61Z" fill="#3C8F7C"/>
<path d="M542.439 378.154C542.131 377.576 541.533 375.667 540.084 374.435C538.784 373.123 536.631 372.488 536.677 372.566C536.589 372.641 538.694 371.78 541.013 372.387C543.321 372.805 545.845 374.688 546.349 375.943C547.708 378.364 546.695 380.816 545.459 380.745C544.216 380.707 543.185 379.384 542.439 378.154Z" fill="#3C8F7C"/>
<path d="M569.942 366.902C569.672 366.579 569.045 365.459 567.974 364.879C566.985 364.227 565.548 364.113 565.589 364.156C565.542 364.214 566.751 363.397 568.286 363.467C569.791 363.425 571.624 364.273 572.106 364.994C573.279 366.336 572.965 368.009 572.179 368.128C571.393 368.268 570.573 367.575 569.942 366.902Z" fill="#3C8F7C"/>
<path d="M568.139 359.537C568.078 359.953 568.128 361.236 567.515 362.294C567.013 363.368 565.849 364.22 565.86 364.163C565.791 364.136 567.248 364.2 568.521 363.33C569.824 362.578 570.944 360.894 570.979 360.026C571.278 358.267 570.138 357.005 569.406 357.317C568.664 357.61 568.325 358.631 568.139 359.537Z" fill="#3C8F7C"/>
<path d="M488.63 163.506C489.546 163.618 490.325 162.598 490.097 161.741C489.73 160.365 489.385 158.982 489.03 157.601C488.251 154.549 488.125 154.454 488.34 154.197C488.851 153.582 490.082 154.297 490.511 154.604C491.462 155.282 492.248 156.207 493.333 156.687C495.448 157.619 497.547 156.415 497.203 153.995C496.89 151.781 496.444 149.567 495.989 147.367C498.199 148.549 500.381 149.797 502.608 150.948C503.398 151.355 504.197 150.782 504.088 149.906C503.851 147.959 503.152 142.196 502.922 140.294C502.862 139.803 502.314 137.546 502.81 137.293C503.257 137.065 504.739 137.995 505.093 138.158C507.054 139.066 507.758 139.36 514.201 142.166C514.968 142.501 515.96 141.611 515.681 140.807C512.955 132.891 513.945 132.542 512.554 131.132C512.242 130.815 511.813 130.964 511.64 131.331C511.2 132.267 511.159 132.522 511.992 136.158C512.209 137.099 512.447 138.032 512.708 138.96C504.949 135.403 503.077 134.321 501.44 135.812C500.304 136.849 500.57 137.3 501.925 148.206C499.669 146.845 497.343 145.63 495.026 144.362C494.147 143.88 493.191 144.561 493.337 145.548C494.504 153.476 494.855 153.635 494.772 154.361C494.769 154.381 495.163 154.604 494.546 154.359C493.499 153.943 491.983 151.787 489.852 151.413C487.975 151.083 485.808 152.05 485.631 154.148C485.527 155.368 485.834 155.902 486.848 160.378C484.597 160.166 482.329 160.223 479.921 160.565C478.877 160.713 478.208 160.943 477.385 161.611C476.712 162.158 476.964 163.439 477.825 163.645C480.264 164.223 481.86 162.673 488.63 163.506Z" fill="#F7CC7F"/>
<path d="M525.459 195.432C525.764 193.301 526.2 191.302 526.895 189.176C527.025 188.775 527.178 188.001 527.662 187.87C528.827 187.554 529.796 189.68 533.328 191.632C534.862 192.478 537.958 194.363 539.335 192.373C540.039 191.353 540.224 189.858 540.569 188.685C540.83 187.795 541.127 186.914 541.404 186.03C547.026 189.587 546.569 189.844 548.141 189.652C548.548 189.601 548.9 189.105 548.787 188.702C548.365 187.202 548.42 187.609 541.375 183.052C540.734 182.636 539.722 182.866 539.49 183.667C539.135 184.874 537.83 190.417 537.562 191.072C537.511 191.01 537.201 190.98 537.137 190.957C534.603 190.105 532.724 188.536 530.684 186.885C529.013 185.533 526.43 184.748 525.109 187.009C524.392 188.235 523.712 191.006 523.283 193.166C519.903 190.86 516.537 188.525 513.145 186.241C512.481 185.794 511.265 186.024 511.064 186.918C510.504 189.406 509.86 191.867 509.198 194.325C507.218 192.949 505.458 191.267 503.98 189.348C502.891 187.934 500.547 189.353 503.539 192.732C505.153 194.677 507.071 196.317 509.258 197.648C509.982 198.088 511.073 197.866 511.345 196.968C512.071 194.554 512.688 192.104 513.257 189.645C516.655 191.902 520.074 194.124 523.469 196.382C524.303 196.937 525.323 196.379 525.459 195.432Z" fill="#F47458"/>
<path d="M523.816 248.227C523.608 248.975 523.943 249.59 524.607 249.926C527.854 251.566 531.155 252.894 534.776 253.335C536.66 253.563 536.814 250.704 535.004 250.372C532.169 249.85 529.285 249.163 526.616 247.981C527.298 245.938 528.17 243.978 529.27 242.134C529.688 241.433 529.491 240.264 528.593 240.025C526.36 239.425 517.834 237.418 517.735 237.486C517.746 237.473 517.777 237.418 517.794 237.261C517.896 236.32 519.452 233.488 519.797 232.084C520.183 230.509 518.286 229.329 517.071 228.838C514.608 227.837 511.25 228.831 509.072 227.111C506.979 225.456 510.761 222.523 509.712 219.04C508.905 216.356 506.162 216.276 501.924 215.855C500.884 215.752 499.868 215.663 499.085 216.481C498.89 216.685 498.764 217.03 498.926 217.303C499.797 218.783 501.395 218.708 505.239 219.192C505.728 219.255 506.598 219.213 506.91 219.682C507.95 221.24 504.987 223.794 505.833 226.941C506.492 229.395 508.931 230.535 511.177 230.918C512.935 231.219 515.324 230.856 516.868 231.98C516.334 233.427 515.754 234.875 515.336 236.351C514.877 237.967 515.364 239.33 516.944 239.946C518.691 240.627 520.627 240.935 522.438 241.384C523.657 241.687 524.875 241.995 526.096 242.287C525.157 244.188 524.385 246.162 523.816 248.227Z" fill="#3CB4C5"/>
<path d="M452.964 125.223C445.719 114.509 438.729 120.128 440.518 124.214C441.284 125.962 443.348 126.701 444.878 125.435C445.58 124.853 445.221 123.444 444.234 123.457C443.419 123.47 443.494 122.569 444.384 122.476C445.584 122.353 446.648 123.521 447.423 124.282C449.233 126.06 451.604 128.337 451.168 131.139C450.514 135.317 445.166 138.353 439.807 134.208C432.081 128.23 436.751 114.066 446.716 114.451C452.139 114.659 456.917 118.413 458.774 123.476C459.137 124.465 460.498 123.84 460.414 122.93C459.777 116.043 452.619 111.36 446.042 111.672C439.296 111.991 434.337 117.525 433.396 124.021C432.409 130.833 436.374 137.926 443.392 139.256C451.087 140.715 458.03 132.714 452.964 125.223Z" fill="#3CB4C5"/>
<path d="M513.014 268.703C511.774 267.145 508.749 265.512 507.065 267.328C506.281 268.172 506.191 269.476 507.231 270.195C508.246 270.898 509.475 270.606 510.035 271.906C510.515 273.021 509.685 274.169 508.765 274.767C505.965 276.59 501.769 274.526 499.693 272.434C496.4 269.112 497.389 263.276 502.435 261.845C504.015 261.398 505.611 261.674 507.216 261.769C508.103 261.822 508.893 260.629 508.147 259.925C505.285 257.221 500.476 258.169 497.628 260.439C494.638 262.822 493.445 267.132 494.476 270.777C495.627 274.847 499.496 277.854 503.448 278.983C511.659 281.329 517.026 273.753 513.014 268.703Z" fill="#3C8F7C"/>
<path d="M136.34 198.167C136.557 192.898 135.786 187.69 133.446 182.784C131.432 178.561 126.45 176.165 121.906 176.161C107.478 176.141 105.644 195.351 96.4599 202.76C93.6537 205.024 90.5164 206.868 87.8606 209.311C78.0554 218.328 82.4722 235.016 91.476 242.92C97.7238 248.406 107.544 251.522 115.244 247.233C119.264 244.996 122.316 241.275 124.489 237.199C127.574 231.414 129.564 224.736 131.759 218.571C134.094 212.009 136.051 205.174 136.34 198.167Z" fill="#0E2E35"/>
<path d="M105.398 200.343C105.398 200.343 94.8006 181.286 92.2227 177.233C89.6447 173.184 82.9292 157.083 82.6889 156.45C82.4485 155.815 87.314 148.195 86.2273 147.936C85.6991 147.808 85.1432 148.755 84.5787 149.705C83.9822 150.702 83.3761 151.703 82.7814 151.442C81.6229 150.931 78.2384 140.633 77.5788 141.144C76.3434 142.098 79.4029 147.531 78.7441 147.874C78.4113 148.047 77.7352 146.516 76.9822 144.984C76.2465 143.488 75.4365 141.992 74.7976 142.082C73.5043 142.268 77.2572 147.874 76.8949 148.37C76.7238 148.604 75.7581 147.54 74.7138 146.476C73.5562 145.296 72.3035 144.117 71.9327 144.71C71.5497 145.32 75.5152 149.319 74.7535 149.694C74.3948 149.871 73.4239 149.393 72.4583 148.915C71.3707 148.374 70.2892 147.837 70.0913 148.231C69.7178 148.976 73.353 149.994 74.4406 152.002C75.5273 154.009 77.3791 154.876 78.1476 158.593C78.9161 162.308 80.0651 175.758 84.0038 182.465C87.9416 189.176 96.6023 204.026 96.6023 204.026L105.398 200.343Z" fill="#F79C8D"/>
<path d="M161.472 270.478L144.996 257.867C144.996 257.867 143.339 246.103 141.12 235.66C138.34 236.449 135.831 238.638 133.048 239.401L137.237 262.781L158.831 273.959L164.93 281.824L166.318 273.749L161.472 270.478Z" fill="#F48C7F"/>
<path d="M138.696 223.695C134.19 209.978 129.15 210.561 129.15 210.561L133.048 239.401C135.83 238.638 139.454 236.938 142.234 236.15C141.312 231.814 139.806 227.074 138.696 223.695Z" fill="#F7CC7F"/>
<path d="M91.2391 367.878C91.2391 367.878 90.2233 374.967 88.4744 377.255C87.8865 378.023 86.8154 378.995 86.1108 380.382C85.0155 382.544 85.6215 385.76 86.4289 387.531C86.8439 388.44 86.4004 388.438 87.3444 388.733C90.142 389.6 93.1176 388.137 94.3081 385.444C94.9737 383.939 95.5573 381.931 95.6748 379.402C95.9731 372.964 97.9641 369.691 97.9641 369.691L91.2391 367.878Z" fill="#F7A491"/>
<path d="M121.833 371.12C121.833 371.12 122.46 379.117 121.95 381.715C121.678 383.105 120.159 385.971 120.856 387.279C121.553 388.588 122.349 388.916 122.349 388.916L140.409 389.208C141.392 389.224 140.742 388.588 139.949 388.002C138.65 387.042 137.603 386.406 133.455 384.389C133.186 384.258 132.201 383.627 131.846 383.41C130.945 382.857 130.04 381.987 129.262 381.115C127.966 379.663 127.852 372.621 127.852 372.621L121.833 371.12Z" fill="#F7A491"/>
<path d="M135.948 264.841C135.948 264.841 138.223 277.821 136.729 286.333C135.236 294.845 128.069 373.732 128.069 373.732L120.104 374.183C120.104 374.183 118.436 341.23 118.734 336.646C119.032 332.065 121.396 324.397 121.396 324.397L120.603 297.79L130.654 262.836L135.948 264.841Z" fill="#13375B"/>
<path d="M112.54 262.11C112.54 262.11 106.269 271.602 104.776 279.459C103.283 287.315 105.872 311.459 103 321.754C101.445 327.327 95.552 335.931 94.6563 343.133C93.7598 350.335 90.2456 369.199 90.2456 369.199L98.206 370.786L116.707 323.675L131.22 281.094L134.937 259.164L112.54 262.11Z" fill="#355389"/>
<path d="M117.617 208.101C117.617 208.101 109.314 207.567 106.029 211.168C102.744 214.769 113.316 243.251 113.913 247.835C114.51 252.419 110.868 264.602 110.868 264.602C110.868 264.602 130.374 268.55 135.948 264.841C135.948 264.841 136.545 231.887 135.948 228.614C135.35 225.341 130.374 212.026 129.179 210.718C127.984 209.409 117.617 208.101 117.617 208.101Z" fill="#FAE0B2"/>
<path d="M120.381 196.941C120.381 196.941 120.339 197.187 120.262 197.605C119.891 199.613 118.465 206.275 117.502 208.105C116.339 210.315 121.487 217.373 126.442 216.512C127.917 216.255 125.196 210.028 125.326 209.369C125.577 208.107 125.916 206.383 126.264 204.617C126.459 203.621 126.658 202.609 126.845 201.66C127.374 198.963 127.807 196.756 127.807 196.756L120.381 196.941Z" fill="#F7A491"/>
<path d="M120.261 197.605C120.338 197.187 120.381 196.941 120.381 196.941L127.807 196.756C127.807 196.756 127.374 198.963 126.845 201.66C126.659 202.605 126.462 203.61 126.266 204.601C125.12 204.431 123.922 203.871 122.721 202.813C121.412 201.66 120.553 200.275 120.036 198.797C120.127 198.325 120.203 197.918 120.261 197.605Z" fill="#F47458"/>
<path d="M125.378 179.967C125.378 179.967 121.879 179.562 119.685 182.414C117.491 185.267 115.127 194.094 120.576 198.889C126.026 203.687 131.411 198.257 132.209 192.5C133.008 186.741 133.318 179.761 125.378 179.967Z" fill="#F7A491"/>
<path d="M133.821 192.413C133.171 193.686 132.079 194.39 131.382 193.988C130.686 193.585 130.649 192.226 131.299 190.955C131.95 189.682 133.042 188.979 133.738 189.381C134.434 189.784 134.472 191.143 133.821 192.413Z" fill="#F7A491"/>
<path d="M125.77 179.024C125.77 179.024 121.095 187.416 117.75 187.804C114.405 188.191 113.965 192.65 113.965 192.65C113.965 192.65 115.162 182.375 118.473 180.394C121.784 178.413 125.77 179.024 125.77 179.024Z" fill="#0E2E35"/>
<path d="M94.8512 384.027C90.5123 384.822 87.6257 382.271 86.1232 380.36C85.0209 382.525 84.4823 385.754 85.2941 387.531C86.0082 389.098 88.096 389.054 89.7394 389.116C91.4779 389.18 92.8222 388.208 93.685 386.686C94.0879 385.975 94.5028 385.09 94.8512 384.027Z" fill="#B75742"/>
<path d="M131.843 383.407C127.067 384.64 123.536 383.802 121.562 383.003C121.052 384.453 120.377 386.274 120.735 387.325C121.173 388.611 121.798 388.9 122.349 388.916C126.712 389.031 138.33 389.188 141.655 389.231C142.121 389.238 142.376 388.693 142.078 388.332C141.253 387.343 132.199 383.627 131.843 383.407Z" fill="#B75742"/>
<path d="M118.627 189.913C118.899 191.403 118.352 192.771 117.405 192.965C116.458 193.16 115.47 192.111 115.198 190.621C114.926 189.129 115.473 187.764 116.42 187.57C117.367 187.373 118.355 188.421 118.627 189.913Z" fill="#F7A491"/>
<path d="M102.465 194.169C102.465 194.169 114.186 206.844 115.928 211.951C117.671 217.061 114.23 224.367 109.477 224.688C104.724 225.007 94.1479 202.189 94.1479 202.189L102.465 194.169Z" fill="#F7CC7F"/>
<path d="M308.509 159.553H454.277C458.896 159.553 462.641 163.297 462.641 167.918V379.284C462.641 383.905 458.896 387.65 454.277 387.65H308.509C303.89 387.65 300.146 383.905 300.146 379.284V167.918C300.146 163.297 303.89 159.553 308.509 159.553Z" fill="#F7CC7F"/>
<path d="M314.776 213.111H449.541V178.315H314.776V213.111Z" fill="#3CB4C5"/>
<path d="M350.472 183.325H449.541V178.315H350.472V183.325Z" fill="#2599AE"/>
<path d="M352.803 235.572H315.42C315.064 235.572 314.776 235.284 314.776 234.931V223.681C314.776 223.325 315.064 223.037 315.42 223.037H352.803C353.159 223.037 353.447 223.325 353.447 223.681V234.931C353.447 235.284 353.159 235.572 352.803 235.572Z" fill="#F47458"/>
<path d="M400.849 235.572H363.467C363.114 235.572 362.826 235.284 362.826 234.931V223.681C362.826 223.325 363.114 223.037 363.467 223.037H400.849C401.206 223.037 401.493 223.325 401.493 223.681V234.931C401.493 235.284 401.206 235.572 400.849 235.572Z" fill="#F47458"/>
<path d="M448.9 235.572H411.515C411.161 235.572 410.874 235.284 410.874 234.931V223.681C410.874 223.325 411.161 223.037 411.515 223.037H448.9C449.253 223.037 449.541 223.325 449.541 223.681V234.931C449.541 235.284 449.253 235.572 448.9 235.572Z" fill="#F47458"/>
<path d="M343.262 273.603H316.219C315.422 273.603 314.776 272.957 314.776 272.16V246.941C314.776 246.144 315.422 245.498 316.219 245.498H343.262C344.056 245.498 344.702 246.144 344.702 246.941V272.16C344.702 272.957 344.056 273.603 343.262 273.603Z" fill="#F47458"/>
<path d="M378.208 273.603H351.165C350.369 273.603 349.725 272.957 349.725 272.16V246.941C349.725 246.144 350.369 245.498 351.165 245.498H378.208C379.005 245.498 379.649 246.144 379.649 246.941V272.16C379.649 272.957 379.005 273.603 378.208 273.603Z" fill="#FAE0B2"/>
<path d="M413.153 273.603H386.111C385.317 273.603 384.67 272.957 384.67 272.16V246.941C384.67 246.144 385.317 245.498 386.111 245.498H413.153C413.95 245.498 414.597 246.144 414.597 246.941V272.16C414.597 272.957 413.95 273.603 413.153 273.603Z" fill="#FAE0B2"/>
<path d="M343.262 308.247H316.219C315.422 308.247 314.776 307.601 314.776 306.807V281.586C314.776 280.791 315.422 280.145 316.219 280.145H343.262C344.056 280.145 344.702 280.791 344.702 281.586V306.807C344.702 307.601 344.056 308.247 343.262 308.247Z" fill="#F47458"/>
<path d="M378.208 308.247H351.165C350.369 308.247 349.725 307.601 349.725 306.807V281.586C349.725 280.791 350.369 280.145 351.165 280.145H378.208C379.005 280.145 379.649 280.791 379.649 281.586V306.807C379.649 307.601 379.005 308.247 378.208 308.247Z" fill="#FAE0B2"/>
<path d="M413.153 308.247H386.111C385.317 308.247 384.67 307.601 384.67 306.807V281.586C384.67 280.791 385.317 280.145 386.111 280.145H413.153C413.95 280.145 414.597 280.791 414.597 281.586V306.807C414.597 307.601 413.95 308.247 413.153 308.247Z" fill="#FAE0B2"/>
<path d="M443.446 245.498H425.712C422.346 245.498 419.617 248.238 419.617 251.615V302.13C419.617 305.51 422.346 308.247 425.712 308.247H443.446C446.812 308.247 449.541 305.51 449.541 302.13V251.615C449.541 248.238 446.812 245.498 443.446 245.498Z" fill="#FAE0B2"/>
<path d="M343.262 342.894H316.219C315.422 342.894 314.776 342.248 314.776 341.451V316.232C314.776 315.435 315.422 314.79 316.219 314.79H343.262C344.056 314.79 344.702 315.435 344.702 316.232V341.451C344.702 342.248 344.056 342.894 343.262 342.894Z" fill="#F47458"/>
<path d="M378.208 342.894H351.165C350.369 342.894 349.725 342.248 349.725 341.451V316.232C349.725 315.435 350.369 314.79 351.165 314.79H378.208C379.005 314.79 379.649 315.435 379.649 316.232V341.451C379.649 342.248 379.005 342.894 378.208 342.894Z" fill="#FAE0B2"/>
<path d="M413.153 342.894H386.111C385.317 342.894 384.67 342.248 384.67 341.451V316.232C384.67 315.435 385.317 314.79 386.111 314.79H413.153C413.95 314.79 414.597 315.435 414.597 316.232V341.451C414.597 342.248 413.95 342.894 413.153 342.894Z" fill="#FAE0B2"/>
<path d="M448.1 342.894H421.058C420.261 342.894 419.617 342.248 419.617 341.451V316.232C419.617 315.435 420.261 314.79 421.058 314.79H448.1C448.897 314.79 449.541 315.435 449.541 316.232V341.451C449.541 342.248 448.897 342.894 448.1 342.894Z" fill="#FAE0B2"/>
<path d="M343.262 377.538H316.219C315.422 377.538 314.776 376.892 314.776 376.098V350.877C314.776 350.08 315.422 349.436 316.219 349.436H343.262C344.056 349.436 344.702 350.08 344.702 350.877V376.098C344.702 376.892 344.056 377.538 343.262 377.538Z" fill="#F47458"/>
<path d="M378.208 377.538H351.165C350.369 377.538 349.725 376.892 349.725 376.098V350.877C349.725 350.08 350.369 349.436 351.165 349.436H378.208C379.005 349.436 379.649 350.08 379.649 350.877V376.098C379.649 376.892 379.005 377.538 378.208 377.538Z" fill="#FAE0B2"/>
<path d="M413.153 377.538H386.111C385.317 377.538 384.67 376.892 384.67 376.098V350.877C384.67 350.08 385.317 349.436 386.111 349.436H413.153C413.95 349.436 414.597 350.08 414.597 350.877V376.098C414.597 376.892 413.95 377.538 413.153 377.538Z" fill="#FAE0B2"/>
<path d="M448.1 377.538H421.058C420.261 377.538 419.617 376.892 419.617 376.098V350.877C419.617 350.08 420.261 349.436 421.058 349.436H448.1C448.897 349.436 449.541 350.08 449.541 350.877V376.098C449.541 376.892 448.897 377.538 448.1 377.538Z" fill="#E87B50"/>
<path d="M334.863 321.457V322.878L327.954 337.379H325.732L332.617 323.295V323.245H324.854V321.457H334.863Z" fill="white"/>
<path d="M362.084 325.279C362.084 326.871 363.28 327.727 365.11 328.219C366.477 327.752 367.526 326.773 367.526 325.328C367.526 324.054 366.77 322.733 364.842 322.733C363.06 322.733 362.084 323.907 362.084 325.279ZM367.991 333.24C367.991 331.303 366.648 330.374 364.501 329.761C362.644 330.301 361.644 331.525 361.644 333.044C361.57 334.661 362.79 336.081 364.817 336.081C366.745 336.081 367.991 334.88 367.991 333.24ZM359.446 333.338C359.446 331.328 360.644 329.907 362.596 329.075L362.571 329.002C360.814 328.17 360.057 326.798 360.057 325.426C360.057 322.903 362.182 321.188 364.964 321.188C368.039 321.188 369.578 323.124 369.578 325.107C369.578 326.454 368.919 327.9 366.967 328.832V328.904C368.943 329.688 370.164 331.085 370.164 333.019C370.164 335.788 367.797 337.649 364.769 337.649C361.449 337.649 359.446 335.664 359.446 333.338Z" fill="white"/>
<path d="M361.571 363.71C361.571 367.851 362.841 370.202 364.794 370.202C366.991 370.202 368.04 367.63 368.04 363.565C368.04 359.645 367.04 357.073 364.818 357.073C362.939 357.073 361.571 359.375 361.571 363.71ZM370.189 363.467C370.189 368.881 368.186 371.869 364.672 371.869C361.571 371.869 359.471 368.953 359.422 363.686C359.422 358.349 361.717 355.407 364.94 355.407C368.284 355.407 370.189 358.397 370.189 363.467Z" fill="white"/>
<path d="M397.117 326.701C397.117 328.683 398.314 330.08 400.168 330.08C401.608 330.08 402.731 329.369 403.293 328.413C403.414 328.219 403.488 327.973 403.488 327.63C403.488 324.912 402.488 322.829 400.241 322.829C398.411 322.829 397.117 324.445 397.117 326.701ZM396.335 335.86C396.8 335.909 397.338 335.86 398.067 335.788C399.314 335.615 400.485 335.101 401.39 334.243C402.438 333.289 403.196 331.892 403.488 330.007H403.414C402.536 331.085 401.266 331.722 399.679 331.722C396.824 331.722 394.994 329.564 394.994 326.847C394.994 323.834 397.165 321.188 400.411 321.188C403.658 321.188 405.661 323.834 405.661 327.9C405.661 331.404 404.488 333.851 402.928 335.372C401.706 336.571 400.022 337.306 398.314 337.503C397.532 337.625 396.849 337.649 396.335 337.625V335.86Z" fill="white"/>
<path d="M331.201 296.03V290.715C331.201 289.882 331.225 289.048 331.273 288.216H331.201C330.713 289.148 330.321 289.832 329.883 290.566L326.001 295.979V296.03H331.201ZM331.201 302.054V297.719H323.828V296.298L330.908 286.134H333.228V296.03H335.447V297.719H333.228V302.054H331.201Z" fill="white"/>
<path d="M369.114 287.946H363.061L362.45 292.036C362.818 291.987 363.158 291.939 363.744 291.939C364.964 291.939 366.186 292.209 367.162 292.797C368.406 293.508 369.433 294.877 369.433 296.887C369.433 299.999 366.967 302.325 363.523 302.325C361.791 302.325 360.325 301.836 359.569 301.345L360.107 299.705C360.766 300.096 362.06 300.586 363.499 300.586C365.526 300.586 367.26 299.264 367.26 297.133C367.235 295.074 365.867 293.605 362.693 293.605C361.791 293.605 361.083 293.702 360.498 293.775L361.523 286.134H369.114V287.946Z" fill="white"/>
<path d="M403.536 296.839C403.536 294.561 402.244 293.189 400.266 293.189C398.973 293.189 397.776 293.996 397.189 295.148C397.043 295.393 396.946 295.712 396.946 296.104C396.995 298.724 398.189 300.658 400.436 300.658C402.292 300.658 403.536 299.116 403.536 296.839ZM404.148 287.652C403.707 287.628 403.147 287.652 402.536 287.751C399.168 288.313 397.386 290.787 397.019 293.409H397.091C397.849 292.403 399.168 291.571 400.925 291.571C403.731 291.571 405.71 293.605 405.71 296.717C405.71 299.631 403.731 302.325 400.436 302.325C397.043 302.325 394.821 299.681 394.821 295.54C394.821 292.403 395.945 289.931 397.508 288.362C398.825 287.066 400.584 286.256 402.585 286.012C403.22 285.912 403.756 285.888 404.148 285.888V287.652Z" fill="white"/>
<path d="M329.224 254.291H329.175L326.416 255.785L326.001 254.143L329.467 252.281H331.297V268.203H329.224V254.291Z" fill="white"/>
<path d="M359.644 268.203V266.881L361.328 265.239C365.38 261.371 367.21 259.312 367.235 256.912C367.235 255.296 366.454 253.802 364.086 253.802C362.645 253.802 361.45 254.537 360.717 255.147L360.033 253.629C361.131 252.697 362.693 252.013 364.526 252.013C367.943 252.013 369.384 254.364 369.384 256.641C369.384 259.582 367.259 261.957 363.916 265.191L362.645 266.366V266.414H369.773V268.203H359.644Z" fill="white"/>
<path d="M395.603 265.73C396.213 266.122 397.63 266.733 399.119 266.733C401.877 266.733 402.731 264.97 402.707 263.648C402.682 261.419 400.682 260.463 398.606 260.463H397.411V258.846H398.606C400.168 258.846 402.147 258.038 402.147 256.152C402.147 254.879 401.339 253.751 399.363 253.751C398.093 253.751 396.873 254.315 396.189 254.804L395.627 253.237C396.457 252.625 398.068 252.013 399.777 252.013C402.901 252.013 404.318 253.875 404.318 255.809C404.318 257.451 403.342 258.846 401.39 259.556V259.607C403.342 259.999 404.928 261.468 404.928 263.697C404.928 266.244 402.95 268.473 399.144 268.473C397.362 268.473 395.799 267.911 395.019 267.395L395.603 265.73Z" fill="white"/>
<path d="M331.653 369.5C331.653 370.561 330.797 371.419 329.739 371.419C328.684 371.419 327.825 370.561 327.825 369.5C327.825 368.44 328.684 367.579 329.739 367.579C330.797 367.579 331.653 368.44 331.653 369.5Z" fill="white"/>
<path d="M445.947 277.887H435.875V267.78H433.283V277.887H423.212V280.486H433.283V290.593H435.875V280.486H445.947V277.887Z" fill="white"/>
<path d="M406.337 369.47L401.005 364.118L406.337 358.766L404.967 357.393L399.633 362.741L394.299 357.393L392.929 358.766L398.261 364.118L392.929 369.47L394.299 370.846L399.633 365.495L404.967 370.846L406.337 369.47Z" fill="white"/>
<path d="M442.391 330.881H425.522V328.29H442.391V330.881Z" fill="white"/>
<path d="M443.012 360.838H426.144V358.247H443.012V360.838Z" fill="white"/>
<path d="M443.012 367.365H426.144V364.771H443.012V367.365Z" fill="white"/>
<path d="M336.855 33.6058L336.81 33.5902C336.396 33.4398 335.976 33.3067 335.549 33.1848C335.403 33.1433 335.259 33.0983 335.113 33.0585C334.958 33.0188 334.803 32.9833 334.647 32.9462C334.489 32.9081 334.332 32.8709 334.173 32.8355C334.022 32.8018 333.872 32.7733 333.719 32.7447C333.549 32.711 333.38 32.6825 333.208 32.654C333.064 32.6297 332.918 32.6073 332.771 32.5848C332.586 32.5589 332.4 32.5364 332.214 32.5139C332.079 32.4992 331.944 32.4836 331.807 32.4698C331.594 32.4499 331.38 32.4344 331.165 32.4214C331.052 32.4128 330.94 32.4032 330.826 32.3972C330.497 32.3816 330.165 32.373 329.83 32.373H176.76C176.404 32.373 176.05 32.3816 175.698 32.3989C174.994 32.4344 174.3 32.5053 173.616 32.6116C173.275 32.6626 172.936 32.7248 172.601 32.7931C163.866 34.5861 157.142 41.9154 156.226 50.9651C156.155 51.6628 156.12 52.3682 156.12 53.0831V366.984C156.12 375.947 161.795 383.578 169.736 386.462C169.771 386.475 169.807 386.486 169.842 386.497C170.236 386.639 170.636 386.765 171.04 386.883C171.186 386.924 171.332 386.969 171.478 387.006C171.632 387.049 171.788 387.084 171.944 387.121C172.102 387.159 172.26 387.196 172.419 387.232C172.569 387.263 172.721 387.292 172.872 387.323C173.042 387.354 173.212 387.385 173.383 387.413C173.528 387.438 173.674 387.46 173.82 387.482C174.005 387.508 174.191 387.531 174.377 387.553C174.513 387.568 174.649 387.584 174.784 387.598C174.997 387.617 175.211 387.633 175.427 387.646C175.54 387.653 175.651 387.663 175.765 387.668C176.095 387.683 176.426 387.694 176.76 387.694H329.83C330.543 387.694 331.246 387.657 331.942 387.586C341.655 386.596 349.379 378.849 350.366 369.1C350.435 368.405 350.472 367.699 350.472 366.984V53.0831C350.472 44.1199 344.796 36.4889 336.855 33.6058Z" fill="black"/>
<path d="M166.125 359.466H340.466V60.6008H166.125V359.466Z" fill="#F3FCFF"/>
<path d="M290.547 51.2089H216.329C216.223 51.2089 216.137 51.1224 216.137 51.0161V47.654C216.137 47.5485 216.223 47.4621 216.329 47.4621H290.547C290.651 47.4621 290.737 47.5485 290.737 47.654V51.0161C290.737 51.1224 290.651 51.2089 290.547 51.2089Z" fill="white"/>
<path d="M253.196 382.456C248.466 382.456 244.633 378.612 244.633 373.865C244.633 369.12 248.466 365.273 253.196 365.273C257.923 365.273 261.758 369.12 261.758 373.865C261.758 378.612 257.923 382.456 253.196 382.456Z" fill="#EC9988"/>
<path d="M166.125 359.466H340.466V346.926H166.125V359.466Z" fill="#CEEEF3"/>
<path d="M296.919 76.4602H210.697C210.221 71.6605 206.184 67.9094 201.274 67.9094H166.125V60.6008H296.919V76.4602Z" fill="#CEEEF3"/>
<path d="M84.0382 149.61H81.6038C80.1773 146.637 78.208 141.124 77.6314 141.124C77.6115 141.124 77.5942 141.131 77.5786 141.144C76.3433 142.098 79.4027 147.531 78.744 147.874C78.7267 147.883 78.7085 147.888 78.6895 147.888C78.3403 147.888 77.6962 146.435 76.9821 144.984C76.268 143.532 75.4839 142.078 74.8537 142.078C74.8347 142.078 74.8157 142.08 74.7975 142.082C73.5042 142.268 77.257 147.874 76.8948 148.37C76.8792 148.392 76.855 148.403 76.8256 148.403C76.5395 148.403 75.6586 147.441 74.7137 146.476C73.7696 145.513 72.7607 144.55 72.2204 144.55C72.0985 144.55 72.0008 144.601 71.9325 144.71C71.5694 145.289 75.1226 148.921 74.8338 149.61H73.9987C73.5595 149.458 73.008 149.187 72.4582 148.915C71.6317 148.505 70.8087 148.095 70.3747 148.095C70.2372 148.095 70.1387 148.137 70.0911 148.231C69.9079 148.596 70.6894 149.027 71.6619 149.61H49.8634C44.6331 149.61 40.3936 145.355 40.3936 140.108V77.412C40.3936 72.1627 44.6331 67.9093 49.8634 67.9093H117.214C117.745 71.3682 118.368 74.024 118.582 75.498C119.897 84.5122 133.059 126.261 86.3413 148.549C86.4217 148.2 86.3983 147.976 86.2272 147.936C86.1952 147.927 86.1632 147.923 86.1303 147.923C85.7188 147.923 85.2909 148.529 84.8561 149.242C84.5837 149.366 84.314 149.488 84.0382 149.61Z" fill="#F4FAFD"/>
<path d="M156.12 149.61H85.9664C86.1445 149.193 86.2768 148.83 86.3416 148.549C133.06 126.261 119.897 84.5122 118.583 75.498C118.368 74.024 117.745 71.3682 117.214 67.9093H156.12V149.61ZM84.6351 149.61H84.0386C84.3144 149.488 84.5841 149.366 84.8564 149.242C84.7829 149.361 84.7086 149.485 84.6351 149.61Z" fill="#EAF4FC"/>
<path d="M85.9662 149.61H84.6349C84.7084 149.485 84.7827 149.362 84.8562 149.242C85.291 148.529 85.719 147.923 86.1305 147.923C86.1633 147.923 86.1953 147.927 86.2273 147.936C86.3985 147.976 86.4218 148.2 86.3414 148.549C86.2766 148.83 86.1443 149.193 85.9662 149.61ZM81.6039 149.61H74.834C75.1227 148.921 71.5696 145.289 71.9327 144.71C72.001 144.601 72.0987 144.55 72.2206 144.55C72.7609 144.55 73.7698 145.513 74.7138 146.476C75.6587 147.441 76.5396 148.403 76.8258 148.403C76.8552 148.403 76.8794 148.393 76.8949 148.37C77.2572 147.874 73.5043 142.268 74.7976 142.083C74.8158 142.08 74.8348 142.078 74.8538 142.078C75.4841 142.078 76.2682 143.532 76.9823 144.984C77.6963 146.435 78.3404 147.888 78.6897 147.888C78.7087 147.888 78.7268 147.883 78.7441 147.874C79.4029 147.532 76.3434 142.098 77.5788 141.145C77.5943 141.131 77.6116 141.124 77.6315 141.124C78.2081 141.124 80.1775 146.637 81.6039 149.61ZM73.9988 149.61H71.6621C70.6895 149.027 69.908 148.596 70.0913 148.231C70.1388 148.138 70.2374 148.095 70.3748 148.095C70.8088 148.095 71.6318 148.505 72.4583 148.915C73.0081 149.187 73.5597 149.458 73.9988 149.61Z" fill="#EC998C"/>
<path d="M156.12 149.61H166.125V67.9093H156.12V149.61Z" fill="#E97257"/>
<path d="M183.412 168.461C182.64 168.461 173.893 156.364 169.068 149.61H166.125V67.9093V76.4601H210.697C210.728 76.7722 210.744 77.0912 210.744 77.412V140.108C210.744 145.355 206.503 149.61 201.274 149.61H181.763C182.743 157.034 184.135 168.461 183.412 168.461Z" fill="#E8F7FD"/>
<path d="M210.697 76.4601H166.125V67.9093H201.274C206.184 67.9093 210.221 71.6604 210.697 76.4601Z" fill="#C5E9F1"/>
<path d="M195.022 51.6472H43.6129C38.3826 51.6472 34.1431 55.9006 34.1431 61.1482V123.844C34.1431 129.092 38.3826 133.348 43.6129 133.348H162.817C167.642 140.102 176.389 152.199 177.161 152.199C177.884 152.199 176.492 140.772 175.511 133.348H195.022C200.254 133.348 204.492 129.092 204.492 123.844V61.1482C204.492 55.9006 200.254 51.6472 195.022 51.6472Z" fill="#9BC1F9"/>
<path d="M124.239 76.1127H50.0126C49.8959 76.1127 49.8008 76.0202 49.8008 75.9009V72.187C49.8008 72.0694 49.8959 71.9743 50.0126 71.9743H124.239C124.357 71.9743 124.452 72.0694 124.452 72.187V75.9009C124.452 76.0202 124.357 76.1127 124.239 76.1127Z" fill="white"/>
<path d="M81.7469 87.0374H50.0126C49.8959 87.0374 49.8008 86.9423 49.8008 86.8247V83.1091C49.8008 82.9915 49.8959 82.8964 50.0126 82.8964H81.7469C81.8645 82.8964 81.9596 82.9915 81.9596 83.1091V86.8247C81.9596 86.9423 81.8645 87.0374 81.7469 87.0374Z" fill="white"/>
<path d="M185.458 87.0374H85.7971C85.6796 87.0374 85.5845 86.9423 85.5845 86.8247V83.1091C85.5845 82.9915 85.6796 82.8964 85.7971 82.8964H185.458C185.575 82.8964 185.67 82.9915 185.67 83.1091V86.8247C185.67 86.9423 185.575 87.0374 185.458 87.0374Z" fill="white"/>
<path d="M185.76 76.1127H132.294C132.176 76.1127 132.081 76.0202 132.081 75.9009V72.187C132.081 72.0694 132.176 71.9743 132.294 71.9743H185.76C185.878 71.9743 185.973 72.0694 185.973 72.187V75.9009C185.973 76.0202 185.878 76.1127 185.76 76.1127Z" fill="white"/>
<path d="M185.76 108.445H50.0126C49.8959 108.445 49.8008 108.352 49.8008 108.234V104.519C49.8008 104.401 49.8959 104.306 50.0126 104.306H185.76C185.878 104.306 185.973 104.401 185.973 104.519V108.234C185.973 108.352 185.878 108.445 185.76 108.445Z" fill="white"/>
<path d="M119.935 97.959H50.0126C49.8959 97.959 49.8008 97.8639 49.8008 97.7463V94.0332C49.8008 93.9157 49.8959 93.8206 50.0126 93.8206H119.935C120.052 93.8206 120.148 93.9157 120.148 94.0332V97.7463C120.148 97.8639 120.052 97.959 119.935 97.959Z" fill="white"/>
<path d="M185.76 97.959H124.444C124.326 97.959 124.231 97.8639 124.231 97.7463V94.0332C124.231 93.9157 124.326 93.8206 124.444 93.8206H185.76C185.877 93.8206 185.972 93.9157 185.972 94.0332V97.7463C185.972 97.8639 185.877 97.959 185.76 97.959Z" fill="white"/>
<path d="M319.24 33.7716H365.4C365.504 33.7716 365.59 33.6869 365.59 33.5831V30.2634C365.59 30.1597 365.504 30.075 365.4 30.075H319.24C319.134 30.075 319.05 30.1597 319.05 30.2634V33.5831C319.05 33.6869 319.134 33.7716 319.24 33.7716Z" fill="white"/>
<path d="M395.078 85.2844C385.511 85.2844 380.991 81.1503 385.263 69.0048C390.331 54.5969 382.259 41.6743 365.59 31.0495V30.2636C365.59 30.1599 365.504 30.0752 365.4 30.0752H364.024C357.814 26.2886 350.501 22.8073 342.299 19.6674H440.647C445.321 19.6674 449.108 23.4695 449.108 28.1568V73.0239C445.494 73.955 441.888 74.9267 438.338 75.901C421.2 80.5927 405.274 85.2844 395.078 85.2844Z" fill="#F4FAFD"/>
<path d="M440.646 92.656H350.472V53.0832C350.472 44.2885 345.008 36.7768 337.3 33.7718H365.4C365.504 33.7718 365.59 33.6871 365.59 33.5833V31.0495C382.259 41.6743 390.331 54.5969 385.263 69.0048C380.991 81.1503 385.511 85.2844 395.078 85.2844C405.274 85.2844 421.2 80.5927 438.338 75.901C441.888 74.9267 445.494 73.955 449.107 73.0239V84.1692C449.107 88.8565 445.321 92.656 440.646 92.656ZM319.05 32.373H296.918V28.1568C296.918 23.4695 300.708 19.6674 305.379 19.6674H342.299C350.501 22.8073 357.814 26.2886 364.023 30.0752H319.24C319.134 30.0752 319.05 30.1599 319.05 30.2636V32.373Z" fill="#EAF4FC"/>
<path d="M350.472 92.656H340.466V60.6009H296.918V32.373H319.05V33.5833C319.05 33.687 319.134 33.7718 319.24 33.7718H337.3C345.008 36.7768 350.472 44.2885 350.472 53.0831V92.656Z" fill="#E97257"/>
<path d="M321.336 109.498C320.69 109.498 321.934 99.291 322.81 92.6559H305.379C300.708 92.6559 296.918 88.8564 296.918 84.169V76.4602H340.466V92.6559H334.153C329.842 98.6919 322.026 109.498 321.336 109.498Z" fill="#E8F7FD"/>
<path d="M296.918 76.4602H340.466V60.5999H296.918V76.4602Z" fill="#C5E9F1"/>
<path d="M365.4 33.7716H319.24C319.134 33.7716 319.05 33.6869 319.05 33.5831V30.2634C319.05 30.1597 319.134 30.075 319.24 30.075H365.4C365.504 30.075 365.59 30.1597 365.59 30.2634V33.5831C365.59 33.6869 365.504 33.7716 365.4 33.7716Z" fill="#F4FAFD"/>
<path d="M310.966 5.13763H446.233C450.905 5.13763 454.694 8.93974 454.694 13.6271V69.6394C454.694 74.3277 450.905 78.1272 446.233 78.1272H339.737C335.427 84.1623 327.613 94.9695 326.922 94.9695C326.276 94.9695 327.519 84.7623 328.396 78.1272H310.966C306.291 78.1272 302.505 74.3277 302.505 69.6394V13.6271C302.505 8.93974 306.291 5.13763 310.966 5.13763Z" fill="#9BC1F9"/>
<path d="M396.167 26.9966H437.141C437.246 26.9966 437.331 26.9127 437.331 26.8064V23.4893C437.331 23.3847 437.246 23.2991 437.141 23.2991H396.167C396.063 23.2991 395.977 23.3847 395.977 23.4893V26.8064C395.977 26.9127 396.063 26.9966 396.167 26.9966Z" fill="white"/>
<path d="M409.587 39.0765H437.141C437.245 39.0765 437.331 38.9901 437.331 38.8863V35.5666C437.331 35.462 437.245 35.3782 437.141 35.3782H409.587C409.481 35.3782 409.397 35.462 409.397 35.5666V38.8863C409.397 38.9901 409.481 39.0765 409.587 39.0765Z" fill="white"/>
<path d="M371.837 39.0765H405.833C405.938 39.0765 406.024 38.9901 406.024 38.8863V35.5666C406.024 35.462 405.938 35.3782 405.833 35.3782H371.837C371.733 35.3782 371.647 35.462 371.647 35.5666V38.8863C371.647 38.9901 371.733 39.0765 371.837 39.0765Z" fill="white"/>
<path d="M319.442 39.0765H367.104C367.21 39.0765 367.295 38.9901 367.295 38.8863V35.5666C367.295 35.462 367.21 35.3782 367.104 35.3782H319.442C319.338 35.3782 319.251 35.462 319.251 35.5666V38.8863C319.251 38.9901 319.338 39.0765 319.442 39.0765Z" fill="white"/>
<path d="M319.24 26.9966H388.219C388.325 26.9966 388.41 26.9127 388.41 26.8064V23.4893C388.41 23.3829 388.325 23.2991 388.219 23.2991H319.24C319.134 23.2991 319.05 23.3829 319.05 23.4893V26.8064C319.05 26.9127 319.134 26.9966 319.24 26.9966Z" fill="white"/>
<path d="M319.24 62.7328H437.141C437.245 62.7328 437.331 62.6463 437.331 62.5426V59.2246C437.331 59.1183 437.245 59.0344 437.141 59.0344H319.24C319.134 59.0344 319.05 59.1183 319.05 59.2246V62.5426C319.05 62.6463 319.134 62.7328 319.24 62.7328Z" fill="white"/>
<path d="M376.417 51.0428H437.141C437.245 51.0428 437.331 50.959 437.331 50.8527V47.5347C437.331 47.4309 437.245 47.3445 437.141 47.3445H376.417C376.313 47.3445 376.227 47.4309 376.227 47.5347V50.8527C376.227 50.959 376.313 51.0428 376.417 51.0428Z" fill="white"/>
<path d="M319.24 51.0428H373.006C373.11 51.0428 373.197 50.959 373.197 50.8527V47.5347C373.197 47.4283 373.11 47.3445 373.006 47.3445H319.24C319.134 47.3445 319.05 47.4283 319.05 47.5347V50.8527C319.05 50.959 319.134 51.0428 319.24 51.0428Z" fill="white"/>
<path d="M209.739 173.903C209.739 173.903 175.948 178.781 181.112 211.394C185.925 241.797 214.904 235.623 222.344 234.098C229.788 232.576 209.739 173.903 209.739 173.903Z" fill="#F7CC7F"/>
<path d="M222.344 234.098C225.81 233.39 223.316 220.29 219.66 206.492C207.22 208.931 193.362 211.653 181.597 213.974C187.608 241.44 215.121 235.579 222.344 234.098Z" fill="#E8BA70"/>
<path d="M229.179 239.737C229.179 239.737 236.602 266.237 234.647 286.826C232.824 306.028 235.559 309.227 242.697 308.619C249.834 308.008 267.148 303.741 267.453 296.885C267.756 290.027 264.567 254.824 252.569 235.928C240.57 217.03 229.179 239.737 229.179 239.737Z" fill="#96D9C9"/>
<path d="M240.713 228.685C235.955 231.883 229.179 239.737 229.179 239.737C229.179 239.737 236.602 266.237 234.647 286.826C232.824 306.028 235.559 309.227 242.697 308.619C245.315 308.396 249.301 307.678 253.315 306.526C256.164 259.332 243.989 234.025 240.713 228.685Z" fill="#50BFA5"/>
<path d="M312.103 109.671C312.103 109.671 256.062 150.473 237.949 162.818L227.357 178.591L234.875 224.538L252.986 233.452L341.491 250.938L339.442 240.994L323.381 196.419L315.179 145.675L312.786 114.471L312.103 109.671Z" fill="#96D9C9"/>
<path d="M323.381 196.42L321.23 183.116L231.666 204.927L234.875 224.538L252.986 233.452L341.491 250.938L339.442 240.994L323.381 196.42Z" fill="#50BFA5"/>
<path d="M237.95 162.818C237.95 162.818 230.547 201.791 252.986 233.452C252.986 233.452 254.239 236.385 251.505 238.215L234.8 242.481C234.8 242.481 227.054 245.223 220.524 234.098C213.992 222.975 202.449 197.981 209.285 170.399C209.285 170.399 210.954 162.933 220.067 161.561L232.218 159.274C232.218 159.274 237.609 158.435 237.95 162.818Z" fill="#3C8F7C"/>
<path d="M312.103 109.671C312.103 109.671 326.684 98.9263 335.113 99.1562C343.543 99.3845 351.97 110.585 357.439 119.727C362.906 128.872 377.258 164.76 378.626 188.99C379.991 213.222 379.765 247.737 367.919 251.852C356.072 255.968 341.492 250.938 341.492 250.938C341.492 250.938 322.354 234.481 311.193 183.275C300.031 132.072 312.103 109.671 312.103 109.671Z" fill="#256653"/>
<path d="M359.526 253.225C359.526 253.225 373.155 235.51 366.21 187.68C355.274 112.374 327.71 100.985 327.71 100.985C327.71 100.985 307.307 116.532 326.798 189.306C342.859 249.274 359.526 253.225 359.526 253.225Z" fill="#3C8F7C"/>
<path d="M320.274 158.684C321.597 167.549 323.689 177.696 326.798 189.306C328.354 195.116 329.917 200.396 331.468 205.201C339.942 202.257 353.65 194.879 347.796 176.162C342.372 158.82 328.252 157.76 320.274 158.684Z" fill="#F7CC7F"/>
<path d="M326.798 189.306C328.354 195.116 329.917 200.396 331.468 205.201C339.825 202.297 353.27 195.08 348.026 176.931L324.99 182.258C325.552 184.546 326.152 186.894 326.798 189.306Z" fill="#E8BA70"/>
<path d="M232.455 242.78H232.587V242.778H232.455V242.78Z" fill="#3EA68B"/>
<path d="M232.589 242.78C233.954 242.78 234.8 242.481 234.8 242.481L245.695 239.698L234.8 242.481C234.8 242.481 233.954 242.78 232.589 242.78Z" fill="#3EA68B"/>
<path d="M220.683 234.368C220.629 234.28 220.576 234.189 220.524 234.098C220.395 233.881 220.267 233.66 220.136 233.432C220.267 233.66 220.395 233.881 220.524 234.098C220.576 234.189 220.629 234.28 220.683 234.368Z" fill="#B3A15E"/>
<path d="M252.986 233.452C252.975 233.434 252.961 233.414 252.948 233.397C252.961 233.417 252.972 233.433 252.986 233.452Z" fill="#3EA68B"/>
<path d="M220.126 233.417C220.122 233.411 220.121 233.405 220.117 233.399C220.121 233.405 220.125 233.411 220.126 233.417Z" fill="#B3A15E"/>
<path d="M252.936 233.382C252.93 233.371 252.919 233.354 252.911 233.343C252.919 233.356 252.928 233.37 252.936 233.382Z" fill="#3EA68B"/>
<path d="M220.099 233.368L220.095 233.366C220.099 233.368 220.095 233.366 220.099 233.368Z" fill="#B3A15E"/>
<path d="M252.896 233.325C252.888 233.314 252.879 233.299 252.871 233.288C252.879 233.301 252.888 233.312 252.896 233.325Z" fill="#3EA68B"/>
<path d="M252.86 233.273C252.849 233.255 252.836 233.237 252.822 233.22C252.836 233.237 252.846 233.255 252.86 233.273ZM252.82 233.217C252.809 233.2 252.798 233.182 252.785 233.164C252.795 233.182 252.809 233.2 252.82 233.217ZM252.774 233.151C252.765 233.135 252.755 233.125 252.747 233.111C252.755 233.125 252.765 233.138 252.774 233.151ZM252.736 233.095C252.725 233.08 252.716 233.069 252.707 233.054C252.716 233.067 252.725 233.08 252.736 233.095ZM252.696 233.04C252.672 233.003 252.647 232.967 252.621 232.932C252.647 232.967 252.672 233.003 252.696 233.04ZM252.612 232.919C252.603 232.905 252.592 232.89 252.583 232.877C252.592 232.89 252.603 232.905 252.612 232.919ZM252.574 232.864C252.564 232.848 252.552 232.832 252.541 232.817C252.552 232.832 252.564 232.848 252.574 232.864ZM252.537 232.808C252.51 232.773 252.484 232.735 252.459 232.698C252.484 232.735 252.51 232.773 252.537 232.808ZM252.453 232.686C252.442 232.673 252.429 232.655 252.419 232.642C252.43 232.658 252.442 232.673 252.453 232.686ZM252.413 232.631C252.402 232.615 252.391 232.597 252.379 232.582C252.391 232.6 252.402 232.615 252.413 232.631ZM252.375 232.576C252.348 232.538 252.322 232.501 252.297 232.462C252.322 232.501 252.348 232.538 252.375 232.576ZM252.293 232.458C252.283 232.441 252.269 232.423 252.257 232.405C252.269 232.423 252.283 232.441 252.293 232.458ZM252.253 232.401C252.216 232.343 252.176 232.284 252.136 232.228C252.176 232.285 252.216 232.343 252.253 232.401ZM252.134 232.226C252.123 232.208 252.11 232.186 252.097 232.169C252.11 232.188 252.121 232.206 252.134 232.226Z" fill="#3EA68B"/>
<path d="M239.547 203.008C239.543 202.991 239.541 202.972 239.537 202.955C239.541 202.972 239.546 202.991 239.547 203.008Z" fill="#73BCAA"/>
<path d="M252.097 232.169C245.616 222.634 241.767 212.5 239.547 203.008C241.767 212.5 245.616 222.634 252.097 232.169Z" fill="#3EA68B"/>
<path d="M232.587 242.78C232.543 242.78 232.499 242.78 232.455 242.778C229.693 242.738 224.945 241.461 220.683 234.368C220.629 234.28 220.576 234.189 220.524 234.098C220.395 233.881 220.267 233.66 220.136 233.432C220.131 233.427 220.13 233.423 220.127 233.419C220.125 233.412 220.121 233.406 220.117 233.399C220.11 233.388 220.103 233.379 220.098 233.368C220.096 233.366 220.098 233.368 220.096 233.366C220.083 233.343 220.072 233.322 220.059 233.297C216.854 227.716 212.645 219.067 209.929 208.563L239.537 202.955C239.541 202.972 239.543 202.991 239.547 203.008C241.767 212.5 245.616 222.634 252.096 232.169C252.109 232.186 252.122 232.208 252.134 232.226C252.136 232.226 252.136 232.226 252.136 232.228C252.176 232.284 252.216 232.343 252.253 232.401C252.255 232.401 252.255 232.403 252.257 232.405C252.268 232.423 252.282 232.441 252.293 232.458C252.295 232.458 252.295 232.461 252.297 232.463C252.322 232.501 252.348 232.538 252.375 232.576C252.375 232.578 252.377 232.58 252.379 232.582C252.39 232.597 252.402 232.616 252.413 232.631C252.415 232.635 252.417 232.637 252.419 232.642C252.428 232.655 252.441 232.673 252.453 232.686C252.454 232.691 252.457 232.695 252.459 232.698C252.484 232.735 252.51 232.773 252.536 232.808C252.536 232.81 252.539 232.814 252.541 232.817C252.552 232.833 252.563 232.848 252.574 232.864C252.576 232.868 252.579 232.872 252.583 232.877C252.592 232.89 252.603 232.905 252.612 232.919C252.616 232.923 252.619 232.928 252.62 232.932C252.647 232.967 252.671 233.003 252.696 233.04C252.7 233.045 252.702 233.05 252.707 233.054C252.715 233.069 252.725 233.08 252.735 233.095C252.738 233.101 252.742 233.105 252.747 233.111C252.755 233.125 252.765 233.135 252.773 233.151C252.778 233.156 252.78 233.16 252.785 233.165C252.798 233.182 252.809 233.2 252.82 233.217C252.822 233.217 252.822 233.217 252.822 233.22C252.836 233.237 252.849 233.255 252.86 233.273C252.864 233.277 252.868 233.284 252.871 233.288C252.88 233.299 252.888 233.315 252.897 233.326C252.901 233.332 252.906 233.339 252.911 233.343C252.919 233.355 252.931 233.372 252.937 233.383C252.941 233.388 252.944 233.392 252.948 233.397C252.961 233.414 252.975 233.434 252.986 233.452C252.986 233.452 253.273 234.122 253.273 235.023C253.273 236.006 252.931 237.261 251.505 238.215L245.696 239.698L234.8 242.481C234.8 242.481 233.955 242.78 232.59 242.78H232.587Z" fill="#2E7C69"/>
<path d="M538.593 76.9255L538.457 91.6049L547.759 82.8483L577.079 62.9343L553.148 68.1525C553.148 68.1525 541.189 72.6851 540.595 73.3733C540.002 74.0614 538.593 76.9255 538.593 76.9255Z" fill="#DD513A"/>
<path d="M526.8 69.5314L577.078 62.9343L538.592 76.9255L526.8 69.5314Z" fill="#F47458"/>
<path d="M556.554 89.454L542.062 80.4579L577.079 62.9343L556.554 89.454Z" fill="#F47458"/>
<path d="M513.111 94.8363C514.559 92.6388 516.324 90.6668 518.361 88.9741L519.122 89.8966C517.177 91.5149 515.488 93.3978 514.107 95.4986L513.111 94.8363ZM499.253 101.069C500.518 100.502 502.829 99.5194 504.082 99.305C505.053 99.1364 505.949 99.0145 506.819 98.935L506.928 100.128C506.091 100.206 505.226 100.323 504.283 100.484C503.462 100.626 501.804 101.239 499.737 102.162L499.253 101.069ZM514.472 100.819L514.313 100.765L514.685 99.6275L514.857 99.6854C517.449 100.571 519.709 102.294 521.058 104.415L520.054 105.061C518.845 103.164 516.812 101.619 514.472 100.819ZM509.524 107.58C509.382 106.44 509.382 105.247 509.526 104.034C509.604 103.384 509.725 102.715 509.885 102.047L511.046 102.328C510.896 102.95 510.785 103.571 510.712 104.178C510.58 105.292 510.577 106.387 510.71 107.431C510.803 108.171 510.973 108.908 511.214 109.622L510.086 110.009C509.816 109.22 509.628 108.4 509.524 107.58ZM486.81 110.375C488.532 108.494 490.422 106.679 492.429 104.974L493.2 105.889C491.232 107.56 489.378 109.341 487.691 111.187L486.81 110.375ZM515.397 116.271C515.322 116.236 515.249 116.2 515.176 116.162L515.711 115.093C515.776 115.125 515.84 115.157 515.895 115.182C515.895 115.182 515.931 115.196 516.019 115.206C516.681 115.285 518.378 115.074 519.259 114.387C520.001 113.81 520.556 112.995 520.908 111.968L522.037 112.36C521.614 113.593 520.906 114.621 519.991 115.332C518.77 116.287 516.71 116.494 515.877 116.395C515.681 116.37 515.524 116.331 515.397 116.271ZM478.11 123.295C479.149 120.998 480.443 118.707 481.957 116.485L482.941 117.162C481.467 119.327 480.209 121.558 479.197 123.791L478.11 123.295ZM474.833 137.517C474.843 136.348 474.919 135.162 475.06 133.986C475.189 132.905 475.375 131.807 475.614 130.727L476.78 130.986C476.55 132.028 476.371 133.086 476.247 134.128C476.112 135.259 476.036 136.404 476.028 137.53C476.023 137.859 476.025 138.19 476.032 138.519L474.839 138.546C474.833 138.198 474.83 137.851 474.833 137.517Z" fill="#6DB1B5"/>
<path d="M525.548 86.0105C526.752 85.5125 527.98 85.1183 529.202 84.84L528.936 83.6711C527.65 83.9633 526.358 84.3792 525.092 84.9013L525.548 86.0105Z" fill="#6DB1B5"/>
<path d="M401.272 230.625L400.662 231.174C400.347 231.455 399.874 231.445 399.607 231.148L388.758 219.182C388.487 218.883 388.523 218.413 388.839 218.132L389.45 217.582C389.764 217.301 390.238 217.311 390.506 217.608L401.355 229.577C401.624 229.873 401.587 230.343 401.272 230.625Z" fill="#13375B"/>
<path d="M438.055 220.903C436.603 219.72 425.391 224.657 425.533 226.376C425.675 228.094 417.708 244.757 417.708 244.757L403.939 233.742L403.935 233.744C403.813 233.346 402.508 229.063 402.444 228.296C402.377 227.492 400.051 226.084 398.971 226.293C397.889 226.501 399.894 227.859 400.027 228.11C400.385 228.789 399 229.043 399 229.043C399 229.043 395.02 226.853 394.936 225.565C394.853 224.277 394.031 221.577 393.17 222.14C392.728 222.433 392.732 224.349 392.869 225.257C392.615 224.226 392.252 223.061 391.9 222.944C391.256 222.733 390.937 223.555 391.055 223.96C391.171 224.363 392.21 228.743 392.526 229.236C392.834 229.719 399.259 234.911 400.184 236.039C400.184 236.039 417.993 256.467 419.261 257C420.372 257.469 424.34 250.429 428.087 245.757C431.836 241.083 442.586 224.6 438.055 220.903Z" fill="#F7A491"/>
<path d="M473.988 371.104C473.988 371.104 476.432 373.502 476.49 374.38C476.546 375.261 476.705 384.68 475.707 385.559C474.709 386.44 471.774 387.062 472.717 388.051C473.43 388.799 478.916 388.639 482.552 388.438C483.612 388.381 484.943 379.884 485.363 378.634C485.974 376.821 487.458 372.736 486.903 371.472C486.634 370.857 485.339 369.591 483.517 368.409C481.599 367.166 479.763 364.399 479.763 364.399L473.988 371.104Z" fill="#F48C7F"/>
<path d="M448.638 376.684L450.829 382.907C450.993 383.892 451.635 386.322 451.635 387.216C451.635 390.574 436.539 384.363 439.921 382.876C440.228 382.741 441.188 381.666 441.289 380.521C441.443 378.76 440.018 376.552 440.018 376.552L448.638 376.684Z" fill="#F7A491"/>
<path d="M424.956 261.094C424.956 261.094 423.856 272.222 423.856 272.388C423.856 290.39 420.299 325.552 420.976 328.936C422.625 337.191 440.384 379.3 440.384 379.3L449.98 378.149L437.473 327.732L442.076 307.44L448.59 267.324L424.956 261.094Z" fill="#355389"/>
<path d="M457.165 270.936L458.987 281.484L463.915 324.891L482.679 367.316C482.679 367.316 480.04 373.489 476.146 374.356L446.281 330.799L427.73 275.064L428.381 262.681L457.165 270.936Z" fill="#13375B"/>
<path d="M421.129 234.596L434.436 235.959C434.436 235.959 435.047 225.013 435.047 219.791C435.047 213.456 434.509 205.295 433.746 205.471C431.606 205.963 428.724 207.149 427.009 209.515C421.071 217.701 421.129 234.596 421.129 234.596Z" fill="#86B1F2"/>
<path d="M427.666 218.673C427.387 220.605 422.271 273.12 422.271 273.12C446.502 284.863 459.874 275.211 459.874 275.211C459.874 275.211 459.082 238.334 460.031 233.315C460.659 229.995 461.445 207.928 459.301 207.31C456.548 206.518 453.392 205.675 449.953 205.316C447.016 205.011 435.611 204.834 433.571 205.522C433.571 205.522 428.837 210.551 427.666 218.673Z" fill="#9BC1F9"/>
<path d="M483.398 368.349C483.398 368.349 477.759 384.284 475.55 385.052C474.964 385.258 472.151 385.776 471.619 387.024C471.46 387.4 471.619 388.655 471.619 388.655H483.375C483.375 388.655 484.863 381.635 485.451 378.55C485.451 378.55 488.563 371.012 488.218 370.328C487.871 369.642 483.398 368.349 483.398 368.349Z" fill="#184655"/>
<path d="M452.494 388.323L450.763 382.845C450.763 382.845 447.134 384.386 445.318 384.129C443.504 383.872 439.958 382.845 439.958 382.845C432.713 385.238 426.777 386.398 427.857 388.323H452.494Z" fill="#184655"/>
<path d="M419.261 257C419.206 256.977 419.009 256.823 418.897 256.728C419.325 251.582 419.248 246.598 417.64 244.912C417.677 244.832 418.029 244.082 418.396 243.303C420.262 244.75 421.147 248.597 420.799 254.838C420.778 255.267 420.653 255.594 420.554 256.13C420.014 256.726 419.523 257.111 419.261 257Z" fill="#F7A491"/>
<path d="M483.873 273.676C483.889 273.563 483.891 273.45 483.88 273.337C483.524 269.701 480.514 239.162 480.007 237.865C479.549 236.692 466.053 217.322 466.053 217.322L459.418 226.392L472.399 243.765C472.691 244.867 477.373 265.482 477.373 265.482C477.373 265.482 478.334 269.24 478.763 271.492C478.566 272.034 478.374 272.547 478.203 272.967C477.774 273.864 477.267 274.601 476.805 275.223C476.225 276.002 475.266 277.706 475.147 278.164C475.009 278.693 474.762 279.795 474.622 280.462C474.481 281.126 474.29 281.9 474.257 282.261C474.237 282.482 474.012 282.92 473.839 283.23C473.58 283.691 474.02 284.234 474.523 284.067C474.994 283.909 475.359 283.298 475.588 282.916C476.225 281.838 476.565 279.873 476.725 279.977C476.884 280.081 477.444 283.418 477.533 283.794C477.621 284.173 478.292 288.048 478.671 288.756C479.048 289.465 479.551 289.345 479.684 288.902C479.799 288.519 479.265 283.097 479.265 283.097C479.265 283.097 479.199 282.407 479.5 282.621C479.803 282.838 480.297 287.76 480.507 288.479C480.718 289.201 481.196 289.581 481.6 289.004C482.097 288.3 481.246 283.08 481.246 283.08C481.246 283.08 481.151 282.422 481.43 282.484C481.709 282.544 482.059 286.74 482.277 287.103C482.494 287.466 483.043 287.597 483.304 286.991C483.612 286.277 482.816 281.624 482.816 281.624C482.816 281.624 482.853 281.254 483.028 281.377C483.203 281.499 483.756 285.054 484.117 285.383C484.418 285.66 484.67 285.392 484.67 285.392C485.332 284.938 484.318 281.557 484.33 279.877C484.338 278.195 483.561 276.305 483.794 274.305C483.807 274.179 483.849 273.871 483.873 273.676Z" fill="#F8A492"/>
<path d="M476.597 229.59L465.069 237.358C465.069 237.358 458.571 227.656 455.083 224.201C450.712 219.874 456.674 206.618 459.489 207.368C465.785 209.046 476.597 229.59 476.597 229.59Z" fill="#9BC1F9"/>
<path d="M449.105 193.963L450.829 205.367C450.829 205.367 444.533 218.947 440.772 217.769C437.619 216.78 439.56 204.765 439.56 204.765C439.56 204.765 441.277 198.314 440.761 195.085C440.248 191.856 449.105 193.963 449.105 193.963Z" fill="#F7A491"/>
<path d="M440.761 195.085C440.248 191.856 449.105 193.963 449.105 193.963L449.249 194.91C448.99 195.543 448.671 196.083 448.288 196.499C446.31 198.635 443.216 199.918 440.542 200.016C440.81 198.274 440.974 196.408 440.761 195.085Z" fill="#F47458"/>
<path d="M450.559 177.829C450.809 177.738 452.566 190.818 449.232 194.416C445.898 198.015 439.405 199.194 437.074 196.36C434.499 193.223 434.629 179.166 439.81 175.463C444.993 171.761 450.559 177.829 450.559 177.829Z" fill="#F7A491"/>
<path d="M441.784 168.466C445.79 169.286 448.384 171.743 449.337 172.79C451.157 173.004 453.629 174.014 456.181 178.254C459.319 183.468 457.002 189.247 453.348 192.081C449.694 194.917 449.745 198.19 449.745 198.19L449.167 196.497C448.74 195.213 448.568 193.852 448.709 192.507C448.795 191.699 448.968 190.827 449.3 190.11C450.179 188.215 447.412 186.958 446.638 185.382C446.04 184.169 446.012 181.397 445.069 179.391L443.946 177.86C443.946 177.86 441.353 175.837 438.816 176.409C436.28 176.979 436.643 167.414 441.784 168.466Z" fill="#184655"/>
<path d="M446.808 187.71C446.782 189.306 447.503 190.612 448.422 190.63C449.34 190.645 450.106 189.364 450.132 187.768C450.159 186.172 449.438 184.864 448.519 184.849C447.601 184.833 446.835 186.115 446.808 187.71Z" fill="#F7A491"/>
<path d="M441.395 191.397L436.371 191.136C436.371 191.136 436.386 193.057 438.593 193.237C441.284 193.454 441.395 191.397 441.395 191.397Z" fill="white"/>
<path d="M215.74 387.84L218.197 387.374L207.581 330.868L205.124 331.335L215.74 387.84Z" fill="#0E2E35"/>
<path d="M188.359 388.097H185.403L196.418 330.868L198.874 331.335L188.359 388.097Z" fill="#0E2E35"/>
<path d="M161.179 388.097L163.579 388.126L153.019 331.124L150.562 331.591L161.179 388.097Z" fill="#0E2E35"/>
<path d="M171.899 253.795C162.17 254.839 149.578 255.944 136.937 277.467C123.122 300.99 130.395 336.131 141.299 345.894C152.203 355.659 187.816 367.716 217.752 349.666C217.752 349.666 235.83 338.729 226.552 320.575C212.277 292.638 214.293 286.811 207.911 275.862C201.528 264.914 192.552 251.575 171.899 253.795Z" fill="#FAE0B2"/>
<path d="M136.937 277.467C145.565 262.776 154.169 257.6 161.857 255.459C158.884 258.549 155.869 262.52 152.851 267.658C139.036 291.181 146.308 326.322 157.212 336.087C166.883 344.746 195.984 355.203 223.327 344.873C220.517 347.995 217.752 349.666 217.752 349.666C187.816 367.716 152.203 355.659 141.299 345.894C130.395 336.131 123.122 300.99 136.937 277.467Z" fill="#F7CC7F"/>
<path d="M203.137 289.55L205.638 297.078L198.016 294.07L203.137 289.55Z" fill="#F79C8D"/>
<path d="M195.278 267.149C195.787 267.169 197.179 267.636 199.215 271.483C201.816 276.396 205.615 291.239 205.615 291.239L194.273 295.464L192.815 292.366L190.416 268.515C190.416 268.515 195.138 267.142 195.278 267.149Z" fill="#DD513A"/>
<path d="M180.286 265.009C183.529 265.014 191.554 265.959 195.279 267.149C195.279 267.149 198.016 290.668 192.815 308.539C191.651 312.541 193.778 325.125 193.778 325.125L160.168 324.68C160.168 324.68 164.15 294.26 162.65 289.347C161.15 284.432 161.114 267.308 161.114 267.308C161.114 267.308 161.344 267.271 168.666 266.007C172.081 265.417 176.822 265.004 180.286 265.009Z" fill="#F47458"/>
<path d="M176.369 368.776C176.369 368.776 177.112 377.357 178.479 379.734C179.847 382.111 178.407 386.152 178.335 386.705C178.264 387.26 175.457 388.053 170.996 387.578C166.535 387.101 166.607 386.073 166.966 384.408C167.327 382.743 169.701 380.606 169.844 379.022C169.989 377.437 168.477 371.733 168.477 371.733L176.369 368.776Z" fill="#F7A491"/>
<path d="M189.987 318.04C189.987 318.04 213.187 316.752 218.368 319.89C223.549 323.027 217.431 329.471 217.431 329.471C217.431 329.471 198.543 337.682 166.922 339.508C159.433 339.94 158.787 319.983 160.188 318.332C161.588 316.679 189.987 318.04 189.987 318.04Z" fill="#256653"/>
<path d="M170.44 388.243C165.846 387.754 166.414 385.497 166.784 383.784C167.017 382.71 168.334 381.447 169.12 380.252C169.531 380.577 170.198 381.154 172.193 381.746C174.265 382.356 177.105 381.146 178.914 380.387C179.559 382.788 179.588 385.849 179.529 386.314C179.454 386.884 175.033 388.733 170.44 388.243Z" fill="#184655"/>
<path d="M172.976 334.639C173.903 341.653 178.492 376.572 178.492 376.572L167.843 377.89C167.843 377.89 154.748 332.315 155.418 325.344C156.09 318.372 160.992 317.786 160.992 317.786C160.992 317.786 170.522 316.071 172.976 334.639Z" fill="#3C8F7C"/>
<path d="M160.748 269.922C163.891 268.742 165.428 297.058 165.851 308.712C171.416 309.247 181.116 308.716 183.532 308.535C184.667 308.448 187.286 307.49 188.416 307.342C189.575 307.191 190.624 307.112 191.193 307.211C191.401 307.247 197.201 309.62 197.697 310.139C198.315 310.783 199.977 312.412 199.695 313.116C199.414 313.82 196.497 311.155 196.497 311.155L195.07 310.354C196.845 312.089 200.233 314.373 199.745 315.205C199.268 316.017 196.215 313.699 194.036 312.118C195.904 313.804 198.224 316.825 197.69 317.295C197.211 317.718 194.57 314.222 191.75 313.216C190.703 312.844 189.661 313.877 188.84 314.001C188.235 314.092 187.303 314.287 186.709 314.119L183.656 313.253C182.615 313.348 182.589 313.964 181.538 314.187C180.319 314.446 178.318 314.72 176.764 315.099C167.82 317.285 164.837 318.299 162.098 318.297C153.803 318.293 153.321 272.709 160.748 269.922Z" fill="#F7A491"/>
<path d="M154.785 296.504C154.196 284.566 154.281 269.853 160.974 267.342C163.614 266.353 168.269 272.308 167.432 296.748C163.859 297.042 158.614 297.279 154.785 296.504Z" fill="#DD513A"/>
<path d="M192.224 291.374H191.542L181.287 316.576L181.993 316.469L192.224 291.374Z" fill="#F79C8D"/>
<path d="M207.508 376.118C207.508 376.118 206.581 379.097 208.242 381.066C209.907 383.036 216.821 384.97 217.728 386.037C218.636 387.104 218.567 388.011 218.567 388.011L199.162 387.477L199.374 381.617L200.268 377.406L207.508 376.118Z" fill="#F7A491"/>
<path d="M209.451 382.049C209.451 382.049 204.464 384.065 202.056 382.872C199.646 381.677 199.72 381.347 199.022 381.792C198.325 382.237 198.077 387.73 198.077 387.73L219.896 388.372C221.415 388.337 222.183 387.219 220.948 386.26C220.102 385.606 219.126 385.165 218.571 384.846C216.862 383.868 209.451 382.049 209.451 382.049Z" fill="#184655"/>
<path d="M206.773 323.54C208.274 320.384 211.684 316.274 217.686 318.749C223.409 321.11 224.947 326.911 223.139 332.851C221.334 338.793 209.444 373.715 209.03 378.517L199.539 378.579C199.539 378.579 201.262 350.928 201.685 344.244C202.092 337.812 204.177 329.002 206.773 323.54Z" fill="#3C8F7C"/>
<path d="M222.185 291.374H190.451C189.612 291.374 188.856 291.884 188.537 292.664L178.766 316.576H161.271C160.782 316.576 160.386 316.973 160.386 317.463C160.386 317.954 160.782 318.352 161.271 318.352H211.062C212.432 318.352 213.673 317.545 214.233 316.292L224.071 294.302C224.686 292.928 223.686 291.374 222.185 291.374Z" fill="black"/>
<path d="M205.1 305.299C204.885 306.373 203.951 307.092 203.013 306.904C202.077 306.716 201.49 305.693 201.705 304.618C201.919 303.544 202.854 302.825 203.789 303.013C204.728 303.202 205.314 304.226 205.1 305.299Z" fill="white"/>
<path d="M187.826 236.283C186.87 235.962 185.929 235.599 185.019 235.161C183.991 234.664 182.66 234.083 181.818 233.955C180.047 233.68 177.005 233.864 175.325 235.685C173.232 237.956 169.512 236.094 170.261 247.988C171.109 261.449 178.594 259.969 178.776 259.742C178.957 259.514 185.451 251.131 185.451 251.131C185.451 251.131 187.722 256.096 187.722 255.916C187.722 255.738 199.315 240.153 187.826 236.283Z" fill="#0E2E35"/>
<path d="M182.145 260.738L182.791 265.547C182.791 265.547 184.238 272.476 182.376 273.813C180.514 275.148 174.458 265.35 174.458 265.35L175.097 253.162L182.145 260.738Z" fill="#F7A491"/>
<path d="M174.891 257.11C176.429 261.269 180.092 263.822 182.692 264.814L182.145 260.738L175.097 253.162L174.891 257.11Z" fill="#F47458"/>
<path d="M181.762 239.899C185.707 239.262 189.247 242.436 189.147 246.385C189.106 248.103 188.964 250.246 188.608 252.554C187.75 258.106 183.962 262.995 181.456 262.56C178.952 262.123 172.65 257.334 173.76 249.431C174.444 244.554 177.621 240.567 181.762 239.899Z" fill="#F7A491"/>
<path d="M175.498 250.373C175.287 251.595 174.308 252.445 173.313 252.27C172.318 252.098 171.682 250.966 171.894 249.747C172.105 248.526 173.084 247.676 174.079 247.851C175.074 248.024 175.709 249.154 175.498 250.373Z" fill="#F7A491"/>
<path d="M174.079 247.851C174.079 247.851 177.107 248.603 178.231 246.656C179.355 244.706 183.373 240.503 188.482 242.247C193.592 243.989 183.987 238.009 183.578 238.009C183.169 238.009 178.265 237.975 178.265 237.975C178.265 237.975 174.484 241.085 174.348 241.426C174.212 241.766 173.123 245.494 173.123 245.494L174.079 247.851Z" fill="#0E2E35"/>
<path d="M179.619 255.977L185.129 257.031C185.129 257.031 184.604 259.107 182.167 258.712C179.195 258.234 179.619 255.977 179.619 255.977Z" fill="white"/>
<path d="M122.677 194.592L128.187 195.645C128.187 195.645 127.662 197.721 125.225 197.327C122.253 196.847 122.677 194.592 122.677 194.592Z" fill="white"/>
<path d="M568.913 363.7C564.104 364.133 559.353 365.018 554.683 366.245C546.165 368.484 537.972 371.791 529.909 375.305C525.945 377.034 521.955 378.738 518.066 380.632C516.249 381.517 514.419 382.405 512.746 383.54C510.489 385.07 506.965 388.135 506.538 388.619L508.388 388.675C509.655 387.643 514.298 383.722 520.745 380.617C536.02 373.258 551.888 365.712 568.924 363.839C569.013 363.828 569.002 363.69 568.913 363.7Z" fill="#3C8F7C"/>
</svg>
